<svg width="224" height="40" viewBox="0 0 224 40" fill="none" xmlns="http://www.w3.org/2000/svg">
<path d="M22.8538 0.497925V8.46473H16.2534C16.2534 8.71369 16.1709 8.96266 16.1709 9.12863C16.1709 9.37759 16.0884 9.54357 16.0884 9.79253L24.1738 13.6929L19.4711 19.834L12.7057 15.7676C11.5506 16.8465 10.2306 17.7593 8.74549 18.4232C7.26041 19.0871 5.61031 19.5851 3.87772 19.834L0 13.7759C1.32007 13.527 2.39263 13.195 3.30018 12.8631C4.20773 12.4481 4.95028 12.0332 5.52781 11.6183C6.10534 11.2033 6.51786 10.7054 6.76538 10.1245C7.01289 9.62656 7.1779 9.04564 7.26041 8.38174H1.48508V0.497925H22.8538ZM36.467 27.8838V26.473H4.53775V21.0788H46.0376V33.195H14.0258V34.6058H46.4501V40H4.53775V27.8838H36.467ZM27.5565 19.5021V11.0373L23.9263 12.0332V3.73444L27.474 2.73859V0H35.8895V19.5021H27.5565ZM45.9551 19.5021H37.4571V0H45.9551V19.5021Z" fill="#74AD5B"/>
<path d="M52.8855 7.96703V0.913086H88.1149V17.5106H62.3735V20.1662H88.5274V27.2201H75.2442V31.1206H90.3425V39.0874H50.6578V31.1206H65.7562V27.2201H52.8855V10.5396H78.5444V7.96703H52.8855Z" fill="#74AD5B"/>
<path d="M158.409 1.41091V9.37771H151.313V18.0084C151.313 19.0873 151.313 20.1661 151.231 21.1619C151.148 22.1578 150.983 23.2366 150.818 24.1495L159.481 32.3653L154.119 39.0043L147.601 32.6142C146.611 34.025 145.373 35.2698 143.888 36.3487C142.403 37.4275 140.588 38.3404 138.525 39.0873L134.4 32.1163C135.968 31.4524 137.288 30.7055 138.36 29.8756C139.35 29.0458 140.175 28.0499 140.835 26.8881C141.413 25.7263 141.908 24.4814 142.155 22.9877C142.403 21.5769 142.485 19.9171 142.485 18.0084V9.29473H136.133V1.41091H158.409ZM160.801 39.5022V21.4109L155.274 23.3196V14.5229L160.801 12.6142V0.498047H169.712V39.5852H160.801V39.5022ZM180.603 39.5022H171.692V0.498047H180.603V39.5022Z" fill="#74AD5B"/>
<path d="M185.8 9.29473V1.41091H210.057V24.3155H195.288V31.1205H210.964V39.0873H185.8V16.3487H200.569V9.29473H185.8ZM224 39.5022H214.512V0.498047H224V39.5022Z" fill="#74AD5B"/>
<path d="M129.285 11.5353C128.79 10.7054 127.305 8.54773 124.829 6.72201C125.077 6.30707 125.325 5.80914 125.49 5.31122C125.902 4.14939 126.067 3.07055 125.985 2.0747C125.82 1.07885 125.407 0.414952 124.829 0.165989C124.252 -0.0829736 123.427 0.165989 122.684 0.829889C121.942 1.49379 121.364 2.40665 120.952 3.56848C120.869 3.81744 120.787 4.14939 120.704 4.39835C120.622 4.31537 120.457 4.31537 120.374 4.23238C118.559 3.65147 116.909 3.4025 115.919 3.31952C113.444 3.07055 110.969 3.15354 108.494 3.56848C108.081 3.65147 106.843 3.90043 105.688 4.23238C105.606 4.23238 105.523 4.31537 105.441 4.31537C105.358 4.0664 105.276 3.81744 105.193 3.56848C104.781 2.48964 104.121 1.49379 103.378 0.829889C102.636 0.165989 101.893 -0.0829736 101.233 0.165989C100.573 0.414952 100.161 1.07885 100.078 2.0747C99.9956 2.98757 100.161 4.14939 100.573 5.31122C100.738 5.80914 100.986 6.22408 101.233 6.63902C98.593 8.71371 97.0254 11.0374 96.6954 11.5353C96.2829 12.1992 92.5702 18.4233 94.5503 25.4772C94.7978 26.473 95.6228 29.2116 97.933 31.7842C99.0055 32.9461 100.326 33.9419 101.728 34.7718C101.316 36.0996 101.646 37.3444 102.553 38.0083C102.966 38.2573 103.378 38.4232 103.873 38.4232C104.946 38.4232 106.101 37.8423 106.843 36.6805C106.843 36.5975 106.926 36.5975 106.926 36.5145C107.008 36.5145 107.173 36.5975 107.339 36.5975C107.421 38.5062 108.659 39.917 110.061 39.917C111.381 39.917 112.454 38.7552 112.784 37.0954H113.196C113.444 38.7552 114.599 39.917 115.919 39.917C117.404 39.917 118.642 38.4232 118.642 36.5975V36.5145V36.3486C118.724 36.3486 118.807 36.3486 118.889 36.2656L118.972 36.4315C118.972 36.4315 118.972 36.5145 119.054 36.5145C119.054 36.5975 119.137 36.6805 119.219 36.6805C119.962 37.7593 121.117 38.4232 122.189 38.4232C122.684 38.4232 123.097 38.2573 123.509 38.0083C124.169 37.5934 124.499 36.7635 124.499 35.8506C124.499 35.5187 124.417 35.1037 124.334 34.6888C125.325 34.1909 126.727 33.195 128.047 31.7842C129.202 30.4564 130.027 29.1286 130.522 27.9668C131.017 26.805 131.265 25.8921 131.43 25.3942C133.327 18.3403 129.697 12.1992 129.285 11.5353ZM120.374 24.1494C119.962 25.1452 119.467 26.0581 118.807 26.722C118.147 27.4689 117.322 28.0498 116.332 28.4647C115.341 28.8797 114.269 29.1286 113.031 29.1286C111.794 29.1286 110.639 28.8797 109.731 28.4647C108.741 28.0498 107.916 27.4689 107.256 26.722C106.596 25.9751 106.018 25.1452 105.688 24.1494C105.358 23.1535 105.193 22.0747 105.193 20.9129C105.193 19.7511 105.358 18.5892 105.688 17.5934C106.018 16.5975 106.596 15.6847 107.256 14.9378C107.916 14.1909 108.741 13.61 109.731 13.195C110.721 12.7801 111.794 12.5311 113.031 12.5311C114.269 12.5311 115.341 12.7801 116.332 13.112C117.322 13.527 118.147 14.1079 118.807 14.8548C119.467 15.6017 120.044 16.5145 120.374 17.5104C120.787 18.5062 120.952 19.6681 120.952 20.8299C120.952 22.0747 120.787 23.1535 120.374 24.1494Z" fill="#74AD5B"/>
</svg>
