<svg width="224" height="40" viewBox="0 0 224 40" fill="none" xmlns="http://www.w3.org/2000/svg">
<path d="M22.8538 0.497925V8.46473H16.2534C16.2534 8.71369 16.1709 8.96266 16.1709 9.12863C16.1709 9.37759 16.0884 9.54357 16.0884 9.79253L24.1738 13.6929L19.4711 19.834L12.7057 15.7676C11.5506 16.8465 10.2306 17.7593 8.74549 18.4232C7.26041 19.0871 5.61031 19.5851 3.87772 19.834L0 13.7759C1.32007 13.527 2.39263 13.195 3.30018 12.8631C4.20774 12.4481 4.95028 12.0332 5.52781 11.6183C6.10534 11.2033 6.51786 10.7054 6.76538 10.1245C7.01289 9.62656 7.1779 9.04564 7.26041 8.38174H1.48508V0.497925H22.8538ZM36.467 27.8838V26.473H4.53775V21.0788H46.0376V33.195H14.0258V34.6058H46.4501V40H4.53775V27.8838H36.467ZM27.5565 19.5021V11.0373L23.9263 12.0332V3.73444L27.474 2.73859V0H35.8895V19.5021H27.5565ZM45.9551 19.5021H37.4571V0H45.9551V19.5021Z" fill="#74AD5B"/>
<path d="M52.8855 7.96681V0.912865H88.1149V17.5104H62.3735V20.166H88.5275V27.2199H75.2442V31.1203H90.3425V39.0871H50.6578V31.1203H65.7562V27.2199H52.8855V10.5394H78.5444V7.96681H52.8855Z" fill="#74AD5B"/>
<path d="M158.409 1.41079V9.37759H151.313V18.0083C151.313 19.0871 151.313 20.166 151.231 21.1618C151.148 22.1577 150.983 23.2365 150.818 24.1494L159.481 32.3651L154.119 39.0042L147.601 32.6141C146.611 34.0249 145.373 35.2697 143.888 36.3485C142.403 37.4274 140.588 38.3402 138.525 39.0871L134.4 32.1162C135.968 31.4523 137.288 30.7054 138.36 29.8755C139.35 29.0456 140.175 28.0498 140.835 26.888C141.413 25.7261 141.908 24.4813 142.155 22.9876C142.403 21.5768 142.485 19.917 142.485 18.0083V9.29461H136.133V1.41079H158.409ZM160.801 39.5021V21.4108L155.274 23.3195V14.5228L160.801 12.6141V0.497925H169.712V39.5851H160.801V39.5021ZM180.603 39.5021H171.692V0.497925H180.603V39.5021Z" fill="#74AD5B"/>
<path d="M185.8 9.29461V1.41079H210.057V24.3154H195.288V31.1203H210.964V39.0871H185.8V16.3485H200.569V9.29461H185.8ZM224 39.5021H214.512V0.497925H224V39.5021Z" fill="#74AD5B"/>
<path d="M129.285 11.5353C128.79 10.7054 127.305 8.54772 124.829 6.72199C125.077 6.30705 125.325 5.80913 125.49 5.3112C125.902 4.14938 126.067 3.07054 125.985 2.07469C125.82 1.07884 125.407 0.414936 124.829 0.165974C124.252 -0.0829889 123.427 0.165974 122.684 0.829874C121.942 1.49377 121.364 2.40664 120.952 3.56846C120.869 3.81743 120.787 4.14938 120.704 4.39834C120.622 4.31535 120.457 4.31535 120.374 4.23236C118.559 3.65145 116.909 3.40249 115.919 3.3195C113.444 3.07054 110.969 3.15353 108.494 3.56846C108.081 3.65145 106.843 3.90041 105.688 4.23236C105.606 4.23236 105.523 4.31535 105.441 4.31535C105.358 4.06639 105.276 3.81743 105.193 3.56846C104.781 2.48963 104.121 1.49377 103.378 0.829874C102.636 0.165974 101.893 -0.0829889 101.233 0.165974C100.573 0.414936 100.161 1.07884 100.078 2.07469C99.9956 2.98755 100.161 4.14938 100.573 5.3112C100.738 5.80913 100.986 6.22406 101.233 6.639C98.593 8.71369 97.0254 11.0373 96.6954 11.5353C96.2829 12.1992 92.5702 18.4232 94.5503 25.4772C94.7978 26.473 95.6228 29.2116 97.933 31.7842C99.0055 32.9461 100.326 33.9419 101.728 34.7718C101.316 36.0996 101.646 37.3444 102.553 38.0083C102.966 38.2573 103.378 38.4232 103.873 38.4232C104.946 38.4232 106.101 37.8423 106.843 36.6805C106.843 36.5975 106.926 36.5975 106.926 36.5145C107.008 36.5145 107.174 36.5975 107.339 36.5975C107.421 38.5062 108.659 39.917 110.061 39.917C111.381 39.917 112.454 38.7552 112.784 37.0954H113.196C113.444 38.7552 114.599 39.917 115.919 39.917C117.404 39.917 118.642 38.4232 118.642 36.5975V36.5145V36.3485C118.724 36.3485 118.807 36.3485 118.889 36.2656L118.972 36.4315C118.972 36.4315 118.972 36.5145 119.054 36.5145C119.054 36.5975 119.137 36.6805 119.219 36.6805C119.962 37.7593 121.117 38.4232 122.189 38.4232C122.684 38.4232 123.097 38.2573 123.509 38.0083C124.169 37.5934 124.499 36.7635 124.499 35.8506C124.499 35.5187 124.417 35.1037 124.334 34.6888C125.325 34.1909 126.727 33.195 128.047 31.7842C129.202 30.4564 130.027 29.1286 130.522 27.9668C131.017 26.805 131.265 25.8921 131.43 25.3942C133.327 18.3402 129.697 12.1992 129.285 11.5353ZM120.374 24.1494C119.962 25.1452 119.467 26.0581 118.807 26.722C118.147 27.4689 117.322 28.0498 116.332 28.4647C115.341 28.8797 114.269 29.1286 113.031 29.1286C111.794 29.1286 110.639 28.8797 109.731 28.4647C108.741 28.0498 107.916 27.4689 107.256 26.722C106.596 25.9751 106.018 25.1452 105.688 24.1494C105.358 23.1535 105.193 22.0747 105.193 20.9129C105.193 19.751 105.358 18.5892 105.688 17.5934C106.018 16.5975 106.596 15.6846 107.256 14.9378C107.916 14.1909 108.741 13.61 109.731 13.195C110.721 12.7801 111.794 12.5311 113.031 12.5311C114.269 12.5311 115.341 12.7801 116.332 13.112C117.322 13.527 118.147 14.1079 118.807 14.8548C119.467 15.6017 120.044 16.5145 120.374 17.5104C120.787 18.5062 120.952 19.668 120.952 20.8299C120.952 22.0747 120.787 23.1535 120.374 24.1494Z" fill="#74AD5B"/>
</svg>
