<svg width="38" height="40" viewBox="0 0 38 40" fill="none" xmlns="http://www.w3.org/2000/svg">
<path d="M35.3121 11.464C34.817 10.6341 33.332 8.47644 30.8568 6.65072C31.1043 6.23578 31.3519 5.73785 31.5169 5.23993C31.9294 4.0781 32.0944 2.99926 32.0119 2.00341C31.8469 1.00756 31.4344 0.343663 30.8568 0.0947C30.2793 -0.154263 29.4542 0.0947 28.7117 0.7586C27.9692 1.4225 27.3916 2.33536 26.9791 3.49719C26.8966 3.74615 26.8141 4.0781 26.7316 4.32707C26.6491 4.24408 26.4841 4.24408 26.4016 4.16109C24.5865 3.58018 22.9364 3.33121 21.9463 3.24823C19.4712 2.99926 16.9961 3.08225 14.5209 3.49719C14.1084 3.58018 12.8708 3.82914 11.7158 4.16109C11.6333 4.16109 11.5507 4.24408 11.4682 4.24408C11.3857 3.99511 11.3032 3.74615 11.2207 3.49719C10.8082 2.41835 10.1482 1.4225 9.40563 0.7586C8.66309 0.0947 7.92054 -0.154263 7.26051 0.0947C6.60047 0.343663 6.18795 1.00756 6.10545 2.00341C6.02294 2.91628 6.18795 4.0781 6.60047 5.23993C6.76548 5.73785 7.01299 6.15279 7.26051 6.56773C4.62036 8.64242 3.05277 10.9661 2.72275 11.464C2.31023 12.1279 -1.40248 18.352 0.577634 25.4059C0.825148 26.4018 1.65019 29.1403 3.96032 31.713C5.03288 32.8748 6.35296 33.8706 7.75554 34.7005C7.34302 36.0283 7.67303 37.2731 8.58058 37.937C8.99311 38.186 9.40563 38.352 9.90066 38.352C10.9732 38.352 12.1283 37.771 12.8708 36.6092C12.8708 36.5262 12.9533 36.5262 12.9533 36.4432C13.0358 36.4432 13.2008 36.5262 13.3659 36.5262C13.4484 38.4349 14.6859 39.8457 16.0885 39.8457C17.4086 39.8457 18.4811 38.6839 18.8111 37.0242H19.2237C19.4712 38.6839 20.6263 39.8457 21.9463 39.8457C23.4314 39.8457 24.669 38.352 24.669 36.5262V36.4432V36.2773C24.7515 36.2773 24.834 36.2773 24.9165 36.1943L24.999 36.3603C24.999 36.3603 24.999 36.4432 25.0815 36.4432C25.0815 36.5262 25.164 36.6092 25.2465 36.6092C25.9891 37.6881 27.1441 38.352 28.2167 38.352C28.7117 38.352 29.1242 38.186 29.5367 37.937C30.1968 37.5221 30.5268 36.6922 30.5268 35.7793C30.5268 35.4474 30.4443 35.0325 30.3618 34.6175C31.3518 34.1196 32.7544 33.1237 34.0745 31.713C35.2296 30.3852 36.0546 29.0574 36.5496 27.8955C37.0447 26.7337 37.2922 25.8208 37.4572 25.3229C39.3548 18.269 35.7246 12.1279 35.3121 11.464ZM26.4016 24.0781C25.989 25.074 25.494 25.9868 24.834 26.6507C24.174 27.3976 23.3489 27.9785 22.3588 28.3935C21.3688 28.8084 20.2962 29.0574 19.0587 29.0574C17.8211 29.0574 16.666 28.8084 15.7585 28.3935C14.7684 27.9785 13.9434 27.3976 13.2833 26.6507C12.6233 25.9038 12.0458 25.074 11.7158 24.0781C11.3857 23.0823 11.2207 22.0034 11.2207 20.8416C11.2207 19.6798 11.3857 18.5179 11.7158 17.5221C12.0458 16.5262 12.6233 15.6134 13.2833 14.8665C13.9434 14.1196 14.7684 13.5387 15.7585 13.1237C16.7485 12.7088 17.8211 12.4598 19.0587 12.4598C20.2962 12.4598 21.3688 12.7088 22.3588 13.0408C23.3489 13.4557 24.174 14.0366 24.834 14.7835C25.494 15.5304 26.0716 16.4432 26.4016 17.4391C26.8141 18.4349 26.9791 19.5968 26.9791 20.7586C26.9791 22.0034 26.8141 23.0823 26.4016 24.0781Z" fill="#74AD5B"/>
</svg>
