<svg width="300" height="400" viewBox="0 0 300 400" fill="none" xmlns="http://www.w3.org/2000/svg">
<rect width="300" height="400" rx="20" fill="#FFFCD7"/>
<path d="M90.9867 67.15V71.25H106.312V74.275H87.0617V67.15H90.9867ZM86.0117 56.175V53.125H98.2367V65.4H94.3117V56.175H86.0117ZM106.062 52.875V67.8H102.137V60.175L98.9867 60.9V57.775L102.137 57.05V52.875H106.062ZM119.722 74.775C118.222 74.775 116.872 74.6833 115.672 74.5C114.489 74.3167 113.481 74.0333 112.647 73.65C111.831 73.2667 111.206 72.7917 110.772 72.225C110.339 71.6583 110.122 70.9833 110.122 70.2C110.122 69.4333 110.339 68.7667 110.772 68.2C111.206 67.6167 111.831 67.1417 112.647 66.775C113.481 66.3917 114.489 66.1083 115.672 65.925C116.872 65.7417 118.222 65.65 119.722 65.65C121.222 65.65 122.564 65.7417 123.747 65.925C124.947 66.1083 125.956 66.3917 126.772 66.775C127.606 67.1417 128.239 67.6167 128.672 68.2C129.106 68.7667 129.322 69.4333 129.322 70.2C129.322 70.9833 129.106 71.6583 128.672 72.225C128.239 72.7917 127.606 73.2667 126.772 73.65C125.956 74.0333 124.947 74.3167 123.747 74.5C122.564 74.6833 121.222 74.775 119.722 74.775ZM109.522 56.175V53.125H121.747V64.4H117.822V56.175H109.522ZM128.822 59.85V65.025H124.897V52.875H128.822V56.8H130.997V59.85H128.822ZM119.722 71.725C121.506 71.725 122.897 71.6083 123.897 71.375C124.897 71.1417 125.397 70.75 125.397 70.2C125.397 69.65 124.897 69.2583 123.897 69.025C122.897 68.7917 121.506 68.675 119.722 68.675C117.939 68.675 116.547 68.7917 115.547 69.025C114.547 69.2583 114.047 69.65 114.047 70.2C114.047 70.75 114.547 71.1417 115.547 71.375C116.547 71.6083 117.939 71.725 119.722 71.725ZM139.258 57.55C141.425 57.55 143.042 57.9333 144.108 58.7C145.192 59.4667 145.733 60.5667 145.733 62C145.733 63.4667 145.192 64.575 144.108 65.325C143.042 66.0583 141.425 66.425 139.258 66.425C137.125 66.425 135.517 66.0583 134.433 65.325C133.367 64.575 132.833 63.4667 132.833 62C132.833 60.5667 133.367 59.4667 134.433 58.7C135.517 57.9333 137.125 57.55 139.258 57.55ZM138.008 67.65V71.25H152.583V74.275H134.083V67.65H138.008ZM152.333 61.35V68.55H148.408V52.875H152.333V58.3H154.508V61.35H152.333ZM141.233 53.625H146.333V56.675H132.208V53.625H137.308V51.8H141.233V53.625ZM139.258 60.2C138.575 60.2 137.983 60.3333 137.483 60.6C137 60.8667 136.758 61.3333 136.758 62C136.758 62.65 137 63.1167 137.483 63.4C137.967 63.6667 138.558 63.8 139.258 63.8C139.592 63.8 139.908 63.7667 140.208 63.7C140.525 63.6333 140.8 63.5333 141.033 63.4C141.267 63.25 141.45 63.0667 141.583 62.85C141.733 62.6167 141.808 62.3333 141.808 62C141.808 61.6667 141.733 61.3917 141.583 61.175C141.45 60.9417 141.258 60.7583 141.008 60.625C140.775 60.475 140.5 60.3667 140.183 60.3C139.883 60.2333 139.575 60.2 139.258 60.2ZM161.975 57.7C161.975 56.1833 162.6 55.0083 163.85 54.175C165.1 53.325 166.85 52.9 169.1 52.9C170.883 52.9 172.35 53.1667 173.5 53.7C174.666 54.2333 175.466 55 175.9 56L178.675 55.375V52.875H182.6V69.275H178.675V58.5L176.025 59.1C175.675 60.2 174.9 61.0417 173.7 61.625C172.5 62.2083 170.966 62.5 169.1 62.5C166.85 62.5 165.1 62.0833 163.85 61.25C162.6 60.4 161.975 59.2167 161.975 57.7ZM166.7 68.15V71.25H182.85V74.275H162.775V68.15H166.7ZM167.45 69.575V66.9H161.6V63.85H177.2V66.9H171.375V69.575H167.45ZM165.9 57.7C165.9 57.9833 165.991 58.2417 166.175 58.475C166.358 58.6917 166.6 58.875 166.9 59.025C167.2 59.175 167.541 59.2917 167.925 59.375C168.308 59.4417 168.7 59.475 169.1 59.475C169.5 59.475 169.891 59.4333 170.275 59.35C170.675 59.2667 171.025 59.15 171.325 59C171.641 58.85 171.891 58.6667 172.075 58.45C172.258 58.2333 172.35 57.9833 172.35 57.7C172.35 57.15 172.041 56.7167 171.425 56.4C170.825 56.0833 170.05 55.925 169.1 55.925C168.166 55.925 167.4 56.075 166.8 56.375C166.2 56.675 165.9 57.1167 165.9 57.7ZM185.736 70.725H189.961V67.35H186.961V58.825H201.961V56.425H186.961V53.375H205.886V61.875H190.886V64.3H206.136V67.35H202.386V70.725H206.611V73.775H185.736V70.725ZM193.886 70.725H198.461V67.35H193.886V70.725ZM210.321 68.5V53.075H214.246V68.5H210.321ZM210.321 74.275V70.6H214.246V74.275H210.321Z" fill="#333333"/>
<path d="M96.75 315.219V319.672H99.3672V320.98H96.75V325.316H95.2266V315.219H96.75ZM87.2969 326.078V327.934H95.2266V326.078H96.75V332.348H85.7734V326.078H87.2969ZM87.2969 331.117H95.2266V329.145H87.2969V331.117ZM93.5664 317.016V318.285H83.2148V317.016H87.6289V315.062H89.1523V317.016H93.5664ZM88.3906 319.086C90.8906 319.086 92.5508 320.277 92.5703 322.133C92.5508 323.988 90.8906 325.18 88.3906 325.18C85.8711 325.18 84.1914 323.988 84.2109 322.133C84.1914 320.277 85.8711 319.086 88.3906 319.086ZM88.3906 320.277C86.75 320.258 85.6562 321.02 85.6758 322.133C85.6562 323.266 86.75 324.008 88.3906 324.008C90.0117 324.008 91.1055 323.266 91.125 322.133C91.1055 321.02 90.0117 320.258 88.3906 320.277ZM106.438 317.953C106.418 320.434 108.176 322.621 110.734 323.48L109.875 324.672C107.961 323.949 106.457 322.543 105.715 320.707C104.963 322.787 103.371 324.408 101.281 325.199L100.441 323.949C103.117 323.012 104.895 320.707 104.914 318.012V316.215H106.438V317.953ZM114.855 315.219V325.512H113.312V320.219H109.445V318.949H113.312V315.219H114.855ZM109.094 326.02C112.707 326.02 114.914 327.211 114.914 329.301C114.914 331.371 112.707 332.543 109.094 332.543C105.48 332.543 103.273 331.371 103.273 329.301C103.273 327.211 105.48 326.02 109.094 326.02ZM109.094 327.23C106.438 327.23 104.777 328.012 104.797 329.301C104.777 330.551 106.438 331.312 109.094 331.312C111.75 331.312 113.391 330.551 113.391 329.301C113.391 328.012 111.75 327.23 109.094 327.23ZM128.684 318.91C128.684 321.078 130.559 322.934 133.117 323.676L132.414 324.887C130.363 324.281 128.742 322.992 127.961 321.293C127.199 323.129 125.588 324.545 123.527 325.219L122.766 324.027C125.344 323.246 127.18 321.215 127.18 318.91V318.52H123.254V317.289H127.18V315.141H128.723V317.289H132.609V318.52H128.684V318.91ZM137.16 315.219V325.512H135.617V321.371H132.102V320.102H135.617V315.219H137.16ZM137.16 326.41V332.348H125.812V326.41H137.16ZM127.336 327.66V331.098H135.656V327.66H127.336ZM153.488 315.219V322.289H156.301V323.578H153.488V332.582H151.965V315.219H153.488ZM148.996 317.094C148.996 322.016 146.691 326.488 141.027 329.281L140.168 328.07C144.66 325.834 147.102 322.494 147.453 318.383H140.969V317.094H148.996ZM173.156 322.562V323.812H165.988V325.531H171.125V329.418H160.812V331.176H171.652V332.387H159.289V328.266H169.621V326.723H159.25V325.531H164.465V323.812H157.336V322.562H173.156ZM171.105 315.805V321.098H159.387V315.805H171.105ZM160.91 317.035V319.867H169.582V317.035H160.91ZM183.098 325.414V327.582H186.262V325.414H187.688V332.348H181.652V325.414H183.098ZM183.098 331.137H186.262V328.754H183.098V331.137ZM192.648 326.781C192.629 328.617 193.723 330.531 195.852 331.312L195.051 332.484C193.449 331.84 192.395 330.619 191.867 329.164C191.311 330.59 190.256 331.82 188.723 332.484L187.922 331.312C190.012 330.453 191.125 328.539 191.125 326.781V325.297H192.648V326.781ZM184.426 316C186.75 316 188.527 317.318 188.859 319.32H192.492V315.219H194.035V324.418H192.492V320.59H188.879C188.566 322.641 186.779 323.988 184.426 323.988C181.789 323.988 179.914 322.367 179.914 319.984C179.914 317.621 181.789 316 184.426 316ZM184.426 317.289C182.648 317.289 181.379 318.402 181.379 319.984C181.379 321.586 182.648 322.719 184.426 322.719C186.184 322.719 187.434 321.586 187.434 319.984C187.434 318.402 186.184 317.289 184.426 317.289ZM211.242 315.219V332.621H209.699V315.219H211.242ZM202.004 316.566C204.582 316.586 206.438 318.93 206.438 322.621C206.438 326.312 204.582 328.656 202.004 328.656C199.406 328.656 197.57 326.312 197.57 322.621C197.57 318.93 199.406 316.586 202.004 316.566ZM202.004 317.934C200.266 317.953 199.055 319.789 199.055 322.621C199.055 325.453 200.266 327.289 202.004 327.289C203.742 327.289 204.953 325.453 204.953 322.621C204.953 319.789 203.742 317.953 202.004 317.934ZM80.4121 346.551C80.3926 349.344 82.4043 352.41 84.9238 353.602L84.0449 354.812C82.0918 353.865 80.4414 351.795 79.6699 349.441C78.8691 352 77.1211 354.246 75.1777 355.242L74.2402 354.031C76.7402 352.82 78.8887 349.52 78.9082 346.551V344.285H74.8652V343.016H84.3184V344.285H80.4121V346.551ZM87.9707 341.219V348.25H90.8809V349.559H87.9707V358.582H86.4473V341.219H87.9707ZM106.213 341.238V354.07H104.67V349.383H100.178C99.377 350.408 98.0879 351.023 96.6035 351.023C94.0059 351.023 92.0918 349.227 92.0918 346.688C92.0918 344.148 94.0059 342.352 96.6035 342.332C98.0781 342.342 99.3379 342.947 100.158 343.953H104.67V341.238H106.213ZM106.701 356.922V358.211H95.0605V352.723H96.6035V356.922H106.701ZM96.6035 343.699C94.8262 343.719 93.5566 344.949 93.5566 346.688C93.5566 348.426 94.8262 349.656 96.6035 349.656C98.3027 349.656 99.6113 348.426 99.6113 346.688C99.6113 344.949 98.3027 343.719 96.6035 343.699ZM100.861 345.223C101.008 345.672 101.096 346.16 101.096 346.688C101.096 347.195 101.008 347.674 100.861 348.113H104.67V345.223H100.861ZM130.002 351.121V352.391H125.803V358.582H124.26V352.391H119.807V358.582H118.225V352.391H114.104V351.121H130.002ZM122.014 341.922C125.666 341.922 128.127 343.387 128.127 345.711C128.127 348.016 125.666 349.48 122.014 349.461C118.361 349.48 115.9 348.016 115.9 345.711C115.9 343.387 118.361 341.922 122.014 341.922ZM122.014 343.172C119.299 343.172 117.463 344.168 117.482 345.711C117.463 347.254 119.299 348.23 122.014 348.23C124.709 348.23 126.564 347.254 126.564 345.711C126.564 344.168 124.709 343.172 122.014 343.172ZM138.498 343.113V349.188H133.479V353.133C135.471 353.123 137.355 353.035 139.611 352.664L139.748 353.914C137.287 354.344 135.314 354.422 133.127 354.422H131.994V347.918H137.014V344.402H131.955V343.113H138.498ZM146.252 341.219V358.582H144.787V349.363H142.229V357.684H140.822V341.609H142.229V348.094H144.787V341.219H146.252ZM159.689 343.953C159.67 346.434 161.428 348.621 163.986 349.48L163.127 350.672C161.213 349.949 159.709 348.543 158.967 346.707C158.215 348.787 156.623 350.408 154.533 351.199L153.693 349.949C156.369 349.012 158.146 346.707 158.166 344.012V342.215H159.689V343.953ZM168.107 341.219V351.512H166.564V346.219H162.697V344.949H166.564V341.219H168.107ZM162.346 352.02C165.959 352.02 168.166 353.211 168.166 355.301C168.166 357.371 165.959 358.543 162.346 358.543C158.732 358.543 156.525 357.371 156.525 355.301C156.525 353.211 158.732 352.02 162.346 352.02ZM162.346 353.23C159.689 353.23 158.029 354.012 158.049 355.301C158.029 356.551 159.689 357.312 162.346 357.312C165.002 357.312 166.643 356.551 166.643 355.301C166.643 354.012 165.002 353.23 162.346 353.23ZM186.877 350.418V351.668H179.807V355.066H178.283V351.668H170.979V350.418H186.877ZM185.1 356.922V358.211H173.01V353.465H174.533V356.922H185.1ZM174.631 341.785V344.012H183.225V341.785H184.748V348.719H173.107V341.785H174.631ZM174.631 347.469H183.225V345.184H174.631V347.469ZM199.123 345.887C199.123 348.953 201.154 352.098 203.615 353.309L202.678 354.539C200.764 353.533 199.162 351.482 198.4 349.07C197.619 351.639 195.979 353.826 194.025 354.871L193.049 353.641C195.588 352.391 197.6 349.051 197.619 345.887V342.723H199.123V345.887ZM206.74 341.219V348.27H209.65V349.598H206.74V358.582H205.217V341.219H206.74ZM226.408 349.812V351.082H210.588V349.812H214.514V347.371C213.127 346.834 212.346 345.945 212.346 344.773C212.346 342.723 214.689 341.551 218.498 341.551C222.268 341.551 224.631 342.723 224.631 344.773C224.631 345.936 223.859 346.824 222.482 347.352V349.812H226.408ZM218.498 352.41C222.229 352.41 224.455 353.484 224.475 355.477C224.455 357.449 222.229 358.543 218.498 358.543C214.729 358.543 212.502 357.449 212.502 355.477C212.502 353.484 214.729 352.41 218.498 352.41ZM218.498 353.582C215.705 353.602 214.045 354.285 214.064 355.477C214.045 356.648 215.705 357.352 218.498 357.352C221.252 357.352 222.932 356.648 222.932 355.477C222.932 354.285 221.252 353.602 218.498 353.582ZM218.498 342.762C215.666 342.762 213.908 343.523 213.928 344.773C213.908 346.043 215.666 346.785 218.498 346.785C221.311 346.785 223.068 346.043 223.068 344.773C223.068 343.523 221.311 342.762 218.498 342.762ZM216.037 349.812H220.959V347.781C220.227 347.908 219.406 347.977 218.498 347.977C217.59 347.977 216.77 347.908 216.037 347.781V349.812Z" fill="#333333"/>
<g clip-path="url(#clip0_154_129)">
<path d="M150.5 264.5C183.085 264.5 209.5 238.085 209.5 205.5C209.5 172.915 183.085 146.5 150.5 146.5C117.915 146.5 91.5 172.915 91.5 205.5C91.5 238.085 117.915 264.5 150.5 264.5Z" fill="white" stroke="#458538" stroke-width="5" stroke-miterlimit="10"/>
<path d="M150.1 178.4C150.1 178.4 151.3 176.2 151.6 169.9C151.9 163.6 149.8 155.9 149.8 155.9C149.8 155.9 150.2 154 153.3 153.8C156.3 153.6 157.1 155.2 157.1 155.2C157.1 155.2 157.9 161.3 157.2 166.4C156.5 171.5 153.5 178.3 153.5 178.3L150.9 180.3L149.9 178.7L150.1 178.4Z" fill="#B4D898" stroke="#458538" stroke-width="3" stroke-miterlimit="10"/>
<path d="M168.22 179.122C175.442 174.735 179.438 168.118 177.144 164.342C174.851 160.566 167.137 161.06 159.915 165.446C152.692 169.833 148.697 176.45 150.991 180.226C153.284 184.003 160.998 183.508 168.22 179.122Z" fill="#458538"/>
<path d="M146.605 216.535C148.38 207.315 142.345 198.401 133.125 196.626C123.906 194.851 114.992 200.885 113.217 210.105C111.441 219.325 117.476 228.239 126.696 230.014C135.916 231.789 144.829 225.755 146.605 216.535Z" fill="#B4D898" stroke="#458538" stroke-width="3" stroke-miterlimit="10"/>
<path d="M172.433 237.728C174.209 228.508 168.174 219.594 158.954 217.819C149.734 216.043 140.821 222.078 139.045 231.298C137.27 240.518 143.305 249.431 152.525 251.207C161.744 252.982 170.658 246.947 172.433 237.728Z" fill="#B4D898" stroke="#458538" stroke-width="3" stroke-miterlimit="10"/>
<path d="M183.197 218.246C184.909 209.352 179.087 200.753 170.193 199.04C161.299 197.327 152.7 203.149 150.987 212.044C149.274 220.938 155.096 229.537 163.99 231.25C172.885 232.962 181.484 227.141 183.197 218.246Z" fill="#B4D898" stroke="#458538" stroke-width="3" stroke-miterlimit="10"/>
<path d="M152.681 192.146C154.456 182.926 148.422 174.012 139.202 172.237C129.982 170.461 121.068 176.496 119.293 185.716C117.518 194.936 123.552 203.849 132.772 205.625C141.992 207.4 150.906 201.365 152.681 192.146Z" fill="#B4D898" stroke="#458538" stroke-width="3" stroke-miterlimit="10"/>
<path d="M178.981 196.374C180.756 187.154 174.722 178.241 165.502 176.465C156.282 174.69 147.368 180.725 145.593 189.945C143.818 199.165 149.853 208.078 159.072 209.853C168.292 211.629 177.206 205.594 178.981 196.374Z" fill="#B4D898" stroke="#458538" stroke-width="3" stroke-miterlimit="10"/>
<path d="M155.26 240.502C156.993 231.499 151.1 222.795 142.097 221.062C133.095 219.328 124.391 225.221 122.657 234.224C120.924 243.227 126.816 251.93 135.819 253.664C144.822 255.398 153.526 249.505 155.26 240.502Z" fill="#B4D898" stroke="#458538" stroke-width="3" stroke-miterlimit="10"/>
<path d="M161.903 216.945C163.679 207.725 157.644 198.812 148.424 197.036C139.204 195.261 130.291 201.296 128.515 210.515C126.74 219.735 132.775 228.649 141.994 230.424C151.214 232.2 160.128 226.165 161.903 216.945Z" fill="#B4D898" stroke="#458538" stroke-width="3" stroke-miterlimit="10"/>
</g>
<defs>
<clipPath id="clip0_154_129">
<rect width="123" height="123" fill="white" transform="translate(89 144)"/>
</clipPath>
</defs>
</svg>
