<svg width="300" height="400" viewBox="0 0 300 400" fill="none" xmlns="http://www.w3.org/2000/svg">
<rect width="300" height="400" rx="20" fill="#FFFCD7"/>
<path d="M65.222 58.15C65.472 57.4333 65.8303 56.7917 66.297 56.225C66.7636 55.6583 67.3053 55.1833 67.922 54.8C68.5553 54.4167 69.247 54.125 69.997 53.925C70.7636 53.7083 71.5636 53.6 72.397 53.6C73.497 53.6 74.497 53.75 75.397 54.05C76.3136 54.3333 77.097 54.7333 77.747 55.25C78.397 55.75 78.9053 56.35 79.272 57.05C79.6386 57.7333 79.822 58.475 79.822 59.275C79.822 60.2917 79.5803 61.1917 79.097 61.975C78.6303 62.7583 77.922 63.3167 76.972 63.65C77.922 63.9667 78.722 64.5167 79.372 65.3C80.0386 66.0667 80.372 67.0333 80.372 68.2C80.372 69.1333 80.172 69.975 79.772 70.725C79.3886 71.475 78.8386 72.1083 78.122 72.625C77.422 73.1583 76.5803 73.5583 75.597 73.825C74.6136 74.1083 73.5386 74.25 72.372 74.25C71.5386 74.25 70.7303 74.1583 69.947 73.975C69.1803 73.8083 68.4636 73.5417 67.797 73.175C67.147 72.825 66.5636 72.375 66.047 71.825C65.5303 71.275 65.1136 70.6167 64.797 69.85L68.122 68.25C68.2553 68.7 68.4636 69.1083 68.747 69.475C69.0303 69.8417 69.3553 70.15 69.722 70.4C70.1053 70.65 70.5136 70.85 70.947 71C71.3803 71.1333 71.822 71.2 72.272 71.2C73.472 71.2 74.4636 70.9583 75.247 70.475C76.0303 69.975 76.422 69.225 76.422 68.225C76.422 67.675 76.3053 67.2167 76.072 66.85C75.8553 66.4833 75.5553 66.1917 75.172 65.975C74.7886 65.7417 74.347 65.575 73.847 65.475C73.347 65.375 72.822 65.325 72.272 65.325H70.372V62.275H72.272C72.7386 62.275 73.1886 62.2333 73.622 62.15C74.0553 62.05 74.4386 61.9 74.772 61.7C75.1053 61.4833 75.372 61.2083 75.572 60.875C75.772 60.525 75.872 60.0917 75.872 59.575C75.872 58.6417 75.522 57.925 74.822 57.425C74.122 56.9083 73.2386 56.65 72.172 56.65C71.322 56.65 70.5636 56.9333 69.897 57.5C69.2303 58.0667 68.7303 58.7833 68.397 59.65L65.222 58.15ZM91.5407 73.525V56.425H83.2407V53.375H95.4657V73.525H91.5407ZM102.541 60.7H104.716V63.75H102.541V73.775H98.6157V52.875H102.541V60.7ZM120.801 53.375V56.425H115.451V62.225C115.451 63.4917 115.318 64.65 115.051 65.7L121.451 70.45L119.526 73.35L113.676 68.95C113.043 69.95 112.21 70.8167 111.176 71.55C110.143 72.2833 108.885 72.8917 107.401 73.375L105.676 70.475C106.676 70.125 107.543 69.7333 108.276 69.3C109.01 68.8667 109.618 68.3333 110.101 67.7C110.585 67.05 110.943 66.2833 111.176 65.4C111.41 64.5167 111.526 63.45 111.526 62.2V56.425H106.426V53.375H120.801ZM126.801 73.775H122.876V52.875H126.801V73.775ZM148.493 53.125V63.675H136.268V53.125H148.493ZM155.568 68.275H148.618C148.585 68.875 148.501 69.3833 148.368 69.8L156.043 71.55L154.818 74.45L146.243 72.4C145.31 72.9833 144.135 73.4167 142.718 73.7C141.318 74 139.685 74.225 137.818 74.375L136.743 71.2C138.06 71.1167 139.201 71.0167 140.168 70.9C141.151 70.7667 141.968 70.5917 142.618 70.375C143.268 70.1583 143.76 69.8833 144.093 69.55C144.443 69.2 144.643 68.775 144.693 68.275H137.268V65.25H155.568V68.275ZM155.568 59.6V64.125H151.643V52.875H155.568V56.55H157.743V59.6H155.568ZM144.568 60.625V56.175H140.193V60.625H144.568ZM159.454 63.025H180.329V66.075H171.854V67.275H179.104V74.275H160.679V67.275H167.929V66.075H159.454V63.025ZM160.554 59.5C161.97 59.3333 163.145 59.1667 164.079 59C165.029 58.8333 165.779 58.6417 166.329 58.425C166.895 58.2083 167.295 57.9667 167.529 57.7C167.762 57.4167 167.895 57.0833 167.929 56.7H160.929V53.675H167.929V51.85H171.854V53.675H178.854V56.7H171.829C171.829 57.1 171.762 57.4833 171.629 57.85L179.329 59.575L178.129 62.075L169.704 60.125C168.804 60.7083 167.67 61.1667 166.304 61.5C164.937 61.8333 163.379 62.075 161.629 62.225L160.554 59.5ZM164.604 69.975V71.475H175.179V69.975H164.604ZM188.545 58.775C188.545 57.875 188.704 57.0667 189.02 56.35C189.354 55.6167 189.812 54.9917 190.395 54.475C190.995 53.9583 191.72 53.5667 192.57 53.3C193.42 53.0167 194.37 52.875 195.42 52.875C196.687 52.875 197.804 53.075 198.77 53.475C199.737 53.8583 200.512 54.425 201.095 55.175L205.42 54.3V52.875H209.345V65.25H205.42V61.925L200.67 62.825C200.07 63.4083 199.329 63.8583 198.445 64.175C197.562 64.4917 196.554 64.65 195.42 64.65C194.37 64.65 193.42 64.5167 192.57 64.25C191.72 63.9667 190.995 63.5667 190.395 63.05C189.812 62.5333 189.354 61.9167 189.02 61.2C188.704 60.4667 188.545 59.6583 188.545 58.775ZM199.87 74.775C198.304 74.775 196.904 74.6833 195.67 74.5C194.437 74.3167 193.387 74.0333 192.52 73.65C191.67 73.2667 191.02 72.7917 190.57 72.225C190.12 71.6583 189.895 70.9833 189.895 70.2C189.895 69.4333 190.12 68.7667 190.57 68.2C191.02 67.6167 191.67 67.1417 192.52 66.775C193.387 66.3917 194.437 66.1083 195.67 65.925C196.904 65.7417 198.304 65.65 199.87 65.65C201.437 65.65 202.837 65.7417 204.07 65.925C205.304 66.1083 206.345 66.3917 207.195 66.775C208.062 67.1417 208.72 67.6167 209.17 68.2C209.62 68.7667 209.845 69.4333 209.845 70.2C209.845 70.9833 209.62 71.6583 209.17 72.225C208.72 72.7917 208.062 73.2667 207.195 73.65C206.345 74.0333 205.304 74.3167 204.07 74.5C202.837 74.6833 201.437 74.775 199.87 74.775ZM199.87 71.725C201.787 71.725 203.27 71.6083 204.32 71.375C205.387 71.1417 205.92 70.75 205.92 70.2C205.92 69.65 205.387 69.2583 204.32 69.025C203.27 68.7917 201.787 68.675 199.87 68.675C197.954 68.675 196.462 68.7917 195.395 69.025C194.345 69.2583 193.82 69.65 193.82 70.2C193.82 70.75 194.345 71.1417 195.395 71.375C196.462 71.6083 197.954 71.725 199.87 71.725ZM195.42 61.6C196.27 61.6 196.97 61.3417 197.52 60.825C198.087 60.3083 198.37 59.625 198.37 58.775C198.37 57.8917 198.087 57.2 197.52 56.7C196.97 56.1833 196.27 55.925 195.42 55.925C194.57 55.925 193.862 56.1833 193.295 56.7C192.745 57.2 192.47 57.8917 192.47 58.775C192.47 59.625 192.745 60.3083 193.295 60.825C193.862 61.3417 194.57 61.6 195.42 61.6ZM202.295 58.775C202.295 59.0917 202.27 59.3833 202.22 59.65L205.42 59.025V57.2L202.22 57.825C202.27 58.125 202.295 58.4417 202.295 58.775ZM223.006 74.775C221.506 74.775 220.156 74.6833 218.956 74.5C217.773 74.3167 216.764 74.0333 215.931 73.65C215.114 73.2667 214.489 72.7917 214.056 72.225C213.623 71.6583 213.406 70.9833 213.406 70.2C213.406 69.4333 213.623 68.7667 214.056 68.2C214.489 67.6167 215.114 67.1417 215.931 66.775C216.764 66.3917 217.773 66.1083 218.956 65.925C220.156 65.7417 221.506 65.65 223.006 65.65C224.506 65.65 225.848 65.7417 227.031 65.925C228.231 66.1083 229.239 66.3917 230.056 66.775C230.889 67.1417 231.523 67.6167 231.956 68.2C232.389 68.7667 232.606 69.4333 232.606 70.2C232.606 70.9833 232.389 71.6583 231.956 72.225C231.523 72.7917 230.889 73.2667 230.056 73.65C229.239 74.0333 228.231 74.3167 227.031 74.5C225.848 74.6833 224.506 74.775 223.006 74.775ZM212.056 58.775C212.056 57.875 212.214 57.0667 212.531 56.35C212.864 55.6167 213.323 54.9917 213.906 54.475C214.506 53.9583 215.231 53.5667 216.081 53.3C216.931 53.0167 217.881 52.875 218.931 52.875C219.981 52.875 220.931 53.0167 221.781 53.3C222.631 53.5667 223.348 53.9583 223.931 54.475C224.531 54.9917 224.989 55.6167 225.306 56.35C225.639 57.0667 225.806 57.875 225.806 58.775C225.806 59.6583 225.639 60.4667 225.306 61.2C224.989 61.9167 224.531 62.5333 223.931 63.05C223.348 63.5667 222.631 63.9667 221.781 64.25C220.931 64.5167 219.981 64.65 218.931 64.65C217.881 64.65 216.931 64.5167 216.081 64.25C215.231 63.9667 214.506 63.5667 213.906 63.05C213.323 62.5333 212.864 61.9167 212.531 61.2C212.214 60.4667 212.056 59.6583 212.056 58.775ZM232.106 62.65V65.275H228.181V52.875H232.106V54.775H234.281V57.825H232.106V59.6H234.281V62.65H232.106ZM223.006 71.725C224.789 71.725 226.181 71.6083 227.181 71.375C228.181 71.1417 228.681 70.75 228.681 70.2C228.681 69.65 228.181 69.2583 227.181 69.025C226.181 68.7917 224.789 68.675 223.006 68.675C221.223 68.675 219.831 68.7917 218.831 69.025C217.831 69.2583 217.331 69.65 217.331 70.2C217.331 70.75 217.831 71.1417 218.831 71.375C219.831 71.6083 221.223 71.725 223.006 71.725ZM218.931 61.6C219.781 61.6 220.481 61.3417 221.031 60.825C221.598 60.3083 221.881 59.625 221.881 58.775C221.881 57.8917 221.598 57.2 221.031 56.7C220.481 56.1833 219.781 55.925 218.931 55.925C218.081 55.925 217.373 56.1833 216.806 56.7C216.256 57.2 215.981 57.8917 215.981 58.775C215.981 59.625 216.256 60.3083 216.806 60.825C217.373 61.3417 218.081 61.6 218.931 61.6ZM237.067 68.5V53.075H240.992V68.5H237.067ZM237.067 74.275V70.6H240.992V74.275H237.067Z" fill="#333333"/>
<path d="M89.0547 132.52C89.0547 134.785 90.7539 136.816 93.3125 137.656L92.5898 138.867C90.5879 138.213 89.0742 136.826 88.332 135.078C87.5801 137.07 85.9785 138.623 83.8984 139.375L83.1172 138.145C85.7148 137.266 87.5312 135.02 87.5508 132.52V131.777H83.5859V130.508H92.9609V131.777H89.0547V132.52ZM96.75 129.219V133.652H99.3672V134.941H96.75V139.707H95.2266V129.219H96.75ZM91.1836 140.176C94.7578 140.176 96.9062 141.348 96.9062 143.34C96.9062 145.371 94.7578 146.543 91.1836 146.543C87.6094 146.543 85.4219 145.371 85.4219 143.34C85.4219 141.348 87.6094 140.176 91.1836 140.176ZM91.1836 141.406C88.5664 141.406 86.9453 142.129 86.9648 143.34C86.9453 144.59 88.5664 145.312 91.1836 145.312C93.8203 145.312 95.4219 144.59 95.4219 143.34C95.4219 142.129 93.8203 141.406 91.1836 141.406ZM119.875 129.238V142.07H118.332V135.879H114.484V134.59H118.332V129.238H119.875ZM114.562 130.566C114.543 135.02 111.359 138.418 106.418 140.039L105.754 138.809C109.758 137.49 112.541 135 112.883 131.855H106.633V130.566H114.562ZM120.324 144.922V146.211H108.82V140.762H110.383V144.922H120.324ZM136.34 129.219V133.75H138.957V135.02H136.34V139.648H134.816V129.219H136.34ZM131.613 130.508C131.613 134.922 128.488 138.184 123.43 139.668L122.785 138.418C126.975 137.207 129.65 134.795 129.973 131.777H123.547V130.508H131.613ZM130.852 139.844C134.348 139.844 136.535 141.113 136.535 143.184C136.535 145.293 134.348 146.543 130.852 146.543C127.395 146.543 125.148 145.293 125.168 143.184C125.148 141.113 127.395 139.844 130.852 139.844ZM130.852 141.074C128.312 141.055 126.672 141.875 126.691 143.184C126.672 144.492 128.312 145.312 130.852 145.312C133.41 145.312 135.051 144.492 135.051 143.184C135.051 141.875 133.41 141.055 130.852 141.074ZM151.223 131.738C151.203 134.277 153.039 136.523 155.617 137.422L154.836 138.633C152.824 137.9 151.232 136.396 150.461 134.473C149.689 136.533 148.078 138.154 146.047 138.945L145.246 137.734C147.844 136.777 149.66 134.355 149.66 131.738V130.078H151.223V131.738ZM159.406 140.547V146.582H157.883V141.816H147.727V140.547H159.406ZM159.406 129.219V139.688H157.883V129.219H159.406ZM176.672 129.219V146.621H175.129V129.219H176.672ZM167.434 130.566C170.012 130.586 171.867 132.93 171.867 136.621C171.867 140.312 170.012 142.656 167.434 142.656C164.836 142.656 163 140.312 163 136.621C163 132.93 164.836 130.586 167.434 130.566ZM167.434 131.934C165.695 131.953 164.484 133.789 164.484 136.621C164.484 139.453 165.695 141.289 167.434 141.289C169.172 141.289 170.383 139.453 170.383 136.621C170.383 133.789 169.172 131.953 167.434 131.934ZM194.035 129.219V139.238H192.492V133.926H188.625V132.656H192.492V129.219H194.035ZM194.035 140.117V146.348H182.688V140.117H194.035ZM184.211 141.348V145.098H192.531V141.348H184.211ZM185.559 131.875C185.539 134.18 187.336 136.309 189.855 137.148L189.055 138.379C187.102 137.666 185.578 136.25 184.816 134.473C184.074 136.455 182.512 137.988 180.461 138.75L179.641 137.52C182.277 136.621 184.035 134.414 184.055 131.816V129.98H185.559V131.875ZM212.805 139.121V140.391H208.605V146.582H207.062V140.391H202.609V146.582H201.027V140.391H196.906V139.121H212.805ZM204.816 129.922C208.469 129.922 210.93 131.387 210.93 133.711C210.93 136.016 208.469 137.48 204.816 137.461C201.164 137.48 198.703 136.016 198.703 133.711C198.703 131.387 201.164 129.922 204.816 129.922ZM204.816 131.172C202.102 131.172 200.266 132.168 200.285 133.711C200.266 135.254 202.102 136.23 204.816 136.23C207.512 136.23 209.367 135.254 209.367 133.711C209.367 132.168 207.512 131.172 204.816 131.172Z" fill="#333333"/>
<path d="M126.594 156.879V158.832H123C123.02 160.658 124.367 162.514 127.219 163.246L126.066 165.16C124.045 164.652 122.619 163.529 121.809 162.074C121.037 163.734 119.611 165.033 117.512 165.629L116.34 163.695C119.191 162.885 120.5 160.854 120.52 158.832H116.945V156.879H120.52V154.945H123.039V156.879H126.594ZM131.438 155.023V165.766H128.957V161.781H126.066V159.789H128.957V155.023H131.438ZM125.363 166.059C129.152 166.078 131.477 167.27 131.496 169.398C131.477 171.547 129.152 172.797 125.363 172.797C121.594 172.797 119.25 171.547 119.25 169.398C119.25 167.27 121.594 166.078 125.363 166.059ZM125.363 167.973C123 167.973 121.73 168.441 121.73 169.398C121.73 170.375 123 170.902 125.363 170.902C127.766 170.902 129.016 170.375 129.016 169.398C129.016 168.441 127.766 167.973 125.363 167.973ZM150.012 168.734V170.824H133.742V168.734H140.578V165.531H135.09V163.578H137.473V158.5H135.012V156.508H148.645V158.5H146.145V163.578H148.566V165.531H143.059V168.734H150.012ZM139.973 163.578H143.684V158.5H139.973V163.578ZM165.52 162.973V164.945H160.363V168.734H167.297V170.766H151.027V168.734H157.883V164.945H152.941V156.273H165.383V158.266H155.441V162.973H165.52ZM177.297 156.254V164.457H168.84V156.254H177.297ZM171.301 158.227V162.484H174.836V158.227H171.301ZM182.414 155.023V159.457H184.816V161.527H182.414V166.762H179.914V155.023H182.414ZM177.941 166.371C177.941 168.344 179.816 170.277 183.605 170.766L182.629 172.719C179.846 172.289 177.814 171.088 176.73 169.418C175.646 171.088 173.615 172.289 170.812 172.719L169.855 170.766C173.605 170.277 175.48 168.344 175.48 166.371V165.922H177.941V166.371Z" fill="#458538"/>
<path d="M93.1074 223.219V240.582H91.5645V223.219H93.1074ZM89.1035 225.113V226.383H87.1309V234.742C88.1074 234.674 89.0742 234.586 90.002 234.469L90.0996 235.621C86.3105 236.207 82.1309 236.266 78.9082 236.285L78.7324 234.977L81.1348 234.957V226.383H79.1816V225.113H89.1035ZM82.6387 234.938C83.6152 234.918 84.6211 234.879 85.627 234.82V226.383H82.6387V234.938ZM111.936 237.145V238.434H96.0371V237.145H103.186V233.863H98.0293V228.512H108.42V225.777H97.9902V224.508H109.924V229.762H99.5527V232.594H110.334V233.863H104.689V237.145H111.936ZM127.561 223.219V240.582H126.037V223.219H127.561ZM113.42 235.953C114.904 235.943 116.604 235.934 118.361 235.875V233.98C116.281 233.756 114.924 232.574 114.943 230.836C114.924 228.883 116.604 227.613 119.104 227.613C121.604 227.613 123.303 228.883 123.303 230.836C123.303 232.555 121.955 233.736 119.904 233.961V235.816C121.584 235.748 123.283 235.621 124.885 235.406L125.002 236.578C121.135 237.203 116.877 237.262 113.654 237.262L113.42 235.953ZM124.436 225.367V226.617H113.791V225.367H118.361V223.238H119.904V225.367H124.436ZM119.104 228.805C117.502 228.805 116.369 229.625 116.369 230.836C116.369 232.047 117.502 232.828 119.104 232.809C120.725 232.828 121.838 232.047 121.838 230.836C121.838 229.625 120.725 228.805 119.104 228.805ZM146.428 232.203V233.473H130.607V232.203H137.756V230.113H132.717V223.629H134.24V225.641H142.834V223.629H144.357V230.113H139.279V232.203H146.428ZM144.475 235.191V240.582H142.932V236.422H132.365V235.191H144.475ZM134.24 228.883H142.834V226.812H134.24V228.883ZM167.229 223.219V240.621H165.686V223.219H167.229ZM155.451 224.703V229.293H160.627V224.703H162.131V236.422H153.928V224.703H155.451ZM155.451 235.133H160.627V230.523H155.451V235.133ZM179.104 224.801V226.09H172.502V229.684H178.713V230.934H172.502V235.133C175.627 235.133 177.824 235.006 180.432 234.566L180.607 235.836C177.893 236.285 175.607 236.383 172.326 236.402H170.959V224.801H179.104ZM183.635 223.219V230.211H186.545V231.52H183.635V240.582H182.111V223.219H183.635ZM196.545 224.742V232.789H188.4V224.742H196.545ZM189.904 226.012V231.559H195.041V226.012H189.904ZM201.818 223.238V235.719H200.295V223.238H201.818ZM202.365 238.727V239.996H190.607V234.508H192.131V238.727H202.365ZM215.275 229.312C214.865 227.359 213.186 226.305 211.33 226.305C208.771 226.305 206.779 228.277 206.779 231.93C206.779 235.582 208.771 237.555 211.33 237.555C213.186 237.555 214.846 236.5 215.275 234.566H217.033C216.525 237.457 214.201 239.195 211.33 239.195C207.697 239.195 205.08 236.402 205.08 231.93C205.08 227.457 207.697 224.664 211.33 224.664C214.182 224.664 216.506 226.383 217.033 229.312H215.275Z" fill="#333333"/>
<path d="M131.896 250.801V257.539H127.99V260.566C129.719 260.547 131.359 260.469 133.205 260.117L133.42 262.148C131.096 262.578 129.104 262.617 126.857 262.637H125.607V255.566H129.494V252.773H125.588V250.801H131.896ZM140.471 249.023V266.797H138.107V249.023H140.471ZM136.779 249.355V265.938H134.455V257.109H132.639V255.098H134.455V249.355H136.779ZM156.545 249.863V256.367H151.721V258.184H158.596V260.176H142.385V258.184H149.221V256.367H144.396V249.863H156.545ZM146.838 251.836V254.414H154.104V251.836H146.838ZM156.76 264.492V266.484H144.338V261.328H146.838V264.492H156.76ZM168.654 250.254V258.457H160.197V250.254H168.654ZM162.658 252.227V256.484H166.193V252.227H162.658ZM173.771 249.023V253.457H176.174V255.527H173.771V260.762H171.271V249.023H173.771ZM169.299 260.371C169.299 262.344 171.174 264.277 174.963 264.766L173.986 266.719C171.203 266.289 169.172 265.088 168.088 263.418C167.004 265.088 164.973 266.289 162.17 266.719L161.213 264.766C164.963 264.277 166.838 262.344 166.838 260.371V259.922H169.299V260.371Z" fill="#D47C20"/>
<path d="M105.861 322.512V323.762H94.0059V317.883H95.5293V322.512H105.861ZM107.658 325.812V327.082H100.627V330.676H99.1035V327.082H91.8184V325.812H107.658ZM105.979 332.922V334.211H93.8496V329.133H95.373V332.922H105.979ZM128.518 317.238V330.07H126.975V323.879H123.127V322.59H126.975V317.238H128.518ZM123.205 318.566C123.186 323.02 120.002 326.418 115.061 328.039L114.396 326.809C118.4 325.49 121.184 323 121.525 319.855H115.275V318.566H123.205ZM128.967 332.922V334.211H117.463V328.762H119.025V332.922H128.967ZM144.982 317.219V321.75H147.6V323.02H144.982V327.648H143.459V317.219H144.982ZM140.256 318.508C140.256 322.922 137.131 326.184 132.072 327.668L131.428 326.418C135.617 325.207 138.293 322.795 138.615 319.777H132.189V318.508H140.256ZM139.494 327.844C142.99 327.844 145.178 329.113 145.178 331.184C145.178 333.293 142.99 334.543 139.494 334.543C136.037 334.543 133.791 333.293 133.811 331.184C133.791 329.113 136.037 327.844 139.494 327.844ZM139.494 329.074C136.955 329.055 135.314 329.875 135.334 331.184C135.314 332.492 136.955 333.312 139.494 333.312C142.053 333.312 143.693 332.492 143.693 331.184C143.693 329.875 142.053 329.055 139.494 329.074ZM167.658 317.922V322.434H157.189V324.68H168.029V325.949H155.646V321.223H166.096V319.172H155.607V317.922H167.658ZM169.592 327.785V329.016H162.365V334.621H160.842V329.016H153.693V327.785H169.592ZM178.146 319.348V320.578H173.146V324.016H177.346V325.246H173.146V329.152C175.637 329.123 177.16 329.035 179.045 328.684L179.182 329.934C177.17 330.344 175.529 330.383 172.775 330.402H171.682V319.348H178.146ZM185.861 317.219V334.582H184.377V317.219H185.861ZM182.307 317.648V333.684H180.842V325.09H178.283V323.82H180.842V317.648H182.307ZM202.619 317.238V329.934H201.096V317.238H202.619ZM203.166 332.922V334.211H191.408V328.645H192.932V332.922H203.166ZM193.244 318.449C195.842 318.449 197.795 320.207 197.795 322.707C197.795 325.246 195.842 326.984 193.244 326.984C190.646 326.984 188.693 325.246 188.693 322.707C188.693 320.207 190.646 318.449 193.244 318.449ZM193.244 319.797C191.486 319.797 190.178 321.008 190.197 322.707C190.178 324.445 191.486 325.637 193.244 325.637C194.963 325.637 196.291 324.445 196.291 322.707C196.291 321.008 194.963 319.797 193.244 319.797Z" fill="#333333"/>
<path d="M112.346 343.316V344.566H119.475V343.316H121.955V349.293H109.885V343.316H112.346ZM112.346 347.438H119.475V346.363H112.346V347.438ZM124.025 350.27V352.203H107.814V350.27H124.025ZM122.053 353.258V357.75H112.15V358.805H122.521V360.68H109.709V356.012H119.592V355.074H109.689V353.258H122.053ZM139.475 343.57V348.863H129.533V350.348H139.885V352.34H127.014V346.988H136.916V345.582H126.955V343.57H139.475ZM141.35 353.668V355.66H134.436V360.836H131.936V355.66H125.08V353.668H141.35ZM145.236 344.625V348.746H147.697V344.625H149.963V349.508H151.74V343.316H154.084V360.016H151.74V351.539H149.963V356.578H142.893V344.625H145.236ZM145.236 354.547H147.697V350.719H145.236V354.547ZM157.795 343.023V360.797H155.412V343.023H157.795ZM174.572 343.023V360.836H172.092V343.023H174.572ZM169.064 344.508V351.363H163.205V354.625C165.91 354.615 168.215 354.459 170.822 354.039L171.037 356.051C168.107 356.559 165.471 356.676 162.229 356.676H160.627V349.391H166.525V346.52H160.607V344.508H169.064ZM185.939 344.254V352.457H177.482V344.254H185.939ZM179.943 346.227V350.484H183.479V346.227H179.943ZM191.057 343.023V347.457H193.459V349.527H191.057V354.762H188.557V343.023H191.057ZM186.584 354.371C186.584 356.344 188.459 358.277 192.248 358.766L191.271 360.719C188.488 360.289 186.457 359.088 185.373 357.418C184.289 359.088 182.258 360.289 179.455 360.719L178.498 358.766C182.248 358.277 184.123 356.344 184.123 354.371V353.922H186.584V354.371Z" fill="#6B4A97"/>
</svg>
