<svg width="300" height="400" viewBox="0 0 300 400" fill="none" xmlns="http://www.w3.org/2000/svg">
<rect width="300" height="400" rx="20" fill="#FFFCD7"/>
<path d="M106.026 60.375H110.901V53.375H114.826V73.525H102.101V53.375H106.026V60.375ZM122.151 73.775H118.226V52.875H122.151V73.775ZM110.901 63.425H106.026V70.475H110.901V63.425ZM130.586 67.15V71.25H145.911V74.275H126.661V67.15H130.586ZM125.611 56.175V53.125H137.836V65.4H133.911V56.175H125.611ZM145.661 52.875V67.8H141.736V60.175L138.586 60.9V57.775L141.736 57.05V52.875H145.661ZM175.178 52.875V67.8H171.253V52.875H175.178ZM160.103 67.15V71.25H175.428V74.275H156.178V67.15H160.103ZM154.378 59.275C154.378 58.275 154.553 57.3833 154.903 56.6C155.253 55.8 155.736 55.125 156.353 54.575C156.986 54.025 157.736 53.6083 158.603 53.325C159.486 53.025 160.453 52.875 161.503 52.875C162.553 52.875 163.511 53.025 164.378 53.325C165.261 53.6083 166.011 54.025 166.628 54.575C167.261 55.125 167.753 55.8 168.103 56.6C168.453 57.3833 168.628 58.275 168.628 59.275C168.628 60.2583 168.453 61.1417 168.103 61.925C167.753 62.7083 167.261 63.375 166.628 63.925C166.011 64.475 165.261 64.9 164.378 65.2C163.511 65.5 162.553 65.65 161.503 65.65C160.453 65.65 159.486 65.5 158.603 65.2C157.736 64.9 156.986 64.475 156.353 63.925C155.736 63.375 155.253 62.7083 154.903 61.925C154.553 61.1417 154.378 60.2583 154.378 59.275ZM161.503 62.6C161.92 62.6 162.32 62.525 162.703 62.375C163.103 62.225 163.445 62.0083 163.728 61.725C164.028 61.425 164.261 61.075 164.428 60.675C164.611 60.2583 164.703 59.7917 164.703 59.275C164.703 58.7417 164.611 58.2667 164.428 57.85C164.261 57.4333 164.028 57.0833 163.728 56.8C163.445 56.5167 163.103 56.3 162.703 56.15C162.32 56 161.92 55.925 161.503 55.925C161.07 55.925 160.661 56 160.278 56.15C159.895 56.3 159.553 56.5167 159.253 56.8C158.97 57.0833 158.736 57.4333 158.553 57.85C158.386 58.2667 158.303 58.7417 158.303 59.275C158.303 59.7917 158.386 60.2583 158.553 60.675C158.736 61.075 158.97 61.425 159.253 61.725C159.553 62.0083 159.895 62.225 160.278 62.375C160.661 62.525 161.07 62.6 161.503 62.6ZM188.764 74.775C187.264 74.775 185.922 74.7 184.739 74.55C183.572 74.4 182.58 74.1583 181.764 73.825C180.964 73.5083 180.347 73.0833 179.914 72.55C179.497 72.0167 179.289 71.3583 179.289 70.575C179.289 69.8083 179.497 69.1583 179.914 68.625C180.347 68.0917 180.964 67.6583 181.764 67.325C182.58 66.9917 183.572 66.7583 184.739 66.625C185.922 66.475 187.264 66.4 188.764 66.4C190.264 66.4 191.597 66.475 192.764 66.625C193.947 66.7583 194.939 66.9917 195.739 67.325C196.555 67.6583 197.172 68.0917 197.589 68.625C198.022 69.1583 198.239 69.8083 198.239 70.575C198.239 71.3583 198.022 72.0167 197.589 72.55C197.172 73.0833 196.555 73.5083 195.739 73.825C194.939 74.1583 193.947 74.4 192.764 74.55C191.597 74.7 190.264 74.775 188.764 74.775ZM179.289 58.575C180.589 58.425 181.689 58.275 182.589 58.125C183.489 57.975 184.23 57.8083 184.814 57.625C185.397 57.425 185.83 57.2083 186.114 56.975C186.414 56.7417 186.614 56.4667 186.714 56.15H179.789V53.125H197.714V56.15H190.689C190.655 56.2833 190.622 56.4167 190.589 56.55C190.572 56.6667 190.539 56.7917 190.489 56.925L198.189 58.65L196.989 61.15L188.564 59.2C187.664 59.7833 186.53 60.2417 185.164 60.575C183.797 60.9083 182.239 61.15 180.489 61.3L179.289 58.575ZM178.314 62.275H199.189V65.325H178.314V62.275ZM188.764 71.725C190.68 71.725 192.08 71.6417 192.964 71.475C193.864 71.3083 194.314 71.0083 194.314 70.575C194.314 70.1417 193.864 69.8417 192.964 69.675C192.08 69.5083 190.68 69.425 188.764 69.425C186.847 69.425 185.439 69.5083 184.539 69.675C183.655 69.8417 183.214 70.1417 183.214 70.575C183.214 71.0083 183.655 71.3083 184.539 71.475C185.439 71.6417 186.847 71.725 188.764 71.725ZM93.1527 98V96.925H75.9777V94.325H97.0777V100.6H79.9027V101.675H97.3277V104.275H75.9777V98H93.1527ZM86.2277 83.125V86.175H82.3027V86.875C82.3027 87.3417 82.2444 87.775 82.1277 88.175L87.0277 90.75L84.8527 93.45L80.5027 90.925C79.9027 91.5417 79.1777 92.0667 78.3277 92.5C77.4944 92.9167 76.5777 93.2083 75.5777 93.375L73.8777 90.6C74.6944 90.4 75.3861 90.1833 75.9527 89.95C76.5361 89.7167 77.0027 89.4583 77.3527 89.175C77.7194 88.875 77.9777 88.5417 78.1277 88.175C78.2944 87.7917 78.3777 87.35 78.3777 86.85V86.175H74.6027V83.125H86.2277ZM88.0277 93.2V89.325L86.0027 89.775V86.65L88.0277 86.2V82.875H91.6277V93.2H88.0277ZM97.0777 93.2H93.4527V82.875H97.0777V93.2ZM100.172 86.425V83.375H112.397V95.05H104.097V100.475H112.897V103.525H100.172V92H108.472V86.425H100.172ZM119.472 90.7H121.647V93.75H119.472V103.775H115.547V82.875H119.472V90.7ZM127.608 86.175V88H137.158V91.05H127.608V92.85H137.408V95.9H123.683V83.125H137.158V86.175H127.608ZM128.658 97.15V101.25H143.983V104.275H124.733V97.15H128.658ZM143.733 82.875V97.8H139.808V82.875H143.733ZM167.724 92.175V95.225H157.399V103.75H153.449V84.075H168.199V87.125H157.399V92.175H167.724ZM170.563 84.075H181.113C181.963 84.075 182.755 84.1917 183.488 84.425C184.222 84.6583 184.863 85.0167 185.413 85.5C185.963 85.9667 186.388 86.5667 186.688 87.3C187.005 88.0167 187.163 88.8667 187.163 89.85C187.163 91.25 186.863 92.3417 186.263 93.125C185.68 93.9083 184.872 94.5083 183.838 94.925L188.213 103.75H184.138L180.238 95.9L174.513 97.25V103.75H170.563V84.075ZM183.238 89.85C183.238 88.9667 182.972 88.2917 182.438 87.825C181.922 87.3583 181.247 87.125 180.413 87.125H174.513V93.95L179.988 92.825C181.038 92.6417 181.838 92.3083 182.388 91.825C182.955 91.325 183.238 90.6667 183.238 89.85ZM204.956 92.175V95.225H194.631V100.725H205.681V103.75H190.681V84.075H205.431V87.125H194.631V92.175H204.956ZM223.071 92.175V95.225H212.746V100.725H223.796V103.75H208.796V84.075H223.546V87.125H212.746V92.175H223.071ZM227.411 98.5V83.075H231.336V98.5H227.411ZM227.411 104.275V100.6H231.336V104.275H227.411Z" fill="#333333"/>
<path d="M127.697 314.238V318.223H130.334V319.512H127.697V324.043H126.174V314.238H127.697ZM127.697 325V331.348H116.701V325H127.697ZM118.205 326.211V330.098H126.213V326.211H118.205ZM116.506 315.117V321.426C118.977 321.416 121.525 321.221 124.338 320.645L124.533 321.934C121.584 322.52 118.967 322.715 116.35 322.715H114.963V315.117H116.506ZM145.822 314.219V331.621H144.279V323.496H139.006V322.227H144.279V319.551H139.006V318.301H144.279V314.219H145.822ZM133.908 316.152V326.25C136.73 326.24 138.889 326.143 141.33 325.645L141.486 326.914C138.908 327.422 136.701 327.578 133.693 327.578H132.365V316.152H133.908ZM162.756 322.129V323.418H157.365V328.047H164.592V329.316H148.693V328.047H155.842V323.418H150.646V315.703H152.209V322.129H162.756ZM181.877 328.047V329.316H165.979V328.047H173.088V323.789H174.592V328.047H181.877ZM174.631 316.738C174.631 319.648 178.068 322.188 181.096 322.715L180.412 323.984C177.766 323.447 174.973 321.65 173.85 319.141C172.707 321.641 169.934 323.447 167.287 323.984L166.604 322.715C169.631 322.188 173.029 319.648 173.029 316.738V315.41H174.631V316.738ZM99.6504 344.078V345.348H87.6777V339.117H89.2012V344.078H99.6504ZM101.525 347.965V349.254H94.2598V355.582H92.7363V349.254H85.627V347.965H101.525ZM116.643 339.352V340.875C116.643 342.525 116.643 344.312 116.154 346.812H118.732V348.082H111.564V355.621H110.021V348.082H102.912V346.812H114.592C115.119 344.312 115.119 342.486 115.119 340.875V340.621H104.904V339.352H116.643ZM136.447 345.152V346.441H133.635V355.582H132.111V338.219H133.635V345.152H136.447ZM122.443 339.938V349.879C124.982 349.869 127.57 349.674 130.432 349.078L130.627 350.387C127.639 350.992 124.943 351.168 122.307 351.168H120.92V339.938H122.443ZM156.076 338.219V343.512H158.693V344.801H156.076V350.934H154.533V338.219H156.076ZM151.389 339.566C151.389 344.039 148.186 347.359 143.186 348.922L142.521 347.691C146.682 346.393 149.396 343.912 149.729 340.855H143.244V339.566H151.389ZM156.877 353.922V355.211H145.197V349.645H146.721V353.922H156.877ZM174.182 338.219V351.148H172.639V346.109H169.67V344.82H172.639V342.809H169.67V341.539H172.639V338.219H174.182ZM169.533 339.645V340.895H167.756V346.969C168.566 346.92 169.348 346.861 170.1 346.773L170.178 347.926C166.799 348.453 162.834 348.512 160.021 348.512L159.826 347.203L162.072 347.184V340.895H160.314V339.645H169.533ZM174.65 353.922V355.211H162.99V350.074H164.533V353.922H174.65ZM163.557 347.145C164.445 347.135 165.363 347.105 166.271 347.066V340.895H163.557V347.145ZM190.51 338.219V345.387H193.42V346.656H190.51V355.582H188.986V338.219H190.51ZM187.307 341.012V342.281H176.975V341.012H181.447V338.434H182.971V341.012H187.307ZM182.229 343.727C184.689 343.727 186.467 345.367 186.486 347.711C186.467 350.055 184.689 351.695 182.229 351.695C179.748 351.695 177.951 350.055 177.971 347.711C177.951 345.367 179.748 343.727 182.229 343.727ZM182.229 345.016C180.607 345.016 179.416 346.148 179.436 347.711C179.416 349.293 180.607 350.406 182.229 350.387C183.83 350.406 185.002 349.293 185.021 347.711C185.002 346.148 183.83 345.016 182.229 345.016ZM209.221 338.219V355.582H207.756V338.219H209.221ZM205.568 338.688V354.703H204.104V346.598H200.432C199.367 348.619 197.697 350.406 195.275 351.832L194.377 350.719C198.156 348.482 200.051 345.348 200.334 341.715H195.119V340.445H201.857C201.848 342.154 201.574 343.805 200.998 345.348H204.104V338.688H205.568ZM214.455 339.859L214.318 350.016H212.678L212.541 339.859H214.455ZM213.498 354.117C212.814 354.117 212.229 353.551 212.248 352.848C212.229 352.164 212.814 351.598 213.498 351.598C214.182 351.598 214.748 352.164 214.748 352.848C214.748 353.551 214.182 354.117 213.498 354.117Z" fill="#333333"/>
<g clip-path="url(#clip0_154_131)">
<path d="M150.1 269.5C182.685 269.5 209.1 243.085 209.1 210.5C209.1 177.915 182.685 151.5 150.1 151.5C117.515 151.5 91.1 177.915 91.1 210.5C91.1 243.085 117.515 269.5 150.1 269.5Z" fill="white" stroke="#458538" stroke-width="5" stroke-miterlimit="10"/>
<path d="M137.9 231.4L140.7 235.7L143.5 236.6L146 241.4L155.5 246.3C155.5 246.3 166.3 248.6 172.4 245.9C178.5 243.2 186.5 233.9 186.5 233.9C186.5 233.9 191 225.8 193 217.3C195 208.8 195.4 189.7 195.4 189.7L180 189.3C180 189.3 165.2 191.4 159 193.8C152.8 196.2 149.6 198.9 149.6 198.9" fill="#B4D898"/>
<path d="M137.9 231.4L140.7 235.7L143.5 236.6L146 241.4L155.5 246.3C155.5 246.3 166.3 248.6 172.4 245.9C178.5 243.2 186.5 233.9 186.5 233.9C186.5 233.9 191 225.8 193 217.3C195 208.8 195.4 189.7 195.4 189.7L180 189.3C180 189.3 165.2 191.4 159 193.8C152.8 196.2 149.6 198.9 149.6 198.9" stroke="#458538" stroke-width="3" stroke-miterlimit="10" stroke-linecap="round" stroke-linejoin="round"/>
<path d="M88 205.2C88.4 205.1 88.8 205.1 89.2 205L88 205.2Z" fill="#74AD5B"/>
<path d="M128.1 231.3C128.1 231.3 123.1 231.4 119.3 229.2C115.5 227 111.7 216.8 111.7 216.8C111.7 216.8 109.4 210.4 110.8 203.7C112.2 197 118.3 185.9 118.3 185.9L126.2 174.6L132 166.7L138.4 177.3L146.4 192.3C146.4 192.3 150 201.3 149.7 207.1C149.4 212.9 146.2 223.9 146.2 223.9C146.2 223.9 139.9 230.7 135.8 231.3C131.7 231.9 128.1 231.3 128.1 231.3Z" fill="#B4D898" stroke="#458538" stroke-width="3" stroke-miterlimit="10" stroke-linecap="round" stroke-linejoin="round"/>
<path d="M127.9 231.8C127.9 231.8 128.7 240.8 129.6 243.3C130.5 245.8 134.6 255 134.6 255" stroke="#458538" stroke-width="3" stroke-miterlimit="10" stroke-linecap="round" stroke-linejoin="round"/>
<path d="M127.6 229.3L127.9 205.3L129.7 187.8" stroke="#458538" stroke-width="3" stroke-miterlimit="10" stroke-linecap="round" stroke-linejoin="round"/>
<path d="M134.6 254.3L135.3 247.3L139.2 240.6L142.2 237.9" stroke="#458538" stroke-width="3" stroke-miterlimit="10" stroke-linecap="round" stroke-linejoin="round"/>
<path d="M143.4 236.5L148.6 228.3L159.7 216.5L181.2 200" stroke="#458538" stroke-width="3" stroke-miterlimit="10" stroke-linecap="round" stroke-linejoin="round"/>
<path d="M160.8 199.4C160.8 199.4 163.1 202.3 163.6 206C164.1 209.7 163.9 213.5 163.9 213.5" stroke="#458538" stroke-width="3" stroke-miterlimit="10" stroke-linecap="round" stroke-linejoin="round"/>
<path d="M150.7 226.8C150.7 226.8 153.1 225 159.1 225.5C165.1 226 171.1 227 171.1 227" stroke="#458538" stroke-width="3" stroke-miterlimit="10" stroke-linecap="round" stroke-linejoin="round"/>
<path d="M127.9 205.3L118.7 199.9" stroke="#458538" stroke-width="3" stroke-miterlimit="10" stroke-linecap="round" stroke-linejoin="round"/>
<path d="M128.4 219.4L133.1 215.5L138.7 212.3" stroke="#458538" stroke-width="3" stroke-miterlimit="10" stroke-linecap="round" stroke-linejoin="round"/>
</g>
<defs>
<clipPath id="clip0_154_131">
<rect width="123.6" height="123" fill="white" transform="translate(88 149)"/>
</clipPath>
</defs>
</svg>
