<svg width="400" height="640" viewBox="0 0 400 640" fill="none" xmlns="http://www.w3.org/2000/svg">
<rect width="400" height="640" rx="20" fill="#FFF5FE"/>
<g clip-path="url(#clip0_152_124)">
<path d="M297.885 174.211C297.409 173.396 297.069 172.784 296.865 172.445C296.797 172.309 296.729 172.173 296.594 172.037C291.565 164.159 274.099 139.708 243.586 129.384C232.916 125.785 222.79 124.63 217.354 124.019C202.811 122.389 188.064 122.864 173.52 125.445C170.326 126.056 167.404 126.668 164.618 127.279C161.9 127.958 159.385 128.637 157.074 129.384C125.406 139.572 106.377 168.37 103.863 172.309C103.863 172.377 103.795 172.445 103.795 172.445C103.523 172.852 103.115 173.531 102.572 174.482C98.1543 182.225 85.2421 207.83 88.1644 238.597C88.1644 239.073 88.2323 239.548 88.3003 240.024C88.844 244.778 89.7274 249.668 91.0866 254.626C92.7856 260.671 97.2029 276.7 111.338 291.982C117.726 298.909 125.474 304.954 133.833 309.437C134.104 309.64 134.444 309.776 134.716 309.912L134.92 309.98C134.92 309.98 134.988 309.98 135.056 310.048C135.667 310.387 138.046 311.61 140.493 312.629C147.356 315.617 155.715 317.655 155.783 317.655C158.298 318.334 160.812 318.945 163.395 319.489C163.87 319.624 164.346 319.692 164.822 319.828C165.569 319.964 166.317 320.168 167.064 320.304C167.336 320.371 167.608 320.439 167.88 320.439C167.88 320.439 168.084 320.507 168.424 320.507C169.239 320.643 170.87 320.983 172.501 321.254C183.714 323.02 194.656 323.36 197.986 323.428C198.597 323.428 199.005 323.428 199.005 323.428H199.345C199.685 323.428 200.024 323.428 200.296 323.428C200.636 323.428 201.044 323.428 201.383 323.428C201.859 323.428 202.335 323.428 202.743 323.428C214.024 323.224 224.625 321.73 232.373 320.371C232.848 320.304 233.324 320.168 233.732 320.1C234.479 319.964 235.159 319.828 235.839 319.692C236.314 319.624 236.79 319.489 237.266 319.421C241.615 318.538 244.333 317.791 244.673 317.723C255.886 314.666 262.682 311.542 265.74 309.912C266.148 309.708 266.556 309.505 266.964 309.233C275.187 304.75 282.798 298.773 289.118 291.914C303.186 276.632 307.807 259.992 309.37 254.558C310.797 249.532 311.68 244.574 312.224 239.752C312.292 239.277 312.292 238.869 312.36 238.394C315.35 207.355 302.166 181.614 297.885 174.211ZM311.001 239.141C310.525 244.031 309.574 249.125 308.147 254.219C306.651 259.584 302.098 275.953 288.235 291.031C282.05 297.687 274.643 303.528 266.624 307.942C266.216 308.146 265.808 308.35 265.401 308.622C265.333 308.689 265.265 308.689 265.197 308.689C262.206 310.252 255.479 313.376 244.333 316.364C243.994 316.432 241.139 317.247 236.586 318.198C236.11 318.266 235.703 318.402 235.159 318.47C234.683 318.538 234.275 318.674 233.8 318.741C233.392 318.809 232.916 318.945 232.441 319.013C224.693 320.439 214.024 321.934 202.607 322.137C202.131 322.137 201.723 322.137 201.248 322.137C200.704 322.137 200.092 322.137 199.549 322.137H198.937C198.937 322.137 198.665 322.137 198.189 322.137C195.199 322.069 183.986 321.798 172.705 319.964C170.87 319.692 168.967 319.353 168.356 319.217C168.22 319.217 168.084 319.149 168.084 319.149C167.744 319.081 167.336 319.013 166.996 318.945C166.521 318.809 166.045 318.741 165.501 318.674C165.026 318.606 164.55 318.47 164.142 318.402C161.424 317.859 158.705 317.179 156.055 316.432C155.987 316.432 147.696 314.395 140.968 311.474C138.182 310.252 135.464 308.825 135.464 308.825H135.396L135.26 308.757C134.92 308.554 134.512 308.35 134.172 308.146C126.017 303.731 118.474 297.822 112.29 291.031C98.4941 276.021 94.1447 260.196 92.4458 254.219C91.0186 249.193 90.1352 244.235 89.6595 239.412C89.5915 238.937 89.5235 238.462 89.5235 237.986C86.5334 204.57 102.3 177.471 104.882 173.328C104.95 173.26 104.95 173.192 105.018 173.124C105.222 172.784 105.63 172.173 106.241 171.29C111.202 163.955 129.279 139.708 157.618 130.607C162.103 129.181 167.54 127.89 173.86 126.735C188.267 124.155 202.879 123.679 217.354 125.309C222.723 125.92 232.712 127.075 243.246 130.607C271.517 140.251 288.439 162.053 294.487 171.154C294.963 171.901 295.438 172.581 295.778 173.124C295.778 173.124 295.778 173.124 295.778 173.192C297.953 176.656 314.195 203.959 311.273 237.85C311.137 238.258 311.069 238.733 311.001 239.141Z" fill="#6B4A97"/>
<path d="M163.463 319.624C163.327 319.828 163.259 319.964 163.123 320.168C160.133 324.447 155.987 327.571 151.57 328.929C147.152 330.288 142.939 329.812 139.677 327.503C134.648 323.971 133.085 317.043 135.056 310.116C135.667 310.455 138.046 311.678 140.492 312.697C147.356 315.685 155.715 317.723 155.783 317.723C158.366 318.47 160.88 319.081 163.463 319.624Z" fill="#BCB5D9"/>
<path d="M198.053 323.496C196.49 332.121 190.578 338.574 183.442 338.574C175.559 338.574 169.035 330.627 168.491 320.575C169.307 320.711 170.938 321.051 172.569 321.322C183.782 323.156 194.791 323.496 198.053 323.496Z" fill="#BCB5D9"/>
<path d="M232.509 320.439C231.965 330.559 225.441 338.642 217.558 338.642C210.422 338.642 204.442 332.189 202.947 323.564C214.228 323.36 224.829 321.866 232.509 320.439Z" fill="#BCB5D9"/>
<path d="M261.391 327.503C254.595 332.257 244.061 328.929 237.945 320.168C237.809 319.964 237.605 319.692 237.469 319.489C241.819 318.606 244.537 317.859 244.877 317.791C256.09 314.734 262.886 311.61 265.944 309.98C267.983 316.976 266.42 323.971 261.391 327.503Z" fill="#BCB5D9"/>
<path d="M295.71 173.192C295.71 173.124 295.71 173.124 295.71 173.192C295.37 172.581 294.895 171.901 294.419 171.222C288.371 162.121 271.381 140.319 243.178 130.675C232.576 127.075 222.587 125.921 217.218 125.309C202.743 123.679 188.132 124.155 173.724 126.736C167.404 127.89 161.967 129.181 157.482 130.607C129.211 139.776 111.134 164.023 106.173 171.358C105.562 172.241 105.222 172.852 104.95 173.192C104.95 173.26 104.882 173.328 104.814 173.396C102.3 177.539 86.5333 204.638 89.4556 237.986C89.5235 238.462 89.5235 238.937 89.5915 239.413C90.0672 244.235 91.0186 249.193 92.3778 254.219C94.0088 260.196 98.4261 275.953 112.29 291.031C118.474 297.823 126.085 303.664 134.172 308.146C134.512 308.35 134.92 308.554 135.26 308.757L135.396 308.825H135.464C135.464 308.825 138.182 310.252 140.968 311.474C147.764 314.395 155.987 316.432 156.055 316.432C158.705 317.179 161.424 317.791 164.142 318.402C164.618 318.538 165.094 318.606 165.501 318.674C165.977 318.742 166.453 318.877 166.996 318.945C167.336 319.013 167.744 319.081 168.084 319.149C168.084 319.149 168.152 319.149 168.356 319.217C169.035 319.353 170.87 319.692 172.705 319.964C183.986 321.798 195.199 322.07 198.189 322.137C198.665 322.137 198.937 322.137 198.937 322.137H199.549C200.092 322.137 200.704 322.137 201.248 322.137C201.723 322.137 202.131 322.137 202.607 322.137C214.024 321.934 224.693 320.439 232.441 319.013C232.916 318.945 233.324 318.809 233.8 318.742C234.275 318.674 234.751 318.538 235.159 318.47C235.635 318.402 236.11 318.266 236.586 318.198C241.207 317.247 244.062 316.5 244.333 316.364C255.479 313.376 262.139 310.252 265.197 308.69C265.265 308.69 265.333 308.622 265.401 308.622C265.808 308.418 266.216 308.214 266.624 307.942C274.643 303.528 282.05 297.687 288.235 291.031C302.098 275.953 306.651 259.584 308.147 254.219C309.574 249.125 310.457 244.031 311.001 239.141C311.069 238.665 311.069 238.258 311.137 237.783C314.127 203.959 297.817 176.588 295.71 173.192ZM173.724 267.531C170.87 269.772 163.259 274.798 153.133 274.798C152.521 274.798 151.91 274.798 151.366 274.73C141.92 274.187 133.017 269.229 126.153 260.739C113.513 244.982 118.474 224.606 120.309 218.765C120.309 218.629 120.377 218.494 120.445 218.358C120.581 217.882 120.785 217.271 120.988 216.66C121.532 216.388 122.144 216.184 122.687 215.981C125.949 214.622 129.347 213.4 132.677 212.313C133.357 212.109 134.104 211.838 134.784 211.634C140.696 209.8 146.745 208.374 152.861 207.423C157.55 206.676 162.307 206.132 167.064 205.861C167.744 205.793 168.356 205.793 169.035 205.725C172.501 205.521 176.035 205.521 179.501 205.589C180.044 205.589 180.588 205.589 181.132 205.657C181.404 206.132 181.675 206.608 181.947 207.083C183.239 209.46 184.122 211.566 184.802 213.264C185.345 214.69 187.86 222.093 187.86 231.942C187.792 238.054 187.724 256.596 173.724 267.531ZM209.403 277.039C207.975 278.534 206.344 279.824 204.645 280.911C203.15 281.862 201.587 282.609 199.888 283.22C199.617 283.288 199.345 283.356 199.073 283.356C198.801 283.356 198.529 283.288 198.257 283.22C196.626 282.609 194.995 281.862 193.5 280.911C191.733 279.824 190.102 278.534 188.743 277.039C188.471 276.768 188.471 276.36 188.743 276.089C189.015 275.817 189.423 275.817 189.695 276.089C191.054 277.515 192.549 278.737 194.248 279.756C195.675 280.639 197.17 281.386 198.733 281.93C198.937 281.998 199.141 281.998 199.413 281.93C200.976 281.386 202.471 280.639 203.898 279.756C205.529 278.737 207.092 277.447 208.451 276.089C208.723 275.817 209.131 275.817 209.403 276.089C209.606 276.36 209.606 276.768 209.403 277.039ZM272.196 260.739C265.401 269.229 256.43 274.187 246.984 274.73C246.372 274.798 245.76 274.798 245.217 274.798C235.091 274.798 227.48 269.772 224.625 267.531C210.626 256.596 210.558 238.054 210.558 231.942V231.738C210.558 222.025 213.072 214.622 213.616 213.264C214.296 211.498 215.043 209.8 215.043 209.8C215.655 208.577 216.13 207.559 216.47 207.015C216.538 206.947 216.606 206.812 216.606 206.744C216.606 206.744 216.878 206.268 217.286 205.589C217.829 205.589 218.373 205.589 218.917 205.521C222.383 205.453 225.917 205.453 229.382 205.657C230.062 205.657 230.674 205.725 231.353 205.793C236.042 206.065 240.732 206.608 245.353 207.355C251.605 208.374 257.721 209.8 263.77 211.702C264.449 211.906 265.197 212.109 265.876 212.381C269.274 213.468 272.604 214.69 275.866 216.049C276.41 216.252 277.021 216.524 277.565 216.728C277.701 217.135 277.905 217.747 278.109 218.426C278.109 218.494 278.177 218.562 278.177 218.697C279.06 222.093 285.516 244.167 272.196 260.739Z" fill="#BCB5D9"/>
<path d="M233.936 318.809C233.528 318.877 233.052 319.013 232.576 319.081V319.149C232.576 319.556 232.576 320.032 232.576 320.439C232.033 330.559 225.509 338.642 217.626 338.642C210.49 338.642 204.51 332.189 203.014 323.564C202.947 323.156 202.879 322.681 202.811 322.205C202.335 322.205 201.927 322.205 201.451 322.205C201.519 322.681 201.587 323.088 201.655 323.564C203.218 332.936 209.81 340 217.694 340C226.46 340 233.596 331.238 234.072 320.236C234.072 319.896 234.072 319.556 234.072 319.217C233.936 319.013 233.936 318.945 233.936 318.809Z" fill="#6B4A97"/>
<path d="M267.1 309.301C266.964 308.893 266.828 308.418 266.692 308.01C266.284 308.214 265.876 308.418 265.469 308.689C265.604 309.097 265.808 309.572 265.876 309.98C267.983 316.976 266.42 323.971 261.323 327.503C254.527 332.257 243.994 328.929 237.877 320.168C237.741 319.964 237.538 319.692 237.402 319.488C237.13 319.081 236.858 318.673 236.654 318.266C236.178 318.334 235.771 318.47 235.227 318.538C235.431 318.945 235.703 319.353 235.974 319.76C236.178 320.168 236.45 320.575 236.722 320.915C241.207 327.367 248.003 330.967 254.187 330.967C257.042 330.967 259.76 330.22 262.071 328.522C267.779 324.718 269.478 316.908 267.1 309.301Z" fill="#6B4A97"/>
<path d="M199.073 322.205C199.073 322.205 198.801 322.205 198.325 322.205C198.257 322.681 198.189 323.088 198.121 323.564C196.558 332.189 190.646 338.642 183.51 338.642C175.627 338.642 169.103 330.695 168.559 320.643C168.492 320.168 168.491 319.692 168.491 319.285C168.356 319.285 168.22 319.217 168.22 319.217C167.88 319.149 167.472 319.081 167.132 319.013V319.149C167.132 319.557 167.132 319.964 167.132 320.372C167.608 331.306 174.744 340 183.442 340C191.258 340 197.85 332.936 199.413 323.564C199.481 323.088 199.549 322.681 199.617 322.205H199.073Z" fill="#6B4A97"/>
<path d="M164.21 318.402C163.938 318.809 163.734 319.217 163.462 319.624C163.327 319.828 163.259 319.964 163.123 320.168C160.133 324.447 155.987 327.571 151.57 328.929C147.152 330.288 142.939 329.812 139.677 327.503C134.648 323.971 133.085 317.044 135.056 310.116C135.192 309.708 135.328 309.233 135.464 308.825L135.328 308.758C134.988 308.554 134.58 308.35 134.24 308.146C134.104 308.554 133.968 309.029 133.833 309.437C131.522 316.976 133.289 324.718 138.861 328.59C141.172 330.22 143.89 331.035 146.813 331.035C148.512 331.035 150.211 330.763 151.977 330.22C154.356 329.473 156.667 328.318 158.705 326.756C160.812 325.194 162.647 323.224 164.278 320.983C164.482 320.643 164.754 320.304 164.958 319.964C165.229 319.557 165.501 319.149 165.705 318.742C165.161 318.606 164.686 318.47 164.21 318.402Z" fill="#6B4A97"/>
<path d="M103.931 172.309C102.775 172.852 101.552 173.531 100.329 174.279C93.1253 178.693 85.9217 186.164 80.0772 195.197C67.9126 214.079 65.3982 234.183 74.5046 240.092C76.2716 241.246 78.3103 241.79 80.5529 241.79C82.9315 241.79 85.5819 241.178 88.3682 239.956C88.7759 239.752 89.2517 239.548 89.6594 239.345C89.5914 238.869 89.5235 238.394 89.5235 237.918C89.1157 238.122 88.64 238.326 88.2323 238.53C82.9995 240.839 78.5142 241.043 75.2522 238.937C66.7573 233.436 69.4077 214.147 81.1646 195.877C86.9411 186.979 93.9408 179.644 101.009 175.297C101.552 174.958 102.028 174.686 102.572 174.414C103.319 174.007 104.067 173.599 104.814 173.26C104.882 173.192 104.882 173.124 104.95 173.056C105.154 172.716 105.562 172.105 106.173 171.222C105.426 171.63 104.678 171.901 103.931 172.309Z" fill="#6B4A97"/>
<path d="M88.2323 238.597C82.9995 240.907 78.5142 241.11 75.2522 239.005C66.7574 233.503 69.4078 214.215 81.1646 195.944C86.9411 187.047 93.9408 179.712 101.009 175.365C101.552 175.026 102.028 174.754 102.572 174.482C98.1543 182.225 85.3101 207.83 88.2323 238.597Z" fill="#BCB5D9"/>
<path d="M320.991 195.197C315.078 186.164 307.875 178.693 300.671 174.211C299.244 173.328 297.885 172.649 296.593 172.037C295.846 171.698 295.098 171.426 294.419 171.154C294.895 171.901 295.37 172.581 295.71 173.124C296.458 173.464 297.205 173.803 297.953 174.211C298.632 174.55 299.312 174.958 300.059 175.433C307.127 179.78 314.127 187.115 319.903 196.013C331.66 214.283 334.379 233.572 325.884 239.073C322.486 241.314 317.729 240.907 312.564 238.53C312.156 238.326 311.68 238.122 311.273 237.918C311.205 238.394 311.205 238.801 311.137 239.277C311.612 239.48 312.02 239.684 312.428 239.888C315.35 241.178 318.136 241.858 320.651 241.858C322.893 241.858 324.864 241.314 326.563 240.228C335.67 234.251 333.155 214.079 320.991 195.197Z" fill="#6B4A97"/>
<path d="M325.748 239.005C322.35 241.246 317.593 240.839 312.428 238.462C315.35 207.355 302.098 181.614 297.885 174.211C298.564 174.55 299.244 174.958 299.991 175.433C307.059 179.78 314.059 187.115 319.835 196.013C331.592 214.215 334.31 233.504 325.748 239.005Z" fill="#BCB5D9"/>
<path d="M199.073 283.084C198.869 283.084 198.597 283.016 198.393 282.948C196.762 282.337 195.199 281.59 193.704 280.707C192.005 279.62 190.374 278.33 188.947 276.836C188.811 276.7 188.811 276.496 188.947 276.36C189.083 276.224 189.287 276.224 189.423 276.36C190.782 277.786 192.345 279.077 194.044 280.096C195.471 280.979 196.966 281.726 198.597 282.337C198.869 282.473 199.209 282.473 199.481 282.337C201.044 281.794 202.607 281.047 204.034 280.096C205.733 279.077 207.228 277.786 208.655 276.36C208.791 276.224 208.995 276.224 209.131 276.36C209.267 276.496 209.267 276.7 209.131 276.836C207.704 278.33 206.141 279.62 204.374 280.707C202.879 281.59 201.316 282.405 199.685 282.948C199.549 283.016 199.277 283.084 199.073 283.084Z" fill="#6B4A97"/>
<path d="M209.335 276.089C209.063 275.817 208.655 275.817 208.383 276.089C207.024 277.515 205.529 278.737 203.83 279.756C202.403 280.639 200.908 281.386 199.345 281.93C199.141 281.997 198.937 281.997 198.665 281.93C197.102 281.386 195.607 280.639 194.18 279.756C192.549 278.737 190.986 277.447 189.627 276.089C189.355 275.817 188.947 275.817 188.675 276.089C188.403 276.36 188.403 276.768 188.675 277.039C190.102 278.534 191.733 279.824 193.432 280.911C194.927 281.862 196.49 282.609 198.189 283.22C198.461 283.288 198.733 283.356 199.005 283.356C199.277 283.356 199.549 283.288 199.82 283.22C201.451 282.609 203.082 281.862 204.578 280.911C206.344 279.824 207.975 278.534 209.335 277.039C209.606 276.768 209.606 276.36 209.335 276.089Z" fill="#6B4A97"/>
<path d="M278.109 218.765C278.109 218.697 278.041 218.561 278.041 218.494C277.837 217.814 277.633 217.203 277.497 216.796C276.953 216.592 276.342 216.32 275.798 216.116C272.536 214.758 269.206 213.535 265.808 212.449C265.129 212.245 264.381 211.973 263.701 211.77C257.653 209.936 251.537 208.509 245.285 207.423C240.664 206.676 235.974 206.132 231.285 205.861C230.606 205.793 229.994 205.793 229.314 205.725C225.849 205.521 222.315 205.521 218.849 205.589C218.305 205.589 217.761 205.589 217.218 205.657C216.81 206.336 216.538 206.811 216.538 206.811C216.538 206.879 216.47 206.947 216.402 207.083C216.13 207.627 215.587 208.577 214.975 209.868C214.975 209.868 214.228 211.498 213.548 213.332C213.004 214.69 210.49 222.093 210.49 231.806V232.009C210.49 238.122 210.558 256.664 224.557 267.599C227.412 269.84 235.023 274.866 245.149 274.866C245.76 274.866 246.372 274.866 246.916 274.798C256.362 274.255 265.265 269.297 272.128 260.807C285.516 244.167 279.06 222.093 278.109 218.765ZM241.411 230.651C236.246 230.651 232.033 226.44 232.033 221.278C232.033 216.116 236.246 211.905 241.411 211.905C246.576 211.905 250.789 216.116 250.789 221.278C250.857 226.44 246.644 230.651 241.411 230.651Z" fill="#6B4A97"/>
<path d="M278.109 218.765C278.109 218.697 278.041 218.561 278.041 218.494C277.837 217.814 277.633 217.203 277.497 216.796C276.953 216.592 276.342 216.32 275.798 216.116C272.536 214.758 269.206 213.535 265.808 212.449C265.129 212.245 264.381 211.973 263.701 211.77C257.653 209.936 251.537 208.509 245.285 207.423C240.664 206.676 235.974 206.132 231.285 205.861C230.606 205.793 229.994 205.793 229.314 205.725C225.849 205.521 222.315 205.521 218.849 205.589C218.305 205.589 217.761 205.589 217.218 205.657C216.81 206.336 216.538 206.811 216.538 206.811C216.538 206.879 216.47 206.947 216.402 207.083C216.13 207.627 215.587 208.577 214.975 209.868C214.975 209.868 214.228 211.498 213.548 213.332C213.004 214.69 210.49 222.093 210.49 231.806V232.009C210.49 238.122 210.558 256.664 224.557 267.599C227.412 269.84 235.023 274.866 245.149 274.866C245.76 274.866 246.372 274.866 246.916 274.798C256.362 274.255 265.265 269.297 272.128 260.807C285.516 244.167 279.06 222.093 278.109 218.765ZM241.411 211.837C246.576 211.837 250.789 216.048 250.789 221.21C250.789 226.372 246.576 230.583 241.411 230.583C236.246 230.583 232.033 226.372 232.033 221.21C232.033 216.048 236.246 211.837 241.411 211.837ZM243.11 237.918C249.43 237.511 254.119 240.431 256.158 241.654C259.964 243.963 263.09 247.291 265.468 251.434C265.197 251.842 264.857 252.181 264.517 252.657C259.624 258.769 253.236 262.301 246.508 262.709C238.625 263.184 232.712 259.245 230.538 257.547C228.159 255.713 226.188 253.404 224.693 250.755C225.305 249.668 225.984 248.649 226.732 247.631C228.703 244.846 234.411 238.394 243.11 237.918ZM271.177 259.924C264.517 268.21 256.158 272.896 246.984 273.44C236.382 274.051 228.431 268.821 225.509 266.512C212.053 255.985 211.985 237.918 211.985 232.009C211.985 222.433 214.431 215.165 214.975 213.807C215.655 211.973 216.606 209.664 218.101 207.083C221.431 206.947 224.761 207.015 228.091 207.151C227.072 208.238 226.256 209.189 225.713 209.936C223.402 212.992 222.247 215.777 221.499 217.814C221.091 218.901 219.189 224.47 219.189 231.738V231.873C219.189 235.405 219.189 243.623 223.402 251.162L224.014 252.249V252.181C225.577 254.694 227.547 256.868 229.79 258.701C231.965 260.399 237.673 264.203 245.353 264.203C245.828 264.203 246.236 264.203 246.712 264.135C253.847 263.727 260.575 259.924 265.74 253.54C265.944 253.268 266.148 253.064 266.352 252.792V252.86L266.964 251.977C274.983 240.295 271.449 226.1 270.158 221.957C269.682 220.463 268.798 217.543 266.964 214.283C270.158 215.369 273.352 216.524 276.478 217.882C276.682 218.426 276.818 218.833 276.885 219.241C278.584 224.878 283.41 244.642 271.177 259.924Z" fill="#6B4A97"/>
<path d="M250.857 221.278C250.857 226.44 246.644 230.651 241.479 230.651C236.314 230.651 232.101 226.44 232.101 221.278C232.101 216.116 236.314 211.905 241.479 211.905C246.644 211.837 250.857 216.048 250.857 221.278Z" fill="white"/>
<path d="M271.177 259.924C264.517 268.21 256.158 272.896 246.984 273.44C236.382 274.051 228.431 268.821 225.509 266.512C212.053 255.984 211.985 237.918 211.985 232.009C211.985 222.433 214.432 215.165 214.975 213.807C215.655 211.973 216.606 209.664 218.101 207.083C221.431 206.947 224.761 207.015 228.091 207.151C227.072 208.238 226.256 209.189 225.713 209.936C223.402 212.992 222.247 215.777 221.499 217.814C221.091 218.901 219.189 224.47 219.189 231.738V231.873C219.189 235.405 219.189 243.623 223.402 251.162L224.014 252.249V252.181C225.577 254.694 227.548 256.867 229.79 258.701C231.965 260.399 237.673 264.203 245.353 264.203C245.828 264.203 246.236 264.203 246.712 264.135C253.848 263.727 260.575 259.924 265.74 253.539C265.944 253.268 266.148 253.064 266.352 252.792V252.86L266.964 251.977C274.983 240.295 271.449 226.1 270.158 221.957C269.682 220.463 268.798 217.543 266.964 214.282C270.158 215.369 273.352 216.524 276.478 217.882C276.682 218.425 276.818 218.833 276.885 219.241C278.584 224.878 283.41 244.642 271.177 259.924Z" fill="white"/>
<path d="M265.468 251.434C265.197 251.842 264.857 252.181 264.517 252.657C259.624 258.769 253.236 262.301 246.508 262.709C238.625 263.184 232.712 259.245 230.538 257.547C228.159 255.713 226.188 253.404 224.693 250.755C225.305 249.668 225.984 248.649 226.732 247.563C228.771 244.846 234.411 238.462 243.178 237.918C249.498 237.511 254.187 240.431 256.226 241.654C259.964 243.963 263.09 247.291 265.468 251.434Z" fill="#BCB5D9"/>
<path d="M174.676 251.91C174.676 251.977 174.608 251.977 174.608 252.045C174.608 252.113 174.54 252.181 174.54 252.181L175.151 251.094C174.948 251.366 174.812 251.638 174.676 251.91ZM131.522 251.91L132.134 252.792C131.93 252.453 131.726 252.181 131.522 251.91ZM174.676 251.91C174.676 251.977 174.608 251.977 174.608 252.045C174.608 252.113 174.54 252.181 174.54 252.181L175.151 251.094C174.948 251.366 174.812 251.638 174.676 251.91ZM131.522 251.91L132.134 252.792C131.93 252.453 131.726 252.181 131.522 251.91ZM174.676 251.91C174.676 251.977 174.608 251.977 174.608 252.045C174.608 252.113 174.54 252.181 174.54 252.181L175.151 251.094C174.948 251.366 174.812 251.638 174.676 251.91ZM131.522 251.91L132.134 252.792C131.93 252.453 131.726 252.181 131.522 251.91ZM174.676 251.91C174.676 251.977 174.608 251.977 174.608 252.045C174.608 252.113 174.54 252.181 174.54 252.181L175.151 251.094C174.948 251.366 174.812 251.638 174.676 251.91ZM131.522 251.91L132.134 252.792C131.93 252.453 131.726 252.181 131.522 251.91ZM131.522 251.91L132.134 252.792C131.93 252.453 131.726 252.181 131.522 251.91ZM174.676 251.91C174.676 251.977 174.608 251.977 174.608 252.045C174.608 252.113 174.54 252.181 174.54 252.181L175.151 251.094C174.948 251.366 174.812 251.638 174.676 251.91ZM131.522 251.91L132.134 252.792C131.93 252.453 131.726 252.181 131.522 251.91ZM174.676 251.91C174.676 251.977 174.608 251.977 174.608 252.045C174.608 252.113 174.54 252.181 174.54 252.181L175.151 251.094C174.948 251.366 174.812 251.638 174.676 251.91Z" fill="#6B4A97"/>
<path d="M184.734 213.264C184.054 211.498 183.239 209.392 181.879 207.083C181.608 206.608 181.336 206.132 181.064 205.657C180.52 205.657 179.977 205.589 179.433 205.589C175.967 205.521 172.433 205.521 168.967 205.725C168.288 205.725 167.676 205.793 166.996 205.861C162.239 206.132 157.482 206.676 152.793 207.423C146.677 208.442 140.628 209.868 134.716 211.634C134.036 211.837 133.289 212.041 132.609 212.313C129.211 213.4 125.881 214.622 122.619 215.981C122.076 216.184 121.464 216.456 120.92 216.66C120.717 217.271 120.513 217.882 120.377 218.358C120.309 218.493 120.309 218.629 120.241 218.765C118.406 224.606 113.445 244.982 126.085 260.739C132.881 269.229 141.852 274.187 151.298 274.73C151.91 274.798 152.521 274.798 153.065 274.798C163.191 274.798 170.802 269.772 173.656 267.531C187.656 256.596 187.724 238.054 187.724 231.941C187.86 222.093 185.277 214.69 184.734 213.264ZM156.939 211.837C162.103 211.837 166.317 216.048 166.317 221.21C166.317 226.372 162.103 230.583 156.939 230.583C151.774 230.583 147.56 226.372 147.56 221.21C147.56 216.048 151.774 211.837 156.939 211.837ZM142.259 241.654C144.298 240.431 148.987 237.511 155.308 237.918C164.006 238.462 169.715 244.846 171.754 247.563C172.501 248.581 173.181 249.668 173.792 250.755C172.229 253.404 170.258 255.713 167.88 257.615C165.705 259.313 159.793 263.252 151.91 262.776C145.182 262.369 138.794 258.837 133.901 252.724C133.561 252.317 133.221 251.909 132.949 251.502C135.26 247.291 138.454 243.963 142.259 241.654ZM172.909 266.444C169.987 268.753 162.035 273.983 151.434 273.372C142.395 272.828 133.765 268.074 127.241 259.856C115.008 244.642 119.833 224.81 121.6 219.105C121.736 218.697 121.872 218.222 122.076 217.611C125.202 216.32 128.396 215.098 131.59 214.011C129.755 217.339 128.804 220.259 128.328 221.754C127.037 225.829 123.571 240.024 131.454 251.638L131.522 251.706C131.726 251.977 131.93 252.317 132.134 252.589C132.337 252.86 132.541 253.132 132.745 253.336C137.842 259.72 144.638 263.524 151.774 263.931C152.249 263.931 152.725 263.999 153.133 263.999C160.812 263.999 166.521 260.196 168.695 258.498C171.006 256.664 172.977 254.49 174.54 251.977C174.54 251.909 174.608 251.842 174.608 251.842C174.608 251.842 174.676 251.774 174.676 251.706C174.812 251.434 175.016 251.162 175.151 250.891C179.297 243.42 179.365 235.134 179.365 231.602C179.365 224.267 177.462 218.629 177.054 217.543C176.307 215.505 175.083 212.72 172.773 209.596C172.229 208.849 171.414 207.83 170.394 206.811C173.724 206.676 177.054 206.676 180.384 206.811C181.879 209.392 182.831 211.702 183.51 213.535C183.986 214.894 186.501 222.093 186.501 231.602V231.738C186.433 237.85 186.365 255.917 172.909 266.444Z" fill="#6B4A97"/>
<path d="M166.317 221.278C166.317 226.44 162.103 230.651 156.938 230.651C151.774 230.651 147.56 226.44 147.56 221.278C147.56 216.116 151.774 211.905 156.938 211.905C162.103 211.905 166.317 216.048 166.317 221.278Z" fill="white"/>
<path d="M186.433 231.806V231.941C186.433 237.85 186.365 255.917 172.841 266.444C169.919 268.753 161.967 273.983 151.366 273.372C142.327 272.828 133.697 268.074 127.173 259.856C114.94 244.642 119.765 224.81 121.532 219.105C121.668 218.697 121.804 218.222 122.008 217.611C125.134 216.32 128.328 215.098 131.522 214.011C129.687 217.339 128.736 220.259 128.26 221.754C126.969 225.829 123.503 240.024 131.386 251.638L131.454 251.706L132.066 252.589C132.27 252.86 132.473 253.132 132.677 253.336C137.774 259.72 144.57 263.524 151.706 263.931C152.181 263.931 152.657 263.999 153.065 263.999C160.744 263.999 166.453 260.196 168.627 258.498C170.938 256.664 172.909 254.49 174.472 251.977L175.083 250.891C179.229 243.42 179.297 235.134 179.297 231.602C179.297 224.267 177.394 218.629 176.986 217.543C176.239 215.505 175.016 212.721 172.705 209.596C172.161 208.849 171.346 207.83 170.326 206.812C173.656 206.676 176.986 206.676 180.316 206.812C181.811 209.393 182.763 211.702 183.442 213.536C183.986 215.098 186.433 222.297 186.433 231.806Z" fill="white"/>
<path d="M173.724 250.755C172.161 253.472 170.19 255.713 167.812 257.615C165.637 259.313 159.725 263.252 151.842 262.777C145.114 262.369 138.726 258.837 133.833 252.725C133.493 252.317 133.153 251.91 132.881 251.502C135.26 247.291 138.454 244.031 142.191 241.654C144.23 240.431 148.919 237.511 155.24 237.918C163.938 238.462 169.647 244.846 171.685 247.563C172.433 248.582 173.113 249.668 173.724 250.755Z" fill="#BCB5D9"/>
</g>
<rect x="18" y="512" width="340" height="100" rx="30" fill="#D4CBFD"/>
<path d="M149.194 47.8652C149.194 50.917 150.61 54.4814 154.272 56.2148L152.344 58.8516C150 57.814 148.401 55.8242 147.485 53.4561C146.521 56.0073 144.836 58.1558 142.31 59.2178L140.405 56.5078C144.165 54.8721 145.679 51.0635 145.703 47.8652V47.3037H141.235V44.5205H145.679V41.4688H149.219V44.5205H153.613V47.3037H149.194V47.8652ZM158.667 40.9316V49.4766H161.841V52.4062H158.667V63.3438H155.151V40.9316H158.667ZM182.959 52.3086V55.043H174.756V58.4121H171.289V55.043H162.476V52.3086H182.959ZM180.713 60.1699V62.9775H164.795V56.752H168.286V60.1699H180.713ZM168.53 41.6396V43.8125H176.855V41.6396H180.322V50.9414H165.088V41.6396H168.53ZM168.53 48.1826H176.855V46.4004H168.53V48.1826ZM201.953 40.9561V47.6699H204.858V50.5264H201.953V57.6797H198.438V40.9561H201.953ZM197.363 43.2021V45.9365H184.082V43.2021H188.965V40.9316H192.48V43.2021H197.363ZM190.723 46.5713C193.994 46.5713 196.289 48.3535 196.289 50.9658C196.289 53.5537 193.994 55.2871 190.723 55.2871C187.451 55.2871 185.107 53.5537 185.132 50.9658C185.107 48.3535 187.451 46.5713 190.723 46.5713ZM190.723 49.2568C189.429 49.2568 188.55 49.8428 188.55 50.9658C188.55 52.0889 189.429 52.626 190.723 52.6504C192.041 52.626 192.944 52.0889 192.944 50.9658C192.944 49.8428 192.041 49.2568 190.723 49.2568ZM202.686 60.1699V62.9775H187.256V56.3857H190.771V60.1699H202.686ZM215.186 42.9092V48.0117H217.7V42.9092H220.898V49.0127H222.754V41.2734H226.074V62.3916H222.754V51.8691H220.898V58.1191H211.865V42.9092H215.186ZM215.186 55.2627H217.7V50.7705H215.186V55.2627ZM230.786 40.9316V63.3438H227.417V40.9316H230.786ZM251.758 40.9316V63.3926H248.267V40.9316H251.758ZM244.775 42.7627V51.6006H237.72V55.3115C241.028 55.2871 243.787 55.1162 246.851 54.6035L247.144 57.4355C243.604 58.0703 240.308 58.2168 236.133 58.2168H234.082V48.8418H241.187V45.5703H234.082V42.7627H244.775ZM153.934 72.2734V73.9375H163.074V72.2734H165.652V79.3516H151.355V72.2734H153.934ZM153.934 77.3828H163.074V75.8359H153.934V77.3828ZM168.16 80.7109V82.75H148.848V80.7109H168.16ZM165.746 84.25V89.3594H153.699V90.9062H166.332V92.8984H151.145V87.5312H163.191V86.1719H151.121V84.25H165.746ZM186.676 72.625V78.6484H174.512V80.7578H187.145V82.8438H171.887V76.6797H184.004V74.7344H171.84V72.625H186.676ZM188.926 84.6484V86.7344H180.512V93.1094H177.91V86.7344H169.566V84.6484H188.926ZM193.449 73.8906V78.8828H196.941V73.8906H199.309V79.7266H201.77V72.2969H204.254V92.1016H201.77V81.8828H199.309V87.9531H190.988V73.8906H193.449ZM193.449 85.8203H196.941V80.9688H193.449V85.8203ZM208.613 71.8984V93.0859H206.105V71.8984H208.613ZM228.723 71.8984V93.1094H226.145V71.8984H228.723ZM222.207 73.75V81.6953H214.918V85.9609C218.258 85.9375 221.141 85.7734 224.434 85.2109L224.668 87.3438C221.059 87.9766 217.895 88.0938 214.098 88.0938H212.246V79.6328H219.559V75.8594H212.223V73.75H222.207ZM242.434 73.4219V83.0781H232.543V73.4219H242.434ZM235.098 75.5078V80.9922H239.855V75.5078H235.098ZM248.527 71.8984V77.3594H251.48V79.5391H248.527V85.9141H245.926V71.8984H248.527ZM243.16 85.4922C243.137 88.0469 245.762 90.3203 250.027 90.9297L248.996 92.9688C245.715 92.4414 243.16 90.9531 241.895 88.8438C240.582 90.9531 238.027 92.4414 234.746 92.9688L233.715 90.9297C237.957 90.3203 240.559 88.0469 240.559 85.4922V84.9062H243.16V85.4922Z" fill="#6B4A97"/>
<path d="M92.7852 555.863L91.2031 554.301L95.4219 550.082H85.5V547.777H95.4219L91.2031 543.578L92.7852 542.016L99.7188 548.93L92.7852 555.863ZM121.145 544.828V546.801H108.801V540.492H111.301V544.828H121.145ZM122.961 548.402V550.355H116.262V553.5H113.781V550.355H106.711V548.402H122.961ZM121.281 555.492V557.484H108.625V552.133H111.105V555.492H121.281ZM138.879 540.023V557.836H136.359V540.023H138.879ZM129.23 541.273C131.906 541.273 133.898 543.734 133.898 547.602C133.898 551.508 131.906 553.949 129.23 553.949C126.496 553.949 124.504 551.508 124.523 547.602C124.504 543.734 126.496 541.273 129.23 541.273ZM129.23 543.52C127.844 543.52 126.926 544.965 126.926 547.602C126.926 550.258 127.844 551.684 129.23 551.684C130.578 551.684 131.496 550.258 131.496 547.602C131.496 544.965 130.578 543.52 129.23 543.52ZM161.301 540.023V550.57H158.879V546.273H157.355V549.789H152.199V540.98H154.211V543.52H155.363V540.98H157.355V544.242H158.879V540.023H161.301ZM161.301 551.273V557.777H158.801V553.266H148.371V551.273H161.301ZM148.254 540.98V543.52H149.426V540.98H151.457V549.789H146.203V540.98H148.254ZM148.254 547.777H149.426V545.434H148.254V547.777ZM154.211 547.777H155.363V545.434H154.211V547.777ZM178.586 540.023V550.57H176.164V546.273H174.641V549.789H169.484V540.98H171.496V543.52H172.648V540.98H174.641V544.242H176.164V540.023H178.586ZM178.586 551.273V557.777H176.086V553.266H165.656V551.273H178.586ZM165.539 540.98V543.52H166.711V540.98H168.742V549.789H163.488V540.98H165.539ZM165.539 547.777H166.711V545.434H165.539V547.777ZM171.496 547.777H172.648V545.434H171.496V547.777ZM194.484 540.023V546.977H197.102V549.027H194.484V557.797H192.023V540.023H194.484ZM190.812 542.68V544.672H180.363V542.68H184.387V540.297H186.887V542.68H190.812ZM185.637 545.668C188.234 545.668 190.168 547.426 190.168 549.906C190.168 552.387 188.234 554.145 185.637 554.145C183.02 554.145 181.086 552.387 181.086 549.906C181.086 547.426 183.02 545.668 185.637 545.668ZM185.637 547.68C184.387 547.699 183.469 548.539 183.469 549.906C183.469 551.293 184.387 552.113 185.637 552.094C186.887 552.113 187.785 551.293 187.785 549.906C187.785 548.539 186.887 547.699 185.637 547.68ZM212.395 541.566V543.246C212.395 545.473 212.395 547.973 211.672 551.742L209.172 551.488C209.846 548.129 209.875 545.629 209.895 543.539H199.426V541.566H212.395ZM213.957 553.598V555.629H197.746V553.598H203.547V547.484H206.027V553.598H213.957ZM234.582 540.023V557.797H232.062V540.023H234.582ZM230.148 541.664V543.656H228.566V551.371C229.348 551.322 230.119 551.244 230.871 551.156L230.988 553.012C227.199 553.637 223.098 553.695 219.836 553.715L219.602 551.684L221.652 551.664V543.656H220.09V541.664H230.148ZM224.074 551.605L226.145 551.527V543.656H224.074V551.605ZM251.184 541.02V542.27C251.184 543.637 251.184 545.355 250.695 547.543L248.215 547.289C248.605 545.502 248.674 544.164 248.703 542.973H238.781V541.02H251.184ZM253.098 548.5V550.512H236.965V548.5H243.02V545.16H245.48V548.5H253.098ZM251.574 555.492V557.484H238.84V551.996H241.34V555.492H251.574ZM268.312 539.984V543.852H270.715V545.844H268.312V549.613H265.812V539.984H268.312ZM268.312 550.336V554.828H258.996V555.844H268.82V557.68H256.555V553.129H265.832V552.133H256.516V550.336H268.312ZM264.758 541.352V543.246H254.211V541.352H258.254V539.906H260.734V541.352H264.758ZM259.484 543.676C262.141 543.676 263.859 544.809 263.859 546.586C263.859 548.402 262.141 549.496 259.484 549.496C256.828 549.496 255.07 548.402 255.07 546.586C255.07 544.809 256.828 543.676 259.484 543.676ZM259.484 545.434C258.254 545.434 257.492 545.844 257.512 546.586C257.492 547.348 258.254 547.719 259.484 547.719C260.715 547.719 261.496 547.348 261.496 546.586C261.496 545.844 260.715 545.434 259.484 545.434ZM288.098 540.355V544.965H289.348V540.023H291.711V553.168H289.348V546.918H288.098V552.66H285.812V540.355H288.098ZM280.188 541.605V543.598H278.723V548.285C279.201 548.246 279.719 548.178 280.285 548.07L280.461 550.043C279.152 550.316 278.156 550.316 277.219 550.316H276.438V541.605H280.188ZM284.875 541.605V543.598H283.234V548.305C283.771 548.256 284.357 548.178 285.012 548.031L285.227 550.062C283.859 550.316 282.824 550.316 281.789 550.316H280.969V541.605H284.875ZM292.102 555.492V557.484H279.172V551.723H281.672V555.492H292.102Z" fill="#6B4A97"/>
<path d="M82.2969 567.625V571.746H84.7578V567.625H87.0234V572.508H88.8008V566.316H91.1445V583.016H88.8008V574.539H87.0234V579.578H79.9531V567.625H82.2969ZM82.2969 577.547H84.7578V573.719H82.2969V577.547ZM94.8555 566.023V583.797H92.4727V566.023H94.8555ZM111.633 566.023V583.836H109.152V566.023H111.633ZM106.125 567.508V574.363H100.266V577.625C102.971 577.615 105.275 577.459 107.883 577.039L108.098 579.051C105.168 579.559 102.531 579.676 99.2891 579.676H97.6875V572.391H103.586V569.52H97.668V567.508H106.125ZM119.777 567.215C122.59 567.195 124.699 569.031 124.699 571.57C124.699 574.129 122.59 575.945 119.777 575.945C116.965 575.945 114.836 574.129 114.836 571.57C114.836 569.031 116.965 567.195 119.777 567.215ZM119.777 569.363C118.371 569.363 117.297 570.184 117.316 571.57C117.297 572.977 118.371 573.777 119.777 573.777C121.184 573.777 122.258 572.977 122.277 571.57C122.258 570.184 121.203 569.363 119.777 569.363ZM128.957 566.023V583.836H126.477V566.023H128.957ZM114.094 578.172C117.258 578.191 121.652 578.133 125.461 577.605L125.656 579.402C121.711 580.164 117.492 580.203 114.387 580.203L114.094 578.172ZM140.441 566.316V567.566H147.57V566.316H150.051V572.293H137.98V566.316H140.441ZM140.441 570.438H147.57V569.363H140.441V570.438ZM152.121 573.27V575.203H135.91V573.27H152.121ZM150.148 576.258V580.75H140.246V581.805H150.617V583.68H137.805V579.012H147.688V578.074H137.785V576.258H150.148ZM167.57 566.57V571.863H157.629V573.348H167.98V575.34H155.109V569.988H165.012V568.582H155.051V566.57H167.57ZM169.445 576.668V578.66H162.531V583.836H160.031V578.66H153.176V576.668H169.445ZM173.332 567.625V571.746H175.793V567.625H178.059V572.508H179.836V566.316H182.18V583.016H179.836V574.539H178.059V579.578H170.988V567.625H173.332ZM173.332 577.547H175.793V573.719H173.332V577.547ZM185.891 566.023V583.797H183.508V566.023H185.891ZM202.668 566.023V583.836H200.188V566.023H202.668ZM197.16 567.508V574.363H191.301V577.625C194.006 577.615 196.311 577.459 198.918 577.039L199.133 579.051C196.203 579.559 193.566 579.676 190.324 579.676H188.723V572.391H194.621V569.52H188.703V567.508H197.16ZM214.035 567.254V575.457H205.578V567.254H214.035ZM208.039 569.227V573.484H211.574V569.227H208.039ZM219.152 566.023V570.457H221.555V572.527H219.152V577.762H216.652V566.023H219.152ZM214.68 577.371C214.68 579.344 216.555 581.277 220.344 581.766L219.367 583.719C216.584 583.289 214.553 582.088 213.469 580.418C212.385 582.088 210.354 583.289 207.551 583.719L206.594 581.766C210.344 581.277 212.219 579.344 212.219 577.371V576.922H214.68V577.371ZM242.219 566.043V575.301H239.855V566.043H242.219ZM238.684 566.355V575.184H236.32V571.805H234.426V569.832H236.32V566.355H238.684ZM232.551 569.07C232.551 570.789 233.527 572.488 235.773 573.27L234.602 575.184C233.039 574.646 231.984 573.621 231.379 572.352C230.715 573.729 229.602 574.842 227.961 575.418L226.75 573.562C229.094 572.723 230.129 570.867 230.129 569.07V569.012H227.297V567.059H235.207V569.012H232.551V569.07ZM242.219 575.945V580.613H232.551V581.688H242.824V583.602H230.07V578.816H239.758V577.859H230.051V575.945H242.219ZM260.5 579.773V581.824H244.23V579.773H251.086V577.098H246.105V571.121H256.164V569.168H246.086V567.176H258.625V573.074H248.605V575.066H259.035V577.098H253.566V579.773H260.5ZM276.887 566.023V583.797H274.523V566.023H276.887ZM273.254 566.316V582.977H270.91V574.129H268.566V572.117H270.91V566.316H273.254ZM267.141 570.789C267.141 573.738 268.059 576.727 270.656 578.211L269.191 580.047C267.609 579.109 266.564 577.518 265.969 575.613C265.354 577.684 264.279 579.441 262.648 580.438L261.145 578.602C263.762 577 264.738 573.797 264.738 570.789V569.832H261.828V567.84H269.836V569.832H267.141V570.789ZM293.703 566.023V583.836H291.223V566.023H293.703ZM288.195 567.508V574.363H282.336V577.625C285.041 577.615 287.346 577.459 289.953 577.039L290.168 579.051C287.238 579.559 284.602 579.676 281.359 579.676H279.758V572.391H285.656V569.52H279.738V567.508H288.195ZM300.129 567.859L299.875 577.762H297.375L297.121 567.859H300.129ZM298.645 582.176C297.727 582.176 296.984 581.434 297.004 580.535C296.984 579.637 297.727 578.914 298.645 578.914C299.504 578.914 300.266 579.637 300.266 580.535C300.266 581.434 299.504 582.176 298.645 582.176Z" fill="#333333"/>
<path d="M64.1504 381.828V383.801H51.8066V377.492H54.3066V381.828H64.1504ZM65.9668 385.402V387.355H59.2676V390.5H56.7871V387.355H49.7168V385.402H65.9668ZM64.2871 392.492V394.484H51.6309V389.133H54.1113V392.492H64.2871ZM86.5918 377.043V390.031H84.1113V384.23H80.9277V382.18H84.1113V377.043H86.5918ZM81.084 378.352C81.084 383.117 78.0566 386.633 72.8613 388.254L71.8457 386.281C75.5273 385.129 77.9004 383.01 78.3691 380.383H72.7637V378.352H81.084ZM87.041 392.492V394.484H74.873V388.723H77.4121V392.492H87.041ZM102.998 377.023V381.203H105.4V383.234H102.998V387.336H100.498V377.023H102.998ZM98.0371 378.195C98.0566 382.941 95.0684 386.262 89.7754 387.727L88.7793 385.715C92.6953 384.67 94.9414 382.658 95.3223 380.188H89.6191V378.195H98.0371ZM97.1973 387.551C100.811 387.551 103.193 388.957 103.193 391.184C103.193 393.43 100.811 394.816 97.1973 394.816C93.584 394.816 91.1621 393.43 91.1816 391.184C91.1621 388.957 93.584 387.551 97.1973 387.551ZM97.1973 389.484C94.9512 389.484 93.623 390.09 93.6426 391.184C93.623 392.258 94.9512 392.883 97.1973 392.863C99.4043 392.883 100.732 392.258 100.732 391.184C100.732 390.09 99.4043 389.484 97.1973 389.484ZM125.166 377.57V382.863H115.225V384.348H125.576V386.34H112.705V380.988H122.607V379.582H112.646V377.57H125.166ZM127.041 387.668V389.66H120.127V394.836H117.627V389.66H110.771V387.668H127.041ZM135.264 378.996V380.949H130.986V383.781H134.561V385.676H130.986V388.859C132.891 388.85 134.297 388.742 135.947 388.469L136.162 390.48C134.131 390.852 132.412 390.871 129.814 390.871H128.623V378.996H135.264ZM143.486 377.023V394.797H141.084V377.023H143.486ZM139.717 377.336V393.996H137.393V385.5H135.4V383.508H137.393V377.336H139.717ZM160.244 377.043V389.816H157.744V377.043H160.244ZM160.713 392.492V394.484H148.33V388.527H150.85V392.492H160.713ZM150.498 378.176C153.232 378.176 155.361 380.051 155.361 382.648C155.361 385.305 153.232 387.16 150.498 387.16C147.764 387.16 145.635 385.305 145.635 382.648C145.635 380.051 147.764 378.176 150.498 378.176ZM150.498 380.344C149.111 380.324 148.057 381.203 148.076 382.648C148.057 384.133 149.111 384.992 150.498 384.992C151.846 384.992 152.9 384.133 152.9 382.648C152.9 381.203 151.846 380.324 150.498 380.344ZM172.041 390.832V387.18H168.389V384.738H172.041V381.086H174.482V384.738H178.135V387.18H174.482V390.832H172.041ZM195.439 378V379.992H191.885C192.002 381.867 193.34 383.742 196.123 384.504L194.873 386.438C192.842 385.861 191.416 384.641 190.615 383.078C189.805 384.768 188.35 386.105 186.24 386.75L184.99 384.797C187.822 383.977 189.199 382.004 189.326 379.992H185.674V378H195.439ZM199.814 377.023V386.672H197.314V377.023H199.814ZM190.381 387.414V389.074H197.334V387.414H199.814V394.602H187.92V387.414H190.381ZM190.381 392.609H197.334V391.008H190.381V392.609ZM218.428 385.09V387.102H211.553V388.41C214.648 388.645 216.475 389.758 216.494 391.594C216.475 393.645 214.15 394.797 210.303 394.797C206.396 394.797 204.072 393.645 204.072 391.594C204.072 389.748 205.918 388.635 209.072 388.41V387.102H202.217V385.09H218.428ZM210.303 390.246C207.842 390.266 206.592 390.695 206.611 391.594C206.592 392.453 207.842 392.922 210.303 392.922C212.705 392.922 213.975 392.453 213.994 391.594C213.975 390.695 212.705 390.266 210.303 390.246ZM216.963 377.785V379.738H212.139C212.559 380.988 214.365 382.189 217.744 382.473L216.865 384.426C213.516 384.104 211.25 382.834 210.303 381.105C209.365 382.834 207.139 384.104 203.76 384.426L202.939 382.473C206.23 382.189 208.047 380.979 208.506 379.738H203.701V377.785H216.963ZM228.037 378.059V383.605H222.666V385.5C225.312 385.5 226.875 385.412 228.682 385.07L228.916 387.062C226.846 387.434 224.971 387.492 221.533 387.492H220.205V381.75H225.537V380.012H220.166V378.059H228.037ZM234.482 377.043V387.98H232.002V385.246H229.053V383.273H232.002V381.477H229.053V379.504H232.002V377.043H234.482ZM234.482 388.781V394.797H232.002V390.773H222.236V388.781H234.482ZM249.307 379.016C249.297 380.686 249.16 382.268 248.779 383.742H250.693V377.414H253.018V394.016H250.693V385.754H248.076C247.1 387.863 245.439 389.719 242.725 391.262L241.338 389.562C243.594 388.254 245 386.779 245.85 385.051L241.709 385.48L241.436 383.371L246.553 383.098C246.709 382.434 246.807 381.74 246.865 381.008H242.314V379.016H249.307ZM256.807 377.023V394.797H254.463V377.023H256.807ZM263.584 378.273C265.986 378.273 267.773 380.256 268.135 383.449H271.221V377.023H273.682V394.836H271.221V385.441H268.154C267.891 388.859 266.064 390.949 263.584 390.949C260.889 390.949 258.955 388.508 258.975 384.602C258.955 380.734 260.889 378.273 263.584 378.273ZM263.584 380.52C262.256 380.52 261.338 381.965 261.357 384.602C261.338 387.258 262.256 388.684 263.584 388.684C264.932 388.684 265.811 387.258 265.811 384.602C265.811 381.965 264.932 380.52 263.584 380.52ZM288.682 377.941C292.51 377.941 295.361 379.875 295.381 382.805C295.361 385.48 293.105 387.287 289.912 387.648V390.676H296.846V392.727H280.576V390.676H287.432V387.629C284.248 387.287 282.002 385.471 282.002 382.805C282.002 379.875 284.854 377.941 288.682 377.941ZM288.682 379.934C286.201 379.934 284.463 381.027 284.463 382.805C284.463 384.68 286.201 385.734 288.682 385.734C291.182 385.734 292.9 384.68 292.92 382.805C292.9 381.027 291.182 379.934 288.682 379.934ZM305.439 378.859V383.488H307.217V377.277H309.561V393.977H307.217V385.48H305.439V390.324H298.369V378.859H305.439ZM300.693 380.832V388.371H303.115V380.832H300.693ZM313.271 377.023V394.797H310.889V377.023H313.271ZM329.17 377.023V383.84H331.689V385.891H329.17V394.758H326.67V377.023H329.17ZM324.424 378.84C324.404 384.152 322.334 388.762 316.357 391.691L314.951 389.777C319.16 387.668 321.416 384.836 321.885 380.871H315.967V378.84H324.424ZM338.252 393.195C335.146 393.195 332.92 391.477 332.861 389.016H335.83C335.889 390.07 336.904 390.773 338.271 390.773C339.678 390.773 340.693 389.973 340.674 388.84C340.693 387.688 339.658 386.867 337.998 386.867H336.689V384.699H337.998C339.385 384.699 340.361 383.938 340.361 382.824C340.361 381.75 339.541 381.008 338.291 381.008C337.041 381.008 336.006 381.711 335.967 382.785H333.154C333.193 380.344 335.4 378.664 338.291 378.664C341.24 378.664 343.213 380.402 343.193 382.648C343.213 384.23 342.1 385.363 340.518 385.637V385.754C342.588 386.008 343.74 387.277 343.721 389.035C343.74 391.457 341.436 393.195 338.252 393.195ZM349.248 378.859L348.994 388.762H346.494L346.24 378.859H349.248ZM347.764 393.176C346.846 393.176 346.104 392.434 346.123 391.535C346.104 390.637 346.846 389.914 347.764 389.914C348.623 389.914 349.385 390.637 349.385 391.535C349.385 392.434 348.623 393.176 347.764 393.176Z" fill="#6B4A97"/>
<path d="M77.1484 443.184V444.238H61.3672V443.184H68.6328V438.867H69.8633V443.184H77.1484ZM69.8633 432.695C69.8633 435.547 73.6719 437.93 76.3477 438.379L75.8203 439.375C73.3594 438.857 70.332 437.109 69.2578 434.629C68.1445 437.129 65.1367 438.896 62.7148 439.434L62.1875 438.438C64.8242 437.969 68.5938 435.547 68.5938 432.695V432.012H62.6758V430.938H75.8008V432.012H69.8633V432.695ZM94.3555 437.93V438.965H78.6523V437.93H82.6562V435.371C81.2402 434.854 80.4492 433.975 80.4492 432.793C80.4492 430.781 82.7344 429.648 86.4844 429.648C90.2344 429.648 92.5195 430.781 92.5195 432.793C92.5195 433.965 91.7383 434.844 90.3516 435.352V437.93H94.3555ZM86.5039 440.43C90.1953 440.41 92.4023 441.484 92.4023 443.438C92.4023 445.391 90.1953 446.484 86.5039 446.484C82.7734 446.484 80.5664 445.391 80.5664 443.438C80.5664 441.484 82.7734 440.41 86.5039 440.43ZM86.5039 441.387C83.6133 441.406 81.8164 442.168 81.8164 443.438C81.8164 444.727 83.6133 445.488 86.5039 445.488C89.3555 445.488 91.1719 444.727 91.1719 443.438C91.1719 442.168 89.3555 441.406 86.5039 441.387ZM86.4844 430.625C83.5547 430.625 81.6992 431.465 81.7188 432.793C81.6992 434.141 83.5547 434.961 86.4844 434.961C89.4141 434.961 91.2695 434.141 91.2695 432.793C91.2695 431.465 89.4141 430.625 86.4844 430.625ZM83.8867 437.93H89.1406V435.703C88.3691 435.859 87.4805 435.938 86.4844 435.938C85.5176 435.938 84.6484 435.859 83.8867 435.703V437.93ZM109.199 429.297V436.504H112.168V437.559H109.199V446.523H107.969V429.297H109.199ZM106.133 432.129V433.164H95.8398V432.129H100.43V429.473H101.66V432.129H106.133ZM101.074 434.746C103.496 434.746 105.234 436.348 105.234 438.652C105.234 440.957 103.496 442.559 101.074 442.559C98.6523 442.559 96.8945 440.957 96.9141 438.652C96.8945 436.348 98.6523 434.746 101.074 434.746ZM101.074 435.781C99.3555 435.801 98.0859 437.012 98.0859 438.652C98.0859 440.293 99.3555 441.504 101.074 441.484C102.793 441.504 104.062 440.293 104.062 438.652C104.062 437.012 102.793 435.801 101.074 435.781ZM126.914 431.113V432.852C126.895 434.961 126.895 437.305 126.289 440.703L125.039 440.547C125.664 437.305 125.664 434.922 125.684 432.852V432.148H114.922V431.113H126.914ZM128.926 442.91V443.965H113.223V442.91H119.551V436.68H120.762V442.91H128.926ZM148.594 429.297V436.25H151.562V437.285H148.594V446.543H147.363V429.297H148.594ZM137.441 441.113C140.723 441.113 142.949 440.996 145.566 440.508L145.742 441.582C143.027 442.07 140.781 442.188 137.441 442.188H136.113V430.996H144.141V432.031H137.344V441.113H137.441ZM166.816 429.297V439.57H165.586V434.922H161.855V433.887H165.586V429.297H166.816ZM161.152 440.156C164.707 440.156 166.875 441.309 166.875 443.32C166.875 445.332 164.707 446.484 161.152 446.504C157.598 446.484 155.43 445.332 155.449 443.32C155.43 441.309 157.598 440.156 161.152 440.156ZM161.152 441.133C158.398 441.133 156.641 441.973 156.66 443.32C156.641 444.668 158.398 445.488 161.152 445.488C163.906 445.488 165.664 444.668 165.664 443.32C165.664 441.973 163.906 441.133 161.152 441.133ZM158.438 432.539C158.438 434.863 160.332 437.012 162.773 437.852L162.129 438.848C160.186 438.125 158.594 436.631 157.871 434.785C157.129 436.885 155.43 438.555 153.379 439.355L152.734 438.359C155.215 437.441 157.207 435.117 157.207 432.559V431.66H153.164V430.625H162.422V431.66H158.438V432.539ZM183.32 429.297V435.117H185.977V436.172H183.32V442.227H182.09V429.297H183.32ZM180.234 431.504V432.539H169.961V431.504H174.492V429.316H175.703V431.504H180.234ZM175.098 433.594C177.539 433.594 179.199 434.844 179.199 436.777C179.199 438.711 177.539 439.941 175.098 439.941C172.617 439.941 170.977 438.711 170.977 436.777C170.977 434.844 172.617 433.594 175.098 433.594ZM175.098 434.59C173.32 434.59 172.129 435.469 172.148 436.777C172.129 438.066 173.32 438.945 175.098 438.926C176.855 438.945 178.027 438.066 178.047 436.777C178.027 435.469 176.855 434.59 175.098 434.59ZM184.16 445.078V446.113H172.656V441.172H173.867V445.078H184.16ZM193.867 431.035V435.332H198.105V431.035H199.238V435.918H202.109V429.707H203.301V445.625H202.109V436.973H199.238V442.109H192.695V431.035H193.867ZM193.867 441.055H198.105V436.367H193.867V441.055ZM206.719 429.297V446.523H205.527V429.297H206.719ZM223.457 429.297V446.543H222.246V429.297H223.457ZM211.738 441.27C214.57 441.27 217.207 441.152 220.43 440.625L220.547 441.68C217.285 442.188 214.648 442.324 211.738 442.324H210.312V435.879H217.012V431.992H210.293V430.938H218.242V436.914H211.582V441.27H211.738ZM240.488 434.668V435.703H228.77V429.922H229.98V434.668H240.488ZM242.324 438.203V439.219H226.562V438.203H242.324ZM240.586 445.039V446.094H228.691V441.094H229.902V445.039H240.586ZM262.852 429.297V446.523H261.641V429.297H262.852ZM258.984 431.25V432.285H256.895V440.84C257.939 440.771 258.975 440.684 259.961 440.566L260.039 441.504C256.25 442.07 252.031 442.129 248.828 442.148L248.672 441.055L251.211 441.035V432.285H249.121V431.25H258.984ZM252.402 441.016C253.467 440.996 254.58 440.957 255.684 440.898V432.285H252.402V441.016ZM279.648 430.352V431.543C279.629 432.871 279.629 434.531 279.18 436.758L277.93 436.602C278.418 434.414 278.418 432.852 278.418 431.543V431.367H267.871V430.352H279.648ZM281.68 438.008V439.043H265.977V438.008H272.676V434.355H273.887V438.008H281.68ZM280.098 445.078V446.113H268.047V440.918H269.277V445.078H280.098ZM296.68 429.297V435.117H299.336V436.172H296.68V442.227H295.449V429.297H296.68ZM293.594 431.504V432.539H283.32V431.504H287.852V429.316H289.062V431.504H293.594ZM288.457 433.594C290.898 433.594 292.559 434.844 292.559 436.777C292.559 438.711 290.898 439.941 288.457 439.941C285.977 439.941 284.336 438.711 284.336 436.777C284.336 434.844 285.977 433.594 288.457 433.594ZM288.457 434.59C286.68 434.59 285.488 435.469 285.508 436.777C285.488 438.066 286.68 438.945 288.457 438.926C290.215 438.945 291.387 438.066 291.406 436.777C291.387 435.469 290.215 434.59 288.457 434.59ZM297.52 445.078V446.113H286.016V441.172H287.227V445.078H297.52ZM319.277 434.727V435.742H307.578V430H308.789V434.727H319.277ZM321.074 437.949V438.984H313.926V442.734H312.715V438.984H305.371V437.949H321.074ZM319.395 445.078V446.113H307.441V441.133H308.652V445.078H319.395ZM332.168 431.25V431.992C332.148 433.281 332.148 435.605 331.641 438.906L330.41 438.809C330.898 435.781 330.938 433.613 330.938 432.285H323.457V431.25H332.168ZM327.598 436.172V441.484C329.57 441.416 331.592 441.289 333.438 441.055L333.516 442.012C329.863 442.559 325.742 442.637 322.656 442.637L322.461 441.562C323.643 441.562 324.98 441.553 326.367 441.523V436.172H327.598ZM335.84 429.297V436.602H338.789V437.676H335.84V446.523H334.609V429.297H335.84ZM95.9082 457.055V468.07H88.0762V457.055H95.9082ZM89.2676 458.07V467.055H94.6973V458.07H89.2676ZM100.576 455.297V462.309H103.545V463.363H100.576V472.523H99.3457V455.297H100.576ZM112.432 455.688C116.162 455.688 118.467 456.879 118.467 458.93C118.467 460.961 116.162 462.133 112.432 462.133C108.721 462.133 106.396 460.961 106.396 458.93C106.396 456.879 108.721 455.688 112.432 455.688ZM112.432 456.703C109.521 456.703 107.646 457.562 107.666 458.93C107.646 460.277 109.521 461.117 112.432 461.137C115.322 461.117 117.217 460.277 117.217 458.93C117.217 457.562 115.322 456.703 112.432 456.703ZM118.35 466.684V472.27H106.553V466.684H118.35ZM107.764 467.68V471.254H117.158V467.68H107.764ZM120.303 463.773V464.809H104.6V463.773H120.303ZM129.717 455.609C133.506 455.609 135.752 456.664 135.752 458.598C135.752 460.551 133.506 461.625 129.717 461.625C125.928 461.625 123.682 460.551 123.682 458.598C123.682 456.664 125.928 455.609 129.717 455.609ZM129.717 456.566C126.768 456.566 124.951 457.348 124.951 458.598C124.951 459.906 126.768 460.668 129.717 460.668C132.686 460.668 134.502 459.906 134.502 458.598C134.502 457.348 132.686 456.566 129.717 456.566ZM137.588 462.914V463.93H121.885V462.914H137.588ZM135.518 465.57V469.262H125.068V471.293H136.064V472.309H123.877V468.305H134.326V466.547H123.818V465.57H135.518ZM157.412 455.297V459.652H160.068V460.688H157.412V465.121H156.182V455.297H157.412ZM152.725 456.449C152.725 460.707 149.619 463.832 144.541 465.219L144.033 464.223C148.389 463.021 151.104 460.6 151.416 457.484H144.775V456.449H152.725ZM157.412 465.961V472.27H146.592V465.961H157.412ZM147.822 467.016V471.234H156.182V467.016H147.822ZM174.834 455.297V462.172H177.471V463.227H174.834V472.523H173.584V455.297H174.834ZM165.01 461.117C164.99 462.768 165.381 465.404 166.904 467.094C168.35 465.463 168.721 462.875 168.74 461.117V456.879H169.912V461.117C169.912 463.227 170.576 466.195 172.686 467.641L171.885 468.539C170.537 467.582 169.756 465.971 169.346 464.281C168.975 466 168.242 467.699 166.865 468.676C165.498 467.689 164.766 465.961 164.404 464.262C163.984 465.932 163.213 467.562 161.904 468.52L161.064 467.641C163.135 466.156 163.818 463.129 163.838 461.117V456.879H165.01V461.117ZM187.08 457.719C187.08 460.199 190.518 462.172 193.271 462.602L192.803 463.578C190.254 463.109 187.441 461.645 186.416 459.477C185.371 461.645 182.549 463.109 180.049 463.578L179.561 462.602C182.295 462.172 185.732 460.199 185.732 457.719V457.445H180.068V456.43H192.725V457.445H187.08V457.719ZM194.268 465.199V466.254H186.982V472.504H185.791V466.254H178.564V465.199H194.268ZM209.756 460.668V461.703H198.037V455.922H199.248V460.668H209.756ZM211.592 464.203V465.219H195.83V464.203H211.592ZM209.854 471.039V472.094H197.959V467.094H199.17V471.039H209.854ZM232.1 455.219V464.809H230.889V455.219H232.1ZM232.1 465.746V469.398H222.256V471.312H232.764V472.309H221.045V468.461H230.908V466.723H221.025V465.746H232.1ZM228.818 456.938V457.934H218.232V456.938H222.9V455.062H224.15V456.938H228.818ZM223.525 458.871C226.084 458.871 227.705 459.965 227.705 461.703C227.705 463.461 226.084 464.535 223.525 464.535C220.967 464.535 219.326 463.461 219.326 461.703C219.326 459.965 220.967 458.871 223.525 458.871ZM223.525 459.828C221.709 459.809 220.498 460.57 220.518 461.703C220.498 462.836 221.709 463.598 223.525 463.598C225.342 463.598 226.533 462.836 226.553 461.703C226.533 460.57 225.342 459.809 223.525 459.828ZM249.404 455.297V465.961H248.174V455.297H249.404ZM237.51 463.715C240.557 463.715 242.92 463.617 245.811 463.148L245.967 464.203C242.979 464.672 240.615 464.77 237.51 464.75H236.143V459.984H242.725V457.465H236.104V456.41H243.936V460.98H237.334V463.715H237.51ZM243.74 466.332C247.334 466.332 249.521 467.445 249.521 469.398C249.521 471.352 247.334 472.465 243.74 472.465C240.107 472.465 237.939 471.352 237.939 469.398C237.939 467.445 240.107 466.332 243.74 466.332ZM243.74 467.328C240.928 467.328 239.17 468.129 239.17 469.398C239.17 470.688 240.928 471.469 243.74 471.469C246.533 471.469 248.291 470.688 248.291 469.398C248.291 468.129 246.533 467.328 243.74 467.328ZM271.553 455.297V467.953H270.322V461.195H266.533V460.16H270.322V455.297H271.553ZM272.061 471.078V472.113H260.615V466.801H261.846V471.078H272.061ZM263.174 458.91C263.174 461.195 265.068 463.383 267.51 464.223L266.865 465.219C264.912 464.496 263.32 462.992 262.588 461.137C261.855 463.217 260.156 464.857 258.115 465.648L257.471 464.633C259.932 463.754 261.943 461.469 261.943 458.91V457.836H257.9V456.781H267.158V457.836H263.174V458.91ZM290.381 464.203V465.238H283.193V468.949H281.982V465.238H274.619V464.203H290.381ZM288.311 456.137V462.035H276.689V456.137H288.311ZM277.9 457.152V461.039H287.1V457.152H277.9ZM288.623 471.078V472.113H276.689V467.191H277.92V471.078H288.623ZM305.186 455.297V462.426H308.096V463.48H305.186V472.523H303.955V455.297H305.186ZM300.771 457.172C300.752 461.957 298.369 466.391 292.803 469.145L292.119 468.168C296.709 465.902 299.209 462.367 299.521 458.207H292.881V457.172H300.771ZM311.689 456.859L311.592 466.957H310.283L310.186 456.859H311.689ZM310.947 471.098C310.361 471.098 309.893 470.629 309.893 470.062C309.893 469.477 310.361 469.008 310.947 469.008C311.514 469.008 311.982 469.477 311.982 470.062C311.982 470.629 311.514 471.098 310.947 471.098Z" fill="black"/>
<defs>
<clipPath id="clip0_152_124">
<rect width="263" height="217" fill="white" transform="translate(69 123)"/>
</clipPath>
</defs>
</svg>
