<svg width="224" height="64" viewBox="0 0 224 64" fill="none" xmlns="http://www.w3.org/2000/svg">
<path d="M4.26533 18.6212C5.09867 17.2806 7.48997 13.8386 11.4936 10.8494C12.2907 9.1103 13.5951 7.20813 15.1893 5.469C19.0842 1.12117 23.5226 -1.03463 25.2436 0.52334C26.2219 1.41102 26.1132 3.3132 24.9719 5.74074C25.1349 5.72262 25.2798 5.7045 25.4248 5.68639L25.461 5.68639C28.6132 5.32407 31.8197 5.34219 34.99 5.74074C33.8306 3.29508 33.7219 1.39291 34.7183 0.505225C36.4393 -1.05275 40.8777 1.10305 44.7907 5.45088C46.3668 7.19002 47.635 9.03784 48.4502 10.777C52.7437 14.0016 55.2618 17.8603 55.7328 18.6031C56.4031 19.6719 62.1821 29.4183 59.1024 40.5234C58.6495 42.1357 57.4719 46.4111 53.7038 50.4872C52.0009 52.335 49.9357 53.9473 47.7255 55.143C48.3596 57.2444 47.8342 59.2372 46.3849 60.2517C45.769 60.6864 45.0444 60.8857 44.2835 60.8857C42.6349 60.8857 40.8415 59.9075 39.6277 58.2046C39.5733 58.114 39.5009 58.0234 39.4465 57.9328C39.2473 57.9691 39.048 58.0053 38.8487 58.0596C38.7219 61.0125 36.8197 63.2951 34.5009 63.2951C32.4357 63.2951 30.6603 61.4654 30.2436 58.9111C30.1712 58.9111 30.0806 58.9111 30.0081 58.9111C29.9175 58.9111 29.827 58.9111 29.7545 58.9111C29.3197 61.4654 27.5625 63.2951 25.4972 63.2951C23.1422 63.2951 21.2581 60.9944 21.1494 58.0234C20.9501 57.9872 20.769 57.9509 20.5697 57.9147C20.5153 58.0053 20.4429 58.114 20.3704 58.2227C19.1748 59.9437 17.3632 60.9038 15.7146 60.9038C15.3342 60.9038 14.9719 60.8495 14.6095 60.7408C14.2472 60.6321 13.9211 60.4691 13.6132 60.2517C12.1639 59.2372 11.6385 57.1901 12.2726 55.1248C10.0624 53.9292 8.01534 52.3169 6.31244 50.4872C4.44649 48.4582 3.19649 46.3205 2.36316 44.527C1.52982 42.7335 1.13127 41.248 0.913876 40.5234C-2.20207 29.4545 3.59504 19.69 4.26533 18.6212ZM12.345 54.7988C12.3994 54.835 12.4719 54.8712 12.5443 54.9075L12.345 54.7988Z" fill="#F7DC80"/>
<path d="M133.734 18.0931C132.919 16.7632 130.599 13.3929 126.722 10.4234C127.138 9.74932 127.501 9.00239 127.791 8.21902C128.461 6.4519 128.715 4.64833 128.516 3.13625C128.316 1.58774 127.646 0.531106 126.667 0.148531C125.671 -0.234043 124.475 0.130314 123.315 1.15051C122.174 2.15249 121.177 3.68279 120.507 5.44992C120.344 5.86893 120.217 6.30615 120.09 6.72516C119.909 6.65229 119.71 6.57942 119.528 6.52477C116.684 5.55922 114.002 5.24952 112.534 5.08556C108.657 4.64833 104.725 4.77586 100.847 5.48635C100.213 5.61388 98.2563 5.96002 96.4806 6.54299C96.3357 6.59764 96.1907 6.63407 96.0639 6.68873C95.9552 6.28794 95.8283 5.88714 95.6652 5.46813C94.9948 3.68279 93.9983 2.15249 92.8568 1.15051C91.679 0.130314 90.5012 -0.234043 89.5047 0.148531C88.5081 0.531106 87.8558 1.58774 87.6565 3.13625C87.4572 4.64833 87.7109 6.4519 88.3813 8.21902C88.6531 8.96595 88.9973 9.67645 89.396 10.3323C85.1923 13.5568 82.7281 17.3462 82.2751 18.0931C81.6047 19.1679 75.8065 28.9509 78.9049 40.1366C79.3579 41.758 80.5356 46.0574 84.3045 50.1564C86.0077 52.0147 88.0733 53.636 90.2838 54.8384C89.6496 56.9335 90.1751 58.9374 91.6246 59.9758C92.2407 60.4131 92.9655 60.6135 93.7265 60.6135C95.3753 60.6135 97.1691 59.6297 98.3831 57.899C98.4375 57.8079 98.51 57.7168 98.5643 57.6257C98.7636 57.6622 98.963 57.6986 99.1623 57.7533C99.2891 60.7046 101.192 63 103.511 63C105.577 63 107.352 61.16 107.769 58.5913C107.86 58.5913 107.968 58.5913 108.059 58.5913C108.168 58.5913 108.276 58.5913 108.385 58.5913C108.82 61.16 110.596 63 112.643 63C114.962 63 116.883 60.6317 116.992 57.6804C117.191 57.644 117.372 57.6075 117.553 57.5711C117.626 57.6804 117.698 57.7897 117.771 57.899C118.967 59.6297 120.779 60.6135 122.427 60.6135C122.808 60.6135 123.17 60.5588 123.533 60.4495C123.895 60.3402 124.221 60.1762 124.529 59.9576C125.979 58.9192 126.504 56.8424 125.852 54.7473C127.392 53.8911 129.603 52.4155 131.705 50.1382C133.589 48.0796 134.821 45.9481 135.655 44.1263C136.488 42.3228 136.887 40.8289 137.086 40.1002C140.202 28.9509 134.404 19.1679 133.734 18.0931Z" fill="#B4D898"/>
<path d="M161.263 33.4304C161.159 33.4826 161.037 33.5347 160.933 33.5868C160.933 33.7084 160.95 33.8301 160.968 33.9517C161.072 33.8996 161.194 33.8475 161.298 33.7953C161.281 33.6737 161.263 33.5521 161.263 33.4304Z" fill="#BCB5D9"/>
<path d="M221.857 33.9865C221.422 34.2645 220.901 34.4035 220.345 34.4035C219.702 34.4035 218.989 34.2298 218.242 33.8996C218.103 35.1334 217.877 36.4019 217.512 37.6878C217.13 39.0779 215.948 43.3353 212.334 47.2451C210.718 49.0002 208.772 50.5293 206.669 51.6762C207.277 53.6224 206.826 55.6208 205.401 56.6113C204.81 57.0283 204.115 57.2195 203.385 57.2195C201.804 57.2195 200.083 56.2811 198.919 54.6477C198.85 54.5434 198.78 54.4391 198.728 54.3523C198.554 54.387 198.38 54.4218 198.189 54.4565C198.085 57.2716 196.243 59.5132 194.001 59.5132C192.003 59.5132 190.317 57.706 189.9 55.308C189.814 55.308 189.709 55.308 189.622 55.308C189.536 55.308 189.449 55.308 189.379 55.308C188.979 57.706 187.294 59.5132 185.296 59.5132C183.071 59.5132 181.247 57.289 181.125 54.4913C180.934 54.4565 180.743 54.4218 180.552 54.387C180.499 54.4739 180.447 54.5608 180.378 54.6477C179.978 55.2211 179.492 55.725 178.953 56.1247C178.414 56.5244 177.841 56.8372 177.233 57.0109C176.781 57.1499 176.346 57.2195 175.912 57.2195C175.165 57.2195 174.47 57.0109 173.879 56.5939C172.454 55.6034 172.002 53.6398 172.593 51.6936C170.456 50.5467 168.475 49.0002 166.841 47.2277C163.244 43.3005 162.097 39.2169 161.663 37.6704C161.315 36.4019 161.072 35.1507 160.95 33.9344C161.055 33.8822 161.176 33.8301 161.281 33.778C161.263 33.6563 161.246 33.5347 161.246 33.413C161.142 33.4652 161.02 33.5173 160.916 33.5694C160.916 33.6911 160.933 33.8127 160.95 33.9344C160.238 34.2471 159.56 34.4035 158.952 34.4035C158.379 34.4035 157.857 34.2645 157.406 33.9691C155.077 32.4573 155.703 27.2964 158.83 22.483C160.342 20.1718 162.184 18.2604 164.026 17.1135C164.339 16.9223 164.652 16.7486 164.947 16.6095C165.59 15.6017 170.456 8.23386 178.553 5.62732C179.127 5.43618 179.77 5.26241 180.482 5.08864C181.177 4.91487 181.942 4.75848 182.758 4.61946C186.477 3.94176 190.248 3.82012 193.967 4.25454C195.357 4.41094 197.946 4.70635 200.674 5.62732C208.476 8.28599 212.96 14.5243 214.228 16.54C214.576 16.6964 214.923 16.8876 215.271 17.0961C217.113 18.243 218.955 20.1371 220.449 22.4656C223.56 27.3137 224.202 32.4747 221.857 33.9865Z" fill="#BCB5D9"/>
</svg>
