<svg width="400" height="640" viewBox="0 0 400 640" fill="none" xmlns="http://www.w3.org/2000/svg">
<rect width="400" height="640" rx="20" fill="#EFFFD8"/>
<g clip-path="url(#clip0_152_122)">
<path d="M296.66 174.433C293.575 169.452 284.734 156.762 269.93 145.709L269.381 145.299L269.724 144.753C271.369 142.161 272.808 139.295 273.973 136.225C276.441 129.812 277.4 123.262 276.646 117.872C275.961 112.618 273.768 109.002 270.478 107.774C267.188 106.546 263.213 107.774 259.169 111.322C254.988 114.938 251.424 120.464 248.957 126.878C248.271 128.652 247.723 130.494 247.243 132.268L247.038 133.018L246.284 132.745C245.324 132.404 244.433 132.063 243.474 131.722C232.85 128.106 222.775 127.014 217.36 126.4C202.762 124.763 188.026 125.24 173.496 127.833C171.097 128.242 163.763 129.607 157.115 131.722C156.361 131.995 155.607 132.2 154.853 132.472L154.168 132.745V132.063C153.757 130.357 153.208 128.652 152.523 126.878C150.056 120.464 146.492 114.938 142.311 111.322C138.267 107.842 134.223 106.546 131.002 107.774C127.712 109.002 125.587 112.618 124.833 117.872C124.148 123.33 125.039 129.812 127.506 136.225C128.603 139.159 129.974 141.888 131.619 144.412L131.961 144.958L131.482 145.368C115.512 157.376 106.122 171.635 104.409 174.433C101.873 178.39 80.2832 214.619 91.7977 255.897C93.5112 261.901 97.8976 277.729 111.88 292.876C118.185 299.699 125.793 305.635 133.949 310.069L134.634 310.479C134.771 310.547 134.909 310.615 135.046 310.683L135.251 310.752C135.251 310.752 137.993 312.185 140.803 313.413C147.657 316.346 155.95 318.393 156.018 318.393C158.828 319.144 161.707 319.826 164.654 320.44L165.614 320.645C166.094 320.781 166.573 320.849 167.053 320.918L168.218 321.122C168.218 321.122 170.549 321.532 172.879 321.941C184.873 323.851 196.867 324.124 199.198 324.124H199.609C200.637 324.124 201.665 324.124 202.762 324.124C214.962 323.988 226.476 322.214 234.015 320.849L234.838 320.713C235.318 320.645 235.729 320.508 236.14 320.44C236.483 320.372 236.757 320.304 237.1 320.235C242.034 319.212 244.913 318.461 245.187 318.393C256.428 315.323 263.213 312.253 266.229 310.683L267.12 310.206C272.877 307.136 281.376 301.609 289.395 292.944C303.376 277.798 307.969 261.355 309.476 255.965C311.875 247.368 312.835 239.044 312.835 231.13C312.629 200.973 298.647 177.639 296.66 174.433ZM175.141 268.45C172.262 270.702 164.586 275.751 154.373 275.751C153.757 275.751 153.14 275.751 152.523 275.683C142.996 275.137 134.017 270.156 127.164 261.628C114.415 245.799 119.419 225.399 121.201 219.463C122.503 215.301 126.41 202.679 138.815 195.037C141.625 193.332 148.274 189.238 157.252 189.784C169.658 190.534 177.677 199.54 180.487 203.361C183.571 207.455 185.147 211.139 186.175 213.868C186.724 215.301 189.328 222.738 189.26 232.631C189.328 238.84 189.26 257.466 175.141 268.45ZM214.139 274.523C213.728 275.341 212.014 278.071 208.588 278.889C207.971 279.026 207.354 279.094 206.668 279.094C204.544 279.094 202.419 278.275 200.774 276.774C198.649 278.753 195.702 279.503 192.961 278.889C189.534 278.071 187.82 275.341 187.409 274.523C187.203 274.182 187.341 273.772 187.683 273.568C188.026 273.363 188.437 273.499 188.574 273.84C188.917 274.523 190.356 276.842 193.235 277.525C195.702 278.139 198.375 277.252 200.226 275.341L200.706 274.796L201.185 275.341C203.036 277.252 205.64 278.139 208.176 277.525C211.055 276.842 212.494 274.523 212.837 273.84C213.043 273.499 213.454 273.363 213.796 273.568C214.208 273.772 214.345 274.182 214.139 274.523ZM274.453 261.628C267.599 270.156 258.552 275.137 249.025 275.683C248.408 275.683 247.792 275.751 247.243 275.751C237.031 275.751 229.355 270.702 226.476 268.45C212.357 257.466 212.289 238.84 212.289 232.699V232.494C212.289 222.738 214.825 215.301 215.373 213.936C216.401 211.207 217.977 207.523 221.062 203.429C223.94 199.609 231.959 190.603 244.296 189.852C253.343 189.306 259.923 193.332 262.733 195.106C275.139 202.747 279.045 215.369 280.348 219.531C282.198 225.399 287.201 245.799 274.453 261.628Z" fill="#B4D898"/>
<path d="M199.403 324.124H198.992C196.73 324.124 184.736 323.852 172.673 321.941C170.343 321.6 168.013 321.122 168.013 321.122L166.848 320.918V321.805C166.848 322.009 166.848 322.146 166.848 322.351C167.327 333.403 174.524 342.068 183.297 342.068C191.11 342.068 197.827 335.177 199.403 325.557C199.403 325.353 199.472 325.148 199.472 324.943L199.609 324.193L199.403 324.124ZM183.502 340.636C175.483 340.636 168.972 332.789 168.424 322.555H168.492C168.63 322.555 168.767 322.623 168.904 322.623C169.041 322.623 169.246 322.692 169.452 322.692C169.589 322.692 169.795 322.76 169.932 322.76C170.206 322.828 170.549 322.896 170.891 322.896C171.165 322.965 171.44 322.965 171.714 323.033C171.988 323.101 172.262 323.101 172.605 323.169C173.77 323.374 174.867 323.51 176.032 323.647C176.58 323.715 177.06 323.783 177.608 323.852C177.814 323.852 178.088 323.92 178.293 323.92C178.636 323.988 179.047 323.988 179.39 324.056C179.733 324.124 180.144 324.124 180.487 324.193C180.966 324.261 181.378 324.261 181.857 324.329C182.474 324.397 183.091 324.466 183.708 324.534C184.051 324.534 184.393 324.602 184.736 324.602C185.353 324.67 185.97 324.67 186.587 324.738C186.655 324.738 186.724 324.738 186.792 324.738C187.478 324.807 188.095 324.807 188.711 324.875C189.739 324.943 190.699 325.011 191.659 325.08C191.864 325.08 192.07 325.08 192.207 325.148C192.344 325.148 192.481 325.148 192.618 325.148C192.892 325.148 193.098 325.148 193.372 325.148C193.92 325.148 194.4 325.216 194.811 325.216C194.948 325.216 195.017 325.216 195.154 325.216C196.525 325.284 197.621 325.284 198.375 325.284C196.662 334.359 190.562 340.636 183.502 340.636Z" fill="#458538"/>
<path d="M198.238 325.489C196.662 334.29 190.562 340.636 183.502 340.636C175.483 340.636 168.972 332.789 168.424 322.555H168.492C168.63 322.555 168.767 322.623 168.904 322.623C169.041 322.623 169.246 322.692 169.452 322.692C169.589 322.692 169.795 322.76 169.932 322.76C170.206 322.828 170.549 322.896 170.891 322.896C171.165 322.965 171.44 322.965 171.714 323.033C171.988 323.101 172.262 323.101 172.605 323.169C173.77 323.374 174.867 323.51 176.032 323.647C176.58 323.715 177.06 323.783 177.608 323.852C177.814 323.852 178.088 323.92 178.293 323.92C178.636 323.988 179.047 323.988 179.39 324.056C179.733 324.124 180.144 324.124 180.487 324.193C180.966 324.261 181.378 324.261 181.857 324.329C182.474 324.397 183.091 324.466 183.708 324.534C184.051 324.534 184.393 324.602 184.736 324.602C185.353 324.67 185.97 324.67 186.587 324.738C186.655 324.738 186.724 324.738 186.792 324.738C187.478 324.807 188.094 324.807 188.711 324.875C189.739 324.943 190.699 325.011 191.658 325.08C191.864 325.08 192.07 325.08 192.207 325.148C192.344 325.148 192.481 325.148 192.618 325.148C192.892 325.148 193.098 325.148 193.372 325.148C193.92 325.148 194.4 325.216 194.811 325.216C194.948 325.216 195.017 325.216 195.154 325.216C196.388 325.489 197.484 325.489 198.238 325.489Z" fill="#B4D898"/>
<path d="M164.586 320.44C161.707 319.826 158.828 319.144 155.95 318.393C155.881 318.393 147.52 316.346 140.734 313.412C137.856 312.184 135.183 310.82 135.183 310.752L134.977 310.683C134.84 310.615 134.703 310.547 134.566 310.479L133.88 310.069L133.606 310.82C133.538 311.025 133.469 311.161 133.401 311.366C131.002 319.212 132.989 326.717 138.472 330.606C140.803 332.243 143.544 332.994 146.423 332.994C152.66 332.994 159.445 329.31 164.037 322.828C164.243 322.487 164.517 322.146 164.723 321.805C164.791 321.668 164.928 321.532 164.997 321.395L165.477 320.576L164.586 320.44ZM162.941 322.146C156.704 330.947 146.08 334.29 139.295 329.514C134.429 326.103 132.578 319.144 134.703 312.048C135.183 312.253 136.485 312.935 138.13 313.754C138.472 313.89 138.815 314.095 139.158 314.231C139.501 314.368 139.843 314.572 140.254 314.709C147.177 317.711 155.607 319.758 155.676 319.758C157.663 320.303 159.719 320.781 161.776 321.259C162.187 321.327 162.53 321.463 162.941 321.532C163.078 321.532 163.283 321.6 163.421 321.6C163.215 321.736 163.078 321.941 162.941 322.146Z" fill="#458538"/>
<path d="M163.352 321.6C163.215 321.805 163.146 321.941 163.009 322.146C156.772 330.947 146.149 334.29 139.364 329.514C134.497 326.103 132.647 319.144 134.771 312.048C135.251 312.253 136.553 312.935 138.198 313.754C138.541 313.89 138.884 314.095 139.226 314.231C139.569 314.368 139.912 314.573 140.323 314.709C147.245 317.711 155.676 319.758 155.744 319.758C157.732 320.304 159.788 320.781 161.844 321.259C162.255 321.327 162.598 321.464 163.009 321.532C163.009 321.532 163.215 321.532 163.352 321.6Z" fill="#B4D898"/>
<path d="M280.348 219.463C279.045 215.301 275.139 202.679 262.733 195.037C259.923 193.332 253.275 189.238 244.296 189.784C231.891 190.534 223.872 199.54 221.062 203.361C217.977 207.455 216.401 211.139 215.373 213.868C214.825 215.301 212.289 222.67 212.289 232.426V232.631C212.289 238.771 212.357 257.398 226.476 268.382C229.355 270.634 237.031 275.683 247.243 275.683C247.86 275.683 248.477 275.683 249.025 275.614C258.552 275.069 267.531 270.088 274.453 261.559C287.201 245.799 282.198 225.399 280.348 219.463ZM273.357 260.809C266.64 269.133 258.21 273.84 248.957 274.386C238.265 275 230.246 269.747 227.299 267.427C213.728 256.852 213.659 238.703 213.659 232.767C213.659 223.147 216.127 215.847 216.675 214.482C217.703 211.821 219.211 208.205 222.158 204.248C224.9 200.564 232.576 191.967 244.433 191.217C253.001 190.671 259.375 194.56 262.116 196.265C274.111 203.634 277.88 215.915 279.182 219.941C280.827 225.603 285.694 245.458 273.357 260.809Z" fill="#458538"/>
<path d="M272.26 222.601C271.3 219.463 268.285 209.979 258.964 204.248C256.839 202.952 251.835 199.882 245.05 200.291C235.729 200.837 229.629 207.66 227.504 210.525C225.174 213.595 224.009 216.393 223.255 218.508C222.844 219.531 220.925 225.194 220.925 232.494V232.631C220.925 236.179 220.925 244.434 225.174 252.008L225.791 253.099V253.031C227.367 255.555 229.286 257.739 231.617 259.513C233.81 261.218 239.567 265.039 247.312 265.039C247.792 265.039 248.203 265.039 248.683 264.971C255.879 264.562 262.665 260.809 267.874 254.327C268.079 254.054 268.285 253.782 268.49 253.577L268.011 252.69C267.942 252.553 267.874 252.417 267.805 252.281C267.531 252.69 267.257 253.099 266.914 253.509C261.979 259.649 255.537 263.197 248.751 263.606C240.801 264.084 234.838 260.127 232.645 258.421C230.246 256.579 228.258 254.259 226.682 251.598C227.299 250.507 227.984 249.483 228.738 248.392C230.794 245.662 236.483 239.249 245.324 238.703C251.698 238.294 256.428 241.228 258.484 242.456C262.322 244.775 265.475 248.119 267.874 252.281C267.942 252.144 268.079 252.008 268.148 251.939C268.353 251.598 268.765 251.53 269.107 251.735C269.45 251.939 269.518 252.349 269.313 252.69C269.107 252.963 268.902 253.304 268.627 253.645V253.713L269.244 252.826C277.126 241.023 273.562 226.763 272.26 222.601ZM243.405 221.783C238.196 221.783 233.947 217.553 233.947 212.367C233.947 207.182 238.196 202.952 243.405 202.952C248.614 202.952 252.864 207.182 252.864 212.367C252.864 217.553 248.614 221.783 243.405 221.783Z" fill="#458538"/>
<path d="M269.039 252.69C268.833 252.963 268.627 253.304 268.353 253.645L267.873 252.758C267.805 252.622 267.736 252.485 267.668 252.349C267.736 252.212 267.873 252.076 267.942 252.008C268.148 251.666 268.559 251.598 268.902 251.803C269.176 251.939 269.244 252.349 269.039 252.69Z" fill="#458538"/>
<path d="M186.244 213.936C185.216 211.207 183.64 207.523 180.555 203.429C177.677 199.609 169.658 190.602 157.321 189.852C148.274 189.306 141.694 193.332 138.884 195.105C126.478 202.747 122.572 215.369 121.269 219.531C119.419 225.399 114.415 245.867 127.232 261.696C134.086 270.224 143.133 275.205 152.592 275.751C153.208 275.751 153.825 275.819 154.442 275.819C164.654 275.819 172.331 270.77 175.209 268.519C189.328 257.534 189.397 238.908 189.397 232.767C189.397 222.874 186.792 215.369 186.244 213.936ZM174.318 267.427C171.371 269.747 163.352 275 152.66 274.386C143.544 273.84 134.84 269.064 128.26 260.809C115.923 245.458 120.79 225.603 122.572 219.872C123.805 215.847 127.643 203.566 139.638 196.197C142.174 194.628 147.931 191.08 155.676 191.08C156.224 191.08 156.704 191.08 157.252 191.148C169.041 191.899 176.717 200.495 179.527 204.18C182.474 208.137 183.982 211.685 185.01 214.414C185.49 215.779 188.026 222.942 188.026 232.494V232.699C187.957 238.635 187.889 256.783 174.318 267.427Z" fill="#458538"/>
<path d="M175.895 253.031L176.511 252.008C176.306 252.349 176.1 252.69 175.895 253.031ZM133.675 252.008C133.469 251.666 133.058 251.598 132.715 251.803C132.441 252.008 132.373 252.349 132.51 252.69C132.51 252.69 132.51 252.758 132.578 252.758L133.195 253.645L133.743 252.69C133.812 252.553 133.88 252.417 133.949 252.349C133.88 252.212 133.812 252.076 133.675 252.008Z" fill="#458538"/>
<path d="M178.431 218.439C177.677 216.393 176.443 213.595 174.181 210.457C171.988 207.591 165.957 200.768 156.635 200.223C149.85 199.813 144.847 202.883 142.722 204.18C133.401 209.911 130.385 219.463 129.425 222.601C128.123 226.695 124.628 240.955 132.578 252.622C132.441 252.349 132.51 251.939 132.784 251.735C133.127 251.53 133.538 251.598 133.743 251.939C133.812 252.076 133.88 252.144 134.018 252.28C136.416 248.05 139.569 244.775 143.407 242.387C145.395 241.159 150.124 238.225 156.567 238.635C165.34 239.181 171.097 245.594 173.153 248.323C173.976 249.415 174.661 250.438 175.209 251.53C173.633 254.191 171.645 256.511 169.246 258.421C167.053 260.127 161.09 264.084 153.14 263.606C146.354 263.197 139.912 259.649 134.977 253.508C134.634 253.099 134.292 252.69 134.018 252.28C133.949 252.417 133.88 252.553 133.812 252.622L133.264 253.577C133.469 253.85 133.675 254.123 133.88 254.327C139.021 260.741 145.875 264.493 153.071 264.971C153.551 264.971 153.962 265.039 154.442 265.039C162.187 265.039 167.944 261.218 170.137 259.513C172.468 257.67 174.455 255.487 175.963 252.963C176.169 252.622 176.374 252.28 176.58 251.939C180.761 244.434 180.829 236.11 180.829 232.563C180.761 225.262 178.842 219.531 178.431 218.439ZM158.212 223.147C152.249 223.147 147.383 218.303 147.383 212.367C147.383 206.909 151.495 202.338 156.841 201.655C160.336 201.928 163.284 203.088 165.751 204.589C167.807 206.568 169.041 209.297 169.041 212.299C169.041 218.303 164.175 223.147 158.212 223.147Z" fill="#458538"/>
<path d="M133.949 252.349C133.88 252.485 133.812 252.622 133.743 252.69L133.195 253.645C132.989 253.304 132.784 253.031 132.578 252.758L132.51 252.69C132.373 252.417 132.441 252.008 132.715 251.803C133.058 251.598 133.469 251.666 133.675 252.008C133.812 252.076 133.88 252.212 133.949 252.349Z" fill="#458538"/>
<path d="M165.751 204.657C163.832 202.747 161.159 201.587 158.212 201.587C157.732 201.587 157.321 201.587 156.841 201.655C151.495 202.338 147.383 206.841 147.383 212.367C147.383 218.303 152.249 223.147 158.212 223.147C164.175 223.147 169.041 218.303 169.041 212.367C169.041 209.365 167.807 206.568 165.751 204.657ZM158.212 221.783C153.003 221.783 148.753 217.552 148.753 212.367C148.753 207.182 153.003 202.952 158.212 202.952C163.421 202.952 167.67 207.182 167.67 212.367C167.67 217.552 163.421 221.783 158.212 221.783Z" fill="#458538"/>
<path d="M214.139 274.523C213.728 275.342 212.014 278.071 208.588 278.889C207.971 279.026 207.354 279.094 206.668 279.094C204.544 279.094 202.419 278.275 200.774 276.774C198.649 278.753 195.702 279.503 192.961 278.889C189.534 278.071 187.82 275.342 187.409 274.523C187.203 274.182 187.341 273.772 187.683 273.568C188.026 273.363 188.437 273.499 188.574 273.841C188.917 274.523 190.356 276.843 193.235 277.525C195.702 278.139 198.375 277.252 200.226 275.342L200.706 274.796L201.185 275.342C203.036 277.252 205.64 278.139 208.176 277.525C211.055 276.843 212.494 274.523 212.837 273.841C213.043 273.499 213.454 273.363 213.796 273.568C214.208 273.772 214.345 274.182 214.139 274.523Z" fill="#458538"/>
<path d="M233.81 320.849C226.271 322.282 214.756 323.988 202.556 324.124H201.802L201.939 324.875C201.939 325.079 202.008 325.284 202.008 325.489C203.653 335.109 210.37 342 218.114 342C226.887 342 234.221 333.13 234.564 322.077C234.564 321.873 234.564 321.736 234.564 321.532V320.713L233.81 320.849ZM218.114 340.635C211.055 340.635 204.955 334.29 203.379 325.489C203.516 325.489 203.584 325.489 203.721 325.489C204.201 325.489 204.749 325.489 205.229 325.421C205.503 325.421 205.777 325.421 206.052 325.421C206.6 325.421 207.148 325.352 207.628 325.352C209.067 325.284 210.438 325.216 211.809 325.079C212.631 325.011 213.454 324.943 214.208 324.875C214.756 324.807 215.304 324.807 215.853 324.738C216.47 324.67 217.086 324.602 217.703 324.534C217.84 324.534 217.909 324.534 217.977 324.534C218.594 324.465 219.143 324.397 219.759 324.329C219.828 324.329 219.965 324.329 220.034 324.329C220.993 324.193 222.021 324.124 222.912 323.988C223.255 323.92 223.529 323.92 223.872 323.851C224.489 323.783 225.105 323.647 225.722 323.578C226.133 323.51 226.545 323.442 226.887 323.374C227.915 323.237 228.875 323.033 229.766 322.896C229.903 322.896 229.972 322.828 230.109 322.828C230.52 322.76 231 322.691 231.411 322.623C231.479 322.623 231.548 322.623 231.685 322.555C232.165 322.487 232.645 322.419 233.056 322.282C232.713 332.516 226.065 340.635 218.114 340.635Z" fill="#458538"/>
<path d="M233.193 322.35C232.713 332.516 226.065 340.635 218.114 340.635C211.055 340.635 204.955 334.29 203.379 325.489C203.516 325.489 203.584 325.489 203.721 325.489C204.201 325.489 204.749 325.489 205.229 325.421C205.503 325.421 205.778 325.421 206.052 325.421C206.6 325.421 207.148 325.352 207.628 325.352C209.067 325.284 210.438 325.216 211.809 325.079C212.631 325.011 213.454 324.943 214.208 324.875C214.756 324.807 215.304 324.807 215.853 324.738C216.47 324.67 217.086 324.602 217.703 324.534C217.84 324.534 217.909 324.534 217.977 324.534C218.594 324.465 219.143 324.397 219.759 324.329C219.828 324.329 219.965 324.329 220.034 324.329C220.993 324.192 222.021 324.124 222.912 323.988C223.255 323.92 223.529 323.92 223.872 323.851C224.489 323.783 225.105 323.647 225.722 323.578C226.133 323.51 226.545 323.442 226.887 323.374C227.916 323.237 228.875 323.033 229.766 322.896C229.903 322.896 229.972 322.828 230.109 322.828C230.52 322.76 231 322.691 231.411 322.623C231.48 322.623 231.548 322.623 231.685 322.555C232.302 322.487 232.782 322.419 233.193 322.35Z" fill="#B4D898"/>
<path d="M268.079 311.093C268.011 310.888 267.942 310.752 267.873 310.547L267.599 309.796L266.914 310.206L266.023 310.683C263.007 312.253 256.29 315.391 244.982 318.393C244.639 318.461 241.76 319.28 236.894 320.235C236.551 320.303 236.277 320.372 235.934 320.44L236.414 321.259C236.483 321.395 236.551 321.532 236.688 321.668C236.963 322.077 237.237 322.487 237.511 322.896C242.034 329.378 248.888 333.062 255.125 333.062C256.565 333.062 257.935 332.857 259.306 332.448C260.677 332.039 261.911 331.425 263.076 330.606C268.627 326.785 270.546 319.007 268.079 311.093ZM262.322 329.514C255.468 334.29 244.844 330.947 238.676 322.146C238.47 321.873 238.333 321.668 238.196 321.395C239.841 321.054 241.212 320.713 242.309 320.508C242.514 320.44 242.651 320.44 242.857 320.372C242.994 320.303 243.2 320.303 243.337 320.235C243.474 320.167 243.679 320.167 243.816 320.099C243.953 320.031 244.091 320.031 244.228 320.031C244.365 320.031 244.433 319.962 244.502 319.962C245.05 319.826 245.324 319.758 245.393 319.758C256.77 316.687 263.624 313.481 266.708 311.911L266.914 311.843C269.039 319.007 267.257 326.035 262.322 329.514Z" fill="#458538"/>
<path d="M262.322 329.514C255.468 334.29 244.845 330.947 238.676 322.146C238.47 321.873 238.333 321.668 238.196 321.395C239.841 321.054 241.212 320.713 242.309 320.508C242.514 320.44 242.651 320.44 242.857 320.372C242.994 320.304 243.2 320.304 243.337 320.235C243.474 320.167 243.679 320.167 243.816 320.099C243.954 320.031 244.091 320.031 244.228 320.031C244.365 320.031 244.433 319.962 244.502 319.962C245.05 319.826 245.324 319.758 245.393 319.758C256.77 316.687 263.624 313.481 266.708 311.911L266.914 311.843C269.039 319.007 267.257 326.035 262.322 329.514Z" fill="#B4D898"/>
<path d="M297.825 173.75C294.741 168.77 285.968 156.147 271.3 145.026C272.877 142.502 274.248 139.704 275.344 136.771C277.88 130.153 278.84 123.398 278.086 117.735C277.332 111.936 274.796 107.979 271.095 106.546C267.325 105.113 262.802 106.478 258.415 110.298C254.097 114.051 250.328 119.782 247.792 126.4C247.175 127.969 246.695 129.607 246.215 131.176C245.53 130.903 244.776 130.63 244.091 130.426C233.33 126.809 223.186 125.65 217.635 125.036C202.967 123.398 188.095 123.876 173.427 126.468C171.028 126.946 163.626 128.242 156.909 130.426C156.361 130.63 155.813 130.767 155.333 130.971C154.922 129.47 154.442 127.901 153.825 126.4C151.289 119.782 147.52 114.051 143.202 110.298C138.747 106.478 134.292 105.113 130.522 106.546C126.752 107.979 124.285 111.936 123.531 117.735C122.777 123.398 123.737 130.153 126.273 136.771C127.301 139.568 128.603 142.229 130.111 144.685C114.21 156.761 104.889 170.953 103.175 173.75C100.639 177.776 78.7068 214.414 90.4269 256.306C92.1404 262.378 96.5954 278.48 110.851 293.831C117.294 300.79 125.108 306.863 133.469 311.366C133.606 311.434 133.812 311.57 133.949 311.639C134.086 311.707 134.223 311.775 134.36 311.843L134.566 311.911C134.566 311.911 134.634 311.911 134.703 311.98C135.183 312.184 136.485 312.867 138.13 313.685C138.473 313.822 138.815 314.027 139.158 314.163C139.501 314.299 139.843 314.504 140.255 314.641C147.177 317.643 155.607 319.689 155.676 319.689C157.663 320.235 159.72 320.713 161.776 321.19C162.187 321.259 162.53 321.395 162.941 321.463C163.078 321.463 163.284 321.532 163.421 321.532C163.763 321.6 164.037 321.668 164.38 321.736C164.517 321.736 164.723 321.805 164.86 321.805C165.614 321.941 166.368 322.146 167.122 322.282C167.327 322.35 167.464 322.35 167.67 322.419L168.013 322.487C168.013 322.487 168.218 322.555 168.561 322.555H168.63C168.767 322.555 168.904 322.623 169.041 322.623C169.178 322.623 169.383 322.691 169.589 322.691C169.726 322.691 169.932 322.76 170.069 322.76C170.343 322.828 170.686 322.896 171.028 322.896C171.303 322.964 171.577 322.964 171.851 323.033C172.125 323.101 172.399 323.101 172.742 323.169C173.907 323.374 175.004 323.51 176.169 323.647C176.717 323.715 177.197 323.783 177.745 323.851C177.951 323.851 178.225 323.92 178.431 323.92C178.773 323.988 179.184 323.988 179.527 324.056C179.87 324.124 180.281 324.124 180.624 324.193C181.104 324.261 181.515 324.261 181.995 324.329C182.611 324.397 183.228 324.465 183.845 324.534C184.188 324.534 184.531 324.602 184.873 324.602C185.49 324.67 186.107 324.67 186.724 324.738C186.792 324.738 186.861 324.738 186.929 324.738C187.615 324.807 188.232 324.807 188.848 324.875C189.877 324.943 190.836 325.011 191.796 325.079C192.001 325.079 192.207 325.079 192.344 325.148C192.481 325.148 192.618 325.148 192.755 325.148C193.029 325.148 193.235 325.148 193.509 325.148C194.057 325.148 194.537 325.216 194.948 325.216C195.085 325.216 195.154 325.216 195.291 325.216C196.662 325.284 197.758 325.284 198.512 325.284C198.855 325.284 199.129 325.284 199.335 325.284H199.883C200.226 325.284 200.637 325.284 200.98 325.284C201.391 325.284 201.802 325.284 202.213 325.284C202.419 325.284 202.625 325.284 202.83 325.284C203.104 325.284 203.379 325.284 203.653 325.284C203.79 325.284 203.858 325.284 203.995 325.284C204.475 325.284 205.024 325.284 205.503 325.216C205.777 325.216 206.052 325.216 206.326 325.216C206.874 325.216 207.422 325.148 207.902 325.148C209.341 325.079 210.712 325.011 212.083 324.875C212.906 324.807 213.728 324.738 214.482 324.67C215.03 324.602 215.579 324.602 216.127 324.534C216.744 324.465 217.361 324.397 217.977 324.329C218.114 324.329 218.183 324.329 218.252 324.329C218.868 324.261 219.417 324.193 220.034 324.124C220.102 324.124 220.239 324.124 220.308 324.124C221.267 323.988 222.295 323.92 223.186 323.783C223.529 323.715 223.803 323.715 224.146 323.647C224.763 323.578 225.38 323.442 225.996 323.374C226.408 323.306 226.819 323.237 227.162 323.169C228.19 323.033 229.149 322.828 230.04 322.691C230.177 322.691 230.246 322.623 230.383 322.623C230.794 322.555 231.274 322.487 231.685 322.419C231.754 322.419 231.822 322.419 231.959 322.35C232.439 322.282 232.919 322.214 233.33 322.077C233.604 322.009 233.878 322.009 234.152 321.941C234.358 321.941 234.495 321.873 234.701 321.873C235.455 321.736 236.14 321.6 236.826 321.463C236.963 321.463 237.168 321.395 237.305 321.395C237.648 321.327 237.922 321.259 238.265 321.19C239.91 320.849 241.281 320.508 242.377 320.304C242.583 320.235 242.72 320.235 242.925 320.167C243.063 320.099 243.268 320.099 243.405 320.031C243.542 319.962 243.748 319.962 243.885 319.894C244.022 319.826 244.159 319.826 244.296 319.826C244.433 319.826 244.502 319.758 244.57 319.758C245.119 319.621 245.393 319.553 245.461 319.553C256.839 316.483 263.693 313.276 266.777 311.707L267.668 311.229C267.805 311.161 268.011 311.025 268.148 310.956C273.973 307.75 282.335 302.223 290.286 293.695C297.414 285.985 302.074 278.002 305.227 271.179C308.38 264.425 309.888 258.83 310.642 256.101C322.293 214.414 300.361 177.776 297.825 173.75ZM309.271 255.896C307.763 261.286 303.171 277.729 289.189 292.876C281.17 301.541 272.603 307.067 266.914 310.138L266.023 310.615C263.007 312.184 256.29 315.323 244.982 318.325C244.639 318.393 241.76 319.212 236.894 320.167C236.551 320.235 236.277 320.304 235.934 320.372C235.523 320.44 235.043 320.576 234.632 320.645C234.358 320.713 234.084 320.713 233.81 320.781C226.271 322.214 214.756 323.92 202.556 324.056C201.528 324.056 200.5 324.056 199.403 324.056H198.992C196.73 324.056 184.736 323.783 172.673 321.873C170.343 321.532 168.013 321.054 168.013 321.054L167.739 320.986C167.464 320.918 167.19 320.849 166.916 320.849C166.436 320.781 165.957 320.645 165.477 320.576L164.517 320.372C161.639 319.758 158.76 319.075 155.881 318.325C155.813 318.325 147.451 316.278 140.666 313.344C137.787 312.116 135.114 310.752 135.114 310.683H134.977C134.84 310.615 134.703 310.547 134.566 310.479C134.36 310.342 134.086 310.206 133.88 310.069C125.724 305.635 118.117 299.699 111.811 292.876C97.8291 277.729 93.3741 261.832 91.7292 255.896C80.2147 214.619 101.873 178.458 104.34 174.432C106.054 171.703 115.444 157.375 131.413 145.367L131.893 144.958L131.55 144.412C129.974 141.888 128.603 139.159 127.438 136.225C125.039 129.811 124.079 123.262 124.765 117.872C125.45 112.618 127.643 109.002 130.933 107.774C134.223 106.546 138.198 107.774 142.242 111.322C146.423 114.938 149.987 120.464 152.454 126.878C153.14 128.652 153.688 130.357 154.099 132.063L154.305 132.813L154.99 132.541C155.744 132.268 156.498 131.995 157.252 131.79C163.9 129.675 171.234 128.31 173.633 127.901C188.163 125.308 202.899 124.831 217.498 126.468C222.912 127.082 232.987 128.242 243.611 131.79C244.57 132.131 245.461 132.472 246.421 132.813L247.175 133.086L247.38 132.336C247.86 130.562 248.409 128.72 249.094 126.946C251.493 120.532 255.125 115.006 259.306 111.39C263.35 107.91 267.394 106.614 270.615 107.842C273.905 109.07 276.03 112.686 276.784 117.94C277.469 123.398 276.578 129.88 274.111 136.293C272.945 139.363 271.506 142.229 269.861 144.822L269.518 145.367L270.067 145.777C284.871 156.83 293.713 169.52 296.797 174.501C298.784 177.639 312.766 201.041 312.766 231.13C312.629 238.976 311.67 247.3 309.271 255.896Z" fill="#458538"/>
<path d="M184.942 214.414C183.982 211.753 182.406 208.137 179.459 204.18C176.717 200.496 169.041 191.899 157.184 191.148C156.635 191.148 156.087 191.08 155.607 191.08C147.794 191.08 142.105 194.628 139.569 196.197C127.575 203.566 123.805 215.847 122.503 219.872C120.721 225.603 115.855 245.458 128.192 260.809C134.771 268.996 143.476 273.84 152.591 274.386C163.284 275 171.303 269.747 174.25 267.427C187.82 256.852 187.889 238.703 187.889 232.767V232.563C187.957 223.011 185.49 215.779 184.942 214.414ZM176.511 251.939L175.895 253.031V252.963C174.318 255.487 172.331 257.67 170.069 259.513C167.876 261.218 162.118 265.039 154.374 265.039C153.894 265.039 153.483 265.039 153.003 264.971C145.806 264.561 139.021 260.809 133.812 254.327C133.606 254.054 133.401 253.781 133.195 253.577L132.578 252.69L132.51 252.622C124.491 240.955 128.055 226.695 129.357 222.601C130.316 219.463 133.332 209.979 142.653 204.18C144.778 202.883 149.781 199.813 156.567 200.223C165.888 200.768 171.988 207.591 174.113 210.457C176.443 213.527 177.608 216.324 178.362 218.439C178.773 219.531 180.692 225.194 180.692 232.563C180.761 236.11 180.761 244.434 176.511 251.939Z" fill="white"/>
<path d="M279.045 219.872C277.812 215.847 273.973 203.566 261.979 196.197C259.238 194.56 252.932 190.603 244.296 191.148C232.439 191.899 224.763 200.496 222.021 204.18C219.074 208.137 217.566 211.685 216.538 214.414C216.058 215.779 213.522 223.079 213.522 232.699C213.522 238.635 213.591 256.784 227.162 267.359C230.109 269.679 238.128 274.932 248.82 274.318C258.072 273.772 266.503 269.065 273.22 260.741C285.694 245.458 280.827 225.603 279.045 219.872ZM269.039 252.758L268.422 253.645V253.577C268.216 253.85 268.011 254.054 267.805 254.327C262.665 260.741 255.811 264.493 248.614 264.971C248.134 264.971 247.723 265.039 247.243 265.039C239.498 265.039 233.741 261.218 231.548 259.513C229.218 257.739 227.299 255.555 225.722 253.031V253.099L225.105 252.008C220.925 244.503 220.856 236.179 220.856 232.631V232.494C220.856 225.194 222.775 219.531 223.186 218.508C223.94 216.461 225.174 213.664 227.436 210.525C229.629 207.591 235.66 200.837 244.982 200.291C251.767 199.882 256.77 202.952 258.895 204.248C268.216 209.979 271.232 219.531 272.191 222.601C273.562 226.763 277.126 241.023 269.039 252.758Z" fill="white"/>
<path d="M252.863 212.367C252.863 217.552 248.614 221.783 243.405 221.783C238.196 221.783 233.947 217.552 233.947 212.367C233.947 207.182 238.196 202.952 243.405 202.952C248.614 202.952 252.863 207.182 252.863 212.367Z" fill="white"/>
<path d="M167.67 212.367C167.67 217.552 163.421 221.783 158.212 221.783C153.003 221.783 148.685 217.552 148.685 212.367C148.685 207.182 152.934 202.952 158.143 202.952C163.352 202.952 167.67 207.182 167.67 212.367Z" fill="white"/>
<path d="M267.668 252.28C267.394 252.69 267.12 253.099 266.777 253.509C261.842 259.649 255.399 263.197 248.614 263.606C240.664 264.084 234.701 260.127 232.508 258.421C230.109 256.579 228.121 254.259 226.545 251.598C227.162 250.507 227.847 249.483 228.601 248.391C230.657 245.662 236.346 239.249 245.187 238.703C251.561 238.294 256.29 241.228 258.347 242.456C262.048 244.775 265.2 248.119 267.668 252.28Z" fill="#97C57C"/>
<path d="M175.141 251.598C173.564 254.259 171.577 256.579 169.178 258.489C166.985 260.195 161.022 264.152 153.071 263.675C146.286 263.265 139.843 259.717 134.909 253.577C134.566 253.167 134.223 252.758 133.949 252.349C136.348 248.119 139.501 244.844 143.339 242.456C145.326 241.228 150.056 238.294 156.498 238.703C165.271 239.249 171.028 245.662 173.085 248.391C173.838 249.483 174.524 250.507 175.141 251.598Z" fill="#97C57C"/>
<path d="M268.833 251.735C268.49 251.53 268.079 251.598 267.874 251.939C267.805 252.076 267.668 252.212 267.599 252.28C267.668 252.417 267.736 252.553 267.805 252.69L268.285 253.577C268.49 253.236 268.765 252.963 268.97 252.621C269.244 252.349 269.176 251.939 268.833 251.735Z" fill="#458538"/>
<path d="M171.165 310.069C171.371 310.206 171.645 310.342 171.851 310.479L171.165 310.069Z" fill="#74AD5B"/>
<path d="M271.095 320.849C271.369 320.781 271.643 320.781 271.917 320.713L271.095 320.849Z" fill="#74AD5B"/>
</g>
<path d="M54.9434 379.023V383.223H57.209V385.293H54.9434V389.492H52.4434V379.023H54.9434ZM54.9434 390.117V394.102H45.4121V395.02H55.5293V396.68H42.9121V392.598H52.4434V391.777H42.8926V390.117H54.9434ZM40.5293 387.578C41.8281 387.588 43.3027 387.588 44.8457 387.539V386.758C42.9023 386.533 41.7012 385.723 41.7207 384.453C41.7012 383.008 43.4199 382.168 46.0762 382.168C48.7129 382.168 50.4121 383.008 50.4316 384.453C50.4121 385.723 49.2402 386.523 47.3262 386.758V387.461C48.7812 387.393 50.2461 387.275 51.623 387.09L51.7988 388.633C48.0098 389.277 43.8887 389.297 40.7832 389.297L40.5293 387.578ZM51.1738 380.137V381.797H40.998V380.137H44.8457V378.867H47.3262V380.137H51.1738ZM46.0762 383.711C44.8066 383.711 44.084 383.945 44.1035 384.453C44.084 384.98 44.8066 385.254 46.0762 385.273C47.3262 385.254 48.0293 384.98 48.0488 384.453C48.0293 383.945 47.3262 383.711 46.0762 383.711ZM72.9512 379.023V396.797H70.4316V379.023H72.9512ZM67.6191 380.879C67.6191 386.27 65.7246 390.742 59.377 393.75L58.0684 391.758C62.6582 389.59 64.6797 386.777 65.0801 382.832H59.0254V380.879H67.6191ZM94.8848 389.922V396.602H83.0098V389.922H94.8848ZM85.4707 391.895V394.609H92.4434V391.895H85.4707ZM83.3613 379.961V386.406C85.5879 386.377 87.873 386.201 90.2559 385.723L90.5098 387.812C87.6973 388.379 85.041 388.516 82.3848 388.516H80.9004V379.961H83.3613ZM94.8848 379.023V389.18H92.4043V384.023H87.9902V382.012H92.4043V379.023H94.8848ZM112.053 379.023V396.797H109.553V379.023H112.053ZM104.143 384.59C104.143 387.168 105.607 390.078 108.557 391.289L107.209 393.203C105.188 392.373 103.742 390.674 102.932 388.633C102.141 390.801 100.686 392.617 98.6152 393.477L97.2871 391.562C100.217 390.293 101.662 387.305 101.662 384.59V383.906H97.873V381.914H101.643V379.414H104.123V381.914H107.834V383.906H104.143V384.59ZM128.908 383.867V385.82H116.486V379.648H118.967V383.867H128.908ZM130.725 387.734V389.688H114.455V387.734H130.725ZM129.025 394.414V396.406H116.33V391.133H118.83V394.414H129.025ZM151.252 379.023V396.836H148.732V379.023H151.252ZM139.748 380.43V384.766H143.576V380.43H146.037V392.676H137.248V380.43H139.748ZM139.748 390.664H143.576V386.699H139.748V390.664ZM162.775 380.488V382.52H156.877V385.449H162.521V387.402H156.877V390.762C159.426 390.742 161.496 390.635 163.869 390.254L164.104 392.266C161.389 392.676 158.967 392.754 155.861 392.754H154.357V380.488H162.775ZM167.678 379.023V385.762H170.295V387.852H167.678V396.797H165.178V379.023H167.678ZM180.529 380.449V389.023H171.838V380.449H180.529ZM174.299 382.422V387.051H178.049V382.422H174.299ZM185.822 379.043V391.68H183.322V379.043H185.822ZM186.291 394.395V396.406H173.908V390.508H176.428V394.395H186.291ZM198.342 385.781C198.107 384.219 196.896 383.262 195.256 383.262C193.049 383.262 191.604 384.961 191.604 387.93C191.604 390.977 193.068 392.598 195.236 392.598C196.857 392.598 198.049 391.699 198.342 390.176L201.311 390.195C200.979 392.812 198.791 395.195 195.197 395.195C191.408 395.195 188.615 392.539 188.615 387.93C188.615 383.32 191.467 380.664 195.197 380.664C198.459 380.664 200.92 382.539 201.311 385.781H198.342ZM212.092 392.832V389.18H208.439V386.738H212.092V383.086H214.533V386.738H218.186V389.18H214.533V392.832H212.092ZM235.08 380.215V382.207H231.545C231.564 384.277 232.805 386.279 235.646 387.109L234.455 389.062C232.492 388.467 231.135 387.275 230.354 385.742C229.562 387.539 228.117 388.965 225.979 389.668L224.709 387.695C227.658 386.768 228.986 384.463 229.025 382.207H225.393V380.215H235.08ZM239.084 379.023V383.145H241.486V385.176H239.084V389.57H236.584V379.023H239.084ZM233.264 389.922C236.955 389.902 239.26 391.172 239.26 393.34C239.26 395.508 236.955 396.797 233.264 396.797C229.494 396.797 227.17 395.508 227.17 393.34C227.17 391.172 229.494 389.902 233.264 389.922ZM233.264 391.855C230.92 391.855 229.65 392.344 229.67 393.34C229.65 394.355 230.92 394.863 233.264 394.863C235.568 394.863 236.799 394.355 236.799 393.34C236.799 392.344 235.568 391.855 233.264 391.855ZM261.857 379.043V392.031H259.377V386.23H256.193V384.18H259.377V379.043H261.857ZM256.35 380.352C256.35 385.117 253.322 388.633 248.127 390.254L247.111 388.281C250.793 387.129 253.166 385.01 253.635 382.383H248.029V380.352H256.35ZM262.307 394.492V396.484H250.139V390.723H252.678V394.492H262.307ZM278.264 379.023V383.203H280.666V385.234H278.264V389.336H275.764V379.023H278.264ZM273.303 380.195C273.322 384.941 270.334 388.262 265.041 389.727L264.045 387.715C267.961 386.67 270.207 384.658 270.588 382.188H264.885V380.195H273.303ZM272.463 389.551C276.076 389.551 278.459 390.957 278.459 393.184C278.459 395.43 276.076 396.816 272.463 396.816C268.85 396.816 266.428 395.43 266.447 393.184C266.428 390.957 268.85 389.551 272.463 389.551ZM272.463 391.484C270.217 391.484 268.889 392.09 268.908 393.184C268.889 394.258 270.217 394.883 272.463 394.863C274.67 394.883 275.998 394.258 275.998 393.184C275.998 392.09 274.67 391.484 272.463 391.484ZM292.873 381.543C292.854 383.77 294.123 385.918 297.053 386.797L295.803 388.75C293.781 388.105 292.385 386.846 291.584 385.215C290.783 386.973 289.338 388.35 287.248 389.023L285.998 387.07C288.967 386.113 290.275 383.809 290.275 381.543V379.844H292.873V381.543ZM300.939 390.391V396.797H298.439V392.383H288.713V390.391H300.939ZM300.939 379.023V389.629H298.439V379.023H300.939ZM318.225 379.023V396.836H315.705V379.023H318.225ZM308.576 380.273C311.252 380.273 313.244 382.734 313.244 386.602C313.244 390.508 311.252 392.949 308.576 392.949C305.842 392.949 303.85 390.508 303.869 386.602C303.85 382.734 305.842 380.273 308.576 380.273ZM308.576 382.52C307.189 382.52 306.271 383.965 306.271 386.602C306.271 389.258 307.189 390.684 308.576 390.684C309.924 390.684 310.842 389.258 310.842 386.602C310.842 383.965 309.924 382.52 308.576 382.52ZM335.607 379.023V389.18H333.127V384.141H329.787V382.129H333.127V379.023H335.607ZM335.607 389.961V396.602H323.654V389.961H335.607ZM326.154 391.895V394.609H333.166V391.895H326.154ZM327.287 381.68C327.268 383.789 328.518 385.879 331.33 386.719L330.041 388.672C328.098 388.037 326.77 386.807 326.018 385.254C325.227 386.953 323.83 388.291 321.779 388.965L320.49 387.012C323.479 386.094 324.748 383.867 324.768 381.523V379.824H327.287V381.68ZM354.162 388.906V390.918H350.354V396.797H347.814V390.918H344.182V396.797H341.623V390.918H337.893V388.906H354.162ZM345.979 379.609C349.787 379.609 352.463 381.191 352.463 383.633C352.463 386.035 349.787 387.539 345.979 387.539C342.17 387.539 339.514 386.035 339.533 383.633C339.514 381.191 342.17 379.609 345.979 379.609ZM345.979 381.602C343.596 381.602 342.072 382.324 342.092 383.633C342.072 384.883 343.596 385.586 345.979 385.586C348.381 385.586 349.885 384.883 349.885 383.633C349.885 382.324 348.381 381.602 345.979 381.602ZM359.24 380.859L358.986 390.762H356.486L356.232 380.859H359.24ZM357.756 395.176C356.838 395.176 356.096 394.434 356.115 393.535C356.096 392.637 356.838 391.914 357.756 391.914C358.615 391.914 359.377 392.637 359.377 393.535C359.377 394.434 358.615 395.176 357.756 395.176Z" fill="#458538"/>
<path d="M61.2617 432.059V434.617H66.3203V432.059H67.8438V439.695H59.7578V432.059H61.2617ZM61.2617 438.465H66.3203V435.789H61.2617V438.465ZM72.5898 431.219V435.047H75.207V436.355H72.5898V440.496H71.0664V431.219H72.5898ZM66.4766 441.453V445.398H62.3164V447.215C64.748 447.205 66.0469 447.137 67.6289 446.824L67.8047 447.996C66.0273 448.348 64.6602 448.387 61.8477 448.387H60.832V444.266H64.9922V442.645H60.793V441.453H66.4766ZM72.5898 441.453V448.523H71.0664V442.684H67.2383V441.453H72.5898ZM90.2266 432.977V434.715C90.207 436.844 90.207 439.227 89.582 442.723L88.0195 442.547C88.6836 439.227 88.6836 436.785 88.6836 434.715V434.246H77.9805V432.977H90.2266ZM92.1211 444.852V446.121H76.3008V444.852H82.5117V438.641H84.0156V444.852H92.1211ZM112.414 432.156V433.445C112.414 434.822 112.414 436.463 111.945 438.68H114.484V439.949H98.6055V438.68H110.383C110.891 436.443 110.891 434.822 110.891 433.445V433.426H100.617V432.156H112.414ZM106.516 442.02C110.246 442.02 112.551 443.23 112.57 445.301C112.551 447.371 110.246 448.523 106.516 448.523C102.746 448.523 100.422 447.371 100.422 445.301C100.422 443.23 102.746 442.02 106.516 442.02ZM106.516 443.27C103.684 443.27 101.965 444.012 101.984 445.301C101.965 446.531 103.684 447.273 106.516 447.293C109.289 447.273 111.008 446.531 111.027 445.301C111.008 444.012 109.289 443.27 106.516 443.27ZM130.285 431.219V441.57H128.742V437.02H125.246V435.75H128.742V431.219H130.285ZM124.523 442.117C128.137 442.117 130.344 443.289 130.344 445.34C130.344 447.391 128.137 448.562 124.523 448.582C120.91 448.562 118.703 447.391 118.703 445.34C118.703 443.289 120.91 442.117 124.523 442.117ZM124.523 443.309C121.867 443.309 120.207 444.07 120.227 445.34C120.207 446.59 121.867 447.352 124.523 447.352C127.18 447.352 128.82 446.59 128.82 445.34C128.82 444.07 127.18 443.309 124.523 443.309ZM121.926 434.402C121.926 436.668 123.664 438.816 126.203 439.695L125.402 440.926C123.449 440.223 121.936 438.768 121.203 436.961C120.441 439.002 118.83 440.633 116.77 441.414L115.969 440.184C118.547 439.246 120.383 436.902 120.383 434.422V433.777H116.457V432.488H125.812V433.777H121.926V434.402ZM139.211 434.422C139.211 436.688 140.949 438.836 143.488 439.715L142.688 440.926C140.725 440.223 139.211 438.768 138.469 436.98C137.717 438.982 136.115 440.584 134.055 441.336L133.254 440.125C135.812 439.207 137.668 436.883 137.668 434.441V433.68H133.742V432.43H143.098V433.68H139.211V434.422ZM147.57 442.547V448.582H146.027V443.816H135.891V442.547H147.57ZM147.57 431.219V441.629H146.027V437.059H142.551V435.77H146.027V431.219H147.57ZM164.797 431.238V443.934H163.273V431.238H164.797ZM165.344 446.922V448.211H153.586V442.645H155.109V446.922H165.344ZM155.422 432.449C158.02 432.449 159.973 434.207 159.973 436.707C159.973 439.246 158.02 440.984 155.422 440.984C152.824 440.984 150.871 439.246 150.871 436.707C150.871 434.207 152.824 432.449 155.422 432.449ZM155.422 433.797C153.664 433.797 152.355 435.008 152.375 436.707C152.355 438.445 153.664 439.637 155.422 439.637C157.141 439.637 158.469 438.445 158.469 436.707C158.469 435.008 157.141 433.797 155.422 433.797ZM187.102 431.219V448.621H185.578V431.219H187.102ZM181.828 432.84V439.012H175.344V443.113C178.225 443.113 180.793 442.986 183.898 442.488L184.055 443.777C180.852 444.285 178.215 444.402 175.227 444.402H173.781V437.762H180.285V434.109H173.742V432.84H181.828ZM198.898 432.879V434.168H192.473V443.016C195.598 443.016 197.668 442.908 200.07 442.449L200.266 443.719C197.707 444.207 195.598 444.324 192.258 444.324H190.93V432.879H198.898ZM204.465 431.219V448.621H202.922V438.816H197.863V437.547H202.922V431.219H204.465ZM226.379 439.363V440.613H221.008V445.105H228.254V446.395H212.355V445.105H219.504V440.613H214.387V432.645H226.203V433.895H215.93V439.363H226.379ZM243.664 439.363V440.613H238.293V445.105H245.539V446.395H229.641V445.105H236.789V440.613H231.672V432.645H243.488V433.895H233.215V439.363H243.664ZM260.969 436.492V437.723H249.074V431.863H250.598V436.492H260.969ZM262.805 440.086V441.336H246.906V440.086H262.805ZM261.066 446.883V448.152H248.977V443.113H250.5V446.883H261.066ZM283.117 442.645V448.348H271.164V442.645H283.117ZM272.688 443.875V447.098H281.613V443.875H272.688ZM283.039 431.863V437.684H277.902V439.656H285.051V440.926H269.23V439.656H276.379V437.684H271.281V431.863H283.039ZM272.785 433.113V436.434H281.516V433.113H272.785ZM302.395 439.949V441.219H286.516V439.949H293.664V437.273H295.168V439.949H302.395ZM295.188 432.312C295.188 434.617 298.312 436.551 301.379 436.98L300.754 438.211C298.117 437.752 295.51 436.355 294.426 434.344C293.332 436.365 290.715 437.752 288.059 438.211L287.473 436.98C290.539 436.551 293.645 434.617 293.645 432.312V431.492H295.188V432.312ZM300.383 442.918V448.582H298.84V444.148H288.273V442.918H300.383ZM319.68 441.531V442.781H312.434V448.582H310.93V442.781H303.781V441.531H319.68ZM307.336 431.941V434.344H316.086V431.941H317.629V439.422H305.812V431.941H307.336ZM307.336 438.172H316.086V435.594H307.336V438.172ZM335.48 431.219V448.621H333.957V439.051H330.285V437.781H333.957V431.219H335.48ZM329.992 432.82V434.09H323.43V437.703H329.23V438.953H323.43V443.152C326.623 443.152 328.654 443.045 331.047 442.625L331.223 443.895C328.703 444.305 326.574 444.422 323.215 444.422H321.887V432.82H329.992ZM75.9102 460.031C75.9102 462.395 77.707 464.562 80.2266 465.422L79.3867 466.633C77.4629 465.93 75.9492 464.494 75.1875 462.688C74.4453 464.729 72.9023 466.34 70.8711 467.121L70.0508 465.891C72.6484 464.914 74.3867 462.59 74.4062 459.914V458.117H75.9102V460.031ZM83.6836 457.219V461.75H86.3008V463.039H83.6836V467.785H82.1602V457.219H83.6836ZM78.1172 468.234C81.6914 468.234 83.8398 469.387 83.8398 471.379C83.8398 473.41 81.6914 474.543 78.1172 474.543C74.543 474.543 72.3555 473.41 72.3555 471.379C72.3555 469.387 74.543 468.234 78.1172 468.234ZM78.1172 469.465C75.5 469.465 73.8789 470.188 73.8984 471.379C73.8789 472.609 75.5 473.312 78.1172 473.332C80.7539 473.312 82.3555 472.609 82.3555 471.379C82.3555 470.188 80.7539 469.465 78.1172 469.465ZM95.4414 459.055V460.383C95.4219 462.004 95.4219 464.113 94.875 467.062L93.4492 466.906C93.6836 465.676 93.8203 464.592 93.8984 463.625L87.9219 464.152L87.707 462.883L93.9766 462.512C93.9961 461.721 93.9961 461.018 93.9961 460.383V460.324H88.0781V459.055H95.4414ZM91.6914 465.344V469.133C93.2539 469.064 94.8457 468.957 96.1836 468.781L96.2617 469.934C93.4297 470.441 89.7383 470.5 87.4141 470.52L87.1797 469.211C88.0586 469.211 89.1328 469.201 90.2656 469.172V465.344H91.6914ZM102.199 457.219V474.582H100.734V465.852H98.5664V473.664H97.1211V457.609H98.5664V464.582H100.734V457.219H102.199ZM118.117 457.219V464.387H121.027V465.656H118.117V474.582H116.594V457.219H118.117ZM114.914 460.012V461.281H104.582V460.012H109.055V457.434H110.578V460.012H114.914ZM109.836 462.727C112.297 462.727 114.074 464.367 114.094 466.711C114.074 469.055 112.297 470.695 109.836 470.695C107.355 470.695 105.559 469.055 105.578 466.711C105.559 464.367 107.355 462.727 109.836 462.727ZM109.836 464.016C108.215 464.016 107.023 465.148 107.043 466.711C107.023 468.293 108.215 469.406 109.836 469.387C111.438 469.406 112.609 468.293 112.629 466.711C112.609 465.148 111.438 464.016 109.836 464.016ZM136.828 457.219V474.582H135.363V457.219H136.828ZM133.176 457.688V473.703H131.711V465.598H128.039C126.975 467.619 125.305 469.406 122.883 470.832L121.984 469.719C125.764 467.482 127.658 464.348 127.941 460.715H122.727V459.445H129.465C129.455 461.154 129.182 462.805 128.605 464.348H131.711V457.688H133.176ZM158.664 457.219V467.57H157.121V463.02H153.625V461.75H157.121V457.219H158.664ZM152.902 468.117C156.516 468.117 158.723 469.289 158.723 471.34C158.723 473.391 156.516 474.562 152.902 474.582C149.289 474.562 147.082 473.391 147.082 471.34C147.082 469.289 149.289 468.117 152.902 468.117ZM152.902 469.309C150.246 469.309 148.586 470.07 148.605 471.34C148.586 472.59 150.246 473.352 152.902 473.352C155.559 473.352 157.199 472.59 157.199 471.34C157.199 470.07 155.559 469.309 152.902 469.309ZM150.305 460.402C150.305 462.668 152.043 464.816 154.582 465.695L153.781 466.926C151.828 466.223 150.314 464.768 149.582 462.961C148.82 465.002 147.209 466.633 145.148 467.414L144.348 466.184C146.926 465.246 148.762 462.902 148.762 460.422V459.777H144.836V458.488H154.191V459.777H150.305V460.402ZM175.891 457.219V474.621H174.367V457.219H175.891ZM170.617 458.84V465.012H164.133V469.113C167.014 469.113 169.582 468.986 172.688 468.488L172.844 469.777C169.641 470.285 167.004 470.402 164.016 470.402H162.57V463.762H169.074V460.109H162.531V458.84H170.617ZM187.512 460.227V461.477H178.801V460.227H182.414V457.746H183.938V460.227H187.512ZM183.156 462.648C185.344 462.648 186.906 464.289 186.926 466.594C186.906 468.918 185.344 470.578 183.156 470.578C180.988 470.578 179.426 468.918 179.426 466.594C179.426 464.289 180.988 462.648 183.156 462.648ZM183.156 463.938C181.789 463.957 180.793 465.07 180.793 466.594C180.793 468.137 181.789 469.25 183.156 469.23C184.543 469.25 185.559 468.137 185.559 466.594C185.559 465.07 184.543 463.957 183.156 463.938ZM193.625 457.219V474.582H192.16V465.812H189.855V473.723H188.41V457.648H189.855V464.543H192.16V457.219H193.625ZM204.895 459.68C204.875 462.004 207.98 463.977 211.008 464.426L210.441 465.637C207.727 465.178 205.09 463.732 204.035 461.633C202.98 463.732 200.334 465.178 197.668 465.637L197.062 464.426C200.07 463.977 203.176 462.004 203.176 459.68V459.562H197.609V458.312H210.441V459.562H204.895V459.68ZM211.945 467.121V468.391H204.758V474.582H203.254V468.391H196.125V467.121H211.945ZM227.453 462.492V463.723H215.559V457.863H217.082V462.492H227.453ZM229.289 466.086V467.336H213.391V466.086H229.289ZM227.551 472.883V474.152H215.461V469.113H216.984V472.883H227.551ZM250.598 457.219V474.582H249.113V457.219H250.598ZM247.102 457.59V473.703H245.637V465.266H243.41C243.244 468.645 241.809 470.754 239.66 470.754C237.395 470.754 235.93 468.41 235.93 464.719C235.93 461.027 237.395 458.684 239.66 458.684C241.77 458.684 243.195 460.725 243.391 463.996H245.637V457.59H247.102ZM239.66 460.129C238.254 460.129 237.355 461.887 237.375 464.719C237.355 467.531 238.254 469.309 239.66 469.289C241.066 469.309 241.965 467.531 241.965 464.719C241.965 461.887 241.066 460.129 239.66 460.129ZM267.414 457.219V474.621H265.871V464.23H260.461V462.961H265.871V457.219H267.414ZM255.5 459.172V469.113C258.146 469.084 260.51 468.947 263.117 468.41L263.312 469.68C260.539 470.246 258.098 470.402 255.285 470.402H253.957V459.172H255.5ZM276.496 462.551C276.496 465.5 278.645 468.488 281.203 469.602L280.344 470.812C278.312 469.885 276.555 467.883 275.754 465.48C274.934 468.029 273.186 470.246 271.203 471.242L270.285 470.031C272.766 468.84 274.934 465.559 274.953 462.551V460.285H270.852V459.016H280.637V460.285H276.496V462.551ZM284.602 457.219V474.582H283.059V457.219H284.602ZM307.434 457.219V474.582H305.969V465.48H303.41V473.684H302.004V457.609H303.41V464.211H305.969V457.219H307.434ZM299.738 459.348V460.617H294.758V468.977C297.15 468.967 298.811 468.879 300.734 468.488L300.871 469.777C298.781 470.207 297.004 470.285 294.348 470.285H293.234V459.348H299.738ZM315.754 460.52C315.754 462.785 317.453 464.816 320.012 465.656L319.289 466.867C317.287 466.213 315.773 464.826 315.031 463.078C314.279 465.07 312.678 466.623 310.598 467.375L309.816 466.145C312.414 465.266 314.23 463.02 314.25 460.52V459.777H310.285V458.508H319.66V459.777H315.754V460.52ZM323.449 457.219V461.652H326.066V462.941H323.449V467.707H321.926V457.219H323.449ZM317.883 468.176C321.457 468.176 323.605 469.348 323.605 471.34C323.605 473.371 321.457 474.543 317.883 474.543C314.309 474.543 312.121 473.371 312.121 471.34C312.121 469.348 314.309 468.176 317.883 468.176ZM317.883 469.406C315.266 469.406 313.645 470.129 313.664 471.34C313.645 472.59 315.266 473.312 317.883 473.312C320.52 473.312 322.121 472.59 322.121 471.34C322.121 470.129 320.52 469.406 317.883 469.406ZM329.973 458.859L329.836 469.016H328.195L328.059 458.859H329.973ZM329.016 473.117C328.332 473.117 327.746 472.551 327.766 471.848C327.746 471.164 328.332 470.598 329.016 470.598C329.699 470.598 330.266 471.164 330.266 471.848C330.266 472.551 329.699 473.117 329.016 473.117Z" fill="#333333"/>
<path d="M170.63 41.9316V64.3926H167.139V41.9316H170.63ZM163.647 43.7627V52.6006H156.592V56.3115C159.9 56.2871 162.659 56.1162 165.723 55.6035L166.016 58.4355C162.476 59.0703 159.18 59.2168 155.005 59.2168H152.954V49.8418H160.059V46.5703H152.954V43.7627H163.647ZM184.619 43.8604V46.6924H177.979V56.1406C180.994 56.1162 183.252 55.9697 185.718 55.5303L186.06 58.3623C183.057 58.9238 180.371 59.0459 176.294 59.0215H174.438V43.8604H184.619ZM192.432 41.9316V64.3926H188.916V52.4297H183.594V49.5488H188.916V41.9316H192.432ZM218.896 51.8193V54.5781H212.524V59.0215H221.069V61.8779H200.586V59.0215H209.058V54.5781H202.93V43.4453H218.75V46.2285H206.445V51.8193H218.896ZM240.503 51.8193V54.5781H234.131V59.0215H242.676V61.8779H222.192V59.0215H230.664V54.5781H224.536V43.4453H240.356V46.2285H228.052V51.8193H240.503ZM166.836 77.4219C166.836 79.7422 168.641 82.0391 171.969 82.9297L170.75 84.9453C168.301 84.2773 166.543 82.8477 165.57 81.0078C164.656 83.0938 162.887 84.7344 160.367 85.4844L159.148 83.4688C162.453 82.4609 164.234 79.9766 164.234 77.4219V77.3047H159.805V75.2422H164.234V72.8047H166.859V75.2422H171.266V77.3047H166.836V77.4219ZM176.961 72.8984V85.7188H174.359V80.8203H170.633V78.7109H174.359V72.8984H176.961ZM169.789 86.1406C174.266 86.1406 177.031 87.5703 177.031 90.0781C177.031 92.6094 174.266 94.0625 169.789 94.0625C165.336 94.0625 162.57 92.6094 162.594 90.0781C162.57 87.5703 165.336 86.1406 169.789 86.1406ZM169.789 88.1328C166.836 88.1562 165.172 88.8125 165.172 90.0781C165.172 91.3438 166.836 92.0469 169.789 92.0469C172.789 92.0469 174.43 91.3438 174.43 90.0781C174.43 88.8125 172.789 88.1562 169.789 88.1328ZM199.32 89.4453V91.625H179.961V89.4453H188.281V85.2734H181.625V83.2109H184.602V76.8828H181.555V74.7734H197.633V76.8828H194.539V83.2109H197.562V85.2734H190.859V89.4453H199.32ZM187.203 83.2109H191.961V76.8828H187.203V83.2109ZM217.906 82.5312V84.5938H211.625V89.4453H220.062V91.5781H200.703V89.4453H209.047V84.5938H203.047V74.4688H217.742V76.5547H205.648V82.5312H217.906ZM232.062 74.4219V84.0781H222.172V74.4219H232.062ZM224.727 76.5078V81.9922H229.484V76.5078H224.727ZM238.156 72.8984V78.3594H241.109V80.5391H238.156V86.9141H235.555V72.8984H238.156ZM232.789 86.4922C232.766 89.0469 235.391 91.3203 239.656 91.9297L238.625 93.9688C235.344 93.4414 232.789 91.9531 231.523 89.8438C230.211 91.9531 227.656 93.4414 224.375 93.9688L223.344 91.9297C227.586 91.3203 230.188 89.0469 230.188 86.4922V85.9062H232.789V86.4922Z" fill="#458538"/>
<rect x="27" y="513" width="340" height="100" rx="30" fill="#C7F0A6"/>
<path d="M95.4473 556.863L93.8652 555.301L98.084 551.082H88.1621V548.777H98.084L93.8652 544.578L95.4473 543.016L102.381 549.93L95.4473 556.863ZM115.857 543.816C115.857 545.965 117.107 548.035 119.92 548.914L118.592 550.848C116.707 550.223 115.389 549.012 114.627 547.449C113.855 549.246 112.479 550.652 110.447 551.336L109.1 549.383C112.068 548.387 113.338 546.023 113.357 543.582V541.961H115.857V543.816ZM123.475 541.023V545.184H125.877V547.254H123.475V551.57H120.975V541.023H123.475ZM117.654 551.922C121.326 551.922 123.65 553.191 123.65 555.359C123.65 557.547 121.326 558.797 117.654 558.797C113.904 558.797 111.561 557.547 111.561 555.359C111.561 553.191 113.904 551.922 117.654 551.922ZM117.654 553.875C115.311 553.875 114.041 554.383 114.061 555.359C114.041 556.375 115.311 556.844 117.654 556.844C119.959 556.844 121.189 556.375 121.189 555.359C121.189 554.383 119.959 553.875 117.654 553.875ZM140.994 541.648V543.23C140.994 544.832 140.994 546.57 140.545 548.914H142.869V550.926H126.658V548.914H138.025C138.162 548.191 138.27 547.537 138.357 546.922L128.436 547.352L128.162 545.301L138.494 545.086C138.504 544.588 138.514 544.109 138.514 543.641H128.65V541.648H140.994ZM140.936 552.371V558.602H128.592V552.371H140.936ZM131.033 554.363V556.609H138.455V554.363H131.033ZM157.967 541.023V547.977H160.584V550.027H157.967V558.797H155.506V541.023H157.967ZM154.295 543.68V545.672H143.846V543.68H147.869V541.297H150.369V543.68H154.295ZM149.119 546.668C151.717 546.668 153.65 548.426 153.65 550.906C153.65 553.387 151.717 555.145 149.119 555.145C146.502 555.145 144.568 553.387 144.568 550.906C144.568 548.426 146.502 546.668 149.119 546.668ZM149.119 548.68C147.869 548.699 146.951 549.539 146.951 550.906C146.951 552.293 147.869 553.113 149.119 553.094C150.369 553.113 151.268 552.293 151.268 550.906C151.268 549.539 150.369 548.699 149.119 548.68ZM176.639 541.023V558.797H174.295V541.023H176.639ZM172.85 541.414V558.016H170.525V549.852H167.615C166.6 551.883 164.949 553.641 162.42 555.105L161.014 553.348C164.598 551.219 166.18 548.631 166.521 545.145H161.99V543.133H169.002C168.992 544.822 168.816 546.414 168.396 547.879H170.525V541.414H172.85ZM198.025 541.023V558.836H195.545V541.023H198.025ZM192.518 542.508V549.363H186.658V552.625C189.363 552.615 191.668 552.459 194.275 552.039L194.49 554.051C191.561 554.559 188.924 554.676 185.682 554.676H184.08V547.391H189.979V544.52H184.061V542.508H192.518ZM215.682 541.023V553.113H213.318V541.023H215.682ZM212.088 541.375V551.434H209.725V546.668H207.557V544.676H209.725V541.375H212.088ZM210.896 552.586C210.896 554.402 212.811 556.316 216.658 556.805L215.701 558.719C212.83 558.338 210.75 557.146 209.666 555.516C208.553 557.146 206.463 558.338 203.572 558.719L202.654 556.805C206.502 556.316 208.416 554.402 208.416 552.586V552.176H210.896V552.586ZM206.014 544.188C206.014 546.199 206.912 548.152 209.178 549.168L207.83 551.082C206.365 550.438 205.389 549.324 204.803 547.957C204.158 549.441 203.074 550.672 201.482 551.336L200.154 549.441C202.596 548.367 203.592 546.199 203.592 544.188V542.137H206.014V544.188ZM231.717 541.023V547.977H234.334V550.027H231.717V558.797H229.256V541.023H231.717ZM228.045 543.68V545.672H217.596V543.68H221.619V541.297H224.119V543.68H228.045ZM222.869 546.668C225.467 546.668 227.4 548.426 227.4 550.906C227.4 553.387 225.467 555.145 222.869 555.145C220.252 555.145 218.318 553.387 218.318 550.906C218.318 548.426 220.252 546.668 222.869 546.668ZM222.869 548.68C221.619 548.699 220.701 549.539 220.701 550.906C220.701 552.293 221.619 553.113 222.869 553.094C224.119 553.113 225.018 552.293 225.018 550.906C225.018 549.539 224.119 548.699 222.869 548.68ZM249.627 542.566V544.246C249.627 546.473 249.627 548.973 248.904 552.742L246.404 552.488C247.078 549.129 247.107 546.629 247.127 544.539H236.658V542.566H249.627ZM251.189 554.598V556.629H234.979V554.598H240.779V548.484H243.26V554.598H251.189ZM271.756 541.043V550.887H269.256V541.043H271.756ZM263.689 543.367C263.67 545.477 264.959 547.566 267.869 548.367L266.678 550.34C264.627 549.734 263.211 548.504 262.4 546.922C261.59 548.641 260.135 549.998 258.006 550.633L256.814 548.68C259.783 547.781 261.092 545.574 261.092 543.367V541.648H263.689V543.367ZM271.854 551.688V553.66H269.725V556.609H272.01V558.602H259.49V556.609H261.795V553.66H259.646V551.688H271.854ZM264.256 556.609H267.264V553.66H264.256V556.609ZM282.264 541.277C286.346 541.277 288.709 542.352 288.729 544.305C288.709 546.277 286.346 547.352 282.264 547.352C278.162 547.352 275.779 546.277 275.779 544.305C275.779 542.352 278.162 541.277 282.264 541.277ZM282.264 543.094C279.646 543.094 278.377 543.523 278.396 544.305C278.377 545.184 279.646 545.516 282.264 545.516C284.9 545.516 286.15 545.184 286.15 544.305C286.15 543.523 284.9 543.094 282.264 543.094ZM290.369 548.191V550.164H274.158V548.191H290.369ZM288.396 551.199V555.73H278.494V556.805H288.865V558.68H276.053V553.992H285.936V553.016H276.033V551.199H288.396ZM307.967 541.316V547.918H309.314V541.023H311.658V558.797H309.314V549.949H307.967V557.996H305.682V541.316H307.967ZM300.154 543.152V545.145H298.631V552.371C299.09 552.332 299.598 552.254 300.154 552.117L300.33 554.188C299.041 554.461 298.084 554.5 297.146 554.48H296.346V543.152H300.154ZM304.744 543.152V545.145H303.064V552.391C303.641 552.361 304.256 552.283 304.959 552.117L305.115 554.188C303.768 554.48 302.732 554.5 301.639 554.48H300.838V543.152H304.744Z" fill="#458538"/>
<path d="M111.58 574.973V576.945H106.424V580.734H113.357V582.766H97.0879V580.734H103.943V576.945H99.002V568.273H111.443V570.266H101.502V574.973H111.58ZM128.865 574.973V576.945H123.709V580.734H130.643V582.766H114.373V580.734H121.229V576.945H116.287V568.273H128.729V570.266H118.787V574.973H128.865ZM137.42 568.215C140.232 568.195 142.342 570.031 142.342 572.57C142.342 575.129 140.232 576.945 137.42 576.945C134.607 576.945 132.479 575.129 132.479 572.57C132.479 570.031 134.607 568.195 137.42 568.215ZM137.42 570.363C136.014 570.363 134.939 571.184 134.959 572.57C134.939 573.977 136.014 574.777 137.42 574.777C138.826 574.777 139.9 573.977 139.92 572.57C139.9 571.184 138.846 570.363 137.42 570.363ZM146.6 567.023V584.836H144.119V567.023H146.6ZM131.736 579.172C134.9 579.191 139.295 579.133 143.104 578.605L143.299 580.402C139.354 581.164 135.135 581.203 132.029 581.203L131.736 579.172ZM163.689 568.879V570.832H160.096C160.115 572.658 161.463 574.514 164.314 575.246L163.162 577.16C161.141 576.652 159.715 575.529 158.904 574.074C158.133 575.734 156.707 577.033 154.607 577.629L153.436 575.695C156.287 574.885 157.596 572.854 157.615 570.832H154.041V568.879H157.615V566.945H160.135V568.879H163.689ZM168.533 567.023V577.766H166.053V573.781H163.162V571.789H166.053V567.023H168.533ZM162.459 578.059C166.248 578.078 168.572 579.27 168.592 581.398C168.572 583.547 166.248 584.797 162.459 584.797C158.689 584.797 156.346 583.547 156.346 581.398C156.346 579.27 158.689 578.078 162.459 578.059ZM162.459 579.973C160.096 579.973 158.826 580.441 158.826 581.398C158.826 582.375 160.096 582.902 162.459 582.902C164.861 582.902 166.111 582.375 166.111 581.398C166.111 580.441 164.861 579.973 162.459 579.973ZM187.107 580.734V582.824H170.838V580.734H177.674V577.531H172.186V575.578H174.568V570.5H172.107V568.508H185.74V570.5H183.24V575.578H185.662V577.531H180.154V580.734H187.107ZM177.068 575.578H180.779V570.5H177.068V575.578ZM202.615 574.973V576.945H197.459V580.734H204.393V582.766H188.123V580.734H194.979V576.945H190.037V568.273H202.479V570.266H192.537V574.973H202.615ZM214.393 568.254V576.457H205.936V568.254H214.393ZM208.396 570.227V574.484H211.932V570.227H208.396ZM219.51 567.023V571.457H221.912V573.527H219.51V578.762H217.01V567.023H219.51ZM215.037 578.371C215.037 580.344 216.912 582.277 220.701 582.766L219.725 584.719C216.941 584.289 214.91 583.088 213.826 581.418C212.742 583.088 210.711 584.289 207.908 584.719L206.951 582.766C210.701 582.277 212.576 580.344 212.576 578.371V577.922H215.037V578.371ZM242.576 567.043V576.301H240.213V567.043H242.576ZM239.041 567.355V576.184H236.678V572.805H234.783V570.832H236.678V567.355H239.041ZM232.908 570.07C232.908 571.789 233.885 573.488 236.131 574.27L234.959 576.184C233.396 575.646 232.342 574.621 231.736 573.352C231.072 574.729 229.959 575.842 228.318 576.418L227.107 574.562C229.451 573.723 230.486 571.867 230.486 570.07V570.012H227.654V568.059H235.564V570.012H232.908V570.07ZM242.576 576.945V581.613H232.908V582.688H243.182V584.602H230.428V579.816H240.115V578.859H230.408V576.945H242.576ZM260.857 580.773V582.824H244.588V580.773H251.443V578.098H246.463V572.121H256.521V570.168H246.443V568.176H258.982V574.074H248.963V576.066H259.393V578.098H253.924V580.773H260.857ZM277.244 567.023V584.797H274.881V567.023H277.244ZM273.611 567.316V583.977H271.268V575.129H268.924V573.117H271.268V567.316H273.611ZM267.498 571.789C267.498 574.738 268.416 577.727 271.014 579.211L269.549 581.047C267.967 580.109 266.922 578.518 266.326 576.613C265.711 578.684 264.637 580.441 263.006 581.438L261.502 579.602C264.119 578 265.096 574.797 265.096 571.789V570.832H262.186V568.84H270.193V570.832H267.498V571.789ZM294.061 567.023V584.836H291.58V567.023H294.061ZM288.553 568.508V575.363H282.693V578.625C285.398 578.615 287.703 578.459 290.311 578.039L290.525 580.051C287.596 580.559 284.959 580.676 281.717 580.676H280.115V573.391H286.014V570.52H280.096V568.508H288.553ZM300.486 568.859L300.232 578.762H297.732L297.479 568.859H300.486ZM299.002 583.176C298.084 583.176 297.342 582.434 297.361 581.535C297.342 580.637 298.084 579.914 299.002 579.914C299.861 579.914 300.623 580.637 300.623 581.535C300.623 582.434 299.861 583.176 299.002 583.176Z" fill="#333333"/>
<defs>
<clipPath id="clip0_152_122">
<rect width="227" height="236" fill="white" transform="translate(87 106)"/>
</clipPath>
</defs>
</svg>
