<svg width="500" height="325" viewBox="0 0 500 325" fill="none" xmlns="http://www.w3.org/2000/svg">
<rect y="25" width="500" height="300" rx="20" fill="#EFFFD8"/>
<path d="M78.3789 164.949C78.3789 167.098 80.1367 169.09 82.6758 169.891L81.9531 171.082C79.9707 170.447 78.4277 169.119 77.6562 167.41C76.9141 169.324 75.3418 170.828 73.2812 171.551L72.5391 170.32C75.0781 169.48 76.875 167.332 76.875 164.949V164.539H72.9492V163.289H76.875V161.16H78.418V163.289H82.3047V164.539H78.3789V164.949ZM86.8555 161.219V173.27H85.3125V167.449H81.7773V166.16H85.3125V161.219H86.8555ZM82.0312 172.449C82.0117 174.91 84.8438 176.785 87.9492 177.293L87.3047 178.504C84.6875 178.035 82.2656 176.678 81.2305 174.637C80.1855 176.658 77.7637 178.035 75.1367 178.504L74.5703 177.293C77.5977 176.766 80.4492 174.852 80.4688 172.449V172.078H82.0312V172.449ZM108.496 162.352V163.875C108.496 165.525 108.496 167.312 108.008 169.812H110.586V171.082H103.418V178.621H101.875V171.082H94.7656V169.812H106.445C106.973 167.312 106.973 165.486 106.973 163.875V163.621H96.7578V162.352H108.496ZM126.934 161.219V178.582H125.449V169.383H123.027V177.703H121.562V161.59H123.027V168.113H125.449V161.219H126.934ZM119.336 163.25V173.914H112.695V163.25H119.336ZM114.141 164.48V172.684H117.891V164.48H114.141ZM148.281 162.977V164.715C148.262 166.844 148.262 169.227 147.637 172.723L146.074 172.547C146.738 169.227 146.738 166.785 146.738 164.715V164.246H136.035V162.977H148.281ZM150.176 174.852V176.121H134.355V174.852H140.566V168.641H142.07V174.852H150.176ZM166.387 161.238V171.473H164.922V166.883H162.559V171.355H161.094V161.57H162.559V165.613H164.922V161.238H166.387ZM166.387 172.273V178.582H164.883V173.523H154.668V172.273H166.387ZM159.258 162.508C159.258 166.648 156.914 169.793 152.5 171.668L151.738 170.516C155.342 169.041 157.383 166.697 157.676 163.777H152.441V162.508H159.258ZM87.5 186.859V201H85.7227V188.695H85.6445L82.207 190.98V189.203L85.7227 186.859H87.5ZM95.8984 201.195C92.7539 201.195 90.957 198.559 90.957 193.93C90.957 189.34 92.793 186.664 95.8984 186.664C99.0039 186.664 100.84 189.34 100.84 193.93C100.84 198.559 99.0234 201.195 95.8984 201.195ZM95.8984 199.633C97.9297 199.633 99.1211 197.582 99.1211 193.93C99.1211 190.277 97.9297 188.188 95.8984 188.188C93.8672 188.188 92.6562 190.277 92.6562 193.93C92.6562 197.582 93.8477 199.633 95.8984 199.633ZM106.172 193.422C104.336 193.422 103.34 192.055 103.34 190.023C103.34 188.031 104.375 186.645 106.172 186.645C108.027 186.645 109.004 188.031 109.004 190.023C109.004 192.055 107.988 193.422 106.172 193.422ZM106.172 192.211C107.129 192.211 107.578 191.352 107.578 190.023C107.578 188.715 107.168 187.836 106.172 187.855C105.234 187.855 104.766 188.715 104.766 190.023C104.766 191.352 105.234 192.211 106.172 192.211ZM114.805 201.195C112.969 201.215 111.953 199.828 111.973 197.816C111.953 195.805 113.008 194.418 114.805 194.418C116.641 194.418 117.617 195.805 117.617 197.816C117.617 199.828 116.602 201.215 114.805 201.195ZM114.805 199.984C115.742 199.984 116.191 199.125 116.191 197.816C116.191 196.488 115.781 195.609 114.805 195.629C113.867 195.648 113.379 196.488 113.379 197.816C113.379 199.125 113.848 199.984 114.805 199.984ZM104.727 201L114.453 186.859H116.035L106.309 201H104.727ZM138.398 185.16V189.379H141.035V190.648H138.398V194.77H136.875V185.16H138.398ZM138.398 195.668V199.516H128.867V201.215H139.043V202.387H127.363V198.383H136.875V196.82H127.324V195.668H138.398ZM135.215 186.801V188.031H124.863V186.801H129.277V185.043H130.801V186.801H135.215ZM130.039 188.812C132.559 188.812 134.199 189.906 134.219 191.664C134.199 193.422 132.559 194.516 130.039 194.516C127.5 194.516 125.84 193.422 125.859 191.664C125.84 189.906 127.5 188.812 130.039 188.812ZM130.039 189.945C128.398 189.945 127.305 190.629 127.324 191.664C127.305 192.719 128.398 193.363 130.039 193.363C131.68 193.363 132.754 192.719 132.773 191.664C132.754 190.629 131.68 189.945 130.039 189.945ZM156.445 185.238V197.934H154.922V185.238H156.445ZM156.992 200.922V202.211H145.234V196.645H146.758V200.922H156.992ZM147.07 186.449C149.668 186.449 151.621 188.207 151.621 190.707C151.621 193.246 149.668 194.984 147.07 194.984C144.473 194.984 142.52 193.246 142.52 190.707C142.52 188.207 144.473 186.449 147.07 186.449ZM147.07 187.797C145.312 187.797 144.004 189.008 144.023 190.707C144.004 192.445 145.312 193.637 147.07 193.637C148.789 193.637 150.117 192.445 150.117 190.707C150.117 189.008 148.789 187.797 147.07 187.797ZM162.207 186.859L162.07 197.016H160.43L160.293 186.859H162.207ZM161.25 201.117C160.566 201.117 159.98 200.551 160 199.848C159.98 199.164 160.566 198.598 161.25 198.598C161.934 198.598 162.5 199.164 162.5 199.848C162.5 200.551 161.934 201.117 161.25 201.117Z" fill="#333333"/>
<path d="M42.5 118.46H48.46V134.2H45.3V120.9H42.5V118.46ZM51.2994 126.32C51.2994 125.053 51.446 123.913 51.7394 122.9C52.0327 121.873 52.4594 121.007 53.0194 120.3C53.5927 119.58 54.2927 119.033 55.1194 118.66C55.946 118.273 56.8927 118.08 57.9594 118.08C59.0127 118.08 59.946 118.273 60.7594 118.66C61.586 119.033 62.286 119.58 62.8594 120.3C63.4327 121.007 63.866 121.873 64.1594 122.9C64.466 123.913 64.6194 125.053 64.6194 126.32C64.6194 127.587 64.4794 128.733 64.1994 129.76C63.9194 130.773 63.4994 131.64 62.9394 132.36C62.3794 133.08 61.6794 133.633 60.8394 134.02C60.0127 134.407 59.0527 134.6 57.9594 134.6C56.8927 134.6 55.946 134.407 55.1194 134.02C54.2927 133.633 53.5927 133.08 53.0194 132.36C52.4594 131.64 52.0327 130.773 51.7394 129.76C51.446 128.733 51.2994 127.587 51.2994 126.32ZM54.4594 126.32C54.4594 127.36 54.5527 128.247 54.7394 128.98C54.926 129.713 55.1794 130.32 55.4994 130.8C55.8194 131.267 56.186 131.613 56.5994 131.84C57.026 132.053 57.4794 132.16 57.9594 132.16C58.4527 132.16 58.9127 132.053 59.3394 131.84C59.766 131.613 60.1394 131.267 60.4594 130.8C60.7794 130.32 61.026 129.713 61.1994 128.98C61.386 128.247 61.4794 127.36 61.4794 126.32C61.4794 125.293 61.386 124.413 61.1994 123.68C61.026 122.947 60.7794 122.347 60.4594 121.88C60.1394 121.413 59.766 121.073 59.3394 120.86C58.9127 120.633 58.4527 120.52 57.9594 120.52C57.4794 120.52 57.026 120.633 56.5994 120.86C56.186 121.073 55.8194 121.413 55.4994 121.88C55.1794 122.347 54.926 122.947 54.7394 123.68C54.5527 124.413 54.4594 125.293 54.4594 126.32ZM67.0533 134.2L79.0133 118.46H82.1733L70.2133 134.2H67.0533ZM66.3133 121.6C66.3133 121.04 66.4199 120.547 66.6333 120.12C66.8466 119.68 67.1333 119.307 67.4933 119C67.8533 118.693 68.2599 118.46 68.7133 118.3C69.1799 118.14 69.6666 118.06 70.1733 118.06C70.6799 118.06 71.1666 118.14 71.6333 118.3C72.0999 118.46 72.5066 118.693 72.8533 119C73.2133 119.293 73.4933 119.66 73.6933 120.1C73.9066 120.54 74.0133 121.04 74.0133 121.6C74.0133 122.147 73.9066 122.64 73.6933 123.08C73.4933 123.507 73.2133 123.873 72.8533 124.18C72.5066 124.487 72.0999 124.72 71.6333 124.88C71.1666 125.04 70.6799 125.12 70.1733 125.12C69.6666 125.12 69.1799 125.04 68.7133 124.88C68.2599 124.72 67.8533 124.493 67.4933 124.2C67.1333 123.893 66.8466 123.52 66.6333 123.08C66.4199 122.64 66.3133 122.147 66.3133 121.6ZM75.3133 131.06C75.3133 130.5 75.4199 130.007 75.6333 129.58C75.8466 129.14 76.1333 128.767 76.4933 128.46C76.8533 128.153 77.2599 127.92 77.7133 127.76C78.1799 127.6 78.6666 127.52 79.1733 127.52C79.6799 127.52 80.1666 127.6 80.6333 127.76C81.0999 127.92 81.5066 128.153 81.8533 128.46C82.2133 128.753 82.4933 129.12 82.6933 129.56C82.9066 130 83.0133 130.5 83.0133 131.06C83.0133 131.607 82.9066 132.093 82.6933 132.52C82.4933 132.96 82.2133 133.333 81.8533 133.64C81.5066 133.947 81.0999 134.18 80.6333 134.34C80.1666 134.5 79.6799 134.58 79.1733 134.58C78.6666 134.58 78.1799 134.5 77.7133 134.34C77.2599 134.18 76.8533 133.947 76.4933 133.64C76.1333 133.347 75.8466 132.98 75.6333 132.54C75.4199 132.1 75.3133 131.607 75.3133 131.06ZM70.1733 122.98C70.5999 122.98 70.9333 122.847 71.1733 122.58C71.4266 122.3 71.5533 121.973 71.5533 121.6C71.5533 121.187 71.4266 120.853 71.1733 120.6C70.9333 120.347 70.5999 120.22 70.1733 120.22C69.7199 120.22 69.3733 120.36 69.1333 120.64C68.8933 120.907 68.7733 121.227 68.7733 121.6C68.7733 121.973 68.8933 122.3 69.1333 122.58C69.3733 122.847 69.7199 122.98 70.1733 122.98ZM79.1733 132.44C79.5999 132.44 79.9333 132.3 80.1733 132.02C80.4266 131.753 80.5533 131.433 80.5533 131.06C80.5533 130.647 80.4266 130.313 80.1733 130.06C79.9333 129.807 79.5999 129.68 79.1733 129.68C78.7199 129.68 78.3733 129.82 78.1333 130.1C77.8933 130.367 77.7733 130.687 77.7733 131.06C77.7733 131.433 77.8933 131.753 78.1333 132.02C78.3733 132.3 78.7199 132.44 79.1733 132.44ZM102.026 130.02V129.1H90.5658V127.26H105.166V131.86H93.7058V132.78H105.366V134.62H90.5658V130.02H102.026ZM94.7058 121.24C96.4391 121.24 97.7324 121.467 98.5858 121.92C99.4524 122.36 99.8858 123 99.8858 123.84C99.8858 125.56 98.1591 126.42 94.7058 126.42C91.2791 126.42 89.5658 125.56 89.5658 123.84C89.5658 123 89.9924 122.36 90.8458 121.92C91.7124 121.467 92.9991 121.24 94.7058 121.24ZM96.2858 118.1H100.366V120.54H89.0658V118.1H93.1458V116.64H96.2858V118.1ZM105.166 123.28V126.36H102.026V117.5H105.166V120.84H106.906V123.28H105.166ZM94.7058 123.16C94.1458 123.16 93.6724 123.207 93.2858 123.3C92.8991 123.38 92.7058 123.56 92.7058 123.84C92.7058 124.107 92.8991 124.287 93.2858 124.38C93.6724 124.473 94.1458 124.52 94.7058 124.52C94.9724 124.52 95.2258 124.513 95.4658 124.5C95.7191 124.473 95.9391 124.433 96.1258 124.38C96.3124 124.327 96.4591 124.26 96.5658 124.18C96.6858 124.087 96.7458 123.973 96.7458 123.84C96.7458 123.707 96.6858 123.593 96.5658 123.5C96.4591 123.407 96.3058 123.34 96.1058 123.3C95.9191 123.247 95.6991 123.213 95.4458 123.2C95.2058 123.173 94.9591 123.16 94.7058 123.16ZM124.574 117.5V129.44H121.434V117.5H124.574ZM112.514 128.92V132.2H124.774V134.62H109.374V128.92H112.514ZM107.934 122.62C107.934 121.82 108.074 121.107 108.354 120.48C108.634 119.84 109.021 119.3 109.514 118.86C110.021 118.42 110.621 118.087 111.314 117.86C112.021 117.62 112.794 117.5 113.634 117.5C114.474 117.5 115.241 117.62 115.934 117.86C116.641 118.087 117.241 118.42 117.734 118.86C118.241 119.3 118.634 119.84 118.914 120.48C119.194 121.107 119.334 121.82 119.334 122.62C119.334 123.407 119.194 124.113 118.914 124.74C118.634 125.367 118.241 125.9 117.734 126.34C117.241 126.78 116.641 127.12 115.934 127.36C115.241 127.6 114.474 127.72 113.634 127.72C112.794 127.72 112.021 127.6 111.314 127.36C110.621 127.12 110.021 126.78 109.514 126.34C109.021 125.9 108.634 125.367 108.354 124.74C108.074 124.113 107.934 123.407 107.934 122.62ZM113.634 125.28C113.968 125.28 114.288 125.22 114.594 125.1C114.914 124.98 115.188 124.807 115.414 124.58C115.654 124.34 115.841 124.06 115.974 123.74C116.121 123.407 116.194 123.033 116.194 122.62C116.194 122.193 116.121 121.813 115.974 121.48C115.841 121.147 115.654 120.867 115.414 120.64C115.188 120.413 114.914 120.24 114.594 120.12C114.288 120 113.968 119.94 113.634 119.94C113.288 119.94 112.961 120 112.654 120.12C112.348 120.24 112.074 120.413 111.834 120.64C111.608 120.867 111.421 121.147 111.274 121.48C111.141 121.813 111.074 122.193 111.074 122.62C111.074 123.033 111.141 123.407 111.274 123.74C111.421 124.06 111.608 124.34 111.834 124.58C112.074 124.807 112.348 124.98 112.654 125.1C112.961 125.22 113.288 125.28 113.634 125.28ZM139.663 124.94H128.063V122.5H139.663V120.34H128.063V117.9H142.803V127.38H139.663V124.94ZM127.083 128.92H143.783V131.36H137.003V134.84H133.863V131.36H127.083V128.92ZM146.872 117.68H161.612V120.12H159.432V122.54H161.612V124.98H155.812V126.32H162.592V128.76H145.892V126.32H152.672V124.98H146.872V122.54H149.072V120.12H146.872V117.68ZM150.012 129.72V132.18H161.812V134.62H146.872V129.72H150.012ZM152.212 122.54H156.292V120.12H152.212V122.54ZM181.005 117.9V120.34H176.725V124.98C176.725 125.993 176.618 126.92 176.405 127.76L181.525 131.56L179.985 133.88L175.305 130.36C174.798 131.16 174.132 131.853 173.305 132.44C172.478 133.027 171.472 133.513 170.285 133.9L168.905 131.58C169.705 131.3 170.398 130.987 170.985 130.64C171.572 130.293 172.058 129.867 172.445 129.36C172.832 128.84 173.118 128.227 173.305 127.52C173.492 126.813 173.585 125.96 173.585 124.96V120.34H169.505V117.9H181.005ZM185.805 134.22H182.665V117.5H185.805V134.22ZM189.293 134.62V127.44H192.433V128.56H200.893V127.44H204.033V134.62H189.293ZM200.693 120.14H189.493V117.7H203.833V123.2H200.693V120.14ZM188.313 124.14H205.013V126.58H188.313V124.14ZM200.893 132.18V131H192.433V132.18H200.893ZM207.982 130V117.66H211.122V130H207.982ZM207.982 134.62V131.68H211.122V134.62H207.982Z" fill="#333333"/>
<path d="M180 0C191.046 2.57703e-06 200 8.95431 200 20V30C200 41.0457 191.046 50 180 50H30.6602L22 65L12.499 48.5439C5.17031 45.5766 1.22389e-07 38.3928 0 30V20C0 8.95431 8.95431 1.61064e-07 20 0H180Z" fill="#74AD5B"/>
<path d="M66.0177 23.94V26.38H57.7577V30.78H66.5977V33.2H54.5977V17.46H66.3977V19.9H57.7577V23.94H66.0177ZM71.3298 17.46L75.7098 29.78L80.1098 17.46H83.2498L77.4498 33.2H73.9898L68.1898 17.46H71.3298ZM96.6817 23.94V26.38H88.4217V30.78H97.2617V33.2H85.2617V17.46H97.0617V19.9H88.4217V23.94H96.6817ZM99.7539 17.46H102.894L110.294 28.84V17.46H113.454V33.2H110.294L102.914 21.88V33.2H99.7539V17.46ZM124.073 19.9V33.2H120.913V19.9H115.653V17.46H129.333V19.9H124.073ZM130.315 33.34V30.3H133.535V33.34H130.315ZM140.043 17.46H146.003V33.2H142.843V19.9H140.043V17.46Z" fill="white"/>
<g clip-path="url(#clip0_156_153)">
<path d="M270.267 191.38L373.635 164.139L451.777 195.089L342.218 224.544L270.267 191.38Z" fill="#5D915D"/>
<path d="M255.775 151.9L362.211 124.474L403.411 100.343L265.88 134.136L255.775 151.9Z" fill="#388F3B"/>
<path d="M429.865 132.647L341.774 118.945C338.449 118.428 335.338 120.723 334.824 124.071L325.854 182.565C325.34 185.913 327.619 189.047 330.944 189.564L419.035 203.266C422.36 203.783 425.471 201.488 425.985 198.14L434.955 139.646C435.469 136.298 433.19 133.164 429.865 132.647Z" fill="#FFEFAB"/>
<path d="M403.411 100.343L265.88 134.145L260.168 110.613L397.705 76.8105C398.272 76.6713 398.86 76.6459 399.436 76.7357C400.013 76.8254 400.566 77.0286 401.064 77.3337C401.562 77.6388 401.996 78.0397 402.341 78.5136C402.685 78.9875 402.934 79.5251 403.072 80.0957L406.679 94.932C406.819 95.5034 406.845 96.0969 406.756 96.6785C406.667 97.26 406.465 97.8182 406.161 98.3209C405.858 98.8236 405.458 99.261 404.987 99.608C404.515 99.9549 403.979 100.205 403.411 100.343Z" fill="#8BC34C"/>
<path d="M260.177 110.604L250.601 135.744C249.871 137.656 249.808 139.762 250.424 141.715L253.229 150.577C253.35 150.955 253.577 151.289 253.885 151.538C254.192 151.786 254.565 151.939 254.957 151.976C255.349 152.014 255.744 151.934 256.092 151.748C256.44 151.562 256.726 151.277 256.915 150.928L265.88 134.145L260.177 110.604Z" fill="#388F3B"/>
<path d="M321.623 95.4076L328.319 118.794L347.614 114.053L339.671 91.0718L321.623 95.4076Z" fill="#FFBB00"/>
<path d="M311.702 84.2045C311.702 84.2045 317.114 75.4239 328.839 79.9656L332.63 92.7611L314.402 97.2816L311.702 84.2045Z" fill="#FFBB00"/>
<path d="M327.128 79.3811C327.128 79.3811 338.159 53.6235 348.682 53.018C359.204 52.4124 368.524 68.157 368.524 74.2126C368.524 80.2683 359.367 86.2331 359.367 86.2331L332.63 92.761L327.128 79.3811Z" fill="#FFBB00"/>
<path d="M313.437 82.1941C313.437 82.1941 301.182 71.4878 293.666 67.5516C286.15 63.6155 278.829 67.5516 278.829 67.5516C277.458 68.2029 276.261 69.1747 275.338 70.386C274.415 71.5973 273.793 73.0131 273.523 74.5156C272.621 79.6629 271.418 91.0717 271.418 91.0717C271.418 91.0717 271.719 96.9214 276.229 99.0409C280.738 101.16 291.453 102.92 291.453 102.92L315.123 97.1031L313.437 82.1941Z" fill="#FFBB00"/>
<path d="M357.067 138.233L364.862 139.444L361.934 158.519L356.991 157.762L359.288 142.799L356.429 142.351L357.067 138.233Z" fill="#31AF31"/>
<path d="M366.065 149.388C366.263 147.972 366.668 146.593 367.268 145.297C367.771 144.201 368.486 143.216 369.372 142.402C370.199 141.654 371.19 141.115 372.264 140.828C373.445 140.531 374.673 140.484 375.872 140.692C377.062 140.856 378.205 141.268 379.227 141.903C380.167 142.505 380.955 143.32 381.527 144.283C382.132 145.329 382.525 146.486 382.685 147.686C382.873 149.104 382.848 150.542 382.613 151.952C382.415 153.374 382.018 154.76 381.434 156.07C380.947 157.17 380.241 158.157 379.36 158.971C378.527 159.721 377.53 160.264 376.449 160.554C375.257 160.858 374.015 160.907 372.803 160.696C371.594 160.531 370.435 160.108 369.402 159.455C368.466 158.849 367.683 158.031 367.117 157.066C366.519 156.02 366.133 154.864 365.984 153.666C365.802 152.243 365.829 150.802 366.065 149.388ZM371.008 150.157C370.849 151.068 370.8 151.995 370.86 152.918C370.9 153.588 371.053 154.247 371.314 154.865C371.51 155.338 371.82 155.754 372.216 156.076C372.568 156.347 372.981 156.525 373.419 156.594C373.871 156.666 374.334 156.624 374.766 156.473C375.239 156.292 375.661 155.995 375.992 155.61C376.425 155.1 376.765 154.518 376.997 153.89C377.325 153.023 377.554 152.121 377.679 151.201C377.831 150.295 377.882 149.375 377.832 148.458C377.8 147.791 377.648 147.136 377.384 146.523C377.186 146.06 376.876 145.653 376.482 145.339C376.116 145.065 375.689 144.885 375.238 144.816C374.798 144.745 374.348 144.789 373.93 144.943C373.466 145.125 373.053 145.418 372.727 145.797C372.292 146.3 371.948 146.877 371.711 147.501C371.373 148.355 371.137 149.247 371.008 150.157Z" fill="#31AF31"/>
<path d="M383.993 161.956L400.468 144.985L405.435 145.76L388.983 162.734L383.993 161.956ZM385.376 146.608C385.462 145.978 385.692 145.376 386.046 144.849C386.377 144.362 386.805 143.949 387.303 143.638C387.806 143.326 388.363 143.112 388.944 143.008C389.54 142.899 390.15 142.891 390.748 142.984C391.351 143.075 391.933 143.27 392.471 143.559C392.989 143.834 393.452 144.205 393.836 144.652C394.213 145.093 394.495 145.609 394.663 146.166C394.836 146.781 394.87 147.428 394.762 148.058C394.676 148.683 394.451 149.281 394.103 149.805C393.78 150.294 393.357 150.707 392.862 151.016C392.361 151.327 391.808 151.541 391.229 151.646C390.634 151.757 390.024 151.766 389.425 151.67C388.821 151.58 388.237 151.387 387.697 151.101C387.174 150.826 386.707 150.454 386.32 150.005C385.94 149.558 385.656 149.038 385.484 148.476C385.304 147.87 385.267 147.231 385.376 146.608ZM389.909 148.467C390.06 148.498 390.215 148.497 390.365 148.463C390.515 148.429 390.655 148.363 390.778 148.27C391.005 148.075 391.154 147.805 391.2 147.508C391.246 147.212 391.185 146.908 391.028 146.653C390.828 146.414 390.548 146.258 390.241 146.212C389.934 146.167 389.622 146.237 389.362 146.408C389.136 146.6 388.987 146.868 388.942 147.163C388.896 147.457 388.958 147.758 389.116 148.01C389.208 148.139 389.326 148.246 389.463 148.325C389.6 148.404 389.752 148.453 389.909 148.467ZM394.81 159.67C394.897 159.04 395.127 158.438 395.48 157.911C395.812 157.424 396.24 157.012 396.737 156.7C397.241 156.39 397.798 156.178 398.379 156.073C398.974 155.964 399.584 155.956 400.182 156.049C400.785 156.139 401.368 156.334 401.905 156.624C402.425 156.899 402.889 157.27 403.273 157.717C403.65 158.158 403.93 158.674 404.097 159.231C404.271 159.845 404.305 160.491 404.196 161.12C404.111 161.746 403.886 162.345 403.538 162.87C403.214 163.359 402.791 163.771 402.296 164.081C401.797 164.392 401.244 164.606 400.666 164.711C399.461 164.933 398.217 164.74 397.134 164.163C396.611 163.886 396.145 163.513 395.757 163.064C395.379 162.622 395.094 162.107 394.921 161.55C394.74 160.94 394.702 160.297 394.81 159.67ZM399.344 161.526C399.494 161.558 399.649 161.558 399.799 161.524C399.949 161.491 400.09 161.425 400.212 161.332C400.439 161.137 400.589 160.867 400.634 160.57C400.68 160.274 400.619 159.97 400.462 159.715C400.262 159.477 399.983 159.32 399.676 159.274C399.369 159.228 399.056 159.297 398.796 159.467C398.57 159.66 398.421 159.928 398.376 160.223C398.33 160.518 398.392 160.819 398.55 161.072C398.642 161.2 398.761 161.307 398.898 161.385C399.035 161.464 399.187 161.512 399.344 161.526Z" fill="#31AF31"/>
<path d="M359.938 173.089C360.061 172.223 360.362 171.393 360.822 170.651C361.254 169.955 361.821 169.353 362.49 168.883C363.172 168.412 363.939 168.081 364.748 167.908C366.516 167.552 368.352 167.837 369.931 168.714C370.651 169.125 371.283 169.674 371.792 170.33C372.289 170.98 372.645 171.727 372.839 172.523C373.236 174.241 372.958 176.047 372.063 177.564C371.638 178.266 371.074 178.872 370.406 179.344C369.725 179.817 368.958 180.15 368.148 180.325C366.379 180.685 364.541 180.398 362.962 179.517C362.243 179.106 361.611 178.555 361.104 177.897C360.608 177.242 360.247 176.494 360.043 175.696C359.829 174.843 359.794 173.956 359.938 173.089ZM363.043 173.57C362.954 174.08 362.954 174.602 363.043 175.111C363.13 175.568 363.303 176.003 363.555 176.392C363.805 176.77 364.132 177.09 364.514 177.331C364.929 177.589 365.392 177.758 365.876 177.827C366.357 177.909 366.849 177.888 367.322 177.767C367.761 177.655 368.172 177.449 368.524 177.161C368.881 176.867 369.176 176.505 369.393 176.095C369.637 175.639 369.798 175.143 369.871 174.63C369.953 174.128 369.946 173.615 369.85 173.116C369.765 172.661 369.591 172.228 369.339 171.841C369.089 171.464 368.762 171.144 368.38 170.903C367.536 170.396 366.529 170.239 365.572 170.467C365.133 170.579 364.722 170.786 364.369 171.072C364.014 171.365 363.719 171.725 363.5 172.132C363.265 172.58 363.11 173.067 363.043 173.57Z" fill="#31AF31"/>
<path d="M383.415 175.324L383.022 177.897L377.183 176.989L376.446 181.791L373.356 181.31L375.184 169.386L384.389 170.812L383.996 173.386L377.874 172.432L377.574 174.409L383.415 175.324Z" fill="#31AF31"/>
<path d="M393.962 176.959L393.568 179.532L387.73 178.624L386.993 183.426L383.902 182.945L385.733 171.021L394.942 172.453L394.548 175.027L388.427 174.073L388.126 176.05L393.962 176.959Z" fill="#31AF31"/>
<path d="M311.101 202.289C324.882 202.289 336.054 191.038 336.054 177.158C336.054 163.279 324.882 152.027 311.101 152.027C297.319 152.027 286.147 163.279 286.147 177.158C286.147 191.038 297.319 202.289 311.101 202.289Z" fill="#FFEA6C"/>
<path d="M311.101 197.445C307.117 197.445 303.222 196.255 299.91 194.026C296.597 191.797 294.015 188.629 292.491 184.922C290.966 181.215 290.567 177.136 291.344 173.201C292.122 169.266 294.04 165.651 296.857 162.814C299.674 159.977 303.263 158.045 307.171 157.262C311.078 156.479 315.128 156.881 318.809 158.416C322.49 159.952 325.636 162.552 327.849 165.888C330.063 169.224 331.244 173.146 331.244 177.158C331.238 182.537 329.114 187.694 325.338 191.497C321.562 195.3 316.441 197.439 311.101 197.445ZM311.101 159.9C307.711 159.9 304.398 160.912 301.58 162.808C298.762 164.705 296.565 167.4 295.268 170.554C293.971 173.707 293.632 177.178 294.293 180.525C294.954 183.873 296.586 186.948 298.983 189.362C301.38 191.776 304.433 193.419 307.757 194.085C311.082 194.751 314.527 194.409 317.659 193.103C320.79 191.797 323.466 189.585 325.349 186.747C327.232 183.909 328.238 180.572 328.238 177.158C328.233 172.583 326.426 168.196 323.213 164.96C320 161.725 315.644 159.905 311.101 159.9Z" fill="#EFC700"/>
<path d="M322.339 178.515H319.377L317.54 185.976H313.437L312.042 178.515H310.13L308.759 185.976H304.652L302.794 178.515H299.853V175.866H302.132L300.361 168.663H303.9L305.557 175.854H307.661L308.963 168.663H313.229L314.534 175.854H316.639L318.292 168.663H321.831L320.027 175.854H322.327L322.339 178.515ZM306.729 180.937L307.171 178.515H306.155L306.729 180.937ZM310.623 175.86H311.549L311.086 173.389L310.623 175.86ZM315.463 180.916L316.016 178.509H315.021L315.463 180.916Z" fill="#EFC700"/>
<path d="M344.472 227.42C358.254 227.42 369.426 216.168 369.426 202.289C369.426 188.41 358.254 177.158 344.472 177.158C330.691 177.158 319.519 188.41 319.519 202.289C319.519 216.168 330.691 227.42 344.472 227.42Z" fill="#FFEA6C"/>
<path d="M344.472 222.576C340.489 222.576 336.594 221.386 333.281 219.157C329.969 216.928 327.387 213.759 325.862 210.053C324.338 206.346 323.939 202.267 324.716 198.332C325.493 194.396 327.412 190.782 330.229 187.945C333.046 185.108 336.635 183.175 340.543 182.393C344.45 181.61 348.5 182.012 352.181 183.547C355.862 185.083 359.008 187.683 361.221 191.019C363.434 194.355 364.616 198.277 364.616 202.289C364.61 207.668 362.486 212.824 358.71 216.628C354.933 220.431 349.813 222.57 344.472 222.576ZM344.472 185.031C341.083 185.031 337.77 186.043 334.952 187.939C332.134 189.836 329.937 192.531 328.64 195.685C327.343 198.838 327.004 202.308 327.665 205.656C328.326 209.004 329.958 212.079 332.355 214.493C334.752 216.907 337.805 218.55 341.129 219.216C344.453 219.882 347.899 219.54 351.031 218.234C354.162 216.928 356.838 214.716 358.721 211.878C360.604 209.039 361.609 205.703 361.609 202.289C361.605 197.714 359.798 193.327 356.585 190.091C353.372 186.855 349.016 185.036 344.472 185.031Z" fill="#EFC700"/>
<path d="M355.711 203.646H352.749L350.912 211.106H346.808L345.413 203.646H343.501L342.13 211.106H338.024L336.166 203.646H333.225V200.997H335.504L333.733 193.793H337.272L338.929 200.985H341.033L342.335 193.793H346.601L347.906 200.985H350.01L351.664 193.793H355.203L353.399 200.985H355.699L355.711 203.646ZM340.101 206.068L340.543 203.646H339.527L340.101 206.068ZM343.994 200.991H344.92L344.457 198.52L343.994 200.991ZM348.835 206.047L349.388 203.64H348.393L348.835 206.047Z" fill="#EFC700"/>
<path d="M342.218 224.544V296L454.5 261.35C455.513 261.038 456.4 260.407 457.03 259.549C457.66 258.692 458 257.654 458 256.587V199.903C458 199.14 457.825 198.386 457.49 197.701C457.155 197.016 456.667 196.418 456.066 195.952C455.464 195.487 454.765 195.167 454.021 195.018C453.277 194.868 452.509 194.892 451.777 195.089L342.218 224.544Z" fill="#8BC34C"/>
<path d="M272.092 191.84L342.218 224.541V295.997L268.018 258.928C267.186 258.512 266.486 257.872 265.994 257.078C265.503 256.285 265.241 255.369 265.237 254.434L264.984 196.437C264.981 195.588 265.19 194.753 265.592 194.008C265.994 193.263 266.577 192.632 267.285 192.174C267.994 191.716 268.806 191.445 269.646 191.386C270.486 191.328 271.327 191.484 272.092 191.84Z" fill="#388F3B"/>
<path d="M337.558 89.3518C337.558 89.3518 344.472 79.9656 348.381 77.2405C352.289 74.5155 358.302 72.0933 361.008 72.0933C363.714 72.0933 366.119 72.0933 366.119 74.2127C366.119 76.3322 364.315 80.5711 361.91 82.085C359.505 83.5989 351.387 87.2323 351.387 87.2323L338.76 89.6546H337.218" fill="#D47C20"/>
<path d="M311.401 95.7104C311.401 95.7104 302.382 92.3798 296.67 91.4714C290.957 90.5631 281.938 89.0492 279.232 90.8659C276.526 92.6826 275.624 94.1965 276.225 95.1048C276.827 96.0132 276.526 98.1326 284.042 99.6465C291.559 101.16 293.807 101.345 298.395 100.343C302.983 99.3407 310.081 97.2818 310.081 97.2818L313.205 96.3159L311.401 95.7104Z" fill="#D47C20"/>
</g>
<rect x="45" y="229" width="150" height="50" rx="10" fill="#74AD5B"/>
<path d="M92.62 253.94H81.02V251.5H92.62V249.34H81.02V246.9H95.76V256.38H92.62V253.94ZM80.04 257.92H96.74V260.36H89.96V263.84H86.82V260.36H80.04V257.92ZM99.8286 246.68H114.569V249.12H112.389V251.54H114.569V253.98H108.769V255.32H115.549V257.76H98.8486V255.32H105.629V253.98H99.8286V251.54H102.029V249.12H99.8286V246.68ZM102.969 258.72V261.18H114.769V263.62H99.8286V258.72H102.969ZM105.169 251.54H109.249V249.12H105.169V251.54ZM125.862 248.76H129.362V246.7H132.502V255.72H122.722V246.7H125.862V248.76ZM138.362 261.2V263.62H123.562V256.92H138.162V259.34H126.702V261.2H138.362ZM138.162 252.08V256.02H135.022V246.5H138.162V249.64H139.902V252.08H138.162ZM129.362 251.2H125.862V253.28H129.362V251.2ZM148.57 263.02V249.34H141.53V246.9H151.71V263.02H148.57ZM157.57 263.22H154.43V246.5H157.57V263.22Z" fill="white"/>
<defs>
<clipPath id="clip0_156_153">
<rect width="208" height="243" fill="white" transform="translate(250 53)"/>
</clipPath>
</defs>
</svg>
