<svg width="500" height="319" viewBox="0 0 500 319" fill="none" xmlns="http://www.w3.org/2000/svg">
<rect y="19" width="500" height="300" rx="20" fill="#EFFFD8"/>
<path d="M382.067 248.608H253.792C245.203 248.608 238 241.58 238 232.584V101.023C238 92.0278 244.926 85 253.792 85H366.552C375.14 85 382.067 92.0278 382.067 101.023V248.608Z" fill="#388F3B"/>
<path d="M455.485 248.607H382.067V125.761H434.983C439.139 125.761 442.741 128.291 444.126 132.507L470.446 185.919C471 187.324 471 188.73 471 189.854V232.584C471 241.298 464.074 248.607 455.485 248.607Z" fill="#8BC34C"/>
<path d="M444.68 188.731H406.447C404.785 188.731 403.399 187.326 403.399 185.639V145.44C403.399 143.753 404.785 142.348 406.447 142.348H430.827C432.767 142.348 434.429 143.472 434.983 145.44L447.451 168.491C447.728 169.334 447.728 169.897 447.728 170.74V185.639C448.005 187.326 446.619 188.731 444.68 188.731Z" fill="#374850"/>
<path d="M294.241 277C309.542 277 321.946 264.414 321.946 248.889C321.946 233.363 309.542 220.777 294.241 220.777C278.94 220.777 266.536 233.363 266.536 248.889C266.536 264.414 278.94 277 294.241 277Z" fill="#374850"/>
<path d="M294.241 262.944C301.892 262.944 308.094 256.651 308.094 248.888C308.094 241.125 301.892 234.833 294.241 234.833C286.591 234.833 280.389 241.125 280.389 248.888C280.389 256.651 286.591 262.944 294.241 262.944Z" fill="#79909C"/>
<path d="M427.503 277C442.804 277 455.208 264.414 455.208 248.889C455.208 233.363 442.804 220.777 427.503 220.777C412.202 220.777 399.798 233.363 399.798 248.889C399.798 264.414 412.202 277 427.503 277Z" fill="#374850"/>
<path d="M427.503 262.944C435.154 262.944 441.356 256.651 441.356 248.888C441.356 241.125 435.154 234.833 427.503 234.833C419.852 234.833 413.65 241.125 413.65 248.888C413.65 256.651 419.852 262.944 427.503 262.944Z" fill="#79909C"/>
<path d="M338.523 156.761C337.624 155.298 335.068 151.593 330.793 148.329C331.253 147.587 331.652 146.766 331.972 145.905C332.711 143.962 332.99 141.979 332.771 140.317C332.551 138.615 331.812 137.453 330.733 137.032C329.635 136.612 328.316 137.012 327.038 138.134C325.78 139.236 324.681 140.918 323.942 142.861C323.762 143.321 323.622 143.802 323.483 144.263C323.283 144.183 323.063 144.103 322.863 144.042C319.727 142.981 316.771 142.64 315.153 142.46C310.879 141.979 306.545 142.12 302.27 142.901C301.571 143.041 299.414 143.422 297.456 144.062C297.297 144.123 297.137 144.163 296.997 144.223C296.877 143.782 296.737 143.341 296.558 142.881C295.819 140.918 294.72 139.236 293.462 138.134C292.163 137.012 290.865 136.612 289.766 137.032C288.668 137.453 287.949 138.615 287.729 140.317C287.509 141.979 287.789 143.962 288.528 145.905C288.828 146.726 289.207 147.507 289.647 148.228C285.013 151.773 282.296 155.939 281.797 156.761C281.058 157.942 274.666 168.698 278.082 180.995C278.581 182.778 279.879 187.504 284.034 192.011C285.911 194.054 288.188 195.836 290.625 197.158C289.926 199.461 290.505 201.665 292.103 202.806C292.782 203.287 293.581 203.507 294.42 203.507C296.238 203.507 298.215 202.426 299.554 200.523C299.614 200.423 299.693 200.323 299.753 200.223C299.973 200.263 300.193 200.303 300.413 200.363C300.552 203.607 302.65 206.131 305.206 206.131C307.483 206.131 309.441 204.108 309.9 201.284C310 201.284 310.12 201.284 310.22 201.284C310.34 201.284 310.46 201.284 310.579 201.284C311.059 204.108 313.016 206.131 315.273 206.131C317.83 206.131 319.947 203.527 320.067 200.283C320.287 200.243 320.486 200.203 320.686 200.162C320.766 200.283 320.846 200.403 320.926 200.523C322.244 202.426 324.242 203.507 326.059 203.507C326.479 203.507 326.878 203.447 327.278 203.327C327.677 203.207 328.037 203.027 328.376 202.786C329.974 201.645 330.553 199.361 329.834 197.058C331.532 196.117 333.969 194.494 336.286 191.991C338.363 189.728 339.722 187.384 340.64 185.381C341.559 183.399 341.999 181.756 342.218 180.955C345.654 168.698 339.262 157.942 338.523 156.761Z" fill="#B4D898"/>
<path d="M180 0C191.046 2.57703e-06 200 8.95431 200 20V30C200 41.0457 191.046 50 180 50H30.6602L22 65L12.499 48.5439C5.17031 45.5766 1.22389e-07 38.3928 0 30V20C0 8.95431 8.95431 1.61064e-07 20 0H180Z" fill="#74AD5B"/>
<path d="M62.4122 23.94V26.38H54.1522V30.78H62.9922V33.2H50.9922V17.46H62.7922V19.9H54.1522V23.94H62.4122ZM67.7244 17.46L72.1044 29.78L76.5044 17.46H79.6444L73.8444 33.2H70.3844L64.5844 17.46H67.7244ZM93.0763 23.94V26.38H84.8163V30.78H93.6563V33.2H81.6563V17.46H93.4563V19.9H84.8163V23.94H93.0763ZM96.1484 17.46H99.2884L106.688 28.84V17.46H109.848V33.2H106.688L99.3084 21.88V33.2H96.1484V17.46ZM120.468 19.9V33.2H117.308V19.9H112.048V17.46H125.728V19.9H120.468ZM126.71 33.34V30.3H129.93V33.34H126.71ZM137.218 33.2V31.36L142.378 26.84C142.831 26.44 143.244 26.0467 143.618 25.66C144.004 25.2733 144.338 24.8867 144.618 24.5C144.898 24.1133 145.118 23.7267 145.278 23.34C145.438 22.9533 145.518 22.5667 145.518 22.18C145.518 21.3533 145.284 20.7067 144.818 20.24C144.351 19.76 143.698 19.52 142.858 19.52C142.071 19.52 141.358 19.82 140.718 20.42C140.078 21.0067 139.584 21.7667 139.238 22.7L136.798 21.36C137.024 20.7333 137.324 20.16 137.698 19.64C138.071 19.1067 138.518 18.6533 139.038 18.28C139.571 17.8933 140.178 17.6 140.858 17.4C141.538 17.1867 142.298 17.08 143.138 17.08C143.871 17.08 144.571 17.1867 145.238 17.4C145.918 17.6 146.511 17.9133 147.018 18.34C147.538 18.7533 147.938 19.2867 148.218 19.94C148.511 20.58 148.644 21.34 148.618 22.22C148.604 22.6867 148.498 23.1733 148.298 23.68C148.111 24.1733 147.851 24.6733 147.518 25.18C147.198 25.6867 146.818 26.1933 146.378 26.7C145.938 27.1933 145.458 27.6667 144.938 28.12L141.898 30.78H149.238V33.2H137.218Z" fill="white"/>
<path d="M73.3691 194L73.3496 192.711L78.1738 187.633C79.8535 185.855 80.6543 184.898 80.6543 183.59C80.6543 182.145 79.4238 181.188 77.8418 181.188C76.1621 181.188 75.0879 182.262 75.0879 183.844H73.4277C73.4082 181.344 75.3418 179.664 77.9004 179.664C80.459 179.664 82.2949 181.383 82.2949 183.59C82.2949 185.172 81.5527 186.402 79.0527 188.98L75.8105 192.32V192.438H82.5488V194H73.3691ZM98.0566 178.219V182.75H100.674V184.02H98.0566V188.727H96.5332V178.219H98.0566ZM98.0566 189.645V195.582H96.5332V190.895H86.6895V189.645H98.0566ZM86.7285 179.312V182.047H91.7871V179.312H93.3105V187.516H85.2246V179.312H86.7285ZM86.7285 186.266H91.7871V183.277H86.7285V186.266ZM110.42 180.777C110.42 183.746 113.818 186.402 116.846 186.969L116.143 188.258C113.525 187.652 110.762 185.787 109.639 183.219C108.516 185.777 105.762 187.643 103.135 188.258L102.432 186.969C105.439 186.383 108.818 183.766 108.818 180.777V179.449H110.42V180.777ZM117.666 191.949V193.219H101.768V191.949H117.666ZM138.389 178.219V195.621H136.846V178.219H138.389ZM129.15 179.566C131.729 179.586 133.584 181.93 133.584 185.621C133.584 189.312 131.729 191.656 129.15 191.656C126.553 191.656 124.717 189.312 124.717 185.621C124.717 181.93 126.553 179.586 129.15 179.566ZM129.15 180.934C127.412 180.953 126.201 182.789 126.201 185.621C126.201 188.453 127.412 190.289 129.15 190.289C130.889 190.289 132.1 188.453 132.1 185.621C132.1 182.789 130.889 180.953 129.15 180.934ZM147.158 181.031C147.158 183.395 148.955 185.562 151.475 186.422L150.635 187.633C148.711 186.93 147.197 185.494 146.436 183.688C145.693 185.729 144.15 187.34 142.119 188.121L141.299 186.891C143.896 185.914 145.635 183.59 145.654 180.914V179.117H147.158V181.031ZM154.932 178.219V182.75H157.549V184.039H154.932V188.785H153.408V178.219H154.932ZM149.365 189.234C152.939 189.234 155.088 190.387 155.088 192.379C155.088 194.41 152.939 195.543 149.365 195.543C145.791 195.543 143.604 194.41 143.604 192.379C143.604 190.387 145.791 189.234 149.365 189.234ZM149.365 190.465C146.748 190.465 145.127 191.188 145.146 192.379C145.127 193.609 146.748 194.312 149.365 194.332C152.002 194.312 153.604 193.609 153.604 192.379C153.604 191.188 152.002 190.465 149.365 190.465ZM100.986 203.352V204.875C100.986 206.525 100.986 208.312 100.498 210.812H103.076V212.082H95.9082V219.621H94.3652V212.082H87.2559V210.812H98.9355C99.4629 208.312 99.4629 206.486 99.4629 204.875V204.621H89.248V203.352H100.986ZM119.424 202.219V219.582H117.939V210.383H115.518V218.703H114.053V202.59H115.518V209.113H117.939V202.219H119.424ZM111.826 204.25V214.914H105.186V204.25H111.826ZM106.631 205.48V213.684H110.381V205.48H106.631ZM133.018 206.887C132.998 210.051 135.166 213.254 137.725 214.406L136.787 215.617C134.814 214.65 133.105 212.609 132.275 210.129C131.465 212.756 129.756 214.943 127.725 215.969L126.748 214.68C129.326 213.488 131.475 210.188 131.494 206.887V203.723H133.018V206.887ZM141.162 202.219V219.621H139.619V202.219H141.162ZM73.1543 226.238V238.973H71.6113V232.312H68.0371V231.043H71.6113V226.238H73.1543ZM73.6426 241.922V243.211H62.002V237.82H63.5449V241.922H73.6426ZM64.7949 229.812C64.7949 232.059 66.5332 234.246 69.0723 235.105L68.2715 236.336C66.3086 235.633 64.7949 234.168 64.0527 232.371C63.3008 234.373 61.6992 235.975 59.6387 236.746L58.8379 235.496C61.3965 234.598 63.252 232.312 63.252 229.812V228.914H59.3262V227.645H68.6816V228.914H64.7949V229.812ZM89.8535 227.078V228.328C89.8535 229.627 89.8535 231.18 89.4238 233.27H91.9434V234.52H84.7168V237.723H89.9707V243.582H88.4277V238.992H77.6855V237.723H83.1934V234.52H76.0449V233.27H87.8809C88.3301 231.141 88.3301 229.627 88.3301 228.328H78.0566V227.078H89.8535ZM114.229 236.316V237.586H106.982V243.582H105.479V237.586H98.3301V236.316H114.229ZM112.158 227.195V233.953H100.381V227.195H112.158ZM101.885 228.445V232.742H110.635V228.445H101.885ZM131.533 240.145V241.434H115.635V240.145H120.107V236.844H117.627V231.492H128.018V228.777H117.588V227.508H129.521V232.762H119.15V235.574H129.932V236.844H127.217V240.145H131.533ZM121.611 240.145H125.713V236.844H121.611V240.145ZM140.049 227.879V232.117H143.818V227.879H145.244V239.246H138.584V227.879H140.049ZM140.049 237.977H143.818V233.367H140.049V237.977ZM152.822 226.219V243.582H151.338V234.383H148.916V242.703H147.451V226.59H148.916V233.113H151.338V226.219H152.822ZM163.877 232.293V234.852H171.045V236.102H155.225V234.852H162.373V232.293H163.877ZM163.896 227.312C163.896 229.617 167.021 231.551 170.088 231.98L169.463 233.211C166.826 232.752 164.219 231.355 163.135 229.344C162.041 231.365 159.424 232.752 156.768 233.211L156.182 231.98C159.248 231.551 162.354 229.617 162.354 227.312V226.492H163.896V227.312ZM163.135 237.547C166.865 237.547 169.092 238.621 169.111 240.555C169.092 242.488 166.865 243.543 163.135 243.543C159.365 243.543 157.139 242.488 157.139 240.555C157.139 238.621 159.365 237.547 163.135 237.547ZM163.135 238.758C160.322 238.758 158.682 239.402 158.701 240.555C158.682 241.688 160.322 242.352 163.135 242.352C165.908 242.352 167.568 241.688 167.568 240.555C167.568 239.402 165.908 238.758 163.135 238.758ZM175.322 227.859L175.186 238.016H173.545L173.408 227.859H175.322ZM174.365 242.117C173.682 242.117 173.096 241.551 173.115 240.848C173.096 240.164 173.682 239.598 174.365 239.598C175.049 239.598 175.615 240.164 175.615 240.848C175.615 241.551 175.049 242.117 174.365 242.117Z" fill="#333333"/>
<path d="M53.02 121.98H67.76V130.98H53.02V121.98ZM52.04 132.92H68.74V135.36H61.96V138.84H58.82V135.36H52.04V132.92ZM56.16 128.54H64.62V124.42H56.16V128.54ZM70.8486 135.78H74.2286V133.08H71.8286V126.26H83.8286V124.34H71.8286V121.9H86.9686V128.7H74.9686V130.64H87.1686V133.08H84.1686V135.78H87.5486V138.22H70.8486V135.78ZM77.3686 135.78H81.0286V133.08H77.3686V135.78ZM97.6019 127.5H100.422V121.9H103.302V138.02H94.7219V121.9H97.6019V127.5ZM104.902 138.22V121.5H107.782V128.58L109.542 127.96V121.5H112.442V138.22H109.542V130.66L107.782 131.28V138.22H104.902ZM100.422 129.94H97.6019V135.58H100.422V129.94ZM123.017 139.02C121.817 139.02 120.744 138.96 119.797 138.84C118.864 138.72 118.071 138.527 117.417 138.26C116.777 138.007 116.284 137.667 115.937 137.24C115.604 136.813 115.437 136.287 115.437 135.66C115.437 135.047 115.604 134.527 115.937 134.1C116.284 133.673 116.777 133.327 117.417 133.06C118.071 132.793 118.864 132.607 119.797 132.5C120.744 132.38 121.817 132.32 123.017 132.32C124.217 132.32 125.284 132.38 126.217 132.5C127.164 132.607 127.957 132.793 128.597 133.06C129.251 133.327 129.744 133.673 130.077 134.1C130.424 134.527 130.597 135.047 130.597 135.66C130.597 136.287 130.424 136.813 130.077 137.24C129.744 137.667 129.251 138.007 128.597 138.26C127.957 138.527 127.164 138.72 126.217 138.84C125.284 138.96 124.217 139.02 123.017 139.02ZM114.657 129.02H121.437V127.02H124.577V129.02H131.357V131.46H114.657V129.02ZM115.257 125.72C116.537 125.52 117.591 125.28 118.417 125C119.257 124.707 119.917 124.393 120.397 124.06C120.891 123.727 121.231 123.38 121.417 123.02C121.617 122.647 121.717 122.273 121.717 121.9V121.3H124.877V121.9C124.877 122.487 124.744 123.067 124.477 123.64L130.577 125.66L129.477 127.8L122.737 125.6C122.031 126.107 121.144 126.56 120.077 126.96C119.011 127.347 117.731 127.653 116.237 127.88L115.257 125.72ZM123.017 136.58C124.551 136.58 125.671 136.513 126.377 136.38C127.097 136.247 127.457 136.007 127.457 135.66C127.457 135.313 127.097 135.073 126.377 134.94C125.671 134.807 124.551 134.74 123.017 134.74C121.484 134.74 120.357 134.807 119.637 134.94C118.931 135.073 118.577 135.313 118.577 135.66C118.577 136.007 118.931 136.247 119.637 136.38C120.357 136.513 121.484 136.58 123.017 136.58ZM149.81 138.22V135.1L147.37 135.96C146.944 136.76 146.364 137.333 145.63 137.68C144.91 138.04 144.104 138.22 143.21 138.22C142.504 138.22 141.857 138.113 141.27 137.9C140.684 137.7 140.17 137.367 139.73 136.9C139.304 136.447 138.97 135.86 138.73 135.14C138.49 134.42 138.37 133.547 138.37 132.52C138.37 131.507 138.49 130.64 138.73 129.92C138.97 129.187 139.304 128.593 139.73 128.14C140.17 127.687 140.684 127.353 141.27 127.14C141.857 126.927 142.504 126.82 143.21 126.82C143.97 126.82 144.664 126.947 145.29 127.2C145.93 127.453 146.47 127.86 146.91 128.42L149.81 127.42V121.5H152.69V138.22H149.81ZM157.05 138.22H154.15V121.5H157.05V138.22ZM144.79 123.1H148.57V125.54H137.87V123.1H141.65V121.04H144.79V123.1ZM141.23 132.52C141.23 133.56 141.397 134.367 141.73 134.94C142.064 135.5 142.557 135.78 143.21 135.78C143.837 135.78 144.324 135.5 144.67 134.94C145.03 134.38 145.21 133.567 145.21 132.5C145.21 131.46 145.03 130.66 144.67 130.1C144.324 129.54 143.837 129.26 143.21 129.26C142.557 129.26 142.064 129.547 141.73 130.12C141.397 130.68 141.23 131.48 141.23 132.52ZM148.09 132.52C148.09 132.613 148.09 132.7 148.09 132.78C148.09 132.86 148.084 132.94 148.07 133.02L149.81 132.42V130.12L147.93 130.76C147.984 131.027 148.024 131.307 148.05 131.6C148.077 131.893 148.09 132.2 148.09 132.52ZM161.606 124.14V125.4H167.706V127.84H161.606V129.08H167.906V131.52H158.726V121.7H167.706V124.14H161.606ZM168.906 131.62V121.5H171.786V125.18L173.546 124.56V121.5H176.446V131.62H173.546V127.26L171.786 127.88V131.62H168.906ZM173.306 138.62V134.94H159.566V132.52H176.446V138.62H173.306ZM179.521 134V121.66H182.661V134H179.521ZM179.521 138.62V135.68H182.661V138.62H179.521Z" fill="#333333"/>
</svg>
