<svg width="445" height="198" viewBox="0 0 445 198" fill="none" xmlns="http://www.w3.org/2000/svg">
<g clip-path="url(#clip0_133_2)">
<path d="M45.4015 119.983V135.718H32.2891C32.2891 136.21 32.1252 136.701 32.1252 137.029C32.1252 137.521 31.9613 137.849 31.9613 138.34L48.0239 146.044L38.6814 158.172L25.2413 150.141C22.9466 152.272 20.3241 154.075 17.3738 155.386C14.4236 156.697 11.1455 157.68 7.7035 158.172L0 146.207C2.62247 145.716 4.75322 145.06 6.55617 144.405C8.35912 143.585 9.83425 142.766 10.9816 141.946C12.1289 141.127 12.9484 140.143 13.4401 138.996C13.9319 138.012 14.2597 136.865 14.4236 135.554H2.95028V119.983H45.4015ZM72.4457 174.071V171.284H9.01473V160.631H91.4586V184.56H27.8637V187.346H92.2781V198H9.01473V174.071H72.4457ZM54.744 157.517V140.799L47.5322 142.766V126.376L54.5801 124.409V119H71.2983V157.517H54.744ZM91.2947 157.517H74.4125V119H91.2947V157.517Z" fill="#74AD5B"/>
<path d="M105.063 134.734V120.803H175.05V153.583H123.912V158.828H175.869V172.759H149.481V180.463H179.475V196.197H100.637V180.463H130.632V172.759H105.063V139.815H156.037V134.734H105.063Z" fill="#74AD5B"/>
<path d="M314.696 121.786V137.521H300.6V154.566C300.6 156.697 300.6 158.828 300.436 160.795C300.273 162.761 299.945 164.892 299.617 166.695L316.827 182.921L306.173 196.033L293.225 183.413C291.258 186.199 288.799 188.658 285.849 190.788C282.899 192.919 279.293 194.722 275.195 196.197L267 182.429C270.114 181.118 272.737 179.643 274.867 178.004C276.834 176.365 278.473 174.398 279.785 172.104C280.932 169.809 281.915 167.351 282.407 164.4C282.899 161.614 283.063 158.336 283.063 154.566V137.357H270.442V121.786H314.696ZM319.449 197.017V161.286L308.468 165.056V147.683L319.449 143.913V119.983H337.151V197.18H319.449V197.017ZM358.786 197.017H341.085V119.983H358.786V197.017Z" fill="#74AD5B"/>
<path d="M369.112 137.357V121.786H417.3V167.023H387.961V180.463H419.103V196.197H369.112V151.288H398.451V137.357H369.112ZM445 197.017H426.151V119.983H445V197.017Z" fill="#74AD5B"/>
<path d="M236.35 190.952L236.186 190.624C236.022 190.624 235.858 190.624 235.694 190.788V191.116V191.28C236.022 191.116 236.35 191.116 236.35 190.952C236.514 190.952 236.514 190.952 236.35 190.952Z" fill="#74AD5B"/>
<path d="M256.838 141.782C255.854 140.143 252.904 135.882 247.987 132.276C248.479 131.456 248.971 130.473 249.298 129.49C250.118 127.195 250.446 125.064 250.282 123.098C249.954 121.131 249.134 119.82 247.987 119.328C246.84 118.836 245.201 119.328 243.726 120.639C242.25 121.95 241.103 123.753 240.284 126.048C240.12 126.539 239.956 127.195 239.792 127.687C239.628 127.523 239.3 127.523 239.136 127.359C235.53 126.212 232.252 125.72 230.285 125.556C225.368 125.064 220.451 125.228 215.534 126.048C214.715 126.212 212.256 126.703 209.961 127.359C209.797 127.359 209.634 127.523 209.47 127.523C209.306 127.031 209.142 126.539 208.978 126.048C208.158 123.917 206.847 121.95 205.372 120.639C203.897 119.328 202.422 118.836 201.11 119.328C199.799 119.82 198.98 121.131 198.816 123.098C198.652 124.9 198.98 127.195 199.799 129.49C200.127 130.473 200.619 131.293 201.11 132.112C195.866 136.21 192.751 140.799 192.096 141.782C191.276 143.093 183.901 155.386 187.834 169.317C188.326 171.284 189.965 176.693 194.554 181.774C196.685 184.068 199.308 186.035 202.094 187.674C201.274 190.297 201.93 192.755 203.733 194.066C204.552 194.558 205.372 194.886 206.355 194.886C208.486 194.886 210.781 193.739 212.256 191.444C212.256 191.28 212.42 191.28 212.42 191.116C212.584 191.116 212.912 191.28 213.239 191.28C213.403 195.05 215.862 197.836 218.648 197.836C221.271 197.836 223.401 195.542 224.057 192.263H224.877C225.368 195.542 227.663 197.836 230.285 197.836C233.236 197.836 235.694 194.886 235.694 191.28V191.116V190.788C235.858 190.788 236.022 190.788 236.186 190.624L236.35 190.952C236.35 190.952 236.35 191.116 236.514 191.116C236.514 191.28 236.678 191.444 236.842 191.444C238.317 193.575 240.611 194.886 242.742 194.886C243.726 194.886 244.545 194.558 245.365 194.066C246.676 193.247 247.331 191.608 247.331 189.805C247.331 189.149 247.168 188.33 247.004 187.51C248.971 186.527 251.757 184.56 254.379 181.774C256.674 179.151 258.313 176.529 259.296 174.234C260.28 171.94 260.772 170.137 261.099 169.154C264.869 155.222 257.657 143.093 256.838 141.782ZM239.136 166.695C238.317 168.662 237.333 170.465 236.022 171.776C234.711 173.251 233.072 174.398 231.105 175.218C229.138 176.037 227.007 176.529 224.549 176.529C222.09 176.529 219.796 176.037 217.993 175.218C216.026 174.398 214.387 173.251 213.075 171.776C211.764 170.301 210.617 168.662 209.961 166.695C209.306 164.728 208.978 162.598 208.978 160.303C208.978 158.008 209.306 155.714 209.961 153.747C210.617 151.78 211.764 149.977 213.075 148.502C214.387 147.027 216.026 145.88 217.993 145.06C219.959 144.241 222.09 143.749 224.549 143.749C227.007 143.749 229.138 144.241 231.105 144.896C233.072 145.716 234.711 146.863 236.022 148.338C237.333 149.813 238.481 151.616 239.136 153.583C239.956 155.55 240.284 157.844 240.284 160.139C240.284 162.598 239.956 164.728 239.136 166.695Z" fill="#74AD5B"/>
</g>
<path d="M56.3201 59.2514C55.668 58.1733 55.3571 57.0991 55.3876 56.0288C55.4352 54.9482 55.7504 53.9044 56.3333 52.8973C56.923 51.8627 57.7409 50.8771 58.7871 49.9404C59.823 48.9866 61.0083 48.1059 62.3431 47.2985C63.6779 46.4911 65.0082 45.8501 66.3339 45.3754C67.6492 44.8836 68.8934 44.6219 70.0663 44.5902C71.246 44.5311 72.3255 44.7313 73.3047 45.1908C74.2839 45.6504 75.0995 46.4192 75.7517 47.4973C76.4038 48.5754 76.7061 49.6547 76.6585 50.7354C76.611 51.816 76.2924 52.8736 75.7027 53.9081C75.1198 54.9152 74.3104 55.8957 73.2745 56.8495C72.2283 57.7862 71.0378 58.6583 69.703 59.4657C68.3682 60.2731 67.0432 60.9227 65.7278 61.4145C64.4021 61.8892 63.1494 62.1561 61.9697 62.2152C60.7968 62.2468 59.7207 62.0329 58.7415 61.5734C57.7794 61.1035 56.9723 60.3295 56.3201 59.2514ZM60.3654 68.1994L81.7991 55.2342L83.6935 58.3658L74.9916 63.6296L77.6934 68.096L73.6633 70.5338L70.9616 66.0673L62.2597 71.3311L60.3654 68.1994ZM60.3502 56.8136C60.9402 57.7891 61.8816 58.2247 63.1743 58.1206C64.4842 58.0061 66.029 57.4106 67.8087 56.3341C69.5713 55.2679 70.8074 54.1812 71.5168 53.0742C72.2434 51.9569 72.3117 50.9105 71.7216 49.9351C71.1316 48.9596 70.1731 48.5343 68.8461 48.6591C67.5363 48.7736 66.0001 49.364 64.2374 50.4302C62.4577 51.5067 61.2131 52.5985 60.5037 53.7055C59.8113 54.8022 59.7602 55.8382 60.3502 56.8136Z" fill="#FFFCD7"/>
<path d="M85.261 34.7307L106.538 25.2093L108.033 28.55L99.9547 32.165L100.286 32.9043C100.67 33.7623 100.905 34.6319 100.993 35.513L111.615 34.5721L110.854 38.5278L100.217 39.5083C98.9606 42.0865 96.2765 44.6571 92.1648 47.2202L89.1399 44.7941C90.8353 43.882 92.2027 42.9962 93.2423 42.1366C94.3001 41.2688 95.0838 40.4251 95.5935 39.6054C96.1214 38.7776 96.3975 37.9748 96.4219 37.1969C96.4564 36.3927 96.298 35.5981 95.9468 34.8131L95.6282 34.1011L86.756 38.0714L85.261 34.7307ZM91.2189 50.1742L114.084 39.9421L115.579 43.2828L106.296 47.4369L108.428 52.2016L104.129 54.1255L101.997 49.3608L92.7139 53.5149L91.2189 50.1742Z" fill="#FFFCD7"/>
<path d="M142.934 38.6045L139.443 27.2178L136.951 29.0174C137.478 31.0103 137.746 32.7376 137.755 34.1992C137.764 35.6608 137.567 36.8929 137.163 37.8953C136.784 38.911 136.236 39.717 135.519 40.3133C134.803 40.9096 133.976 41.3514 133.039 41.6387C132.045 41.9436 131.046 42.0302 130.044 41.8983C129.066 41.7797 128.111 41.3612 127.18 40.6428C126.267 39.9184 125.388 38.8596 124.543 37.4663C123.716 36.0671 122.957 34.2394 122.265 31.9831C121.579 29.7459 121.186 27.8163 121.086 26.1943C120.999 24.5474 121.131 23.1682 121.481 22.0569C121.849 20.9397 122.405 20.058 123.148 19.4117C123.905 18.7405 124.78 18.2524 125.774 17.9475C126.673 17.6719 127.574 17.5736 128.477 17.6524C129.379 17.7312 130.264 18.0562 131.129 18.6276C131.989 19.1798 132.81 20.0158 133.593 21.1356C134.394 22.2495 135.131 23.6971 135.803 25.4784L138.343 23.6326L135.582 14.6264L139.712 13.36L147.064 37.338L142.934 38.6045ZM153.317 35.4207L149.158 36.696L141.806 12.7179L145.965 11.4427L153.317 35.4207ZM126.366 30.7254C126.888 32.4272 127.402 33.7966 127.909 34.8338C128.409 35.8518 128.899 36.6323 129.38 37.1754C129.854 37.6993 130.308 38.0203 130.742 38.1384C131.176 38.2564 131.584 38.2568 131.966 38.1395C132.349 38.0223 132.686 37.7932 132.979 37.4524C133.272 37.1115 133.459 36.5941 133.539 35.9001C133.632 35.1812 133.601 34.2599 133.444 33.1364C133.282 31.9937 132.937 30.5619 132.41 28.841C131.894 27.1583 131.385 25.808 130.885 24.7899C130.379 23.7528 129.888 22.9723 129.414 22.4483C128.953 21.8994 128.505 21.5659 128.072 21.4479C127.638 21.3298 127.23 21.3294 126.847 21.4467C126.465 21.564 126.127 21.793 125.834 22.1339C125.541 22.4747 125.348 23.0047 125.255 23.7236C125.156 24.4234 125.187 25.3447 125.349 26.4874C125.506 27.6109 125.845 29.0236 126.366 30.7254Z" fill="#FFFCD7"/>
<path d="M167.719 18.4795C167.979 19.9567 168.076 21.3714 168.009 22.7234L176.226 27.0033L174.554 30.8312L167.13 26.8991C166.583 28.1733 165.802 29.3363 164.79 30.3879C163.777 31.4395 162.454 32.4035 160.821 33.2799L158.179 30.2116C159.288 29.5899 160.211 28.9501 160.948 28.2923C161.705 27.631 162.283 26.8793 162.683 26.0372C163.08 25.1754 163.304 24.2017 163.357 23.1161C163.429 22.0271 163.335 20.744 163.075 19.2667L161.176 8.48259L165.815 7.66581L167.719 18.4795ZM183.831 29.7155L179.193 30.5323L176.867 17.3255L171.705 20.184L171.002 16.1954L176.165 13.3368L174.844 5.8323L179.482 5.01551L183.831 29.7155Z" fill="#FFFCD7"/>
<path d="M207.911 14.9283L218.081 14.9104L218.077 12.8704C216.757 12.7927 215.557 12.6448 214.476 12.4267C213.396 12.1886 212.475 11.8602 211.714 11.4416C210.974 11.0029 210.393 10.4639 209.972 9.82465C209.57 9.16535 209.369 8.38571 209.367 7.48571C209.366 6.46571 209.624 5.60525 210.143 4.90434C210.682 4.20339 211.431 3.64207 212.39 3.22038C213.349 2.77869 214.509 2.46665 215.868 2.28426C217.228 2.08186 218.738 1.9792 220.398 1.97628C222.058 1.97336 223.568 2.0707 224.928 2.26831C226.289 2.44591 227.449 2.75387 228.41 3.19218C229.391 3.61045 230.142 4.16913 230.663 4.86821C231.204 5.56726 231.476 6.42678 231.477 7.44678C231.479 8.34678 231.27 9.11715 230.851 9.75789C230.453 10.3986 229.874 10.9396 229.114 11.3809C228.375 11.8223 227.466 12.1639 226.386 12.4058C225.307 12.6277 224.107 12.7798 222.787 12.8621L222.791 14.9021L232.96 14.8842L232.967 18.5442L207.917 18.5883L207.911 14.9283ZM214.1 20.0174L214.107 24.3074L231.807 24.2762L231.813 27.9362L209.404 27.9757L209.39 20.0257L214.1 20.0174ZM226.767 7.45507C226.766 6.77508 226.185 6.3061 225.025 6.04814C223.884 5.77015 222.344 5.63286 220.404 5.63628C218.484 5.63966 216.944 5.78237 215.785 6.06441C214.645 6.32642 214.076 6.79742 214.077 7.47742C214.078 7.81742 214.229 8.10715 214.529 8.34662C214.829 8.58609 215.25 8.77535 215.79 8.9144C216.35 9.05342 217.02 9.15224 217.8 9.21087C218.581 9.26949 219.451 9.29796 220.411 9.29627C222.351 9.29285 223.89 9.16014 225.03 8.89814C226.189 8.6161 226.769 8.13507 226.767 7.45507Z" fill="#FFFCD7"/>
<path d="M264.133 22.427L263.306 27.2769L281.434 30.3702L280.823 33.9485L258.052 30.0629L259.49 21.6347L264.133 22.427ZM260.464 8.4404L261.079 4.83255L275.54 7.3002L273.062 21.8203L268.42 21.028L270.282 10.1158L260.464 8.4404ZM284.847 8.58397L281.834 26.2388L277.191 25.4465L278.73 16.4269L274.858 16.6486L275.489 12.9521L279.361 12.7303L280.204 7.7917L284.847 8.58397Z" fill="#FFFCD7"/>
<path d="M301.473 40.0736C299.751 39.552 298.232 38.9773 296.918 38.3494C295.622 37.7273 294.563 37.0513 293.739 36.3212C292.934 35.5969 292.382 34.8341 292.081 34.0325C291.78 33.231 291.766 32.3804 292.039 31.4808C292.305 30.6003 292.786 29.9099 293.481 29.4098C294.181 28.8905 295.064 28.5623 296.13 28.4252C297.22 28.2748 298.477 28.3 299.9 28.501C301.342 28.7077 302.924 29.0719 304.647 29.5935C306.37 30.1152 307.879 30.687 309.174 31.3091C310.488 31.9369 311.548 32.613 312.352 33.3373C313.182 34.0482 313.744 34.814 314.039 35.6346C314.34 36.4361 314.357 37.2772 314.09 38.1577C313.818 39.0573 313.334 39.7572 312.639 40.2574C311.945 40.7575 311.052 41.0828 309.962 41.2333C308.89 41.3895 307.634 41.3643 306.192 41.1575C304.769 40.9566 303.196 40.5953 301.473 40.0736ZM296.227 15.1643L297.288 11.6614L311.328 15.9127L307.407 28.8621L302.899 27.4972L305.76 18.0507L296.227 15.1643ZM317.115 26.0968L315.315 32.0403L310.808 30.6753L315.033 16.721L319.541 18.0859L318.176 22.5938L320.674 23.3502L319.613 26.8531L317.115 26.0968ZM302.534 36.5707C304.582 37.1909 306.221 37.5408 307.451 37.6206C308.681 37.7004 309.391 37.4244 309.582 36.7927C309.773 36.1611 309.335 35.5374 308.268 34.9216C307.201 34.3059 305.643 33.6879 303.595 33.0678C301.547 32.4476 299.908 32.0976 298.678 32.0179C297.448 31.9381 296.738 32.214 296.547 32.8457C296.355 33.4774 296.793 34.1011 297.861 34.7168C298.928 35.3326 300.486 35.9505 302.534 36.5707Z" fill="#FFFCD7"/>
<path d="M347.888 49.2517L348.419 48.0761L329.637 39.5914L330.921 36.748L353.996 47.1718L350.896 54.0341L332.114 45.5494L331.583 46.725L350.638 55.3332L349.354 58.1765L326.006 47.6293L329.106 40.767L347.888 49.2517ZM347.664 29.5634L346.157 32.8989L341.864 30.9599L341.519 31.7254C341.288 32.2357 341.01 32.6808 340.685 33.0606L344.772 38.2973L341.059 40.1755L337.549 35.2652C336.589 35.6432 335.536 35.8592 334.393 35.9132C333.276 35.9571 332.129 35.8233 330.953 35.5115L330.465 31.637C331.457 31.8217 332.32 31.9264 333.055 31.9512C333.808 31.9842 334.446 31.9322 334.969 31.7953C335.518 31.6484 335.965 31.4114 336.311 31.0846C336.682 30.7477 336.992 30.3059 337.239 29.7591L337.572 29.0209L333.444 27.156L334.951 23.8205L347.664 29.5634ZM344.655 41.4706L346.569 37.2329L344.132 36.7247L345.676 33.3072L348.113 33.8155L349.756 30.1793L353.692 31.9577L348.592 43.2491L344.655 41.4706ZM354.552 45.9415L350.588 44.1507L355.688 32.8593L359.653 34.6501L354.552 45.9415Z" fill="#FFFCD7"/>
<path d="M369.156 44.5113L371.061 41.3863L384.099 49.3357L376.806 61.2975L367.789 55.8002L364.4 61.3585L373.929 67.1682L372.024 70.2931L358.474 62.0315L365.673 50.2233L374.689 55.7206L378.172 50.0087L369.156 44.5113ZM378.86 74.8129L374.839 72.3609L387.895 50.9474L391.916 53.3993L378.86 74.8129Z" fill="#FFFCD7"/>
<defs>
<clipPath id="clip0_133_2">
<rect width="445" height="79" fill="white" transform="translate(0 119)"/>
</clipPath>
</defs>
</svg>
