<svg width="400" height="640" viewBox="0 0 400 640" fill="none" xmlns="http://www.w3.org/2000/svg">
<rect width="400" height="640" rx="20" fill="#FFFCD7"/>
<g clip-path="url(#clip0_152_123)">
<path d="M300.361 178.35C296.972 172.98 287.395 159.078 271.261 147.089L271.114 146.942L271.04 146.795C267.872 139.807 262.568 132.157 256.232 125.096C241.277 108.693 223.448 99.5727 217.26 105.163C213.723 108.399 214.46 116.123 219.322 125.832L219.912 127.082L218.512 126.935C217.333 126.788 216.302 126.641 215.418 126.567H215.271C202.157 125.096 188.749 125.243 175.562 127.009L174.162 127.229L174.751 125.979C179.614 116.27 180.424 108.473 176.814 105.236C175.562 104.133 173.867 103.618 171.804 103.618C163.553 103.618 149.777 112.077 137.915 125.243C131.653 132.157 126.423 139.807 123.181 146.648L123.107 146.795L122.96 146.942C105.647 159.888 95.407 175.481 93.5652 178.423C90.8394 182.763 67.6329 221.747 80.0097 266.248C81.7778 272.72 86.5664 289.785 101.595 306.114C108.373 313.47 116.551 319.869 125.318 324.65L126.054 325.091C126.202 325.165 126.349 325.238 126.496 325.312C126.57 325.386 126.717 325.459 126.717 325.459C126.717 325.459 129.664 327.004 132.685 328.328C140.052 331.491 148.966 333.697 149.04 333.697C152.208 334.58 155.228 335.242 158.322 335.904L159.354 336.124C159.87 336.198 160.385 336.345 160.901 336.419L162.153 336.639C162.153 336.639 164.658 337.081 167.163 337.522C180.719 339.655 193.979 339.876 195.453 339.876H195.748H196.263C196.779 339.876 197.368 339.876 197.884 339.876H198.694C211.734 339.729 224.185 337.89 232.289 336.419L233.173 336.272C233.836 336.125 234.425 336.051 235.088 335.904L235.678 335.757C240.687 334.727 243.929 333.918 244.813 333.624C256.969 330.314 264.188 327.004 267.43 325.312L267.651 325.238C267.798 325.165 267.872 325.091 268.019 325.018L268.83 324.576C277.597 319.795 285.7 313.396 292.405 306.114C307.36 289.859 312.222 272.72 313.99 266.248C316.569 256.98 317.6 248.006 317.6 239.547C317.527 206.963 302.498 181.733 300.361 178.35ZM169.742 279.708C166.647 282.135 158.396 287.578 147.419 287.578C146.756 287.578 146.093 287.578 145.43 287.505C135.19 286.916 125.465 281.547 118.098 272.353C104.395 255.288 109.773 233.222 111.688 226.896C112.13 225.425 112.941 222.85 114.341 219.835L114.562 219.393H115.225L124.507 221.453H124.581C124.655 221.453 124.655 221.453 124.728 221.453L155.965 228.44L162.595 229.912L173.646 232.412L174.53 232.633L184.697 234.913L184.771 235.428C184.918 237.341 184.992 239.253 184.992 241.092C184.992 247.712 184.918 267.792 169.742 279.708ZM211.366 287.578C210.629 288.608 208.345 291.109 204.514 291.771C203.851 291.845 203.262 291.918 202.746 291.918C200.168 291.918 198.179 290.962 197.074 290.3C195.748 291.109 193.095 292.359 189.633 291.771C185.802 291.109 183.518 288.608 182.781 287.578C182.56 287.284 182.634 286.769 182.929 286.549C183.223 286.328 183.739 286.402 183.96 286.696C184.623 287.578 186.539 289.785 189.854 290.3C193.169 290.888 195.674 289.417 196.632 288.829L197.074 288.535L197.516 288.829C198.473 289.491 200.978 290.888 204.293 290.3C207.609 289.712 209.524 287.578 210.187 286.696C210.408 286.402 210.85 286.328 211.219 286.549C211.513 286.769 211.587 287.211 211.366 287.578ZM275.976 272.353C268.609 281.547 258.884 286.916 248.644 287.505C247.981 287.578 247.318 287.578 246.655 287.578C235.604 287.578 227.426 282.135 224.332 279.708C209.156 267.866 209.082 247.785 209.082 241.165V240.945C209.082 239.179 209.156 237.414 209.303 235.502L209.377 234.987L219.396 232.707C219.396 232.707 219.396 232.707 219.47 232.707L220.575 232.486L231.405 230.059L248.128 226.307L268.388 221.821L279.07 219.467H279.586L279.807 219.908C281.207 222.997 281.943 225.498 282.459 226.969C284.301 233.222 289.679 255.288 275.976 272.353Z" fill="#F7DC80"/>
<path d="M301.614 177.541C298.225 172.098 288.5 158.122 272.292 145.986C269.051 138.925 263.673 131.201 257.263 124.14C241.35 106.487 223.301 97.7339 216.302 104.06C212.324 107.664 212.766 115.313 217.407 125.243C216.744 125.17 216.155 125.096 215.565 125.023H215.418C202.599 123.552 189.559 123.625 176.667 125.243C181.382 115.313 181.824 107.59 177.772 104.06C170.773 97.7339 152.723 106.487 136.81 124.14C130.401 131.201 125.244 138.704 121.929 145.765C104.469 158.858 94.2283 174.525 92.3128 177.541C89.587 181.88 66.0858 221.453 78.6099 266.542C80.4517 273.088 85.2404 290.447 100.564 306.997C107.489 314.5 115.888 321.046 124.949 325.9C125.17 325.974 125.318 326.121 125.539 326.195C125.686 326.268 125.833 326.342 125.981 326.415L126.202 326.489C126.202 326.489 126.275 326.489 126.349 326.562C126.423 326.636 126.496 326.636 126.57 326.71C126.644 326.71 126.717 326.783 126.791 326.857C127.012 327.004 127.307 327.077 127.601 327.298C127.749 327.372 127.896 327.445 127.97 327.519C127.97 327.519 128.043 327.519 128.043 327.592C128.265 327.739 128.559 327.813 128.854 327.96C129.517 328.254 130.327 328.696 131.138 329.063C131.432 329.21 131.801 329.358 132.169 329.505C139.61 332.741 148.672 334.948 148.745 334.948C150.145 335.316 151.545 335.683 152.944 335.978C153.607 336.125 154.344 336.345 155.007 336.492C155.597 336.639 156.186 336.787 156.702 336.86C156.849 336.86 156.923 336.934 156.996 336.934C157.365 337.007 157.659 337.081 158.028 337.154C158.175 337.154 158.396 337.228 158.543 337.228C159.354 337.375 160.164 337.596 160.975 337.743C161.196 337.816 161.343 337.816 161.564 337.89L161.859 337.963C161.859 337.963 162.08 338.037 162.448 338.037C162.522 338.037 162.669 338.111 162.816 338.111C162.964 338.111 163.111 338.184 163.258 338.184C163.406 338.184 163.627 338.258 163.774 338.258C163.922 338.258 163.995 338.258 164.143 338.331C164.732 338.478 165.469 338.552 166.205 338.699L166.868 338.846C168.121 339.067 169.447 339.214 170.699 339.435C171.141 339.508 171.51 339.508 171.952 339.582C172.394 339.655 172.762 339.655 173.204 339.729C174.015 339.802 174.825 339.949 175.635 340.023C176.888 340.17 178.066 340.244 179.172 340.391C179.54 340.391 179.908 340.464 180.35 340.464C180.571 340.464 180.792 340.538 181.087 340.538C181.603 340.538 182.045 340.611 182.487 340.611C184.329 340.759 186.023 340.832 187.57 340.906C188.159 340.906 188.749 340.979 189.265 340.979C189.928 340.979 190.591 341.053 191.18 341.053C191.327 341.053 191.548 341.053 191.696 341.053C192.874 341.126 193.832 341.126 194.495 341.126C194.937 341.126 195.232 341.126 195.379 341.126H195.6C195.674 341.126 195.748 341.126 195.821 341.126H196.042C196.337 341.126 196.705 341.126 197 341.126C197.368 341.126 197.737 341.126 198.031 341.126C198.252 341.126 198.473 341.126 198.694 341.126C198.989 341.126 199.284 341.126 199.579 341.126H199.726C200.389 341.126 201.052 341.126 201.715 341.053C201.862 341.053 202.01 341.053 202.157 341.053C202.82 341.053 203.483 340.979 204.146 340.979C205.546 340.906 206.946 340.832 208.345 340.759C208.787 340.759 209.229 340.685 209.672 340.685C210.04 340.685 210.408 340.611 210.777 340.611C211.513 340.538 212.25 340.464 212.913 340.391C214.165 340.244 215.418 340.17 216.67 340.023C218.217 339.876 219.691 339.655 221.164 339.508C221.827 339.435 222.49 339.361 223.08 339.214C225.953 338.846 228.605 338.405 230.889 337.963C231.11 337.963 231.331 337.89 231.552 337.816C231.847 337.743 232.141 337.669 232.436 337.669C232.657 337.596 232.804 337.596 233.025 337.522C233.836 337.375 234.572 337.228 235.383 337.081C235.53 337.007 235.678 337.007 235.899 337.007C236.267 336.934 236.635 336.86 236.93 336.787C237.814 336.639 238.624 336.419 239.361 336.272C239.656 336.198 239.877 336.125 240.098 336.125C240.319 336.051 240.466 336.051 240.687 335.978C241.129 335.904 241.498 335.757 241.866 335.683C242.234 335.61 242.603 335.536 242.897 335.463C243.045 335.389 243.192 335.389 243.339 335.316C243.487 335.316 243.634 335.242 243.781 335.242C244.002 335.168 244.223 335.095 244.371 335.095C244.444 335.095 244.592 335.021 244.665 335.021C244.665 335.021 244.665 335.021 244.739 335.021C244.886 334.948 245.034 334.948 245.181 334.874C246.728 334.433 248.202 334.065 249.528 333.624C250.486 333.33 251.443 333.035 252.327 332.741C253.653 332.3 254.906 331.858 256.085 331.491C256.674 331.27 257.19 331.123 257.705 330.902C262.494 329.137 265.809 327.592 267.798 326.562C267.872 326.489 267.946 326.489 268.019 326.415L268.167 326.342C268.314 326.268 268.388 326.195 268.535 326.121C268.682 326.048 268.903 325.9 269.051 325.827C278.039 320.972 286.364 314.426 293.289 306.997C300.877 298.759 305.96 290.079 309.349 282.797C312.738 275.516 314.359 269.484 315.243 266.542C327.914 221.526 304.339 181.88 301.614 177.541ZM313.917 266.174C312.075 272.647 307.286 289.785 292.331 306.041C285.627 313.323 277.449 319.722 268.756 324.503C268.535 324.65 268.24 324.797 267.946 324.944C267.872 325.018 267.725 325.091 267.577 325.165L267.356 325.239C264.115 326.93 256.895 330.314 244.739 333.55C243.855 333.771 240.614 334.654 235.604 335.683L235.015 335.83C234.425 335.977 233.762 336.051 233.099 336.198L232.215 336.345C224.111 337.816 211.661 339.655 198.621 339.802H197.81C197.295 339.802 196.779 339.802 196.19 339.802H195.821C195.748 339.802 195.748 339.802 195.748 339.802H195.453C193.979 339.802 180.719 339.582 167.163 337.449C164.658 337.081 162.153 336.566 162.153 336.566L161.859 336.492C161.564 336.419 161.269 336.345 160.975 336.345C160.459 336.198 159.943 336.125 159.428 336.051C159.059 335.978 158.765 335.904 158.396 335.83C155.376 335.168 152.355 334.433 149.114 333.624C149.04 333.624 140.052 331.417 132.758 328.254C129.664 326.93 126.791 325.459 126.791 325.386C126.791 325.386 126.644 325.312 126.57 325.239C126.423 325.165 126.349 325.091 126.128 325.018C125.907 324.871 125.612 324.724 125.391 324.577C116.624 319.795 108.373 313.396 101.669 306.041C86.6401 289.712 81.8515 272.573 80.0833 266.174C67.7065 221.674 90.9867 182.69 93.6389 178.35C95.4807 175.334 105.721 159.814 123.034 146.868L123.181 146.721L123.255 146.574C126.423 139.66 131.653 132.084 137.989 125.17C149.85 112.004 163.701 103.471 171.878 103.471C173.941 103.471 175.635 103.986 176.888 105.089C180.498 108.326 179.687 116.049 174.825 125.832L174.236 127.082L175.635 126.862C188.822 125.096 202.231 124.949 215.344 126.42H215.492C216.449 126.567 217.481 126.641 218.586 126.788L219.986 126.935L219.396 125.685C214.534 115.975 213.797 108.252 217.333 105.016C223.522 99.4257 241.35 108.546 256.232 124.949C262.568 131.937 267.872 139.66 271.04 146.648L271.114 146.795L271.261 146.942C287.395 158.931 297.046 172.833 300.361 178.203C302.498 181.586 317.527 206.889 317.527 239.327C317.527 247.933 316.495 256.906 313.917 266.174Z" fill="#D47C20"/>
<path d="M282.385 226.822C281.943 225.351 281.133 222.777 279.733 219.761L279.512 219.32H279.07L268.388 221.674L248.128 226.308L231.552 230.059L220.722 232.486L219.617 232.707H219.544L209.524 234.987L209.451 235.502C209.303 237.341 209.229 239.18 209.229 240.945V241.166C209.229 247.785 209.303 267.866 224.479 279.708C227.574 282.136 235.825 287.579 246.802 287.579C247.465 287.579 248.128 287.579 248.791 287.505C259.031 286.917 268.756 281.547 276.123 272.353C289.679 255.288 284.301 233.222 282.385 226.822ZM225.437 257.2C224.774 258.157 224.111 259.039 223.522 259.996C219.838 252.493 219.765 244.549 219.765 241.018C219.765 238.665 219.912 236.311 220.28 233.957L230.594 231.677C230.079 233.001 229.784 234.472 229.784 235.87C229.784 241.313 233.541 245.947 238.624 247.197C231.847 249.477 227.353 254.7 225.437 257.2ZM269.64 260.952C266.988 256.538 263.525 252.934 259.4 250.433C257.411 249.183 253.064 246.535 247.17 246.167C250.78 244.181 253.211 240.356 253.211 235.943C253.211 232.707 251.885 229.691 249.601 227.484L269.198 223.145C270.966 226.381 271.777 229.176 272.292 230.721C273.545 234.84 277.081 249.036 269.64 260.952Z" fill="white"/>
<path d="M184.771 235.502L184.697 234.987L174.53 232.707L173.646 232.486L162.595 229.985L155.965 228.514L124.728 221.526C124.655 221.526 124.655 221.526 124.581 221.526H124.507L115.225 219.467H114.562L114.341 219.908C113.015 222.924 112.204 225.498 111.688 226.969C109.699 233.295 104.395 255.361 118.098 272.426C125.465 281.62 135.19 286.99 145.43 287.578C146.093 287.652 146.756 287.652 147.419 287.652C158.47 287.652 166.647 282.209 169.742 279.782C184.918 267.939 184.992 247.859 184.992 241.239C184.992 239.327 184.918 237.414 184.771 235.502ZM170.552 259.995C170.331 260.363 170.11 260.805 169.963 261.172C169.889 261.319 169.815 261.393 169.742 261.467C168.047 264.409 165.911 266.91 163.332 268.896C160.975 270.734 154.565 275.001 146.019 274.486C138.726 274.044 131.801 270.22 126.496 263.6C126.128 263.158 125.76 262.717 125.465 262.276C125.391 262.129 125.318 262.055 125.244 261.908C125.023 261.614 124.802 261.246 124.581 260.952C117.14 249.036 120.676 234.84 122.002 230.647C122.518 229.102 123.329 226.307 125.097 223.071L144.62 227.484C142.336 229.691 140.936 232.707 140.936 235.943C140.936 240.356 143.367 244.181 147.051 246.167C147.714 246.535 148.377 246.829 149.04 247.05C150.145 247.418 151.397 247.638 152.65 247.638C153.608 247.638 154.565 247.491 155.449 247.27C160.533 246.02 164.29 241.46 164.29 235.943C164.29 234.472 163.995 233.074 163.48 231.75L173.794 234.104C174.088 235.869 174.309 238.591 174.309 241.092C174.309 244.549 174.309 252.493 170.552 259.995Z" fill="white"/>
<path d="M170.552 259.996C170.331 260.363 170.11 260.805 169.963 261.172C169.889 261.319 169.815 261.393 169.742 261.467C168.047 264.409 165.911 266.91 163.332 268.896C160.975 270.734 154.565 275.001 146.019 274.486C138.726 274.044 131.801 270.22 126.496 263.6C126.128 263.158 125.76 262.717 125.465 262.276C125.391 262.129 125.318 262.055 125.244 261.908C125.023 261.614 124.802 261.246 124.581 260.952C127.233 256.538 130.696 252.934 134.821 250.433C136.81 249.183 141.157 246.535 147.051 246.167C147.714 246.535 148.377 246.829 149.04 247.05C150.145 247.418 151.397 247.638 152.65 247.638C153.608 247.638 154.565 247.491 155.449 247.271C162.374 249.551 166.868 254.773 168.71 257.274C169.373 258.083 170.036 259.039 170.552 259.996Z" fill="#F7DC80"/>
<path d="M269.64 260.952C266.988 256.538 263.525 252.934 259.4 250.433C257.411 249.183 253.064 246.535 247.17 246.167C250.78 244.181 253.211 240.356 253.211 235.943C253.211 232.707 251.885 229.691 249.601 227.484L269.198 223.145C270.966 226.381 271.777 229.176 272.292 230.721C273.545 234.84 277.081 249.036 269.64 260.952Z" fill="#D47C20"/>
<path d="M238.772 247.197C231.847 249.477 227.353 254.7 225.511 257.2C224.848 258.157 224.185 259.039 223.595 259.996C219.912 252.493 219.838 244.549 219.838 241.018C219.838 238.665 219.986 236.311 220.354 233.957L230.668 231.677C230.152 233.001 229.858 234.472 229.858 235.87C229.931 241.386 233.688 245.947 238.772 247.197Z" fill="#D47C20"/>
<path d="M147.051 246.167C141.157 246.535 136.81 249.183 134.821 250.433C130.696 253.008 127.233 256.538 124.581 260.952C117.14 249.036 120.676 234.84 122.002 230.647C122.518 229.103 123.328 226.307 125.097 223.071L144.62 227.484C142.336 229.691 140.936 232.707 140.936 235.943C140.936 240.283 143.441 244.181 147.051 246.167Z" fill="#D47C20"/>
<path d="M174.309 241.018C174.309 244.549 174.309 252.493 170.552 259.996C169.963 259.039 169.373 258.083 168.636 257.2C166.795 254.7 162.227 249.551 155.376 247.197C160.459 245.947 164.216 241.386 164.216 235.87C164.216 234.399 163.922 233.001 163.406 231.677L173.72 234.031C174.014 235.796 174.309 238.518 174.309 241.018Z" fill="#D47C20"/>
<path d="M195.748 339.729H195.453C193.979 339.729 180.719 339.508 167.163 337.375C164.658 337.007 162.153 336.492 162.153 336.492L160.975 336.272V337.154C160.975 337.375 160.975 337.522 160.975 337.743C161.49 349.732 169.226 359 178.656 359C187.054 359 194.274 351.571 195.969 341.2C196.042 340.979 196.042 340.759 196.042 340.538L196.19 339.729H195.748Z" fill="#D47C20"/>
<path d="M194.569 341.2C192.874 350.689 186.318 357.529 178.729 357.529C170.11 357.529 163.111 349.07 162.522 338.037C162.669 338.037 162.743 338.111 162.89 338.111C163.037 338.111 163.185 338.184 163.332 338.184C163.479 338.184 163.7 338.258 163.848 338.258C163.995 338.258 164.069 338.258 164.216 338.331C164.806 338.478 165.542 338.552 166.279 338.699C166.5 338.699 166.721 338.773 166.942 338.846C168.194 339.067 169.521 339.214 170.773 339.435C171.215 339.508 171.583 339.508 172.025 339.582C172.467 339.655 172.836 339.655 173.278 339.729C174.088 339.802 174.899 339.95 175.709 340.023C176.961 340.17 178.14 340.244 179.245 340.391C179.614 340.391 179.982 340.464 180.424 340.464C180.645 340.464 180.866 340.538 181.087 340.538C181.603 340.538 182.045 340.612 182.56 340.612C184.402 340.759 186.097 340.832 187.644 340.906C188.233 340.906 188.822 340.979 189.338 340.979C190.001 340.979 190.664 341.053 191.254 341.053C191.401 341.053 191.622 341.053 191.769 341.053C192.948 341.126 193.906 341.126 194.569 341.2Z" fill="#F7DC80"/>
<path d="M158.396 335.757C155.376 335.095 152.355 334.359 149.113 333.55C149.04 333.55 140.052 331.344 132.758 328.181C129.738 326.857 126.791 325.386 126.791 325.312C126.791 325.312 126.717 325.238 126.57 325.165C126.423 325.091 126.349 325.018 126.202 324.944L125.465 324.503L125.17 325.312C125.097 325.533 125.023 325.68 124.949 325.9C122.371 334.433 124.507 342.524 130.401 346.643C132.906 348.408 135.853 349.217 138.947 349.217C145.651 349.217 152.944 345.245 157.88 338.258C158.101 337.89 158.396 337.522 158.617 337.154C158.691 337.007 158.838 336.86 158.912 336.713L159.428 335.83L158.396 335.757Z" fill="#D47C20"/>
<path d="M157.07 336.934C156.923 337.154 156.775 337.301 156.702 337.522C149.998 347.011 138.578 350.615 131.285 345.466C125.981 341.715 124.065 334.433 126.349 326.636C126.423 326.71 126.496 326.71 126.57 326.783C126.644 326.783 126.717 326.857 126.791 326.93C127.012 327.077 127.307 327.151 127.601 327.372C127.749 327.445 127.896 327.519 127.97 327.592C127.97 327.592 128.043 327.592 128.043 327.666C128.264 327.813 128.559 327.886 128.854 328.034C129.517 328.328 130.327 328.769 131.138 329.137C131.506 329.284 131.801 329.431 132.169 329.578C139.61 332.815 148.671 335.021 148.745 335.021C150.145 335.389 151.545 335.757 152.944 336.051C153.607 336.198 154.344 336.419 155.007 336.566C155.597 336.713 156.186 336.86 156.702 336.934C156.849 336.934 156.923 336.934 157.07 336.934Z" fill="#F7DC80"/>
<path d="M232.289 336.272C224.185 337.743 211.734 339.582 198.694 339.729H197.884L198.031 340.538C198.031 340.758 198.105 340.979 198.105 341.2C199.873 351.571 207.019 359 215.418 359C224.995 359 232.657 349.659 233.099 337.596C233.099 337.375 233.099 337.228 233.099 337.007V336.125L232.289 336.272Z" fill="#D47C20"/>
<path d="M231.699 337.89C231.11 348.776 223.964 357.529 215.492 357.529C207.903 357.529 201.347 350.688 199.652 341.2H199.8C200.463 341.2 201.126 341.2 201.789 341.126C201.936 341.126 202.083 341.126 202.231 341.126C202.894 341.126 203.557 341.053 204.22 341.053C205.62 340.979 207.019 340.906 208.419 340.832C208.861 340.832 209.303 340.759 209.745 340.759C210.114 340.759 210.482 340.685 210.85 340.685C211.587 340.611 212.324 340.538 212.987 340.464C214.239 340.317 215.492 340.244 216.744 340.097C218.291 339.949 219.764 339.729 221.164 339.582C221.827 339.508 222.49 339.435 223.08 339.287C225.953 338.92 228.531 338.478 230.889 338.037C231.257 337.963 231.478 337.89 231.699 337.89Z" fill="#F7DC80"/>
<path d="M269.198 325.9C269.124 325.68 269.051 325.533 268.977 325.312L268.682 324.503L267.872 324.944C267.725 325.018 267.651 325.091 267.504 325.165L267.283 325.238C264.041 326.93 256.821 330.314 244.665 333.55C243.781 333.771 240.54 334.653 235.53 335.683L234.499 335.904L235.014 336.787C235.088 336.934 235.235 337.081 235.309 337.228C235.53 337.596 235.825 338.037 236.12 338.478C240.982 345.466 248.349 349.438 255.053 349.438C256.6 349.438 258.074 349.217 259.547 348.776C261.021 348.335 262.347 347.673 263.599 346.79C269.64 342.597 271.777 334.286 269.198 325.9Z" fill="#D47C20"/>
<path d="M262.936 345.466C255.569 350.615 244.15 347.011 237.519 337.522C237.372 337.301 237.225 337.081 237.077 336.787C237.961 336.64 238.772 336.419 239.508 336.272C239.803 336.198 240.024 336.125 240.245 336.125C240.466 336.051 240.614 336.051 240.835 335.978C241.277 335.904 241.645 335.757 242.013 335.683C242.382 335.61 242.75 335.536 243.045 335.463C243.192 335.389 243.339 335.389 243.487 335.316C243.634 335.316 243.781 335.242 243.929 335.242C244.15 335.168 244.371 335.168 244.518 335.095C244.665 335.095 244.739 335.021 244.813 335.021C244.813 335.021 244.813 335.021 244.886 335.021C245.034 334.948 245.181 334.948 245.328 334.874C246.876 334.433 248.349 334.065 249.675 333.624C250.633 333.33 251.591 333.035 252.475 332.741C253.801 332.3 255.053 331.858 256.232 331.491C256.821 331.27 257.337 331.123 257.853 330.902C262.641 329.137 265.956 327.592 267.946 326.562C270.156 334.286 268.24 341.788 262.936 345.466Z" fill="#F7DC80"/>
<path d="M269.64 262.496C269.493 262.57 269.419 262.57 269.272 262.57C269.051 262.57 268.83 262.423 268.682 262.276C268.388 262.717 268.019 263.158 267.651 263.6C262.347 270.219 255.422 274.044 248.128 274.486C239.582 275.001 233.173 270.734 230.815 268.896C228.237 266.91 226.1 264.409 224.406 261.466C224.185 261.761 223.816 261.834 223.522 261.614C223.153 261.393 223.006 260.952 223.227 260.584C223.374 260.363 223.448 260.143 223.595 259.922C224.185 258.966 224.774 258.009 225.437 257.127C227.279 254.626 231.847 249.477 238.698 247.123C240.393 246.535 242.308 246.167 244.297 246.02C245.255 245.946 246.139 245.946 247.023 246.02C252.917 246.388 257.19 249.036 259.179 250.286C263.304 252.861 266.767 256.391 269.419 260.804C269.566 260.952 269.64 261.172 269.714 261.319C270.156 261.834 270.008 262.276 269.64 262.496Z" fill="#F7DC80"/>
<path d="M282.385 226.822C281.943 225.351 281.133 222.777 279.807 219.761L279.586 219.32H279.07L268.388 221.673L268.83 222.482C268.903 222.63 269.051 222.85 269.124 222.997C270.893 226.234 271.703 229.029 272.219 230.573C273.545 234.693 277.081 248.889 269.566 260.804C269.345 261.172 269.124 261.466 268.903 261.761C268.83 261.908 268.756 261.981 268.682 262.128C268.388 262.57 268.019 263.011 267.651 263.452C262.347 270.072 255.422 273.897 248.128 274.338C239.582 274.853 233.173 270.587 230.815 268.748C228.237 266.762 226.1 264.261 224.406 261.319C224.332 261.246 224.258 261.099 224.185 261.025C223.964 260.657 223.743 260.216 223.595 259.848C219.912 252.346 219.838 244.402 219.838 240.871C219.838 238.517 219.986 236.164 220.354 233.81C220.354 233.663 220.428 233.516 220.428 233.295L220.575 232.192L219.47 232.412C219.47 232.412 219.47 232.412 219.396 232.412L209.377 234.693L209.303 235.207C209.156 237.046 209.082 238.885 209.082 240.65V240.871C209.082 247.491 209.156 267.571 224.332 279.414C227.426 281.841 235.678 287.284 246.655 287.284C247.318 287.284 247.981 287.284 248.57 287.211C258.81 286.622 268.461 281.253 275.829 272.058C289.679 255.288 284.301 233.221 282.385 226.822ZM274.871 271.396C267.798 280.223 258.442 285.445 248.644 286.034C237.151 286.696 228.531 281.032 225.364 278.531C218.07 272.794 214.386 265.071 212.545 257.936C210.703 250.801 210.703 244.328 210.703 241.092C210.703 239.474 210.777 237.782 210.924 236.09L218.954 234.325C218.659 236.531 218.512 238.812 218.512 241.018C218.512 244.843 218.512 253.743 223.08 261.908C224.848 265.144 227.205 267.866 230.079 270.072C232.583 271.985 239.361 276.545 248.423 275.957C256.158 275.515 263.452 271.396 269.051 264.482C269.566 263.82 270.008 263.232 270.377 262.717C279.07 250.065 275.239 234.693 273.839 230.206C273.397 228.808 272.513 225.939 270.819 222.777L278.849 220.938C280.028 223.659 280.765 225.939 281.133 227.337C282.901 233.442 288.058 254.92 274.871 271.396Z" fill="#D47C20"/>
<path d="M249.602 227.484C249.233 227.116 248.865 226.822 248.423 226.454L248.128 226.307L231.552 230.059L231.405 230.353C231.184 230.794 230.963 231.309 230.742 231.75C230.226 233.074 229.931 234.545 229.931 235.943C229.931 241.386 233.688 246.02 238.772 247.27C239.656 247.491 240.614 247.638 241.571 247.638C242.824 247.638 244.002 247.418 245.181 247.05C245.918 246.829 246.581 246.535 247.17 246.167C250.78 244.181 253.211 240.356 253.211 235.943C253.211 232.707 251.885 229.617 249.602 227.484ZM241.571 246.094C235.972 246.094 231.405 241.533 231.405 235.943C231.405 234.325 231.773 232.707 232.51 231.309L247.833 227.852C250.338 229.764 251.812 232.78 251.812 235.869C251.738 241.533 247.17 246.094 241.571 246.094Z" fill="#D47C20"/>
<path d="M155.376 247.197C154.492 247.417 153.534 247.565 152.576 247.565C151.324 247.565 150.145 247.344 149.04 246.976C149.04 246.903 149.04 246.829 149.04 246.756C149.04 246.388 149.408 246.094 149.777 246.094C151.839 246.241 153.681 246.608 155.376 247.197Z" fill="#D47C20"/>
<path d="M125.17 261.908C125.244 262.055 125.318 262.129 125.391 262.276C125.244 262.496 125.023 262.57 124.802 262.57C124.655 262.57 124.581 262.57 124.434 262.496C124.065 262.276 123.992 261.834 124.139 261.467C124.213 261.246 124.36 261.099 124.434 260.952C124.728 261.246 124.949 261.54 125.17 261.908Z" fill="#F7DC80"/>
<path d="M149.777 246.094C151.766 246.241 153.681 246.608 155.376 247.197C154.492 247.417 153.534 247.565 152.576 247.565C151.324 247.565 150.145 247.344 149.04 246.976C148.377 246.756 147.714 246.461 147.051 246.094C147.935 246.094 148.819 246.094 149.777 246.094Z" fill="#F7DC80"/>
<path d="M170.699 261.687C170.405 261.834 170.036 261.761 169.815 261.54C169.889 261.466 169.963 261.319 170.036 261.246C170.257 260.878 170.478 260.437 170.626 260.069C170.773 260.29 170.847 260.51 170.994 260.731C171.141 261.025 170.994 261.466 170.699 261.687Z" fill="#F7DC80"/>
<path d="M184.771 235.502L184.697 234.987L174.53 232.707L173.646 232.486V233.442V233.589C173.646 233.736 173.72 233.884 173.72 234.104C174.014 235.869 174.235 238.591 174.235 241.092C174.235 244.622 174.235 252.566 170.478 260.069C170.257 260.437 170.11 260.878 169.889 261.246C169.815 261.393 169.742 261.467 169.668 261.54C167.973 264.482 165.837 266.983 163.258 268.969C160.901 270.808 154.492 275.074 145.946 274.559C138.652 274.118 131.727 270.293 126.423 263.673C126.054 263.232 125.686 262.79 125.391 262.349C125.318 262.202 125.244 262.129 125.17 261.981C124.949 261.687 124.728 261.319 124.507 261.025C117.066 249.109 120.603 234.913 121.929 230.721C122.444 229.176 123.255 226.381 125.023 223.145C125.097 222.997 125.17 222.85 125.244 222.703L125.76 221.821L124.581 221.526L115.298 219.467H114.635L114.414 219.908C113.014 222.997 112.278 225.498 111.762 226.969C109.773 233.295 104.395 255.361 118.098 272.426C125.465 281.62 135.19 286.99 145.356 287.578C146.019 287.652 146.682 287.652 147.345 287.652C158.396 287.652 166.574 282.209 169.668 279.782C184.844 267.939 184.918 247.859 184.918 241.239C184.992 239.327 184.918 237.414 184.771 235.502ZM183.518 241.165C183.518 247.565 183.444 267.13 168.857 278.531C165.69 281.032 157.07 286.696 145.577 286.034C135.779 285.445 126.423 280.297 119.35 271.396C106.089 254.92 111.32 233.442 113.235 227.264C113.678 225.866 114.341 223.659 115.593 220.864L123.623 222.703C121.929 225.94 121.045 228.735 120.603 230.206C119.203 234.619 115.372 250.066 124.065 262.717C124.434 263.305 124.876 263.894 125.391 264.556C130.917 271.47 138.284 275.515 146.019 276.03C155.081 276.545 161.859 272.058 164.364 270.146C167.163 267.939 169.521 265.144 171.362 261.908C175.856 253.817 175.93 244.843 175.93 241.018C175.93 238.665 175.709 236.164 175.488 234.325L183.518 236.09C183.665 237.708 183.739 239.327 183.739 240.871V241.165H183.518Z" fill="#D47C20"/>
<path d="M163.479 231.677C163.258 231.162 163.111 230.721 162.816 230.279L162.669 229.985L156.039 228.514L146.093 226.307L145.798 226.528C145.356 226.822 144.988 227.116 144.62 227.484C142.262 229.691 140.936 232.707 140.936 235.943C140.936 240.356 143.367 244.181 147.051 246.167C147.714 246.535 148.377 246.829 149.04 247.05C150.145 247.418 151.397 247.638 152.576 247.638C153.534 247.638 154.492 247.491 155.376 247.27C160.459 246.02 164.216 241.46 164.216 235.943C164.29 234.472 163.995 233.001 163.479 231.677ZM152.576 246.094C146.977 246.094 142.409 241.533 142.409 235.943C142.409 232.78 143.883 229.838 146.388 227.852L161.711 231.309C162.448 232.707 162.816 234.325 162.816 235.943C162.816 241.533 158.249 246.094 152.576 246.094Z" fill="#D47C20"/>
<path d="M211.366 287.578C210.629 288.608 208.345 291.109 204.514 291.771C203.925 291.845 203.262 291.918 202.746 291.918C200.168 291.918 198.179 290.962 197.074 290.3C195.748 291.109 193.095 292.36 189.633 291.771C185.802 291.109 183.518 288.608 182.781 287.578C182.56 287.284 182.634 286.769 182.929 286.549C183.223 286.328 183.739 286.402 183.96 286.696C184.623 287.578 186.539 289.785 189.854 290.3C193.169 290.888 195.674 289.417 196.632 288.829L197.074 288.535L197.516 288.829C198.473 289.491 200.978 290.888 204.293 290.3C207.609 289.712 209.524 287.578 210.187 286.696C210.408 286.402 210.924 286.328 211.219 286.549C211.513 286.769 211.587 287.211 211.366 287.578Z" fill="#D47C20"/>
<path d="M269.935 222.924L269.124 223.145L249.601 227.484L247.833 227.852L232.51 231.309L230.741 231.75L220.427 234.031L219.838 234.178C219.764 234.178 219.764 234.178 219.691 234.178C219.322 234.178 219.028 233.957 218.954 233.589C218.88 233.222 219.101 232.854 219.47 232.707H219.543L220.649 232.486L231.478 230.059L248.128 226.381L268.388 221.821L269.64 221.526C270.008 221.453 270.45 221.674 270.524 222.115C270.598 222.409 270.377 222.85 269.935 222.924Z" fill="#D47C20"/>
<path d="M175.414 233.589C175.341 233.957 175.046 234.178 174.678 234.178C174.604 234.178 174.53 234.178 174.53 234.178L173.72 234.031L163.406 231.677L161.638 231.235L144.546 227.411L125.023 222.997L124.36 222.85C123.992 222.777 123.697 222.335 123.771 221.968C123.844 221.6 124.139 221.379 124.507 221.379C124.581 221.379 124.581 221.379 124.655 221.379L155.891 228.44L162.522 229.911L173.572 232.412L174.751 232.707C175.267 232.854 175.562 233.221 175.414 233.589Z" fill="#D47C20"/>
</g>
<path d="M45.6172 390.023V407.797H43.0977V390.023H45.6172ZM41.1836 391.664V393.656H39.6016V401.371C40.3828 401.322 41.1543 401.244 41.9062 401.156L42.0234 403.012C38.2344 403.637 34.1328 403.695 30.8711 403.715L30.6367 401.684L32.6875 401.664V393.656H31.125V391.664H41.1836ZM35.1094 401.605L37.1797 401.527V393.656H35.1094V401.605ZM64.2305 403.773V405.824H47.9609V403.773H54.8164V401.098H49.8359V395.121H59.8945V393.168H49.8164V391.176H62.3555V397.074H52.3359V399.066H62.7656V401.098H57.2969V403.773H64.2305ZM84.7969 390.023V407.797H82.3164V390.023H84.7969ZM69.9336 402.777C71.291 402.768 72.8438 402.768 74.4648 402.719V401.215C72.5117 400.873 71.2422 399.662 71.2617 397.992C71.2422 396 73.0586 394.652 75.6758 394.652C78.3125 394.652 80.1484 396 80.1484 397.992C80.1484 399.652 78.8789 400.863 76.9258 401.215V402.641C78.4102 402.572 79.9141 402.455 81.3398 402.27L81.5156 404.105C77.6289 404.77 73.4297 404.809 70.2656 404.809L69.9336 402.777ZM81.0859 391.996V393.949H70.2852V391.996H74.4648V390.102H76.9453V391.996H81.0859ZM75.6758 396.547C74.4648 396.547 73.6055 397.074 73.625 397.992C73.6055 398.93 74.4648 399.438 75.6758 399.438C76.9258 399.438 77.7656 398.93 77.7656 397.992C77.7656 397.074 76.9258 396.547 75.6758 396.547ZM103.352 398.832V400.844H87.1406V398.832H93.9766V397.328H89.2109V390.453H91.6719V392.074H98.8008V390.453H101.281V397.328H96.4766V398.832H103.352ZM101.379 402.055V407.797H98.8984V404.027H88.9375V402.055H101.379ZM91.6719 395.375H98.8008V393.91H91.6719V395.375ZM112.531 390.277C116.613 390.277 118.977 391.352 118.996 393.305C118.977 395.277 116.613 396.352 112.531 396.352C108.43 396.352 106.047 395.277 106.047 393.305C106.047 391.352 108.43 390.277 112.531 390.277ZM112.531 392.094C109.914 392.094 108.645 392.523 108.664 393.305C108.645 394.184 109.914 394.516 112.531 394.516C115.168 394.516 116.418 394.184 116.418 393.305C116.418 392.523 115.168 392.094 112.531 392.094ZM120.637 397.191V399.164H104.426V397.191H120.637ZM118.664 400.199V404.73H108.762V405.805H119.133V407.68H106.32V402.992H116.203V402.016H106.301V400.199H118.664ZM132.121 390.766C134.836 390.746 136.809 392.289 136.809 394.535C136.809 396.762 134.836 398.324 132.121 398.305C129.406 398.324 127.434 396.762 127.453 394.535C127.434 392.289 129.406 390.746 132.121 390.766ZM132.121 392.758C130.793 392.758 129.855 393.402 129.855 394.535C129.855 395.648 130.793 396.293 132.121 396.273C133.488 396.293 134.445 395.648 134.445 394.535C134.445 393.402 133.488 392.758 132.121 392.758ZM141.301 390.043V407.797H138.84V390.043H141.301ZM126.359 399.398C129.504 399.398 133.977 399.32 137.766 398.754L137.922 400.59C136.457 400.883 134.953 401.068 133.469 401.176V407.27H130.988V401.332C129.426 401.4 127.951 401.41 126.672 401.43L126.359 399.398ZM157.707 390.043V395.492H160.109V397.523H157.707V403.305H155.207V390.043H157.707ZM154.152 391.898V393.871H143.605V391.898H147.648V390.004H150.129V391.898H154.152ZM148.879 394.496C151.457 394.496 153.254 395.883 153.254 397.934C153.254 399.984 151.457 401.332 148.879 401.332C146.281 401.332 144.465 399.984 144.465 397.934C144.465 395.883 146.281 394.496 148.879 394.496ZM148.879 396.391C147.688 396.41 146.887 396.957 146.906 397.934C146.887 398.91 147.688 399.438 148.879 399.438C150.07 399.438 150.891 398.91 150.891 397.934C150.891 396.957 150.07 396.41 148.879 396.391ZM158.352 405.492V407.484H146.184V402.289H148.664V405.492H158.352ZM170.285 391.273C173 391.273 174.953 393.734 174.973 397.602C174.953 401.508 173 403.949 170.285 403.949C167.57 403.949 165.578 401.508 165.598 397.602C165.578 393.734 167.57 391.273 170.285 391.273ZM170.285 393.52C168.918 393.52 168 394.965 168 397.602C168 400.258 168.918 401.684 170.285 401.684C171.672 401.684 172.57 400.258 172.59 397.602C172.57 394.965 171.672 393.52 170.285 393.52ZM179.523 390.023V396.723H182.141V398.793H179.523V407.797H177.023V390.023H179.523ZM197.766 390.043V403.031H195.285V398.812H191.223C190.363 399.721 189.123 400.277 187.746 400.277C185.051 400.277 183 398.324 183.02 395.688C183 393.012 185.051 391.078 187.746 391.059C189.123 391.068 190.354 391.615 191.223 392.523H195.285V390.043H197.766ZM198.195 405.492V407.484H185.969V401.723H188.469V405.492H198.195ZM187.746 393.285C186.359 393.285 185.363 394.184 185.383 395.688C185.363 397.172 186.359 398.07 187.746 398.07C189.055 398.07 190.07 397.172 190.07 395.688C190.07 394.184 189.055 393.285 187.746 393.285ZM192.297 394.516C192.385 394.887 192.434 395.277 192.434 395.688C192.434 396.078 192.385 396.459 192.297 396.82H195.285V394.516H192.297ZM209.465 403.832V400.18H205.812V397.738H209.465V394.086H211.906V397.738H215.559V400.18H211.906V403.832H209.465ZM238.566 399.223V401.195H222.355V399.223H229.211V397.387H231.672V399.223H238.566ZM236.594 402.387V407.797H234.113V404.359H224.152V402.387H236.594ZM231.672 390.043V391.625H237.004V393.598H231.867C232.131 394.906 233.938 396.078 237.844 396.312L237.082 398.207C233.82 397.973 231.555 397.016 230.441 395.57C229.318 397.016 227.053 397.973 223.801 398.207L223.039 396.312C226.926 396.078 228.732 394.906 229.016 393.598H223.918V391.625H229.211V390.043H231.672ZM255.852 399.223V401.195H239.641V399.223H246.496V397.387H248.957V399.223H255.852ZM253.879 402.387V407.797H251.398V404.359H241.438V402.387H253.879ZM248.957 390.043V391.625H254.289V393.598H249.152C249.416 394.906 251.223 396.078 255.129 396.312L254.367 398.207C251.105 397.973 248.84 397.016 247.727 395.57C246.604 397.016 244.338 397.973 241.086 398.207L240.324 396.312C244.211 396.078 246.018 394.906 246.301 393.598H241.203V391.625H246.496V390.043H248.957ZM271.027 390.043V395.492H273.43V397.523H271.027V403.305H268.527V390.043H271.027ZM267.473 391.898V393.871H256.926V391.898H260.969V390.004H263.449V391.898H267.473ZM262.199 394.496C264.777 394.496 266.574 395.883 266.574 397.934C266.574 399.984 264.777 401.332 262.199 401.332C259.602 401.332 257.785 399.984 257.785 397.934C257.785 395.883 259.602 394.496 262.199 394.496ZM262.199 396.391C261.008 396.41 260.207 396.957 260.227 397.934C260.207 398.91 261.008 399.438 262.199 399.438C263.391 399.438 264.211 398.91 264.211 397.934C264.211 396.957 263.391 396.41 262.199 396.391ZM271.672 405.492V407.484H259.504V402.289H261.984V405.492H271.672ZM293.703 390.023V407.797H291.184V390.023H293.703ZM289.816 392.699V394.691H279.191V392.699H283.234V390.258H285.773V392.699H289.816ZM284.543 395.668C287.16 395.668 289.113 397.426 289.113 399.906C289.113 402.387 287.16 404.145 284.543 404.145C281.906 404.145 279.953 402.387 279.953 399.906C279.953 397.426 281.906 395.668 284.543 395.668ZM284.543 397.68C283.234 397.699 282.336 398.539 282.336 399.906C282.336 401.293 283.234 402.113 284.543 402.094C285.832 402.113 286.73 401.293 286.73 399.906C286.73 398.539 285.832 397.699 284.543 397.68ZM310.207 390.023V393.461H312.609V395.512H310.207V398.91H307.707V390.023H310.207ZM310.207 399.613V404.457H300.891V405.648H310.715V407.602H298.449V402.66H307.727V401.527H298.41V399.613H310.207ZM301.008 390.551C303.742 390.57 305.773 392.211 305.773 394.574C305.773 396.918 303.742 398.598 301.008 398.598C298.273 398.598 296.223 396.918 296.223 394.574C296.223 392.211 298.273 390.57 301.008 390.551ZM301.008 392.582C299.641 392.582 298.645 393.324 298.664 394.574C298.645 395.844 299.641 396.625 301.008 396.625C302.375 396.625 303.352 395.844 303.352 394.574C303.352 393.324 302.375 392.582 301.008 392.582ZM327.766 390.57V395.863H317.824V397.348H328.176V399.34H315.305V393.988H325.207V392.582H315.246V390.57H327.766ZM329.641 400.668V402.66H322.727V407.836H320.227V402.66H313.371V400.668H329.641ZM346.926 399.848V401.84H330.656V399.848H337.551V398.48H332.688V393.578H342.453V392.328H332.648V390.414H344.953V395.336H335.168V396.586H345.285V398.48H340.031V399.848H346.926ZM345.344 405.902V407.895H332.707V402.738H335.207V405.902H345.344ZM354.523 393.07C354.504 395.336 355.793 397.543 358.684 398.48L357.375 400.434C355.432 399.779 354.094 398.5 353.332 396.879C352.531 398.666 351.115 400.062 349.055 400.766L347.668 398.793C350.695 397.855 352.004 395.473 352.023 393.051V391.117H354.523V393.07ZM362.062 390.023V395.16H364.465V397.27H362.062V403.051H359.562V390.023H362.062ZM362.727 405.492V407.484H350.52V401.762H353.059V405.492H362.727ZM369.289 391.859L369.035 401.762H366.535L366.281 391.859H369.289ZM367.805 406.176C366.887 406.176 366.145 405.434 366.164 404.535C366.145 403.637 366.887 402.914 367.805 402.914C368.664 402.914 369.426 403.637 369.426 404.535C369.426 405.434 368.664 406.176 367.805 406.176Z" fill="#D47C20"/>
<path d="M53.7422 445.52C53.7422 447.785 55.4414 449.816 58 450.656L57.2773 451.867C55.2754 451.213 53.7617 449.826 53.0195 448.078C52.2676 450.07 50.666 451.623 48.5859 452.375L47.8047 451.145C50.4023 450.266 52.2188 448.02 52.2383 445.52V444.777H48.2734V443.508H57.6484V444.777H53.7422V445.52ZM61.4375 442.219V446.652H64.0547V447.941H61.4375V452.707H59.9141V442.219H61.4375ZM55.8711 453.176C59.4453 453.176 61.5938 454.348 61.5938 456.34C61.5938 458.371 59.4453 459.543 55.8711 459.543C52.2969 459.543 50.1094 458.371 50.1094 456.34C50.1094 454.348 52.2969 453.176 55.8711 453.176ZM55.8711 454.406C53.2539 454.406 51.6328 455.129 51.6523 456.34C51.6328 457.59 53.2539 458.312 55.8711 458.312C58.5078 458.312 60.1094 457.59 60.1094 456.34C60.1094 455.129 58.5078 454.406 55.8711 454.406ZM67.5312 443.488V450.324C70.002 450.334 72.5703 450.178 75.4023 449.582L75.5781 450.852C72.6289 451.477 69.9922 451.633 67.375 451.633H65.9883V443.488H67.5312ZM78.7227 442.238V447.395H81.3398V448.723H78.7227V454.777H77.1992V442.238H78.7227ZM79.3477 457.922V459.211H67.9219V453.547H69.4453V457.922H79.3477ZM96.7891 442.219V459.582H95.2461V442.219H96.7891ZM91.6523 444.113C91.6328 449.113 89.3086 453.527 83.4883 456.32L82.6484 455.07C87.3457 452.844 89.7383 449.514 90.0898 445.363H83.4492V444.113H91.6523ZM118.176 442.219V449.289H120.988V450.578H118.176V459.582H116.652V442.219H118.176ZM113.684 444.094C113.684 449.016 111.379 453.488 105.715 456.281L104.855 455.07C109.348 452.834 111.789 449.494 112.141 445.383H105.656V444.094H113.684ZM137.863 450.676V451.945H122.023V450.676H137.863ZM135.91 454.035V459.68H134.387V455.285H123.781V454.035H135.91ZM136.047 447.492V448.742H124.035V442.902H135.891V444.152H125.559V447.492H136.047ZM152.883 442.238V447.961H155.5V449.25H152.883V455.246H151.359V442.238H152.883ZM149.699 444.367V445.617H139.348V444.367H143.762V442.238H145.285V444.367H149.699ZM144.523 446.574C147.004 446.574 148.684 447.844 148.703 449.816C148.684 451.77 147.004 453.02 144.523 453.02C142.023 453.02 140.324 451.77 140.344 449.816C140.324 447.844 142.023 446.574 144.523 446.574ZM144.523 447.785C142.883 447.785 141.789 448.586 141.809 449.816C141.789 451.047 142.883 451.828 144.523 451.809C146.145 451.828 147.238 451.047 147.258 449.816C147.238 448.586 146.145 447.785 144.523 447.785ZM153.684 457.922V459.211H142.023V454.211H143.527V457.922H153.684ZM175.422 443.078V449.172H170.285V451.477H177.434V452.746H161.613V451.477H168.762V449.172H163.664V443.078H175.422ZM165.168 444.309V447.922H173.898V444.309H165.168ZM175.676 457.922V459.211H163.664V454.211H165.207V457.922H175.676ZM192.707 443.078V449.172H187.57V451.477H194.719V452.746H178.898V451.477H186.047V449.172H180.949V443.078H192.707ZM182.453 444.309V447.922H191.184V444.309H182.453ZM192.961 457.922V459.211H180.949V454.211H182.492V457.922H192.961ZM212.004 451.379V452.629H196.184V451.379H212.004ZM210.246 457.922V459.211H198.234V454.152H199.777V457.922H210.246ZM204.094 442.844C207.824 442.824 210.227 444.113 210.227 446.281C210.227 448.449 207.824 449.738 204.094 449.738C200.324 449.738 197.941 448.449 197.941 446.281C197.941 444.113 200.324 442.824 204.094 442.844ZM204.094 444.074C201.301 444.074 199.504 444.914 199.523 446.281C199.504 447.648 201.301 448.488 204.094 448.488C206.867 448.488 208.664 447.648 208.664 446.281C208.664 444.914 206.867 444.074 204.094 444.074ZM224.699 447.551C224.699 450.5 226.848 453.488 229.406 454.602L228.547 455.812C226.516 454.885 224.758 452.883 223.957 450.48C223.137 453.029 221.389 455.246 219.406 456.242L218.488 455.031C220.969 453.84 223.137 450.559 223.156 447.551V445.285H219.055V444.016H228.84V445.285H224.699V447.551ZM232.805 442.219V459.582H231.262V442.219H232.805ZM250.109 442.238V455.07H248.586V442.238H250.109ZM250.656 457.922V459.211H238.898V453.879H240.422V457.922H250.656ZM242.082 446.281C242.082 448.586 243.938 450.617 246.535 451.418L245.773 452.648C243.732 451.994 242.121 450.607 241.34 448.801C240.578 450.744 238.977 452.248 236.906 452.961L236.125 451.75C238.723 450.91 240.559 448.723 240.559 446.281V445.812H236.555V444.582H240.559V442.316H242.102V444.582H246.066V445.812H242.082V446.281ZM271.965 453.645V459.348H260.012V453.645H271.965ZM261.535 454.875V458.098H270.461V454.875H261.535ZM271.887 442.863V448.684H266.75V450.656H273.898V451.926H258.078V450.656H265.227V448.684H260.129V442.863H271.887ZM261.633 444.113V447.434H270.363V444.113H261.633ZM290.246 442.219V459.582H288.762V442.219H290.246ZM286.75 442.59V458.703H285.285V450.266H283.059C282.893 453.645 281.457 455.754 279.309 455.754C277.043 455.754 275.578 453.41 275.578 449.719C275.578 446.027 277.043 443.684 279.309 443.684C281.418 443.684 282.844 445.725 283.039 448.996H285.285V442.59H286.75ZM279.309 445.129C277.902 445.129 277.004 446.887 277.023 449.719C277.004 452.531 277.902 454.309 279.309 454.289C280.715 454.309 281.613 452.531 281.613 449.719C281.613 446.887 280.715 445.129 279.309 445.129ZM311.223 442.219V446.672H313.82V447.98H311.223V452.473H309.68V442.219H311.223ZM311.223 453.254V456.75H301.477V458.293H311.887V459.387H299.953V455.715H309.699V454.348H299.914V453.254H311.223ZM297.59 450.91C298.977 450.91 300.598 450.91 302.297 450.852V449.777C300.266 449.631 298.977 448.82 298.977 447.492C298.977 446.066 300.578 445.246 303.039 445.246C305.52 445.246 307.102 446.066 307.121 447.492C307.102 448.811 305.852 449.621 303.82 449.777V450.812C305.441 450.734 307.082 450.607 308.605 450.383L308.742 451.418C304.992 452.023 300.812 452.062 297.766 452.062L297.59 450.91ZM308.078 443.547V444.66H298.02V443.547H302.297V442.062H303.82V443.547H308.078ZM303.039 446.262C301.438 446.281 300.441 446.73 300.441 447.492C300.441 448.273 301.438 448.781 303.039 448.781C304.641 448.781 305.656 448.273 305.656 447.492C305.656 446.73 304.641 446.281 303.039 446.262ZM323.195 443.293V448.156H317.219V450.852C320.48 450.852 322.16 450.803 324.211 450.422L324.367 451.691C322.199 452.043 320.441 452.102 316.926 452.102H315.695V446.984H321.672V444.523H315.656V443.293H323.195ZM329.348 442.238V452.902H327.805V449.68H324.348V448.41H327.805V446.066H324.348V444.816H327.805V442.238H329.348ZM329.348 453.84V459.621H327.805V455.09H317.648V453.84H329.348ZM341.867 444.152V445.051C341.848 446.418 341.848 448.723 341.359 451.945L339.816 451.809C340.285 448.898 340.324 446.789 340.324 445.402H333.039V444.152H341.867ZM337.316 449.113V454.387C339.24 454.318 341.213 454.191 343.02 453.977L343.098 455.129C339.445 455.695 335.363 455.773 332.258 455.754L332.062 454.484C333.205 454.475 334.475 454.465 335.812 454.426V449.113H337.316ZM345.637 442.219V449.484H348.449V450.812H345.637V459.582H344.113V442.219H345.637ZM112.902 468.219V485.582H111.359V468.219H112.902ZM108.898 470.113V471.383H106.926V479.742C107.902 479.674 108.869 479.586 109.797 479.469L109.895 480.621C106.105 481.207 101.926 481.266 98.7031 481.285L98.5273 479.977L100.93 479.957V471.383H98.9766V470.113H108.898ZM102.434 479.938C103.41 479.918 104.416 479.879 105.422 479.82V471.383H102.434V479.938ZM131.711 478.531V479.781H124.465V485.582H122.961V479.781H115.812V478.531H131.711ZM119.367 468.941V471.344H128.117V468.941H129.66V476.422H117.844V468.941H119.367ZM119.367 475.172H128.117V472.594H119.367V475.172ZM146.867 468.219V475.387H149.504V476.676H146.867V485.582H145.324V468.219H146.867ZM138.391 470.113C138.371 474.254 137.434 478.316 134.289 481.656L133.059 480.777C135.686 478.092 136.74 474.859 136.945 471.402H133.605V470.113H138.391ZM143.156 470.113C143.137 474.234 142.531 479.02 139.289 482.809L138.039 481.949C140.754 478.883 141.574 475.025 141.711 471.402H138.938V470.113H143.156ZM156.613 473.551C156.613 476.5 158.762 479.488 161.32 480.602L160.461 481.812C158.43 480.885 156.672 478.883 155.871 476.48C155.051 479.029 153.303 481.246 151.32 482.242L150.402 481.031C152.883 479.84 155.051 476.559 155.07 473.551V471.285H150.969V470.016H160.754V471.285H156.613V473.551ZM164.719 468.219V485.582H163.176V468.219H164.719ZM177.844 471.93C177.844 473.922 179.211 475.953 181.418 476.812L180.676 477.984C178.977 477.311 177.775 475.992 177.16 474.41C176.555 476.139 175.334 477.594 173.625 478.355L172.844 477.223C175.051 476.246 176.379 474.059 176.398 471.93V471.852H173.195V470.621H176.398V468.57H177.844V470.621H180.988V471.852H177.844V471.93ZM187.453 468.238V479.098H185.988V474.176H183.723V478.453H182.238V468.57H183.723V472.926H185.988V468.238H187.453ZM181.711 479.371C185.324 479.352 187.551 480.504 187.551 482.477C187.551 484.43 185.324 485.543 181.711 485.543C178.078 485.543 175.871 484.43 175.891 482.477C175.871 480.504 178.078 479.352 181.711 479.371ZM181.711 480.582C179.055 480.582 177.395 481.285 177.414 482.477C177.395 483.648 179.055 484.332 181.711 484.332C184.348 484.332 186.008 483.648 186.027 482.477C186.008 481.285 184.348 480.582 181.711 480.582ZM198.801 470.113C198.801 471.1 198.713 472.066 198.527 473.004H202.844V468.199H204.367V485.582H202.844V478.902H197.941V477.633H202.844V474.254H198.215C197.209 477.477 194.914 480.309 190.812 482.301L190.012 481.051C194.641 478.814 196.936 475.465 197.258 471.363H190.773V470.113H198.801ZM216.047 470.68C216.027 473.004 219.133 474.977 222.16 475.426L221.594 476.637C218.879 476.178 216.242 474.732 215.188 472.633C214.133 474.732 211.486 476.178 208.82 476.637L208.215 475.426C211.223 474.977 214.328 473.004 214.328 470.68V470.562H208.762V469.312H221.594V470.562H216.047V470.68ZM223.098 478.121V479.391H215.91V485.582H214.406V479.391H207.277V478.121H223.098ZM238.605 473.492V474.723H226.711V468.863H228.234V473.492H238.605ZM240.441 477.086V478.336H224.543V477.086H240.441ZM238.703 483.883V485.152H226.613V480.113H228.137V483.883H238.703ZM261.184 468.16V477.77H259.68V468.16H261.184ZM261.184 478.648V482.496H251.457V484.215H261.809V485.387H249.934V481.383H259.68V479.82H249.914V478.648H261.184ZM257.766 469.781V471.012H247.121V469.781H251.672V468.023H253.215V469.781H257.766ZM252.453 471.832C255.051 471.832 256.711 472.945 256.711 474.684C256.711 476.441 255.051 477.516 252.453 477.516C249.855 477.516 248.176 476.441 248.195 474.684C248.176 472.945 249.855 471.832 252.453 471.832ZM252.453 472.984C250.754 472.965 249.641 473.648 249.66 474.684C249.641 475.719 250.754 476.383 252.453 476.383C254.133 476.383 255.246 475.719 255.246 474.684C255.246 473.648 254.133 472.965 252.453 472.984ZM278.488 468.238V478.922H276.965V468.238H278.488ZM272.961 469.332V474.098H266.555V476.559C269.66 476.559 271.984 476.48 274.797 476.012L274.973 477.281C272.062 477.75 269.68 477.848 266.477 477.848H265.07V472.887H271.438V470.621H265.031V469.332H272.961ZM272.727 479.273C276.379 479.273 278.605 480.426 278.605 482.418C278.605 484.41 276.379 485.543 272.727 485.543C269.074 485.543 266.867 484.41 266.867 482.418C266.867 480.426 269.074 479.273 272.727 479.273ZM272.727 480.504C270.031 480.504 268.371 481.227 268.371 482.418C268.371 483.609 270.031 484.312 272.727 484.312C275.422 484.312 277.062 483.609 277.062 482.418C277.062 481.227 275.422 480.504 272.727 480.504ZM295.812 468.219V485.621H294.289V476.188H290.91V474.898H294.289V468.219H295.812ZM289.855 469.84V475.914H283.625V480.133C286.613 480.133 288.781 480.045 291.32 479.566L291.438 480.855C288.82 481.324 286.574 481.422 283.43 481.441H282.102V474.645H288.371V471.109H282.043V469.84H289.855ZM301.535 469.859L301.398 480.016H299.758L299.621 469.859H301.535ZM300.578 484.117C299.895 484.117 299.309 483.551 299.328 482.848C299.309 482.164 299.895 481.598 300.578 481.598C301.262 481.598 301.828 482.164 301.828 482.848C301.828 483.551 301.262 484.117 300.578 484.117Z" fill="#333333"/>
<path d="M143.816 35.5234V60.625H140.07V47.9922H138.128V59.5586H134.492V36.1797H138.128V44.8203H140.07V35.5234H143.816ZM133.07 38.5859C133.07 45.7773 131.019 51.4102 123.992 55.5391L121.722 52.832C126.603 49.9199 128.722 46.5156 129.242 41.7031H123.089V38.5859H133.07ZM166.648 36.9453V39.2148C166.621 41.5527 166.621 44.0957 166.019 47.582H169.218V50.7539H159.621V60.6523H155.656V50.7539H146.332V47.582H162.054C162.628 44.5195 162.697 42.1406 162.71 40.0625H148.875V36.9453H166.648ZM182.152 37.3008V40.4453H178.542C178.57 43.125 179.718 45.4902 182.863 46.707L180.839 49.7148C178.884 48.9492 177.558 47.6504 176.738 45.9961C175.835 47.9238 174.359 49.4824 172.144 50.3438L170.039 47.3086C173.484 45.9277 174.742 43.2344 174.769 40.4453H170.996V37.3008H182.152ZM192.16 35.5508V50.6719H188.414V44.6016H186.855V49.9336H183.136V35.9883H186.855V41.4297H188.414V35.5508H192.16ZM183.492 51C188.824 51 192.269 52.832 192.296 55.8125C192.269 58.793 188.824 60.6523 183.492 60.625C178.16 60.6523 174.714 58.793 174.742 55.8125C174.714 52.832 178.16 51 183.492 51ZM183.492 53.9531C180.402 53.9531 178.652 54.6094 178.679 55.8125C178.652 57.0977 180.402 57.6445 183.492 57.6719C186.582 57.6445 188.304 57.0977 188.332 55.8125C188.304 54.6094 186.582 53.9531 183.492 53.9531ZM215.812 35.5234V60.6797H211.847V35.5234H215.812ZM202.113 37.2461C205.914 37.2461 208.757 40.7188 208.785 46.2148C208.757 51.793 205.914 55.2656 202.113 55.2656C198.23 55.2656 195.386 51.793 195.386 46.2148C195.386 40.7188 198.23 37.2461 202.113 37.2461ZM202.113 40.8008C200.335 40.8008 199.187 42.6328 199.214 46.2148C199.187 49.8516 200.335 51.6836 202.113 51.6836C203.835 51.6836 204.984 49.8516 204.984 46.2148C204.984 42.6328 203.835 40.8008 202.113 40.8008ZM245.179 36.6992V45.9961H238.562V48.3203H248.078V51.4648H225.191V48.3203H234.597V45.9961H227.98V36.6992H245.179ZM231.835 39.7891V42.9609H241.324V39.7891H231.835ZM245.453 57.0703V60.2148H227.898V52.9141H231.835V57.0703H245.453ZM269.378 36.6992V45.9961H262.761V48.3203H272.277V51.4648H249.39V48.3203H258.796V45.9961H252.179V36.6992H269.378ZM256.035 39.7891V42.9609H265.523V39.7891H256.035ZM269.652 57.0703V60.2148H252.097V52.9141H256.035V57.0703H269.652ZM177.746 71.1016V78.8828H172.73V82.8672C174.922 82.8438 176.996 82.75 179.387 82.3047L179.598 84.4375C176.762 84.9531 174.371 85.0234 171.699 85.0234H170.223V76.8203H175.238V73.1875H170.199V71.1016H177.746ZM187.824 68.8984V90.0859H185.34V68.8984H187.824ZM183.465 69.3438V89.0078H181.004V78.3906H178.684V76.2578H181.004V69.3438H183.465ZM207.184 69.9297V77.5703H201.277V79.9375H209.645V82.0469H190.332V79.9375H198.652V77.5703H192.77V69.9297H207.184ZM195.301 71.9922V75.5078H204.605V71.9922H195.301ZM207.465 87.5547V89.6641H192.723V83.5469H195.324V87.5547H207.465ZM221.691 70.4219V80.0781H211.801V70.4219H221.691ZM214.355 72.5078V77.9922H219.113V72.5078H214.355ZM227.785 68.8984V74.3594H230.738V76.5391H227.785V82.9141H225.184V68.8984H227.785ZM222.418 82.4922C222.395 85.0469 225.02 87.3203 229.285 87.9297L228.254 89.9688C224.973 89.4414 222.418 87.9531 221.152 85.8438C219.84 87.9531 217.285 89.4414 214.004 89.9688L212.973 87.9297C217.215 87.3203 219.816 85.0469 219.816 82.4922V81.9062H222.418V82.4922Z" fill="#D47C20"/>
<rect x="33" y="510" width="340" height="100" rx="30" fill="#FFE99F"/>
<path d="M153.803 553.863L152.221 552.301L156.439 548.082H146.518V545.777H156.439L152.221 541.578L153.803 540.016L160.736 546.93L153.803 553.863ZM182.67 538.023V555.797H180.15V538.023H182.67ZM177.338 539.879C177.338 545.27 175.443 549.742 169.096 552.75L167.787 550.758C172.377 548.59 174.398 545.777 174.799 541.832H168.744V539.879H177.338ZM201.264 546.676V548.668H194.525V551.754H192.006V548.668H184.994V546.676H201.264ZM199.467 553.473V555.484H186.928V550.172H189.447V553.473H199.467ZM193.119 538.355C196.967 538.375 199.525 539.801 199.545 542.047C199.525 544.312 196.967 545.719 193.119 545.719C189.252 545.719 186.674 544.312 186.674 542.047C186.674 539.801 189.252 538.375 193.119 538.355ZM193.119 540.328C190.814 540.328 189.35 540.914 189.369 542.047C189.35 543.141 190.814 543.727 193.119 543.727C195.404 543.727 196.869 543.141 196.869 542.047C196.869 540.914 195.404 540.328 193.119 540.328ZM211.186 548.414V550.191H213.1V548.414H215.404V553.805C217.377 552.926 218.217 551.266 218.217 549.645V548.277H220.717V549.645C220.697 551.461 221.576 553.18 223.803 553.902L222.514 555.758C220.98 555.23 219.994 554.215 219.428 552.945C218.832 554.176 217.855 555.201 216.42 555.758L215.404 554.215V555.602H208.881V548.414H211.186ZM211.186 553.707H213.1V552.027H211.186V553.707ZM211.869 538.688C214.135 538.688 215.941 539.947 216.439 541.832H219.408V538.023H221.889V547.438H219.408V543.883H216.439C215.961 545.807 214.145 547.086 211.869 547.086C209.135 547.086 207.123 545.348 207.143 542.867C207.123 540.426 209.135 538.688 211.869 538.688ZM211.869 540.738C210.482 540.738 209.486 541.559 209.506 542.867C209.486 544.215 210.482 545.035 211.869 545.055C213.217 545.035 214.193 544.215 214.193 542.867C214.193 541.559 213.217 540.738 211.869 540.738ZM232.299 538.277C236.381 538.277 238.744 539.352 238.764 541.305C238.744 543.277 236.381 544.352 232.299 544.352C228.197 544.352 225.814 543.277 225.814 541.305C225.814 539.352 228.197 538.277 232.299 538.277ZM232.299 540.094C229.682 540.094 228.412 540.523 228.432 541.305C228.412 542.184 229.682 542.516 232.299 542.516C234.936 542.516 236.186 542.184 236.186 541.305C236.186 540.523 234.936 540.094 232.299 540.094ZM240.404 545.191V547.164H224.193V545.191H240.404ZM238.432 548.199V552.73H228.529V553.805H238.9V555.68H226.088V550.992H235.971V550.016H226.068V548.199H238.432ZM258.08 538.355V542.965H259.33V538.023H261.693V551.168H259.33V544.918H258.08V550.66H255.795V538.355H258.08ZM250.17 539.605V541.598H248.705V546.285C249.184 546.246 249.701 546.178 250.268 546.07L250.443 548.043C249.135 548.316 248.139 548.316 247.201 548.316H246.42V539.605H250.17ZM254.857 539.605V541.598H253.217V546.305C253.754 546.256 254.34 546.178 254.994 546.031L255.209 548.062C253.842 548.316 252.807 548.316 251.771 548.316H250.951V539.605H254.857ZM262.084 553.492V555.484H249.154V549.723H251.654V553.492H262.084Z" fill="#D47C20"/>
<path d="M126.391 564.863V571.367H121.566V573.184H128.441V575.176H112.23V573.184H119.066V571.367H114.242V564.863H126.391ZM116.684 566.836V569.414H123.949V566.836H116.684ZM126.605 579.492V581.484H114.184V576.328H116.684V579.492H126.605ZM143.676 564.863V571.367H138.852V573.184H145.727V575.176H129.516V573.184H136.352V571.367H131.527V564.863H143.676ZM133.969 566.836V569.414H141.234V566.836H133.969ZM143.891 579.492V581.484H131.469V576.328H133.969V579.492H143.891ZM152.562 565.215C155.375 565.195 157.484 567.031 157.484 569.57C157.484 572.129 155.375 573.945 152.562 573.945C149.75 573.945 147.621 572.129 147.621 569.57C147.621 567.031 149.75 565.195 152.562 565.215ZM152.562 567.363C151.156 567.363 150.082 568.184 150.102 569.57C150.082 570.977 151.156 571.777 152.562 571.777C153.969 571.777 155.043 570.977 155.062 569.57C155.043 568.184 153.988 567.363 152.562 567.363ZM161.742 564.023V581.836H159.262V564.023H161.742ZM146.879 576.172C150.043 576.191 154.438 576.133 158.246 575.605L158.441 577.402C154.496 578.164 150.277 578.203 147.172 578.203L146.879 576.172ZM175.492 565.801V572.539H171.586V575.566C173.314 575.547 174.955 575.469 176.801 575.117L177.016 577.148C174.691 577.578 172.699 577.617 170.453 577.637H169.203V570.566H173.09V567.773H169.184V565.801H175.492ZM184.066 564.023V581.797H181.703V564.023H184.066ZM180.375 564.355V580.938H178.051V572.109H176.234V570.098H178.051V564.355H180.375ZM200.141 564.863V571.367H195.316V573.184H202.191V575.176H185.98V573.184H192.816V571.367H187.992V564.863H200.141ZM190.434 566.836V569.414H197.699V566.836H190.434ZM200.355 579.492V581.484H187.934V576.328H190.434V579.492H200.355ZM212.25 565.254V573.457H203.793V565.254H212.25ZM206.254 567.227V571.484H209.789V567.227H206.254ZM217.367 564.023V568.457H219.77V570.527H217.367V575.762H214.867V564.023H217.367ZM212.895 575.371C212.895 577.344 214.77 579.277 218.559 579.766L217.582 581.719C214.799 581.289 212.768 580.088 211.684 578.418C210.6 580.088 208.568 581.289 205.766 581.719L204.809 579.766C208.559 579.277 210.434 577.344 210.434 575.371V574.922H212.895V575.371ZM240.434 564.043V573.301H238.07V564.043H240.434ZM236.898 564.355V573.184H234.535V569.805H232.641V567.832H234.535V564.355H236.898ZM230.766 567.07C230.766 568.789 231.742 570.488 233.988 571.27L232.816 573.184C231.254 572.646 230.199 571.621 229.594 570.352C228.93 571.729 227.816 572.842 226.176 573.418L224.965 571.562C227.309 570.723 228.344 568.867 228.344 567.07V567.012H225.512V565.059H233.422V567.012H230.766V567.07ZM240.434 573.945V578.613H230.766V579.688H241.039V581.602H228.285V576.816H237.973V575.859H228.266V573.945H240.434ZM258.715 577.773V579.824H242.445V577.773H249.301V575.098H244.32V569.121H254.379V567.168H244.301V565.176H256.84V571.074H246.82V573.066H257.25V575.098H251.781V577.773H258.715ZM275.102 564.023V581.797H272.738V564.023H275.102ZM271.469 564.316V580.977H269.125V572.129H266.781V570.117H269.125V564.316H271.469ZM265.355 568.789C265.355 571.738 266.273 574.727 268.871 576.211L267.406 578.047C265.824 577.109 264.779 575.518 264.184 573.613C263.568 575.684 262.494 577.441 260.863 578.438L259.359 576.602C261.977 575 262.953 571.797 262.953 568.789V567.832H260.043V565.84H268.051V567.832H265.355V568.789ZM291.918 564.023V581.836H289.438V564.023H291.918ZM286.41 565.508V572.363H280.551V575.625C283.256 575.615 285.561 575.459 288.168 575.039L288.383 577.051C285.453 577.559 282.816 577.676 279.574 577.676H277.973V570.391H283.871V567.52H277.953V565.508H286.41ZM298.344 565.859L298.09 575.762H295.59L295.336 565.859H298.344ZM296.859 580.176C295.941 580.176 295.199 579.434 295.219 578.535C295.199 577.637 295.941 576.914 296.859 576.914C297.719 576.914 298.48 577.637 298.48 578.535C298.48 579.434 297.719 580.176 296.859 580.176Z" fill="#333333"/>
<defs>
<clipPath id="clip0_152_123">
<rect width="244" height="257" fill="white" transform="translate(75 102)"/>
</clipPath>
</defs>
</svg>
