<svg width="1120" height="100" viewBox="0 0 1120 100" fill="none" xmlns="http://www.w3.org/2000/svg">
<path d="M165.101 11.168C172.114 11.2051 177.161 14.6191 177.161 19.8145C177.161 24.7314 172.782 27.9971 166.511 28.3867V35.3262H180.278V37.7754H150.071V35.3262H163.653V28.3867C157.4 27.9785 153.04 24.7129 153.04 19.8145C153.04 14.6191 158.087 11.2051 165.101 11.168ZM165.101 13.5801C159.757 13.5801 155.86 16.1035 155.86 19.8145C155.86 23.6367 159.757 26.0859 165.101 26.123C170.444 26.0859 174.341 23.6367 174.341 19.8145C174.341 16.1035 170.444 13.5801 165.101 13.5801ZM209.521 16.957V19.3691H186.995V9.57227H189.853V16.957H209.521ZM213.083 22.6348V25.0098H182.876V22.6348H213.083ZM209.187 27.9785V35.6973H189.667V39.2227H210.374V41.5605H186.735V33.4707H206.329V30.2793H186.661V27.9785H209.187ZM226.554 11.4277C231.749 11.4277 235.423 14.582 235.423 19.1836C235.423 23.7852 231.749 26.9395 226.554 26.9395C221.358 26.9395 217.61 23.7852 217.647 19.1836C217.61 14.582 221.358 11.4277 226.554 11.4277ZM226.554 13.9883C223.028 13.9883 220.468 16.1035 220.505 19.1836C220.468 22.2637 223.028 24.3789 226.554 24.3789C230.042 24.3789 232.565 22.2637 232.565 19.1836C232.565 16.1035 230.042 13.9883 226.554 13.9883ZM242.808 9.01562V42.0801H239.913V9.01562H242.808ZM215.94 32.3203C222.026 32.3203 230.413 32.2832 237.724 31.207L237.946 33.3594C230.413 34.7695 222.286 34.8066 216.349 34.8066L215.94 32.3203ZM275.278 11.6875C275.241 20.2227 270.825 26.6055 260.212 30.168L259.024 27.8301C264.684 25.9746 268.283 23.3584 270.306 20.1113L259.358 21.0391L258.839 18.627L271.345 18.0332C271.809 16.79 272.105 15.4727 272.235 14.0996H260.509V11.6875H275.278ZM285.483 9.05273V33.5449H282.552V22.0039H275.204V19.5547H282.552V9.05273H285.483ZM286.411 38.8516V41.3008H264.628V31.0957H267.597V38.8516H286.411ZM318.177 9.01562V42.0801H315.245V9.01562H318.177ZM308.825 12.1699V14.6191H296.06V31.3555C302.479 31.3555 306.71 31.1514 311.646 30.2793L311.942 32.7285C306.821 33.6562 302.479 33.8418 295.8 33.8789H293.128V12.1699H308.825ZM335.099 15.1387C335.099 19.9629 338.401 24.5273 343.188 26.4199L341.556 28.6836C337.919 27.1807 335.099 24.1748 333.726 20.4082C332.297 24.4717 329.328 27.7002 325.487 29.2773L323.892 26.9395C328.79 25.0469 332.204 20.2969 332.241 15.1387V10.9082H335.099V15.1387ZM351.167 9.05273V33.6934H348.235V23.1172H341.444V20.7422H348.235V16.3633H341.444V13.9512H348.235V9.05273H351.167ZM351.909 38.8516V41.3008H329.829V31.1328H332.761V38.8516H351.909ZM384.937 9.01562V42.0059H382.116V9.01562H384.937ZM378.294 9.7207V40.3359H375.511V24.3047H371.28C370.965 30.7246 368.237 34.7324 364.155 34.7324C359.851 34.7324 357.067 30.2793 357.067 23.2656C357.067 16.252 359.851 11.7988 364.155 11.7988C368.163 11.7988 370.872 15.6768 371.243 21.8926H375.511V9.7207H378.294ZM364.155 14.5449C361.483 14.5449 359.776 17.8848 359.813 23.2656C359.776 28.6094 361.483 31.9863 364.155 31.9492C366.827 31.9863 368.534 28.6094 368.534 23.2656C368.534 17.8848 366.827 14.5449 364.155 14.5449ZM415.7 11.2793V25.3809H400.448V11.2793H415.7ZM403.306 13.6543V23.0059H412.88V13.6543H403.306ZM424.829 9.01562V16.957H429.802V19.4062H424.829V27.8672H421.935V9.01562H424.829ZM425.423 29.7969V32.1719H416.071C416.387 35.6973 421.304 38.7773 426.685 39.6309L425.608 41.8945C420.784 41.0967 416.405 38.7031 414.513 35.4004C412.639 38.7217 408.297 41.0781 403.491 41.8574L402.378 39.6309C407.833 38.7773 412.657 35.7529 413.028 32.1719H403.677V29.7969H425.423ZM444.052 15.1387C444.052 18.4414 447.354 21.2988 451.993 22.3008L450.731 24.6016C446.965 23.6553 444.033 21.6143 442.642 18.8867C441.25 21.8555 438.263 24.0635 434.366 25.0469L433.104 22.8203C437.743 21.7441 441.046 18.6641 441.046 15.1387V15.0273H433.81V12.6895H441.12V9.12695H444.015V12.6895H451.251V15.0273H444.052V15.1387ZM459.192 9.05273V42.043H456.224V34.3984H448.616V32.0605H456.224V9.05273H459.192ZM431.731 27.1992C438.003 27.2363 446.353 27.1621 453.626 26.123L453.812 28.3496C450.546 28.9062 447.188 29.2402 443.903 29.4258V41.0039H440.972V29.5742C437.817 29.6855 434.793 29.7041 432.14 29.6855L431.731 27.1992ZM470.14 36.5137L467.245 46.6074H464.499L466.54 36.5137H470.14ZM509.81 9.01562V17.625H514.745V20.0742H509.81V28.7207H506.878V9.01562H509.81ZM499.196 29.3516C505.913 29.3516 510.069 31.6895 510.069 35.623C510.069 39.6309 505.913 41.9316 499.196 41.9316C492.442 41.9316 488.249 39.6309 488.249 35.623C488.249 31.6895 492.442 29.3516 499.196 29.3516ZM499.196 31.7637C494.224 31.7266 491.106 33.2109 491.106 35.623C491.106 38.0723 494.224 39.5938 499.196 39.5938C504.132 39.5938 507.249 38.0723 507.249 35.623C507.249 33.2109 504.132 31.7266 499.196 31.7637ZM500.161 11.5391V13.9512H488.36V23.6367C495.04 23.5996 498.899 23.3955 503.315 22.4863L503.612 24.8984C499.011 25.8262 495.04 26.0117 488.063 26.0117H485.503V11.5391H500.161ZM544.062 9.05273V33.248H541.167V9.05273H544.062ZM545.101 38.8516V41.3008H522.761V31.0215H525.655V38.8516H545.101ZM528.513 14.2109C528.476 19.2207 531.927 23.748 536.825 25.5293L535.304 27.8672C531.481 26.4014 528.513 23.4326 527.065 19.6289C525.6 23.6738 522.594 26.9209 518.753 28.4609L517.157 26.1973C522.167 24.2676 525.544 19.4062 525.544 14.2109V10.9082H528.513V14.2109ZM566.327 12.0215V27.1992H551.075V12.0215H566.327ZM553.933 14.3965V24.8613H563.507V14.3965H553.933ZM575.456 9.01562V19.0723H580.429V21.5215H575.456V33.2109H572.562V9.01562H575.456ZM576.978 38.8516V41.3008H554.823V30.9102H557.681V38.8516H576.978ZM593.306 11.4277C598.501 11.4277 602.175 14.582 602.175 19.1836C602.175 23.7852 598.501 26.9395 593.306 26.9395C588.11 26.9395 584.362 23.7852 584.399 19.1836C584.362 14.582 588.11 11.4277 593.306 11.4277ZM593.306 13.9883C589.78 13.9883 587.22 16.1035 587.257 19.1836C587.22 22.2637 589.78 24.3789 593.306 24.3789C596.794 24.3789 599.317 22.2637 599.317 19.1836C599.317 16.1035 596.794 13.9883 593.306 13.9883ZM609.56 9.01562V42.0801H606.665V9.01562H609.56ZM582.692 32.3203C588.778 32.3203 597.165 32.2832 604.476 31.207L604.698 33.3594C597.165 34.7695 589.038 34.8066 583.101 34.8066L582.692 32.3203ZM652.903 9.05273V26.6797H650.12V9.05273H652.903ZM646.483 9.68359V26.3457H643.663V18.8867H638.69V16.5117H643.663V9.68359H646.483ZM634.646 14.582C634.646 18.0703 637.095 21.8555 641.251 23.4512L639.804 25.7148C636.668 24.4717 634.46 22.0781 633.31 19.2578C632.141 22.375 629.821 25.0654 626.556 26.4199L625.071 24.1934C629.302 22.4492 631.825 18.4043 631.825 14.582V13.5059H625.665V11.0938H640.472V13.5059H634.646V14.582ZM652.903 28.127V35.7344H633.978V39.2227H654.239V41.5605H631.083V33.5078H650.046V30.4648H631.009V28.127H652.903ZM687.935 35.4746V37.9238H657.728V35.4746H671.31V29.2402H661.513V19.0723H681.255V13.877H661.438V11.4648H684.112V21.4473H664.407V26.8281H684.892V29.2402H674.167V35.4746H687.935ZM718.772 9.01562V42.0059H715.989V9.01562H718.772ZM712.093 9.83203V40.2988H709.347V23.3027H703.78V20.9277H709.347V9.83203H712.093ZM700.255 18.4414C700.255 24.1562 702.815 29.834 707.38 32.4688L705.599 34.6211C702.352 32.6729 700.051 29.1104 698.919 24.8984C697.713 29.4443 695.319 33.3223 692.017 35.4004L690.161 33.2109C694.763 30.4648 697.435 24.4531 697.435 18.4414V15.3242H691.089V12.9121H706.304V15.3242H700.255V18.4414ZM750.649 9.01562V42.0801H747.755V9.01562H750.649ZM740.63 12.0957V23.8223H728.31V31.6152C733.783 31.6152 738.663 31.374 744.563 30.4277L744.86 32.877C738.774 33.8418 733.765 34.0645 728.087 34.0645H725.341V21.4473H737.698V14.5078H725.267V12.0957H740.63ZM786.423 24.3418V26.6426H756.216V24.3418H786.423ZM782.638 29.2773V36.291H762.821V39.4453H783.714V41.5605H759.89V34.2871H779.743V31.4668H759.853V29.2773H782.638ZM782.526 10.0176V16.8457H763.044V19.7402H783.12V21.8555H760.149V14.8418H779.595V12.1328H760.038V10.0176H782.526ZM824.868 10.3887V12.5039C824.868 14.6562 824.868 17.1797 824.237 20.3711L821.343 20.0742C821.955 17.0498 821.974 14.8047 821.974 12.7637H802.231V10.3887H824.868ZM828.69 22.1895V24.5645H798.669V22.1895H811.101V16.4746H813.958V22.1895H828.69ZM824.979 27.6445V35.4746H805.2V39.2598H825.833V41.6348H802.269V33.3965H822.085V30.0195H802.231V27.6445H824.979ZM857.005 9.01562V22.1523H862.534V24.6016H857.005V42.0801H854.11V9.01562H857.005ZM847.765 12.0957V23.8965H835.741V31.6152C841.864 31.6152 846.132 31.4111 851.142 30.4648L851.438 32.877C846.243 33.8418 841.827 34.0645 835.481 34.1016H832.847V21.4844H844.87V14.5078H832.772V12.0957H847.765ZM894.522 35.3633V37.7754H864.315V35.3633H877.897V28.2383H867.878V11.3535H870.81V17.3281H887.954V11.3535H890.812V28.2383H880.755V35.3633H894.522ZM870.81 25.8633H887.954V19.7031H870.81V25.8633ZM906.954 18.4043C906.954 23.6367 909.515 29.3145 913.894 31.9121L912.224 34.1758C909.051 32.2461 906.769 28.7207 905.618 24.7129C904.394 29.0918 901.944 32.8584 898.642 34.8809L896.786 32.6914C901.351 30.0195 904.134 24.1562 904.134 18.5156V12.1328H906.954V18.4043ZM925.435 9.01562V42.0059H922.614V9.01562H925.435ZM918.606 9.7207V40.3359H915.86V23.3398H910.257V20.8535H915.86V9.7207H918.606ZM960.206 35.3262V37.7754H929.999V35.3262H937.495V26.4199C934.675 24.9541 932.968 22.5791 932.968 19.5918C932.968 14.4707 937.978 11.1309 945.028 11.0938C952.079 11.1309 957.089 14.4707 957.089 19.5918C957.089 22.5234 955.438 24.8799 952.71 26.3457V35.3262H960.206ZM945.028 13.5059C939.61 13.4688 935.788 15.918 935.788 19.5918C935.788 23.2656 939.61 25.752 945.028 25.752C950.409 25.752 954.269 23.2656 954.269 19.5918C954.269 15.918 950.409 13.4688 945.028 13.5059ZM940.353 35.3262H949.778V27.459C948.35 27.8486 946.754 28.0527 945.028 28.0527C943.34 28.0527 941.763 27.8672 940.353 27.4961V35.3262ZM968.185 12.1328L967.925 31.4297H964.808L964.548 12.1328H968.185ZM966.366 39.2227C965.067 39.2227 963.954 38.1465 963.991 36.8105C963.954 35.5117 965.067 34.4355 966.366 34.4355C967.665 34.4355 968.741 35.5117 968.741 36.8105C968.741 38.1465 967.665 39.2227 966.366 39.2227Z" fill="#333333"/>
<path d="M130.979 58.6816V76.2715H126.488V58.6816H130.979ZM124.262 59.2754V76.0488H119.771V69.6289H116.172V65.8809H119.771V59.2754H124.262ZM112.609 64.4336C112.609 67.6992 114.465 70.9277 118.732 72.4121L116.506 76.0488C113.537 75.0283 111.533 73.0801 110.383 70.668C109.121 73.2842 107.006 75.3994 103.889 76.4941L101.588 72.9688C106.041 71.373 108.008 67.8477 108.008 64.4336V64.3223H102.627V60.6113H117.656V64.3223H112.609V64.4336ZM130.979 77.4961V86.3652H112.609V88.4062H132.129V92.043H107.896V82.9512H126.303V81.1328H107.859V77.4961H130.979ZM165.713 84.7695V88.666H134.801V84.7695H147.826V79.6855H138.363V68.3301H157.475V64.6191H138.326V60.834H162.15V72.041H143.113V75.8262H162.93V79.6855H152.539V84.7695H165.713ZM196.848 58.6445V92.4141H192.357V58.6445H196.848ZM189.945 59.2012V90.8555H185.492V74.0449H181.039V70.2227H185.492V59.2012H189.945ZM178.33 67.6992C178.33 73.3027 180.074 78.9805 185.01 81.8008L182.227 85.2891C179.221 83.5078 177.235 80.4834 176.104 76.8652C174.935 80.7988 172.894 84.1387 169.795 86.0312L166.938 82.543C171.91 79.5 173.766 73.4141 173.766 67.6992V65.8809H168.236V62.0957H183.451V65.8809H178.33V67.6992ZM228.799 58.6445V92.4883H224.086V58.6445H228.799ZM218.334 61.4648V74.4902H207.201V80.6875C212.341 80.6689 216.72 80.3721 221.674 79.5742L222.082 83.3965C216.516 84.3613 211.506 84.584 205.346 84.584H202.303V70.7422H213.51V65.2871H202.266V61.4648H218.334ZM243.383 60.6484C248.578 60.6484 252.623 64.0625 252.66 68.9238C252.623 73.0059 249.784 76.0674 245.795 76.9395V81.541C248.467 81.4297 251.12 81.207 253.625 80.873L253.959 84.3613C246.908 85.6973 239.301 85.6973 233.549 85.623L232.918 81.8008C235.349 81.7822 238.15 81.7822 241.082 81.7266V76.9766C236.944 76.1416 234.105 73.0615 234.105 68.9238C234.105 64.0625 238.039 60.6484 243.383 60.6484ZM243.383 64.6562C240.711 64.6562 238.707 66.2148 238.744 68.9238C238.707 71.5957 240.711 73.1914 243.383 73.1914C245.98 73.1914 247.984 71.5957 247.984 68.9238C247.984 66.2148 245.98 64.6562 243.383 64.6562ZM260.156 58.6445V71.8926H264.758V75.8633H260.156V92.4141H255.406V58.6445H260.156ZM301.719 58.6445V66.957H306.283V70.9277H301.719V79.0176H296.969V58.6445H301.719ZM301.719 80.502V92.043H279.639V80.502H301.719ZM284.314 84.2129V88.2578H297.043V84.2129H284.314ZM294.965 61.6875V65.4355H274.926V61.6875H282.607V58.459H287.32V61.6875H294.965ZM284.945 66.4746C289.844 66.4746 293.258 68.9609 293.258 72.5234C293.258 76.1973 289.844 78.6465 284.945 78.6465C279.973 78.6465 276.559 76.1973 276.559 72.5234C276.559 68.9609 279.973 66.4746 284.945 66.4746ZM284.945 70.0371C282.682 70.0371 281.16 70.9277 281.197 72.5234C281.16 74.2305 282.682 75.1582 284.945 75.1582C287.209 75.1582 288.768 74.2305 288.768 72.5234C288.768 70.9277 287.209 70.0371 284.945 70.0371ZM316.08 62.5039C316.043 70.9277 315.227 78.498 310.922 85.1777L307.248 83.248C310.718 77.9971 311.757 72.876 311.998 66.3262H308.361V62.5039H316.08ZM323.65 62.5039C323.632 65.4727 323.576 68.4229 323.316 71.2988H326.211V59.3867H330.664V90.9297H326.211V75.1211H322.834C322.11 79.2588 320.83 83.2295 318.492 86.8848L314.893 84.8809C318.659 79.1289 319.438 73.1729 319.605 66.3262H317.045V62.5039H323.65ZM337.307 58.6445V92.4141H332.779V58.6445H337.307ZM367.254 58.6445V71.4102H372.227V75.3066H367.254V92.4883H362.578V58.6445H367.254ZM357.605 61.4648V74.5645H346.732V80.6875C351.649 80.6689 355.713 80.4463 360.203 79.6855L360.611 83.4707C355.453 84.3984 350.814 84.6211 344.877 84.6211H342.02V70.8164H352.893V65.2871H341.982V61.4648H357.605ZM390.893 61.3906V63.9512H397.201V58.6816H401.914V83.248H397.201V74.9727H390.893V77.8301H374.861V61.3906H390.893ZM379.574 65.1387V74.1562H386.254V65.1387H379.574ZM402.619 88.0352V91.8203H379.426V80.9102H384.213V88.0352H402.619ZM390.893 71.2246H397.201V67.7734H390.893V71.2246ZM444.33 58.6445V92.4141H439.803V75.3809H436.76V90.8555H432.27V59.127H436.76V71.5215H439.803V58.6445H444.33ZM429.449 62.1328V83.916H416.016V62.1328H429.449ZM420.432 65.8809V80.2051H425.033V65.8809H420.432ZM457.504 59.6465C462.625 59.6465 466.521 62.8379 466.521 67.3652C466.521 71.8184 462.625 75.0469 457.504 75.0469C452.271 75.0469 448.412 71.8184 448.412 67.3652C448.412 62.8379 452.271 59.6465 457.504 59.6465ZM457.504 63.5059C454.906 63.5059 452.977 64.916 453.014 67.3652C452.977 69.7773 454.906 71.2246 457.504 71.2246C460.064 71.2246 461.957 69.7773 461.957 67.3652C461.957 64.916 460.064 63.5059 457.504 63.5059ZM476.17 58.6445V75.5664H471.42V58.6445H476.17ZM476.17 76.9766V86.1426H458.209V88.332H477.098V92.043H453.57V82.6914H471.457V80.6133H453.496V76.9766H476.17ZM509.012 58.6445V92.4883H504.225V58.6445H509.012ZM490.68 61.0195C495.764 61.0195 499.549 65.6953 499.549 73.043C499.549 80.4648 495.764 85.1035 490.68 85.1035C485.484 85.1035 481.699 80.4648 481.736 73.043C481.699 65.6953 485.484 61.0195 490.68 61.0195ZM490.68 65.2871C488.045 65.2871 486.301 68.0332 486.301 73.043C486.301 78.0898 488.045 80.7988 490.68 80.7988C493.24 80.7988 494.984 78.0898 494.984 73.043C494.984 68.0332 493.24 65.2871 490.68 65.2871ZM539.33 61.6133V65.4727H528.717V80.4648C533.634 80.4092 537.178 80.1865 541.148 79.4629L541.631 83.2852C536.992 84.1758 532.91 84.3613 526.676 84.3242H523.93V61.6133H539.33ZM550.871 58.6445V92.4883H546.158V74.1934H537.66V70.334H546.158V58.6445H550.871ZM592.396 58.6816V83.3594H587.684V72.3379H581.635V68.4414H587.684V58.6816H592.396ZM581.932 61.168C581.932 70.2227 576.18 76.9023 566.309 79.9824L564.379 76.2344C571.374 74.0449 575.883 70.0186 576.773 65.0273H566.123V61.168H581.932ZM593.25 88.0352V91.8203H570.131V80.873H574.955V88.0352H593.25ZM623.568 58.6445V66.5859H628.133V70.4453H623.568V78.2383H618.818V58.6445H623.568ZM614.143 60.8711C614.18 69.8887 608.502 76.1973 598.445 78.9805L596.553 75.1582C603.993 73.1729 608.261 69.3506 608.984 64.6562H598.148V60.8711H614.143ZM612.547 78.6465C619.412 78.6465 623.939 81.3184 623.939 85.5488C623.939 89.8164 619.412 92.4512 612.547 92.4512C605.682 92.4512 601.08 89.8164 601.117 85.5488C601.08 81.3184 605.682 78.6465 612.547 78.6465ZM612.547 82.3203C608.279 82.3203 605.756 83.4707 605.793 85.5488C605.756 87.5898 608.279 88.7773 612.547 88.7402C616.74 88.7773 619.264 87.5898 619.264 85.5488C619.264 83.4707 616.74 82.3203 612.547 82.3203ZM656.262 58.6445V71.8555H661.234V75.752H656.262V92.4141H651.586V58.6445H656.262ZM649.285 63.6914V67.4766H629.432V63.6914H637.076V59.1641H641.826V63.6914H649.285ZM639.451 69.3691C644.387 69.3691 648.061 72.709 648.061 77.4219C648.061 82.1348 644.387 85.4746 639.451 85.4746C634.479 85.4746 630.805 82.1348 630.805 77.4219C630.805 72.709 634.479 69.3691 639.451 69.3691ZM639.451 73.1914C637.076 73.2285 635.332 74.8242 635.332 77.4219C635.332 80.0566 637.076 81.6152 639.451 81.5781C641.826 81.6152 643.533 80.0566 643.533 77.4219C643.533 74.8242 641.826 73.2285 639.451 73.1914ZM690.291 61.5762V64.7676C690.291 68.998 690.291 73.748 688.918 80.9102L684.168 80.4277C685.448 74.0449 685.504 69.2949 685.541 65.3242H665.65V61.5762H690.291ZM693.26 84.4355V88.2949H662.459V84.4355H673.48V72.8203H678.193V84.4355H693.26ZM721.129 60.9824V76.5684H705.061V60.9824H721.129ZM709.736 64.7305V72.8203H716.453V64.7305H709.736ZM730.852 58.6445V67.0684H735.416V71.002H730.852V80.9473H726.102V58.6445H730.852ZM722.354 80.2051C722.354 83.9531 725.916 87.627 733.115 88.5547L731.26 92.2656C725.972 91.4492 722.112 89.167 720.053 85.9941C717.993 89.167 714.134 91.4492 708.809 92.2656L706.99 88.5547C714.115 87.627 717.678 83.9531 717.678 80.2051V79.3516H722.354V80.2051ZM749.184 80.3164C749.184 83.0439 750.315 85.8457 753.08 87.7012C755.863 85.7344 757.088 82.8213 757.088 80.3164V79.166H761.764V80.3164C761.727 83.8418 763.619 87.1074 768.109 88.4805L765.809 91.9316C762.58 90.8369 760.465 88.7773 759.314 86.1797C758.183 88.7773 756.216 91.041 753.191 92.2285C750 91.0781 748.015 88.8887 746.92 86.291C745.732 88.8145 743.654 90.8555 740.574 91.9316L738.236 88.4805C742.689 86.959 744.545 83.6191 744.582 80.3164V79.166H749.184V80.3164ZM765.178 58.6816V77.7559H760.428V58.6816H765.178ZM746.66 60.3887C751.93 60.3887 755.9 63.7285 755.9 68.5156C755.9 73.2285 751.93 76.5684 746.66 76.5684C741.391 76.5684 737.42 73.2285 737.42 68.5156C737.42 63.7285 741.391 60.3887 746.66 60.3887ZM746.66 64.3594C743.951 64.3594 742.021 65.918 742.059 68.5156C742.021 71.0762 743.951 72.6348 746.66 72.6348C749.295 72.6348 751.225 71.0762 751.225 68.5156C751.225 65.918 749.295 64.3594 746.66 64.3594ZM797.166 67.8477V71.5586H773.564V59.832H778.277V67.8477H797.166ZM800.617 75.1953V78.9062H769.705V75.1953H800.617ZM797.389 87.8867V91.6719H773.268V81.6523H778.018V87.8867H797.389ZM837.986 58.6445V71.8555H842.959V75.752H837.986V92.4141H833.311V58.6445H837.986ZM831.01 63.6914V67.4766H811.156V63.6914H818.801V59.1641H823.551V63.6914H831.01ZM821.176 69.3691C826.111 69.3691 829.785 72.709 829.785 77.4219C829.785 82.1348 826.111 85.4746 821.176 85.4746C816.203 85.4746 812.529 82.1348 812.529 77.4219C812.529 72.709 816.203 69.3691 821.176 69.3691ZM821.176 73.1914C818.801 73.2285 817.057 74.8242 817.057 77.4219C817.057 80.0566 818.801 81.6152 821.176 81.5781C823.551 81.6152 825.258 80.0566 825.258 77.4219C825.258 74.8242 823.551 73.2285 821.176 73.1914ZM871.496 59.6836V69.7402H852.607V72.5605H872.275V76.3457H847.82V66.1777H866.635V63.5059H847.709V59.6836H871.496ZM875.059 78.8691V82.6543H861.922V92.4883H857.172V82.6543H844.146V78.8691H875.059ZM903.67 58.6445V71.5957H908.457V75.4922H903.67V92.3398H898.92V58.6445H903.67ZM894.652 62.0957C894.615 72.1895 890.682 80.9473 879.326 86.5137L876.654 82.877C884.651 78.8691 888.938 73.4883 889.828 65.9551H878.584V62.0957H894.652ZM947.051 58.6816V78.2012H942.227V58.6816H947.051ZM918.662 74.1191C921.297 74.1191 924.34 74.1006 927.494 74.0078V71.373H921.557V60.166H937.922V63.9512H926.307V67.6621H938.107V71.373H932.207V73.8223C934.916 73.7109 937.606 73.5068 940.148 73.1914L940.408 76.4199C933.209 77.6816 925.268 77.7559 919.293 77.8301L918.662 74.1191ZM928.719 79.5742V82.1719H942.375V79.5742H947.051V92.043H924.006V79.5742H928.719ZM928.719 88.2578H942.375V85.6973H928.719V88.2578ZM979.855 58.6445V92.4141H975.143V58.6445H979.855ZM957.961 61.873V80.0195C962.525 79.9639 967.424 79.5371 972.396 78.5723L972.99 82.4688C967.053 83.6934 961.486 84.1016 956.254 84.0645H953.285V61.873H957.961ZM1010.95 58.6445V71.1875H1015.93V75.0469H1010.95V92.4883H1006.2V58.6445H1010.95ZM1001.49 61.7617V65.584H990.357V80.3906C995.256 80.335 999.301 80.1123 1003.79 79.3145L1004.31 83.2852C999.078 84.1758 994.477 84.3242 988.502 84.2871H985.645V61.7617H1001.49ZM1024.83 62.1328L1024.35 80.9473H1019.6L1019.12 62.1328H1024.83ZM1022.01 89.334C1020.27 89.334 1018.86 87.9238 1018.89 86.2168C1018.86 84.5098 1020.27 83.1367 1022.01 83.1367C1023.64 83.1367 1025.09 84.5098 1025.09 86.2168C1025.09 87.9238 1023.64 89.334 1022.01 89.334Z" fill="#458538"/>
<g clip-path="url(#clip0_154_127)">
<path d="M57.6484 60C57.6484 60 59.4348 72.1604 70 80C70 80 59.6645 88.7193 56.5 100C56.5 100 51.4726 84.8124 43 79.1721C43 79.1721 53.1824 72.8331 57.6484 60Z" fill="#BCB5D9"/>
</g>
<g clip-path="url(#clip1_154_127)">
<path d="M1107.65 7C1107.65 7 1109.43 19.1604 1120 27C1120 27 1109.66 35.7193 1106.5 47C1106.5 47 1101.47 31.8124 1093 26.1721C1093 26.1721 1103.18 19.8331 1107.65 7Z" fill="#BCB5D9"/>
</g>
<g clip-path="url(#clip2_154_127)">
<path d="M23.3289 3C23.3289 3 26.1739 22.4567 43 35C43 35 26.5397 48.9508 21.5 67C21.5 67 13.4934 42.6999 0 33.6753C0 33.6753 16.2164 23.533 23.3289 3Z" fill="#BCB5D9"/>
</g>
<g clip-path="url(#clip3_154_127)">
<path d="M1073.33 36C1073.33 36 1076.17 55.4567 1093 68C1093 68 1076.54 81.9508 1071.5 100C1071.5 100 1063.49 75.6999 1050 66.6753C1050 66.6753 1066.22 56.533 1073.33 36Z" fill="#BCB5D9"/>
</g>
<defs>
<clipPath id="clip0_154_127">
<rect width="27" height="40" fill="white" transform="translate(43 60)"/>
</clipPath>
<clipPath id="clip1_154_127">
<rect width="27" height="40" fill="white" transform="translate(1093 7)"/>
</clipPath>
<clipPath id="clip2_154_127">
<rect width="43" height="64" fill="white" transform="translate(0 3)"/>
</clipPath>
<clipPath id="clip3_154_127">
<rect width="43" height="64" fill="white" transform="translate(1050 36)"/>
</clipPath>
</defs>
</svg>
