<svg width="780" height="574" viewBox="0 0 780 574" fill="none" xmlns="http://www.w3.org/2000/svg">
<path d="M287.896 87.44V85.806H261.79V81.854H293.862V91.392H267.756V93.026H294.242V96.978H261.79V87.44H287.896ZM277.37 64.83V69.466H271.404V70.53C271.404 71.2393 271.315 71.898 271.138 72.506L278.586 76.42L275.28 80.524L268.668 76.686C267.756 77.6233 266.654 78.4213 265.362 79.08C264.095 79.7133 262.702 80.1567 261.182 80.41L258.598 76.192C259.839 75.888 260.89 75.5587 261.752 75.204C262.638 74.8493 263.348 74.4567 263.88 74.026C264.437 73.57 264.83 73.0633 265.058 72.506C265.311 71.9233 265.438 71.252 265.438 70.492V69.466H259.7V64.83H277.37ZM280.106 80.144V74.254L277.028 74.938V70.188L280.106 69.504V64.45H285.578V80.144H280.106ZM293.862 80.144H288.352V64.45H293.862V80.144ZM299.933 69.846V65.21H328.699V78.13H305.899V81.816H329.079V86.452H316.919V91.582H329.801V96.218H298.071V91.582H310.953V86.452H299.933V73.494H322.733V69.846H299.933ZM351.477 65.21V69.846H345.511V78.662C345.511 79.7007 345.46 80.6887 345.359 81.626C345.283 82.538 345.156 83.4373 344.979 84.324L352.655 91.544L349.349 95.572L343.079 89.416C342.268 90.784 341.217 91.9873 339.925 93.026C338.658 94.0647 337.113 94.926 335.289 95.61L332.667 91.202C333.908 90.67 334.96 90.0747 335.821 89.416C336.682 88.7573 337.392 87.9467 337.949 86.984C338.506 85.996 338.912 84.8307 339.165 83.488C339.418 82.1453 339.545 80.524 339.545 78.624V69.846H333.807V65.21H351.477ZM354.213 96.218V79.802L348.855 81.664V76.914L354.213 75.052V64.45H359.685V96.218H354.213ZM367.969 96.218H362.459V64.45H367.969V96.218ZM372.672 69.846V65.21H392.014V82.956H378.638V91.202H392.774V95.838H372.672V78.32H386.048V69.846H372.672ZM403.148 96.218H397.182V64.45H403.148V96.218ZM438.057 80.524C438.057 83.412 437.741 85.8567 437.107 87.858C436.499 89.8593 435.689 91.468 434.675 92.684C433.687 93.9253 432.535 94.8247 431.217 95.382C429.925 95.9393 428.595 96.218 427.227 96.218C425.834 96.218 424.479 95.9393 423.161 95.382C421.869 94.8247 420.717 93.9253 419.703 92.684C418.715 91.468 417.917 89.8593 417.309 87.858C416.701 85.8567 416.397 83.412 416.397 80.524C416.397 77.636 416.701 75.204 417.309 73.228C417.917 71.2267 418.715 69.6053 419.703 68.364C420.717 67.1227 421.869 66.2233 423.161 65.666C424.479 65.1087 425.834 64.83 427.227 64.83C428.595 64.83 429.925 65.1087 431.217 65.666C432.535 66.2233 433.687 67.1227 434.675 68.364C435.689 69.6053 436.499 71.2267 437.107 73.228C437.741 75.204 438.057 77.636 438.057 80.524ZM422.325 80.524C422.325 82.6773 422.452 84.4633 422.705 85.882C422.984 87.3007 423.339 88.4407 423.769 89.302C424.225 90.138 424.745 90.7333 425.327 91.088C425.935 91.4173 426.569 91.582 427.227 91.582C427.861 91.582 428.469 91.4173 429.051 91.088C429.659 90.7333 430.179 90.138 430.609 89.302C431.065 88.466 431.42 87.3387 431.673 85.92C431.952 84.476 432.091 82.6647 432.091 80.486C432.091 78.3327 431.952 76.5467 431.673 75.128C431.42 73.7093 431.065 72.582 430.609 71.746C430.179 70.91 429.659 70.3273 429.051 69.998C428.469 69.6433 427.861 69.466 427.227 69.466C426.569 69.466 425.935 69.6433 425.327 69.998C424.745 70.3273 424.225 70.9227 423.769 71.784C423.339 72.62 422.984 73.7473 422.705 75.166C422.452 76.5847 422.325 78.3707 422.325 80.524ZM448.013 96.218H442.047V64.45H448.013V96.218ZM473.034 80.524C473.034 83.412 472.73 85.8567 472.122 87.858C471.514 89.8593 470.716 91.468 469.728 92.684C468.74 93.9253 467.612 94.8247 466.346 95.382C465.104 95.9393 463.85 96.218 462.584 96.218C461.292 96.218 460.012 95.9393 458.746 95.382C457.504 94.8247 456.39 93.9253 455.402 92.684C454.414 91.468 453.616 89.8593 453.008 87.858C452.425 85.8567 452.134 83.412 452.134 80.524C452.134 77.636 452.425 75.204 453.008 73.228C453.616 71.2267 454.414 69.6053 455.402 68.364C456.39 67.1227 457.504 66.2233 458.746 65.666C460.012 65.1087 461.292 64.83 462.584 64.83C463.85 64.83 465.104 65.1087 466.346 65.666C467.612 66.2233 468.74 67.1227 469.728 68.364C470.716 69.6053 471.514 71.2267 472.122 73.228C472.73 75.204 473.034 77.636 473.034 80.524ZM482.61 71.404H485.916V76.04H482.61V83.944H485.916V88.58H482.61V96.218H476.644V64.45H482.61V71.404ZM458.062 80.524C458.062 82.6773 458.188 84.4633 458.442 85.882C458.695 87.3007 459.037 88.4407 459.468 89.302C459.898 90.138 460.38 90.7333 460.912 91.088C461.444 91.4173 462.001 91.582 462.584 91.582C463.141 91.582 463.686 91.4173 464.218 91.088C464.75 90.7333 465.218 90.138 465.624 89.302C466.054 88.466 466.396 87.3387 466.65 85.92C466.928 84.476 467.068 82.6647 467.068 80.486C467.068 78.3327 466.928 76.5467 466.65 75.128C466.396 73.7093 466.054 72.582 465.624 71.746C465.218 70.91 464.75 70.3273 464.218 69.998C463.686 69.6433 463.141 69.466 462.584 69.466C462.001 69.466 461.444 69.6433 460.912 69.998C460.38 70.3273 459.898 70.9227 459.468 71.784C459.037 72.62 458.695 73.7473 458.442 75.166C458.188 76.5847 458.062 78.3707 458.062 80.524ZM502.386 95.838V69.846H489.01V65.21H508.352V95.838H502.386ZM519.486 96.218H513.52V64.45H519.486V96.218Z" fill="#333333"/>
<path d="M189.512 144.156V159.508H188.035V151.914H183.16V150.648H188.035V144.156H189.512ZM183.207 145.773C183.184 151 179.293 155.031 173.48 156.977L172.824 155.781C177.723 154.141 181.215 151 181.59 147.016H173.855V145.773H183.207ZM190.051 163.094V164.336H176.527V157.914H178.027V163.094H190.051ZM209.316 144.156V149.688H212.504V150.93H209.316V156.672H207.84V144.156H209.316ZM203.691 145.727C203.715 150.93 199.918 154.797 193.918 156.578L193.309 155.359C198.418 153.848 201.781 150.824 202.121 146.992H194.176V145.727H203.691ZM202.848 156.906C206.973 156.906 209.551 158.383 209.551 160.844C209.551 163.305 206.973 164.758 202.848 164.758C198.746 164.758 196.121 163.305 196.145 160.844C196.121 158.383 198.746 156.906 202.848 156.906ZM202.848 158.125C199.66 158.125 197.598 159.18 197.598 160.844C197.598 162.484 199.66 163.539 202.848 163.539C206.012 163.539 208.121 162.484 208.121 160.844C208.121 159.18 206.012 158.125 202.848 158.125ZM230.059 144.156V151.141H233.246V152.406H230.059V159.672H228.582V144.156H230.059ZM226.355 146.805V148.047H214.027V146.805H219.465V144.18H220.918V146.805H226.355ZM220.191 149.312C223.121 149.312 225.113 150.812 225.113 153.133C225.113 155.453 223.121 156.93 220.191 156.93C217.215 156.93 215.246 155.453 215.246 153.133C215.246 150.812 217.215 149.312 220.191 149.312ZM220.191 150.508C218.059 150.508 216.629 151.562 216.652 153.133C216.629 154.68 218.059 155.734 220.191 155.711C222.301 155.734 223.707 154.68 223.73 153.133C223.707 151.562 222.301 150.508 220.191 150.508ZM231.066 163.094V164.336H217.262V158.406H218.715V163.094H231.066ZM257.973 144.156V155.289H256.566V144.156H257.973ZM253.988 144.555V155.078H252.559V150.156H249.113V148.938H252.559V144.555H253.988ZM246.488 147.625C246.488 149.852 248.129 152.336 250.73 153.391L249.98 154.539C247.965 153.695 246.512 152.066 245.809 150.227C245.105 152.289 243.582 154.117 241.496 155.055L240.723 153.906C243.324 152.781 245.059 150.086 245.059 147.625V146.734H241.004V145.469H250.309V146.734H246.488V147.625ZM257.973 156.273V160.82H245.902V163.328H258.863V164.523H244.449V159.648H256.543V157.492H244.379V156.273H257.973ZM278.223 144.156V164.852H276.77V144.156H278.223ZM264.16 158.523C267.559 158.523 270.723 158.383 274.59 157.75L274.73 159.016C270.816 159.625 267.652 159.789 264.16 159.789H262.449V152.055H270.488V147.391H262.426V146.125H271.965V153.297H263.973V158.523H264.16ZM300.863 153.859V155.055H281.949V153.859H300.863ZM298.473 156.93V161.172H285.77V163.398H299.176V164.523H284.316V160.07H296.996V158.078H284.27V156.93H298.473ZM298.402 144.859V148.938H285.887V150.977H298.754V152.102H284.434V147.883H296.926V145.961H284.363V144.859H298.402ZM325.543 157.562V164.852H324.066V158.758H311.738V157.562H325.543ZM325.543 144.156V156.32H324.066V150.672H318.887V154.844H309.512V145.703H318.887V149.43H324.066V144.156H325.543ZM310.965 146.945V153.602H317.434V146.945H310.965ZM345.676 146.336V148.422C345.652 150.953 345.652 153.766 344.926 157.844L343.426 157.656C344.176 153.766 344.176 150.906 344.199 148.422V147.578H331.285V146.336H345.676ZM348.09 160.492V161.758H329.246V160.492H336.84V153.016H338.293V160.492H348.09ZM362.504 149.992C362.48 153.602 365.176 157.352 367.988 158.758L367.074 159.953C364.801 158.734 362.727 156.18 361.801 153.203C360.887 156.355 358.766 159.086 356.48 160.352L355.52 159.18C358.379 157.703 361.027 153.742 361.051 149.992V146.008H362.504V149.992ZM371.691 144.156V152.664H375.254V153.977H371.691V164.828H370.215V144.156H371.691ZM393.207 150.602V151.844H379.145V144.906H380.598V150.602H393.207ZM395.41 154.844V156.062H376.496V154.844H395.41ZM393.324 163.047V164.312H379.051V158.312H380.504V163.047H393.324ZM420.535 144.156V155.289H419.129V144.156H420.535ZM416.551 144.555V155.078H415.121V150.156H411.676V148.938H415.121V144.555H416.551ZM409.051 147.625C409.051 149.852 410.691 152.336 413.293 153.391L412.543 154.539C410.527 153.695 409.074 152.066 408.371 150.227C407.668 152.289 406.145 154.117 404.059 155.055L403.285 153.906C405.887 152.781 407.621 150.086 407.621 147.625V146.734H403.566V145.469H412.871V146.734H409.051V147.625ZM420.535 156.273V160.82H408.465V163.328H421.426V164.523H407.012V159.648H419.105V157.492H406.941V156.273H420.535ZM439.707 144.156V152.5H443.27V153.789H439.707V164.852H438.23V144.156H439.707ZM426.254 158.523C430.309 158.523 433.027 158.383 436.238 157.773L436.402 159.016C433.098 159.625 430.379 159.789 426.254 159.789H424.637V152.078H432.465V147.391H424.59V146.125H433.941V153.344H426.113V158.523H426.254ZM467.809 144.156V157.281H466.402V151.188H463.262V156.531H461.879V144.555H463.262V149.969H466.402V144.156H467.809ZM460.965 146.734V147.977H450.207V146.734H454.871V144.297H456.348V146.734H460.965ZM455.598 149.172C458.223 149.195 460.004 150.555 460.027 152.711C460.004 154.844 458.223 156.203 455.598 156.203C452.973 156.203 451.168 154.844 451.191 152.711C451.168 150.555 452.973 149.195 455.598 149.172ZM455.598 150.32C453.77 150.32 452.504 151.305 452.504 152.711C452.504 154.094 453.77 155.055 455.598 155.055C457.426 155.055 458.668 154.094 458.668 152.711C458.668 151.305 457.426 150.32 455.598 150.32ZM461.059 157.68C465.348 157.68 467.926 158.969 467.926 161.242C467.926 163.492 465.348 164.758 461.059 164.758C456.723 164.758 454.168 163.492 454.168 161.242C454.168 158.969 456.723 157.68 461.059 157.68ZM461.059 158.875C457.707 158.852 455.621 159.742 455.645 161.242C455.621 162.695 457.707 163.586 461.059 163.586C464.387 163.586 466.449 162.695 466.473 161.242C466.449 159.742 464.387 158.852 461.059 158.875ZM477.934 147.555C477.934 150.555 480.254 153.156 483.207 154.188L482.363 155.336C480.066 154.457 478.145 152.699 477.254 150.414C476.398 153.004 474.395 154.984 471.91 155.969L471.113 154.75C474.16 153.648 476.48 150.906 476.504 147.602V145.352H477.934V147.555ZM488.105 144.156V156.438H486.629V150.016H481.801V148.773H486.629V144.156H488.105ZM481.309 157.047C485.574 157.07 488.176 158.477 488.176 160.938C488.176 163.375 485.574 164.758 481.309 164.758C477.043 164.758 474.441 163.375 474.465 160.938C474.441 158.477 477.043 157.07 481.309 157.047ZM481.309 158.266C478.004 158.266 475.895 159.273 475.918 160.938C475.895 162.555 478.004 163.562 481.309 163.562C484.613 163.562 486.723 162.555 486.723 160.938C486.723 159.273 484.613 158.266 481.309 158.266ZM503.574 150.25C503.574 153.508 505.402 157.094 508.121 158.664L507.23 159.812C505.191 158.582 503.633 156.262 502.895 153.648C502.145 156.496 500.48 158.957 498.395 160.234L497.41 159.133C500.199 157.539 502.145 153.859 502.168 150.297V146.148H503.574V150.25ZM515.246 144.156V164.828H513.816V144.156H515.246ZM510.98 144.625V163.75H509.574V152.992H505.801V151.703H509.574V144.625H510.98ZM530.902 145.539C534.16 145.539 536.41 147.461 536.434 150.32C536.41 152.957 534.488 154.785 531.629 155.031V158.805C533.773 158.711 535.977 158.535 538.051 158.219L538.168 159.32C533.387 160.188 528.23 160.211 524.48 160.211L524.246 158.945C525.992 158.945 528.02 158.945 530.152 158.875V155.031C527.316 154.773 525.371 152.957 525.371 150.32C525.371 147.461 527.668 145.539 530.902 145.539ZM530.902 146.852C528.535 146.852 526.801 148.281 526.824 150.32C526.801 152.336 528.535 153.812 530.902 153.789C533.27 153.812 534.98 152.336 534.98 150.32C534.98 148.281 533.27 146.852 530.902 146.852ZM540.957 144.156V164.852H539.48V144.156H540.957ZM562.496 144.156V164.828H561.066V144.156H562.496ZM558.348 144.742V163.727H556.918V156.438H552.793V155.195H556.918V151.234H553.145C552.113 154.773 549.781 157.949 545.855 160.305L544.965 159.227C549.559 156.484 551.949 152.488 552.301 148.094H545.785V146.828H553.73C553.73 147.895 553.637 148.961 553.426 149.992H556.918V144.742H558.348ZM582.605 144.156V159.367H581.129V144.156H582.605ZM583.285 163.094V164.336H569.41V157.797H570.887V163.094H583.285ZM571.496 145.656C574.566 145.656 576.84 147.719 576.84 150.672C576.84 153.648 574.566 155.734 571.496 155.711C568.426 155.734 566.129 153.648 566.152 150.672C566.129 147.719 568.426 145.656 571.496 145.656ZM571.496 146.945C569.246 146.945 567.582 148.539 567.582 150.672C567.582 152.828 569.246 154.398 571.496 154.398C573.723 154.398 575.41 152.828 575.41 150.672C575.41 148.539 573.723 146.945 571.496 146.945ZM585.441 164.68H609.441V140.68H585.441V164.68ZM459.148 186.031L459.031 198.148H457.461L457.344 186.031H459.148ZM458.258 203.117C457.555 203.117 456.992 202.555 456.992 201.875C456.992 201.172 457.555 200.609 458.258 200.609C458.938 200.609 459.5 201.172 459.5 201.875C459.5 202.555 458.938 203.117 458.258 203.117ZM202.777 264.156V279.508H201.301V271.914H196.426V270.648H201.301V264.156H202.777ZM196.473 265.773C196.449 271 192.559 275.031 186.746 276.977L186.09 275.781C190.988 274.141 194.48 271 194.855 267.016H187.121V265.773H196.473ZM203.316 283.094V284.336H189.793V277.914H191.293V283.094H203.316ZM222.582 264.156V269.688H225.77V270.93H222.582V276.672H221.105V264.156H222.582ZM216.957 265.727C216.98 270.93 213.184 274.797 207.184 276.578L206.574 275.359C211.684 273.848 215.047 270.824 215.387 266.992H207.441V265.727H216.957ZM216.113 276.906C220.238 276.906 222.816 278.383 222.816 280.844C222.816 283.305 220.238 284.758 216.113 284.758C212.012 284.758 209.387 283.305 209.41 280.844C209.387 278.383 212.012 276.906 216.113 276.906ZM216.113 278.125C212.926 278.125 210.863 279.18 210.863 280.844C210.863 282.484 212.926 283.539 216.113 283.539C219.277 283.539 221.387 282.484 221.387 280.844C221.387 279.18 219.277 278.125 216.113 278.125ZM243.324 264.156V271.141H246.512V272.406H243.324V279.672H241.848V264.156H243.324ZM239.621 266.805V268.047H227.293V266.805H232.73V264.18H234.184V266.805H239.621ZM233.457 269.312C236.387 269.312 238.379 270.812 238.379 273.133C238.379 275.453 236.387 276.93 233.457 276.93C230.48 276.93 228.512 275.453 228.512 273.133C228.512 270.812 230.48 269.312 233.457 269.312ZM233.457 270.508C231.324 270.508 229.895 271.562 229.918 273.133C229.895 274.68 231.324 275.734 233.457 275.711C235.566 275.734 236.973 274.68 236.996 273.133C236.973 271.562 235.566 270.508 233.457 270.508ZM244.332 283.094V284.336H230.527V278.406H231.98V283.094H244.332ZM271.238 264.156V275.289H269.832V264.156H271.238ZM267.254 264.555V275.078H265.824V270.156H262.379V268.938H265.824V264.555H267.254ZM259.754 267.625C259.754 269.852 261.395 272.336 263.996 273.391L263.246 274.539C261.23 273.695 259.777 272.066 259.074 270.227C258.371 272.289 256.848 274.117 254.762 275.055L253.988 273.906C256.59 272.781 258.324 270.086 258.324 267.625V266.734H254.27V265.469H263.574V266.734H259.754V267.625ZM271.238 276.273V280.82H259.168V283.328H272.129V284.523H257.715V279.648H269.809V277.492H257.645V276.273H271.238ZM291.488 264.156V284.852H290.035V264.156H291.488ZM277.426 278.523C280.824 278.523 283.988 278.383 287.855 277.75L287.996 279.016C284.082 279.625 280.918 279.789 277.426 279.789H275.715V272.055H283.754V267.391H275.691V266.125H285.23V273.297H277.238V278.523H277.426ZM314.129 273.859V275.055H295.215V273.859H314.129ZM311.738 276.93V281.172H299.035V283.398H312.441V284.523H297.582V280.07H310.262V278.078H297.535V276.93H311.738ZM311.668 264.859V268.938H299.152V270.977H312.02V272.102H297.699V267.883H310.191V265.961H297.629V264.859H311.668ZM338.809 264.156V279.508H337.332V273.672H331.777C330.828 274.961 329.281 275.734 327.441 275.734C324.348 275.734 322.098 273.625 322.121 270.625C322.098 267.625 324.348 265.516 327.441 265.492C329.258 265.504 330.793 266.277 331.73 267.531H337.332V264.156H338.809ZM339.418 283.094V284.336H325.684V277.867H327.16V283.094H339.418ZM327.441 266.828C325.168 266.852 323.527 268.469 323.527 270.625C323.527 272.805 325.168 274.422 327.441 274.422C329.645 274.422 331.309 272.805 331.309 270.625C331.309 268.469 329.645 266.852 327.441 266.828ZM332.41 268.773C332.621 269.336 332.738 269.957 332.738 270.625C332.738 271.27 332.621 271.879 332.434 272.43H337.332V268.773H332.41ZM358.777 265.539V267.344C358.754 269.312 358.754 271.445 358.168 274.445H361.355V275.711H352.637V284.852H351.184V275.711H342.512V274.445H356.645C357.301 271.469 357.301 269.254 357.301 267.344V266.781H344.949V265.539H358.777ZM379.168 264.156V272.805H382.73V274.07H379.168V284.828H377.691V264.156H379.168ZM375.488 267.555V268.797H363.137V267.555H368.645V264.367H370.121V267.555H375.488ZM369.418 270.695C372.324 270.695 374.41 272.617 374.41 275.383C374.41 278.148 372.324 280.07 369.418 280.07C366.512 280.07 364.402 278.148 364.426 275.383C364.402 272.617 366.512 270.695 369.418 270.695ZM369.418 271.938C367.355 271.961 365.832 273.414 365.832 275.383C365.832 277.352 367.355 278.805 369.418 278.781C371.48 278.805 373.004 277.352 373.004 275.383C373.004 273.414 371.48 271.961 369.418 271.938ZM400.988 264.156V284.828H399.535V264.156H400.988ZM394.895 266.43C394.871 272.266 391.941 277.539 385.145 280.82L384.324 279.602C389.996 276.918 393.031 272.688 393.418 267.648H385.238V266.43H394.895ZM417.348 265.188C420.418 265.188 422.621 266.852 422.621 269.359C422.621 271.867 420.418 273.578 417.348 273.555C414.277 273.578 412.098 271.867 412.121 269.359C412.098 266.852 414.277 265.188 417.348 265.188ZM417.348 266.43C415.145 266.406 413.527 267.672 413.551 269.359C413.527 271.094 415.145 272.312 417.348 272.312C419.598 272.312 421.215 271.094 421.215 269.359C421.215 267.672 419.598 266.406 417.348 266.43ZM427.473 264.156V284.852H426.02V264.156H427.473ZM410.457 275.477C414.395 275.5 419.762 275.406 424.402 274.727L424.52 275.875C422.445 276.238 420.301 276.461 418.215 276.578V284.172H416.738V276.648C414.547 276.766 412.461 276.777 410.668 276.789L410.457 275.477ZM441.723 267.859V269.078H431.223V267.859H435.723V264.789H437.223V267.859H441.723ZM436.473 270.625C439.051 270.648 440.902 272.547 440.902 275.266C440.902 278.008 439.051 279.93 436.473 279.93C433.895 279.93 432.043 278.008 432.043 275.266C432.043 272.547 433.895 270.648 436.473 270.625ZM436.473 271.891C434.668 271.914 433.355 273.367 433.379 275.266C433.355 277.188 434.668 278.641 436.473 278.617C438.254 278.641 439.566 277.188 439.59 275.266C439.566 273.367 438.254 271.914 436.473 271.891ZM448.801 264.156V284.828H447.395V274.211H444.277V283.773H442.895V264.672H444.277V272.969H447.395V264.156H448.801ZM476.691 276.086V277.352H467.902V284.828H466.473V277.352H457.777V276.086H476.691ZM467.199 265.023C471.512 265.023 474.395 266.758 474.395 269.523C474.395 272.266 471.512 274 467.199 274C462.887 274 460.004 272.266 460.004 269.523C460.004 266.758 462.887 265.023 467.199 265.023ZM467.199 266.242C463.824 266.242 461.504 267.555 461.504 269.523C461.504 271.492 463.824 272.781 467.199 272.781C470.551 272.781 472.895 271.492 472.895 269.523C472.895 267.555 470.551 266.242 467.199 266.242ZM488.762 267.062C488.762 270.039 492.887 272.406 496.191 272.922L495.629 274.094C492.57 273.531 489.195 271.773 487.965 269.172C486.711 271.773 483.324 273.531 480.324 274.094L479.738 272.922C483.02 272.406 487.145 270.039 487.145 267.062V266.734H480.348V265.516H495.535V266.734H488.762V267.062ZM497.387 276.039V277.305H488.645V284.805H487.215V277.305H478.543V276.039H497.387ZM507.629 273.977C511.848 273.977 514.168 273.906 516.98 273.367L517.145 274.609C514.262 275.125 511.918 275.219 507.629 275.195H506.105V265.445H515.527V266.734H507.582V269.641H515.176V270.883H507.582V273.977H507.629ZM521.176 277.492V284.523H508.262V277.492H521.176ZM509.691 278.688V283.305H519.699V278.688H509.691ZM521.176 264.156V269.383H524.363V270.648H521.176V276.344H519.699V264.156H521.176ZM542.855 264.156V276.695H541.379V271.773H537.582V270.508H541.379V264.156H542.855ZM542.855 277.867V284.523H529.473V277.867H542.855ZM530.926 279.062V283.305H541.402V279.062H530.926ZM537.863 266.453V267.672H525.816V266.453H531.113V263.945H532.566V266.453H537.863ZM531.84 268.867C534.605 268.867 536.574 270.367 536.574 272.547C536.574 274.75 534.605 276.203 531.84 276.203C529.051 276.203 527.082 274.75 527.082 272.547C527.082 270.367 529.051 268.867 531.84 268.867ZM531.84 270.039C529.871 270.039 528.488 271.094 528.512 272.547C528.488 274.023 529.871 275.031 531.84 275.055C533.785 275.031 535.168 274.023 535.168 272.547C535.168 271.094 533.785 270.039 531.84 270.039ZM571.191 273.906V275.172H562.496V277.562C566.492 277.738 568.848 279.004 568.848 281.172C568.848 283.469 566.199 284.758 561.77 284.758C557.293 284.758 554.645 283.469 554.645 281.172C554.645 279.004 557 277.738 561.02 277.562V275.172H552.348V273.906H571.191ZM561.77 278.758C558.301 278.758 556.145 279.672 556.145 281.172C556.145 282.672 558.301 283.586 561.77 283.586C565.191 283.586 567.371 282.672 567.371 281.172C567.371 279.672 565.191 278.758 561.77 278.758ZM562.684 266.43C562.684 269.031 566.621 270.93 570.066 271.328L569.504 272.5C566.293 272.078 562.883 270.555 561.77 268.141C560.633 270.555 557.246 272.078 554.059 272.5L553.496 271.328C556.871 270.93 560.855 269.055 560.855 266.43V266.359H554.082V265.141H569.504V266.359H562.684V266.43ZM572.176 284.68H596.176V260.68H572.176V284.68ZM168.523 324.68H192.523V300.68H168.523V324.68ZM212.328 314.797V316.062H203.773V320.492H202.273V316.062H193.414V314.797H212.328ZM210.219 323.047V324.336H195.922V318.336H197.375V323.047H210.219ZM202.836 304.719C207.242 304.719 210.078 306.289 210.078 308.844C210.078 311.375 207.242 312.922 202.836 312.922C198.453 312.922 195.594 311.375 195.617 308.844C195.594 306.289 198.453 304.719 202.836 304.719ZM202.836 305.961C199.461 305.961 197.164 307.086 197.164 308.844C197.164 310.555 199.461 311.68 202.836 311.68C206.234 311.68 208.531 310.555 208.531 308.844C208.531 307.086 206.234 305.961 202.836 305.961ZM221 307.508C221 310.438 223.344 313.109 226.273 314.141L225.43 315.336C223.121 314.457 221.199 312.605 220.32 310.297C219.477 312.875 217.52 314.855 215.07 315.852L214.273 314.633C217.273 313.508 219.547 310.766 219.57 307.461V305.188H221V307.508ZM231.219 317.562V324.828H229.742V318.758H217.414V317.562H231.219ZM231.219 304.156V316.344H229.742V309.898H224.914V308.656H229.742V304.156H231.219ZM257.703 304.93V306.172H254.375V311.094H257.656V312.289H250.883V315.078H259.555V316.297H240.711V315.078H249.406V312.289H242.539V311.094H245.844V306.172H242.516V304.93H257.703ZM257.188 318.594V324.828H255.711V319.836H242.797V318.594H257.188ZM247.32 311.094H252.898V306.172H247.32V311.094ZM280.297 314.328V315.57H271.602V317.773C275.586 317.914 277.93 319.145 277.953 321.266C277.93 323.516 275.305 324.758 270.875 324.758C266.398 324.758 263.773 323.516 263.773 321.266C263.773 319.145 266.117 317.914 270.148 317.773V315.57H261.453V314.328H280.297ZM278.445 304.953V306.219H275.117V310.953H278.398V312.195H263.281V310.953H266.586V306.219H263.258V304.953H278.445ZM270.875 318.945C267.406 318.945 265.273 319.812 265.273 321.266C265.273 322.742 267.406 323.609 270.875 323.586C274.297 323.609 276.453 322.742 276.453 321.266C276.453 319.812 274.297 318.945 270.875 318.945ZM268.062 310.953H273.641V306.219H268.062V310.953ZM291.594 304.531C296.141 304.531 298.836 305.797 298.836 308.117C298.836 310.461 296.141 311.75 291.594 311.75C287.047 311.75 284.352 310.461 284.352 308.117C284.352 305.797 287.047 304.531 291.594 304.531ZM291.594 305.68C288.055 305.68 285.875 306.617 285.875 308.117C285.875 309.688 288.055 310.602 291.594 310.602C295.156 310.602 297.336 309.688 297.336 308.117C297.336 306.617 295.156 305.68 291.594 305.68ZM301.039 313.297V314.516H282.195V313.297H301.039ZM298.555 316.484V320.914H286.016V323.352H299.211V324.57H284.586V319.766H297.125V317.656H284.516V316.484H298.555ZM319.133 306.078V315.477H309.688V306.078H319.133ZM311.117 307.32V314.258H317.703V307.32H311.117ZM324.828 304.133V310.555H328.016V311.797H324.828V319.32H323.352V304.133H324.828ZM325.836 323.094V324.336H312.031V317.891H313.484V323.094H325.836ZM348.875 312.547V313.812H345.383V324.828H343.906V304.156H345.383V312.547H348.875ZM331.836 306.195V318.242H331.977C335.094 318.266 338.211 318.031 341.727 317.281L341.914 318.57C338.328 319.297 335.164 319.508 331.977 319.508H330.383V306.195H331.836ZM363.195 310.742C363.195 314.281 366.031 317.867 368.938 319.133L368.094 320.305C365.715 319.191 363.441 316.719 362.469 313.766C361.508 316.871 359.246 319.613 356.938 320.82L356.047 319.648C358.859 318.266 361.695 314.328 361.719 310.742V307.578H356.68V306.312H368.305V307.578H363.195V310.742ZM372.969 304.156V324.828H371.492V304.156H372.969ZM393.008 305.539V307.344C392.984 309.312 392.984 311.445 392.398 314.445H395.586V315.711H386.867V324.852H385.414V315.711H376.742V314.445H390.875C391.531 311.469 391.531 309.254 391.531 307.344V306.781H379.18V305.539H393.008ZM415.133 304.156V324.828H413.703V304.156H415.133ZM411.031 304.625V323.75H409.602V313.602H406.625C406.449 317.609 404.727 320.141 402.172 320.141C399.5 320.141 397.766 317.375 397.766 313.062C397.766 308.727 399.5 305.984 402.172 305.984C404.691 305.984 406.402 308.422 406.602 312.336H409.602V304.625H411.031ZM402.172 307.367C400.344 307.367 399.148 309.641 399.172 313.062C399.148 316.461 400.344 318.758 402.172 318.758C404.023 318.758 405.219 316.461 405.219 313.062C405.219 309.641 404.023 307.367 402.172 307.367ZM428.023 304.484V306.641H438.898V304.484H440.375V311.258H426.547V304.484H428.023ZM428.023 310.062H438.898V307.812H428.023V310.062ZM442.859 313.156V314.422H434.164V316.672H440.375V321.055H427.836V323.352H441.031V324.57H426.406V319.906H438.945V317.844H426.336V316.672H432.688V314.422H424.016V313.156H442.859ZM451.883 309.992C451.859 313.742 454.695 317.539 457.602 318.898L456.688 320.07C454.355 318.898 452.129 316.332 451.156 313.273C450.207 316.484 448.004 319.215 445.648 320.445L444.688 319.203C447.594 317.82 450.406 313.883 450.406 309.992V306.008H451.883V309.992ZM461.727 304.156V324.852H460.25V304.156H461.727ZM472.367 308.68C472.367 311.375 474.641 313.766 477.594 314.68L476.844 315.875C474.5 315.09 472.555 313.414 471.664 311.281C470.797 313.625 468.77 315.418 466.344 316.273L465.594 315.102C468.57 314.141 470.914 311.633 470.914 308.68V308.07H466.086V306.828H470.914V304.062H472.414V306.828H477.195V308.07H472.367V308.68ZM481.602 304.156V309.805H484.789V311.094H481.602V316.742H480.125V304.156H481.602ZM481.602 317.891V324.852H480.125V319.133H468.172V317.891H481.602ZM502.156 304.156V312.805H505.719V314.07H502.156V324.828H500.68V304.156H502.156ZM498.477 307.555V308.797H486.125V307.555H491.633V304.367H493.109V307.555H498.477ZM492.406 310.695C495.312 310.695 497.398 312.617 497.398 315.383C497.398 318.148 495.312 320.07 492.406 320.07C489.5 320.07 487.391 318.148 487.414 315.383C487.391 312.617 489.5 310.695 492.406 310.695ZM492.406 311.938C490.344 311.961 488.82 313.414 488.82 315.383C488.82 317.352 490.344 318.805 492.406 318.781C494.469 318.805 495.992 317.352 495.992 315.383C495.992 313.414 494.469 311.961 492.406 311.938ZM524.609 304.156V324.828H523.18V304.156H524.609ZM520.297 304.742V323.727H518.867V314.023H514.156C512.867 316.438 510.852 318.594 507.969 320.305L507.078 319.227C511.695 316.484 514.086 312.488 514.414 308.094H507.898V306.828H515.867C515.867 308.891 515.504 310.918 514.719 312.805H518.867V304.742H520.297ZM545.844 313.25V314.492H541.156V318.758C543.277 318.688 545.434 318.547 547.438 318.312L547.555 319.414C542.938 320.094 537.852 320.211 533.867 320.211L533.633 318.922C535.484 318.91 537.559 318.887 539.68 318.828V314.492H535.273V306.148H545.75V307.391H536.727V313.25H545.844ZM550.344 304.156V324.852H548.867V304.156H550.344ZM570.945 310.602V311.844H556.883V304.906H558.336V310.602H570.945ZM573.148 314.844V316.062H554.234V314.844H573.148ZM571.062 323.047V324.312H556.789V318.312H558.242V323.047H571.062ZM592.625 304.156V324.828H591.172V304.156H592.625ZM588.453 304.672V323.703H587.023V313.414H582.219V312.148H587.023V304.672H588.453ZM583.625 306.758V308H577.297V318.453C580.555 318.453 582.488 318.324 584.797 317.82L584.961 319.086C582.547 319.602 580.555 319.695 577.133 319.719H575.867V306.758H583.625ZM597.781 323.117C597.078 323.117 596.516 322.555 596.516 321.875C596.516 321.172 597.078 320.609 597.781 320.609C598.461 320.609 599.023 321.172 599.023 321.875C599.023 322.555 598.461 323.117 597.781 323.117ZM603.664 323.117C602.961 323.117 602.398 322.555 602.398 321.875C602.398 321.172 602.961 320.609 603.664 320.609C604.344 320.609 604.906 321.172 604.906 321.875C604.906 322.555 604.344 323.117 603.664 323.117ZM609.547 323.117C608.844 323.117 608.281 322.555 608.281 321.875C608.281 321.172 608.844 320.609 609.547 320.609C610.227 320.609 610.789 321.172 610.789 321.875C610.789 322.555 610.227 323.117 609.547 323.117ZM299.48 390.742C299.48 394.281 302.316 397.867 305.223 399.133L304.379 400.305C302 399.191 299.727 396.719 298.754 393.766C297.793 396.871 295.531 399.613 293.223 400.82L292.332 399.648C295.145 398.266 297.98 394.328 298.004 390.742V387.578H292.965V386.312H304.59V387.578H299.48V390.742ZM309.254 384.156V404.828H307.777V384.156H309.254ZM329.293 385.539V387.344C329.27 389.312 329.27 391.445 328.684 394.445H331.871V395.711H323.152V404.852H321.699V395.711H313.027V394.445H327.16C327.816 391.469 327.816 389.254 327.816 387.344V386.781H315.465V385.539H329.293ZM351.418 384.156V404.828H349.988V384.156H351.418ZM347.316 384.625V403.75H345.887V393.602H342.91C342.734 397.609 341.012 400.141 338.457 400.141C335.785 400.141 334.051 397.375 334.051 393.062C334.051 388.727 335.785 385.984 338.457 385.984C340.977 385.984 342.688 388.422 342.887 392.336H345.887V384.625H347.316ZM338.457 387.367C336.629 387.367 335.434 389.641 335.457 393.062C335.434 396.461 336.629 398.758 338.457 398.758C340.309 398.758 341.504 396.461 341.504 393.062C341.504 389.641 340.309 387.367 338.457 387.367ZM370.449 386.266V391.844H375.887V384.156H377.34V404.852H375.887V393.086H370.449V399.531H361.168V386.266H370.449ZM362.621 387.461V398.312H368.996V387.461H362.621ZM399.934 396.32V397.562H391.145V404.805H389.715V397.562H381.02V396.32H399.934ZM397.426 385.328V393.297H383.527V385.328H397.426ZM384.98 386.57V392.125H395.973V386.57H384.98ZM420.723 400.867V402.133H401.785V400.867H420.723ZM418.262 385.797V391.844H405.676V395.57H418.754V396.789H404.223V390.602H416.809V387.039H404.152V385.797H418.262ZM439.215 390.602V391.844H425.152V384.906H426.605V390.602H439.215ZM441.418 394.844V396.062H422.504V394.844H441.418ZM439.332 403.047V404.312H425.059V398.312H426.512V403.047H439.332ZM467.902 394.516V395.734H449.059V394.516H457.754V391.891H451.473V385.141H465.535V386.336H452.926V390.648H465.676V391.891H459.184V394.516H467.902ZM458.48 397.398C462.887 397.398 465.559 398.734 465.559 401.078C465.559 403.469 462.887 404.781 458.48 404.805C454.027 404.781 451.355 403.469 451.355 401.078C451.355 398.734 454.027 397.398 458.48 397.398ZM458.48 398.57C455.012 398.594 452.855 399.531 452.855 401.078C452.855 402.648 455.012 403.586 458.48 403.586C461.902 403.586 464.082 402.648 464.082 401.078C464.082 399.531 461.902 398.594 458.48 398.57ZM485.902 384.133V390.555H489.09V391.82H485.902V399.461H484.426V384.133H485.902ZM486.91 403.094V404.336H473.105V397.867H474.559V403.094H486.91ZM475.637 385.656C478.684 385.656 480.957 387.719 480.98 390.672C480.957 393.648 478.684 395.734 475.637 395.734C472.566 395.734 470.27 393.648 470.27 390.672C470.27 387.719 472.566 385.656 475.637 385.656ZM475.637 386.945C473.41 386.945 471.699 388.539 471.723 390.672C471.699 392.828 473.41 394.422 475.637 394.422C477.863 394.422 479.527 392.828 479.551 390.672C479.527 388.539 477.863 386.945 475.637 386.945ZM162.922 430.742C162.922 434.094 165.547 437.75 168.406 439.133L167.539 440.305C165.242 439.145 163.145 436.613 162.219 433.742C161.27 436.848 159.02 439.613 156.758 440.82L155.844 439.648C158.656 438.242 161.469 434.305 161.492 430.742V427.578H156.57V426.312H167.75V427.578H162.922V430.742ZM172.062 424.156V432.664H175.625V433.93H172.062V444.828H170.586V424.156H172.062ZM193.883 424.156V439.344H192.406V424.156H193.883ZM194.562 443.094V444.336H180.688V437.961H182.164V443.094H194.562ZM184.016 427.414C183.992 430.719 186.383 433.602 189.359 434.727L188.562 435.922C186.172 434.949 184.191 432.98 183.289 430.438C182.41 433.133 180.43 435.277 178.039 436.297L177.195 435.125C180.195 433.906 182.516 430.836 182.539 427.414V425.305H184.016V427.414ZM216.477 433.016V434.258H197.633V433.016H216.477ZM214.227 429.922V431.164H200.211V424.953H213.992V426.172H201.688V429.922H214.227ZM213.992 436.297V440.914H201.453V443.328H214.648V444.547H200.023V439.742H212.562V437.492H199.953V436.297H213.992ZM235.344 424.156V444.852H233.867V424.156H235.344ZM224.422 425.797C227.469 425.797 229.648 428.586 229.648 432.945C229.648 437.305 227.469 440.094 224.422 440.094C221.352 440.094 219.195 437.305 219.195 432.945C219.195 428.586 221.352 425.797 224.422 425.797ZM224.422 427.109C222.195 427.109 220.625 429.5 220.625 432.945C220.625 436.414 222.195 438.781 224.422 438.781C226.648 438.781 228.195 436.414 228.195 432.945C228.195 429.5 226.648 427.109 224.422 427.109ZM263.75 433.109V434.328H244.906V433.109H263.75ZM261.266 436.484V440.961H248.727V443.352H261.922V444.57H247.297V439.812H259.836V437.656H247.227V436.484H261.266ZM262.062 425V426.219H255.148C255.148 428.715 259.191 430.414 262.695 430.742L262.18 431.914C258.969 431.562 255.547 430.215 254.352 428C253.109 430.215 249.699 431.562 246.5 431.914L245.984 430.742C249.441 430.414 253.484 428.715 253.508 426.219H246.641V425H262.062ZM276.102 426.43C276.102 427.625 275.984 428.797 275.75 429.945H281.211V424.109H282.664V444.805H281.211V436.695H275.094V435.43H281.211V431.164H275.422C274.227 435.008 271.449 438.406 266.539 440.797L265.742 439.578C271.426 436.859 274.297 432.605 274.648 427.648H266.609V426.43H276.102ZM309.219 437.562V444.852H307.742V438.758H295.414V437.562H309.219ZM309.219 424.156V436.32H307.742V430.672H302.562V434.844H293.188V425.703H302.562V429.43H307.742V424.156H309.219ZM294.641 426.945V433.602H301.109V426.945H294.641ZM315.641 434.867C319.508 434.867 321.992 434.75 324.898 434.164L325.086 435.43C322.086 435.969 319.578 436.133 315.641 436.133H314.094V425.961H323.656V427.227H315.57V434.867H315.641ZM329.961 424.156V439.273H328.484V431.234H322.273V430.016H328.484V424.156H329.961ZM330.547 443.258V444.5H316.789V438.172H318.266V443.258H330.547ZM356.938 424.156V435.289H355.531V424.156H356.938ZM352.953 424.555V435.078H351.523V430.156H348.078V428.938H351.523V424.555H352.953ZM345.453 427.625C345.453 429.852 347.094 432.336 349.695 433.391L348.945 434.539C346.93 433.695 345.477 432.066 344.773 430.227C344.07 432.289 342.547 434.117 340.461 435.055L339.688 433.906C342.289 432.781 344.023 430.086 344.023 427.625V426.734H339.969V425.469H349.273V426.734H345.453V427.625ZM356.938 436.273V440.82H344.867V443.328H357.828V444.523H343.414V439.648H355.508V437.492H343.344V436.273H356.938ZM377.188 424.156V444.852H375.734V424.156H377.188ZM363.125 438.523C366.523 438.523 369.688 438.383 373.555 437.75L373.695 439.016C369.781 439.625 366.617 439.789 363.125 439.789H361.414V432.055H369.453V427.391H361.391V426.125H370.93V433.297H362.938V438.523H363.125ZM399.828 433.859V435.055H380.914V433.859H399.828ZM397.438 436.93V441.172H384.734V443.398H398.141V444.523H383.281V440.07H395.961V438.078H383.234V436.93H397.438ZM397.367 424.859V428.938H384.852V430.977H397.719V432.102H383.398V427.883H395.891V425.961H383.328V424.859H397.367ZM417.875 426.078V435.477H408.43V426.078H417.875ZM409.859 427.32V434.258H416.445V427.32H409.859ZM423.57 424.133V430.555H426.758V431.797H423.57V439.32H422.094V424.133H423.57ZM424.578 443.094V444.336H410.773V437.891H412.227V443.094H424.578ZM447.055 433.016V434.258H428.211V433.016H447.055ZM444.805 429.922V431.164H430.789V424.953H444.57V426.172H432.266V429.922H444.805ZM444.57 436.297V440.914H432.031V443.328H445.227V444.547H430.602V439.742H443.141V437.492H430.531V436.297H444.57ZM454.461 425.797C457.285 425.797 459.301 428.27 459.547 432.195H464.539V424.156H465.992V444.852H464.539V433.414H459.57C459.395 437.504 457.355 440.094 454.461 440.094C451.438 440.094 449.328 437.305 449.352 432.945C449.328 428.586 451.438 425.797 454.461 425.797ZM454.461 427.109C452.258 427.109 450.758 429.5 450.758 432.945C450.758 436.414 452.258 438.781 454.461 438.781C456.641 438.781 458.164 436.414 458.164 432.945C458.164 429.5 456.641 427.109 454.461 427.109ZM494.891 432.547V433.812H491.398V444.828H489.922V424.156H491.398V432.547H494.891ZM477.852 426.195V438.242H477.992C481.109 438.266 484.227 438.031 487.742 437.281L487.93 438.57C484.344 439.297 481.18 439.508 477.992 439.508H476.398V426.195H477.852ZM512.844 431.281V432.523H498.688V425.234H500.164V431.281H512.844ZM515.164 435.898V437.164H506.328V444.828H504.875V437.164H496.227V435.898H515.164ZM533.961 424.156V444.828H532.508V424.156H533.961ZM527.867 426.43C527.844 432.266 524.914 437.539 518.117 440.82L517.297 439.602C522.969 436.918 526.004 432.688 526.391 427.648H518.211V426.43H527.867ZM550.625 429.992C550.602 433.742 553.438 437.539 556.344 438.898L555.43 440.07C553.098 438.898 550.871 436.332 549.898 433.273C548.949 436.484 546.746 439.215 544.391 440.445L543.43 439.203C546.336 437.82 549.148 433.883 549.148 429.992V426.008H550.625V429.992ZM560.469 424.156V444.852H558.992V424.156H560.469ZM571.039 428.094C571.039 430.953 573.266 433.461 576.219 434.492L575.469 435.664C573.113 434.797 571.215 433.051 570.336 430.836C569.469 433.285 567.465 435.16 565.039 436.086L564.242 434.938C567.242 433.836 569.586 431.188 569.609 428.117V426.922H564.734V425.68H575.844V426.922H571.039V428.094ZM580.344 424.156V429.758H583.531V431.047H580.344V436.602H578.867V424.156H580.344ZM580.344 437.773V444.828H578.867V439.016H566.914V437.773H580.344ZM602.469 424.156V437H601.062V431.211H597.992V436.648H596.586V424.508H597.992V429.969H601.062V424.156H602.469ZM595.625 426.641V427.883H584.867V426.641H589.531V424.227H591.008V426.641H595.625ZM590.258 429.055C592.883 429.055 594.664 430.414 594.688 432.57C594.664 434.703 592.883 436.086 590.258 436.086C587.633 436.086 585.828 434.703 585.852 432.57C585.828 430.414 587.633 429.055 590.258 429.055ZM590.258 430.203C588.43 430.203 587.164 431.141 587.164 432.57C587.164 433.977 588.43 434.938 590.258 434.938C592.086 434.938 593.328 433.977 593.328 432.57C593.328 431.141 592.086 430.203 590.258 430.203ZM592.109 438.406C592.086 440.27 593.152 442.227 595.227 443.281C597.254 442.121 598.367 439.988 598.391 438.406V437.586H599.82V438.406C599.82 440.469 601.531 442.578 604.156 443.422L603.43 444.57C601.332 443.832 599.797 442.355 599.094 440.609C598.473 442.285 597.195 443.938 595.25 444.758C593.234 443.973 591.934 442.426 591.359 440.68C590.598 442.355 589.086 443.82 587.094 444.57L586.344 443.422C588.922 442.531 590.656 440.328 590.656 438.406V437.586H592.109V438.406ZM612.547 435.992V440.891H617.797V435.992H619.273V440.891H624.664V442.133H605.727V440.891H611.094V435.992H612.547ZM615.922 428.047C615.922 431.516 620.492 434.352 623.703 434.891L623.07 436.086C620.117 435.465 616.484 433.391 615.195 430.391C613.859 433.402 610.25 435.512 607.344 436.156L606.711 434.961C609.875 434.398 614.398 431.516 614.398 428.047V427.344H607.297V426.102H623.047V427.344H615.922V428.047ZM629.445 426.031L629.328 438.148H627.758L627.641 426.031H629.445ZM628.555 443.117C627.852 443.117 627.289 442.555 627.289 441.875C627.289 441.172 627.852 440.609 628.555 440.609C629.234 440.609 629.797 441.172 629.797 441.875C629.797 442.555 629.234 443.117 628.555 443.117ZM295.273 505.797V508.352C295.273 511.281 295.273 514.188 294.5 518.594L291.477 518.336C292.273 514.234 292.273 511.188 292.297 508.352V508.188H280.227V505.797H295.273ZM297.664 519.906V522.367H278.211V519.906H297.664ZM316.93 503.828V515.336H313.953V509.922H310.531V507.531H313.953V503.828H316.93ZM317.258 516.367V518.594H302.141V516.367H308.211V514.797H311.211V516.367H317.258ZM309.688 519.203C313.602 519.203 315.852 520.211 315.852 522.156C315.852 524.172 313.602 525.156 309.688 525.156C305.797 525.156 303.57 524.172 303.57 522.156C303.57 520.211 305.797 519.203 309.688 519.203ZM309.688 521.242C307.461 521.242 306.477 521.57 306.477 522.156C306.477 522.859 307.461 523.117 309.688 523.117C311.938 523.117 312.922 522.859 312.922 522.156C312.922 521.57 311.938 521.242 309.688 521.242ZM309.453 504.742V510.508H302.75V512.055C306.078 512.043 308.328 511.949 310.906 511.492L311.164 513.789C308.188 514.281 305.586 514.352 301.508 514.352H299.75V508.422H306.477V506.945H299.727V504.742H309.453ZM338.188 503.828V525.156H335.375V503.828H338.188ZM333.641 504.297V524.219H330.852V514.422H327.359C326.141 516.859 324.16 518.969 321.125 520.727L319.438 518.617C323.738 516.062 325.637 512.957 326.047 508.773H320.609V506.359H329.023C329.012 508.387 328.801 510.297 328.297 512.055H330.852V504.297H333.641ZM354.266 508.656C354.266 512.57 356.047 516.508 359.656 518.031L357.898 520.422C355.461 519.32 353.773 517.199 352.812 514.562C351.84 517.434 350.094 519.754 347.492 520.938L345.688 518.453C349.414 516.883 351.219 512.805 351.242 508.656V505.469H354.266V508.656ZM363.828 503.828V525.203H360.805V503.828H363.828ZM378.828 505.07V507.461H374.586C374.609 509.957 376.086 512.512 379.555 513.625L378.031 515.945C375.664 515.184 374.035 513.66 373.109 511.75C372.16 513.836 370.461 515.488 367.977 516.297L366.383 514C369.91 512.863 371.516 510.133 371.562 507.461H367.203V505.07H378.828ZM383.633 503.828V509.008H386.516V511.492H383.633V516.695H380.633V503.828H383.633ZM383.633 517.609V525.156H380.633V519.977H369.266V517.609H383.633ZM399.898 510.367V512.758H396.078V514.914C397.766 514.832 399.441 514.727 401.023 514.562L401.234 516.695C396.711 517.328 391.883 517.445 387.945 517.445L387.547 515.078C389.258 515.066 391.145 515.055 393.078 515.008V512.758H389.352V505.117H399.711V507.508H392.352V510.367H399.898ZM405.383 503.805V519.883H402.336V503.805H405.383ZM405.945 522.391V524.781H390.852V518.664H393.875V522.391H405.945ZM501.547 506.031L501.242 517.914H498.242L497.938 506.031H501.547ZM499.766 523.211C498.664 523.211 497.773 522.32 497.797 521.242C497.773 520.164 498.664 519.297 499.766 519.297C500.797 519.297 501.711 520.164 501.711 521.242C501.711 522.32 500.797 523.211 499.766 523.211ZM243.207 564.68H267.207V540.68H243.207V564.68ZM513.793 564.68H537.793V540.68H513.793V564.68Z" fill="#333333"/>
<path d="M337.766 193.367V195.734H331.578V200.281H339.898V202.719H320.375V200.281H328.602V195.734H322.672V185.328H337.602V187.719H325.672V193.367H337.766ZM358.508 193.367V195.734H352.32V200.281H360.641V202.719H341.117V200.281H349.344V195.734H343.414V185.328H358.344V187.719H346.414V193.367H358.508ZM432.055 503.852V514.961H429.219V503.852H432.055ZM427.812 504.227V514.82H424.977V510.766H422.703V508.398H424.977V504.227H427.812ZM420.453 507.484C420.453 509.547 421.625 511.586 424.32 512.523L422.914 514.82C421.039 514.176 419.773 512.945 419.047 511.422C418.25 513.074 416.914 514.41 414.945 515.102L413.492 512.875C416.305 511.867 417.547 509.641 417.547 507.484V507.414H414.148V505.07H423.641V507.414H420.453V507.484ZM432.055 515.734V521.336H420.453V522.625H432.781V524.922H417.477V519.18H429.102V518.031H417.453V515.734H432.055ZM453.992 520.328V522.789H434.469V520.328H442.695V517.117H436.719V509.945H448.789V507.602H436.695V505.211H451.742V512.289H439.719V514.68H452.234V517.117H445.672V520.328H453.992ZM473.656 503.828V525.156H470.82V503.828H473.656ZM469.297 504.18V524.172H466.484V513.555H463.672V511.141H466.484V504.18H469.297ZM461.961 509.547C461.961 513.086 463.062 516.672 466.18 518.453L464.422 520.656C462.523 519.531 461.27 517.621 460.555 515.336C459.816 517.82 458.527 519.93 456.57 521.125L454.766 518.922C457.906 517 459.078 513.156 459.078 509.547V508.398H455.586V506.008H465.195V508.398H461.961V509.547ZM493.836 503.828V525.203H490.859V503.828H493.836ZM487.227 505.609V513.836H480.195V517.75C483.441 517.738 486.207 517.551 489.336 517.047L489.594 519.461C486.078 520.07 482.914 520.211 479.023 520.211H477.102V511.469H484.18V508.023H477.078V505.609H487.227ZM276.113 549.641C276.113 553.086 277.871 556.766 281.457 558.266L279.84 560.609C277.32 559.543 275.586 557.422 274.637 554.82C273.664 557.645 271.895 559.988 269.387 561.148L267.676 558.781C271.215 557.211 273.043 553.25 273.043 549.641V548.328H268.52V545.891H280.566V548.328H276.113V549.641ZM285.699 543.828V565.156H282.676V543.828H285.699ZM305.785 544.789V546.5C305.785 548.164 305.785 550.016 305.293 552.453H308.105V554.867H288.582V552.453H302.27C302.738 550.32 302.797 548.668 302.809 547.18H290.973V544.789H305.785ZM305.715 557.117V564.922H290.902V557.117H305.715ZM293.832 559.461V562.531H302.738V559.461H293.832ZM323.129 549.641C323.129 553.086 324.887 556.766 328.473 558.266L326.855 560.609C324.336 559.543 322.602 557.422 321.652 554.82C320.68 557.645 318.91 559.988 316.402 561.148L314.691 558.781C318.23 557.211 320.059 553.25 320.059 549.641V548.328H315.535V545.891H327.582V548.328H323.129V549.641ZM332.715 543.828V565.156H329.691V543.828H332.715ZM352.777 545.07V546.992C352.777 548.984 352.777 551.164 352.238 554.141H355.051V556.555H346.73V565.18H343.73V556.555H335.598V554.141H349.215C349.754 551.387 349.801 549.301 349.801 547.461H337.824V545.07H352.777ZM374.832 543.828V565.156H371.973V543.828H374.832ZM370.379 544.133V564.172H367.566V554.094H365.855C365.574 558.289 363.793 560.82 361.168 560.82C358.355 560.82 356.527 557.867 356.527 553.062C356.527 548.281 358.355 545.352 361.168 545.352C363.734 545.352 365.492 547.742 365.832 551.727H367.566V544.133H370.379ZM361.168 548.164C359.973 548.164 359.27 549.805 359.293 553.062C359.27 556.344 359.973 557.961 361.168 557.938C362.387 557.961 363.113 556.344 363.113 553.062C363.113 549.805 362.387 548.164 361.168 548.164ZM385.145 548.656C385.145 552.664 386.762 556.555 390.324 558.102L388.496 560.492C386.129 559.332 384.547 557.211 383.668 554.586C382.73 557.375 381.09 559.66 378.652 560.867L376.777 558.43C380.434 556.789 382.098 552.664 382.121 548.656V545.469H385.145V548.656ZM395.082 543.828V565.203H392.129V552.945H387.934V550.531H392.129V543.828H395.082ZM414.23 545.586V555.828H403.988V545.586H414.23ZM406.941 547.977V553.484H411.277V547.977H406.941ZM420.277 543.828V549.969H423.16V552.43H420.277V559.391H417.277V543.828H420.277ZM421.051 562.391V564.781H406.449V557.867H409.426V562.391H421.051ZM443.949 551.914V554.352H440.926V565.109H437.926V543.828H440.926V551.914H443.949ZM427.754 545.867V557.422C430.484 557.387 433.414 557.129 436.496 556.508L436.801 558.992C433.238 559.719 429.77 559.906 426.629 559.906H424.777V545.867H427.754ZM464.363 560.234V562.672H444.84V560.234H453.066V556.297H446.902V545.188H449.902V548.492H459.207V545.188H462.184V556.297H456.043V560.234H464.363ZM449.902 553.906H459.207V550.883H449.902V553.906ZM472.426 549.195C472.426 552.641 473.387 556.203 476.293 558.078L474.676 560.398C472.836 559.285 471.664 557.457 470.996 555.266C470.223 557.68 468.945 559.695 467.012 560.867L465.184 558.664C468.348 556.695 469.52 552.945 469.52 549.336V545.656H472.426V549.195ZM484.074 543.828V565.156H481.215V543.828H484.074ZM479.598 544.133V564.172H476.809V553.461H474.043V551.023H476.809V544.133H479.598ZM505.848 560.211V562.672H486.324V560.211H490.684V554.984C489.031 554 488.035 552.488 488.035 550.602C488.035 547.156 491.41 544.859 496.051 544.859C500.668 544.859 504.066 547.156 504.09 550.602C504.078 552.441 503.105 553.941 501.512 554.938V560.211H505.848ZM496.051 547.227C493.004 547.227 490.988 548.445 490.988 550.602C490.988 552.688 493.004 553.977 496.051 553.977C499.074 553.977 501.113 552.688 501.137 550.602C501.113 548.445 499.074 547.227 496.051 547.227ZM493.637 560.211H498.488V556.062C497.727 556.215 496.906 556.297 496.051 556.297C495.195 556.297 494.387 556.227 493.637 556.062V560.211ZM511.918 546.031L511.613 557.914H508.613L508.309 546.031H511.918ZM510.137 563.211C509.035 563.211 508.145 562.32 508.168 561.242C508.145 560.164 509.035 559.297 510.137 559.297C511.168 559.297 512.082 560.164 512.082 561.242C512.082 562.32 511.168 563.211 510.137 563.211Z" fill="#458538"/>
<path d="M384.383 184.836V192.641H378.594V194.82H386.844V197.211H367.391V194.82H375.594V192.641H369.805V184.836H384.383ZM372.734 187.203V190.297H381.453V187.203H372.734ZM384.641 202.391V204.781H369.734V198.594H372.734V202.391H384.641ZM405.125 184.836V192.641H399.336V194.82H407.586V197.211H388.133V194.82H396.336V192.641H390.547V184.836H405.125ZM393.477 187.203V190.297H402.195V187.203H393.477ZM405.383 202.391V204.781H390.477V198.594H393.477V202.391H405.383Z" fill="#D47C20"/>
<path d="M417.828 185.75V190.695H420.781V185.75H423.5V191.609H425.633V184.18H428.445V204.219H425.633V194.047H423.5V200.094H415.016V185.75H417.828ZM417.828 197.656H420.781V193.062H417.828V197.656ZM432.898 183.828V205.156H430.039V183.828H432.898ZM453.031 183.828V205.203H450.055V183.828H453.031ZM446.422 185.609V193.836H439.391V197.75C442.637 197.738 445.402 197.551 448.531 197.047L448.789 199.461C445.273 200.07 442.109 200.211 438.219 200.211H436.297V191.469H443.375V188.023H436.273V185.609H446.422Z" fill="#6B4A97"/>
<g clip-path="url(#clip0_151_118)">
<path d="M201.648 57C201.648 57 203.435 69.1604 214 77C214 77 203.664 85.7193 200.5 97C200.5 97 195.473 81.8124 187 76.1721C187 76.1721 197.182 69.8331 201.648 57Z" fill="#BCB5D9"/>
</g>
<g clip-path="url(#clip1_151_118)">
<path d="M167.329 0C167.329 0 170.174 19.4567 187 32C187 32 170.54 45.9508 165.5 64C165.5 64 157.493 39.6999 144 30.6753C144 30.6753 160.216 20.533 167.329 0Z" fill="#BCB5D9"/>
</g>
<defs>
<clipPath id="clip0_151_118">
<rect width="27" height="40" fill="white" transform="translate(187 57)"/>
</clipPath>
<clipPath id="clip1_151_118">
<rect width="43" height="64" fill="white" transform="translate(144)"/>
</clipPath>
</defs>
</svg>
