<svg width="1920" height="2548" viewBox="0 0 1920 2548" fill="none" xmlns="http://www.w3.org/2000/svg">
<path d="M0 0V2508.66V2513.84C17.6 2530.82 36 2547.06 71.2 2547.06C72.1 2547.06 73 2547.06 73.9 2546.99C74.8 2546.99 75.6 2547.06 76.5 2547.06C149.4 2547.06 150.3 2477.21 221.5 2475.5C292.7 2477.21 293.6 2547.06 366.5 2547.06C367.4 2547.06 368.3 2547.06 369.2 2546.99C370.1 2546.99 371 2547.06 371.9 2547.06C444.8 2547.06 445.7 2477.21 516.9 2475.5C588.1 2477.21 589 2547.06 661.9 2547.06C662.8 2547.06 663.7 2547.06 664.6 2546.99C665.5 2546.99 666.4 2547.06 667.3 2547.06C740.2 2547.06 741.1 2477.21 812.299 2475.5C883.499 2477.21 884.399 2547.06 957.299 2547.06C958.199 2547.06 959.099 2547.06 959.999 2546.99C960.899 2546.99 961.799 2547.06 962.699 2547.06C1035.6 2547.06 1036.5 2477.21 1107.7 2475.5C1178.9 2477.21 1179.8 2547.06 1252.7 2547.06C1253.6 2547.06 1254.5 2547.06 1255.4 2546.99C1256.3 2546.99 1257.2 2547.06 1258.1 2547.06C1331 2547.06 1331.9 2477.21 1403.1 2475.5C1474.3 2477.21 1475.2 2547.06 1548.1 2547.06C1549 2547.06 1549.9 2547.06 1550.8 2546.99C1551.7 2546.99 1552.6 2547.06 1553.5 2547.06C1626.4 2547.06 1627.3 2477.21 1698.5 2475.5C1769.7 2477.21 1770.6 2547.06 1843.5 2547.06C1844.4 2547.06 1845.3 2547.06 1846.1 2546.99C1847 2546.99 1847.9 2547.06 1848.8 2547.06C1883.9 2547.06 1902.4 2530.82 1920 2513.84V2508.66V0H0Z" fill="#FFFCEE"/>
</svg>
